M48
;Layer_Color=9474304
;FILE_FORMAT=4:4
METRIC,LZ
;TYPE=PLATED
T01F00S00C0.3000
T02F00S00C0.8128
T03F00S00C0.8900
T04F00S00C0.9000
T05F00S00C1.1000
T06F00S00C1.5700
T07F00S00C1.7800
T08F00S00C2.0000
;TYPE=NON_PLATED
T09F00S00C3.2500
%
T01
X0094088Y0031252
X009575Y003025
X0084582Y003175
X00835Y0026
X0082Y00255
X007923Y0027316
X007825Y00285
X007525Y0028
X007375Y00285
X0069196Y0029728
X0069958Y0031506
X00635Y0031496
X005825Y00295
Y002775
X005575Y0025
Y002325
Y002075
X005775Y0016
Y00135
X00565Y001075
X0067Y001025
X0067982Y0008546
X0069Y000625
X0070866Y0006096
Y0005334
Y0004572
X0075Y0006
X0080518Y0005842
X0081026Y000508
X008001
X0079756Y0009652
X008375Y001075
X0084Y00085
X008425Y0013
X0083166Y0018806
Y0019822
X0082404Y0019314
Y0018298
X008763Y0018034
X009075Y00205
X007925Y0023
X0078
X007675
X0075
X0076054Y0019568
X007225Y001125
X0068834Y00127
X008825Y000575
X008725Y000425
X0051562Y0008382
Y0009398
X0050546Y0009652
X00508Y000889
X0050038
X0050546Y0008128
X003725Y000875
X00325Y001125
Y001225
Y00135
Y00145
X0037338Y0017018
X0040494Y0021698
X0040532Y002373
X003975Y0029
X003775
X003575
X0030988Y002921
Y0028194
X0028956Y0030734
X0028194Y0030226
X0026924Y0032004
X0025908Y0031242
X0024892Y003048
X0023368Y0030988
X0021844Y0030734
X0019304Y0032258
X001651Y0030226
X0026Y0026
Y002475
X0025908Y0021082
Y002032
X0026924Y001905
X00284763Y00185129
X00302306Y0020997
X0032404Y0024492
X00244704Y0018796
X00233116
X0022223Y00209778
X002032Y0020066
X001905Y0018542
X0020574Y0013208
X001875Y001
X0018Y00105
X00239616Y0009795
X0024Y000625
X00225Y0005
X00205Y00055
X002575Y0005
X002725Y000525
X002925Y0005
X003125Y000475
X0048Y002225
X00475Y00275
X00435Y002825
X0045212Y0032004
X0013462Y0030226
X001016
X0004826Y0028194
X0006Y001075
X00065Y0008
X001Y001
X00115Y0014
X001397Y0018288
X001375Y000475
Y000375
X001325Y0036
X001175Y0037
X001025Y0036
X0009Y003725
X000475Y0038
X0015Y0037
X00165Y0036
X0021844Y0037592
X0031242Y0037338
X0032004Y0034544
X004191Y003429
X004445Y0034544
Y003556
Y0036576
X0045212Y0036068
Y0035052
Y0034036
Y003302
X004445Y0033528
Y0032512
X0045212Y0037084
X0048768Y0037846
Y003937
X0050546Y0039624
X0048768Y0036068
X005425Y0049
X004318Y0050292
X00407004Y00502713
X00406932Y00565415
X0043244Y0056452
X0044196Y006223
X0044958Y0062738
Y0061722
X004064Y006223
X0039878Y0061722
Y0062738
X0036Y0064
Y006525
X0034715Y0062655
X0033Y0062
Y006075
X0029972Y0062484
X003048Y0062992
X0028702Y0065024
X003048Y0067818
X00345Y006775
X005175Y0064
X005325Y006525
X0035814Y0045212
X003Y0043462
X005725Y0046
X005825Y0045
X0059944Y004572
X0058928Y0046736
X005625Y004725
X0055118Y00508
X006075Y00515
X006225Y005
Y005575
X00638101Y00573508
X0065532Y005461
Y0053594
X007275Y005325
X0073406Y0052324
X0074422Y0056896
X00761535Y00561805
X00775Y00585
X007525Y006025
X00745Y006125
X0072898Y0060452
X007225Y005925
X0071Y0056
X00755Y006425
X00735Y006625
X006075Y0065
X00575Y006525
X0057Y006225
X006
X005925Y00615
X0061976Y0061214
X00612605Y00598975
X0058166Y0057658
X00565Y005825
X00555Y00575
Y0038
X0056Y003575
X00635Y0033528
Y0032512
X0071228Y0033284
X0077Y003325
X007775
X00785
X007925
X00835Y003425
X0086106Y003683
X0091186
X009275Y003775
X009144Y0042926
X00915Y00455
X0093306Y0044538
X00876779Y00408461
X0088646Y0051816
X0089408Y0056134
X009025Y00605
X0093
X009075Y0063
X00895Y006525
X0086614Y005969
X0075946Y0048099
X0076Y00455
X007675Y004625
X007525Y004475
X0072644Y0042926
X0071882Y0041656
T02
X0096882Y00343
Y003557
Y003684
T03
X0008528Y0049334
Y0051364
Y0053394
Y0055424
X0010308Y0054414
Y0052384
Y0050354
Y0056444
T04
X0097Y004288
Y004542
Y004796
Y00505
Y005304
Y005558
T05
X0097Y001419
Y001673
Y001927
Y002181
T06
X0009418Y0044754
Y0061014
T07
X0005635Y0014075
Y0020425
T08
X009675Y000325
X000325
Y006675
X009675
T09
X0005988Y0046534
Y0059234
M30
