G04*
G04 #@! TF.GenerationSoftware,Altium Limited,Altium Designer,24.1.2 (44)*
G04*
G04 Layer_Color=16711935*
%FSLAX44Y44*%
%MOMM*%
G71*
G04*
G04 #@! TF.SameCoordinates,BB806972-894B-4990-B732-A97902CF1386*
G04*
G04*
G04 #@! TF.FilePolarity,Negative*
G04*
G01*
G75*
%ADD119C,5.7032*%
%ADD120R,1.9812X1.9812*%
%ADD121C,1.9812*%
%ADD122O,1.5240X1.0160*%
%ADD123R,1.5240X1.0160*%
%ADD124C,1.7032*%
%ADD125R,1.7032X1.7032*%
%ADD126C,3.4532*%
%ADD127C,2.5582*%
%ADD128C,1.6012*%
%ADD129R,1.6012X1.6012*%
%ADD130C,2.7300*%
%ADD131R,2.7300X2.7300*%
D119*
X967500Y32500D02*
D03*
Y667500D02*
D03*
X32500D02*
D03*
Y32500D02*
D03*
D120*
X970000Y141900D02*
D03*
D121*
Y167300D02*
D03*
Y192700D02*
D03*
Y218100D02*
D03*
D122*
X968820Y368400D02*
D03*
Y355700D02*
D03*
D123*
Y343000D02*
D03*
D124*
X970000Y479600D02*
D03*
Y454200D02*
D03*
Y555800D02*
D03*
Y505000D02*
D03*
Y530400D02*
D03*
D125*
Y428800D02*
D03*
D126*
X59880Y465340D02*
D03*
Y592340D02*
D03*
D127*
X94180Y610140D02*
D03*
Y447540D02*
D03*
D128*
X103080Y564440D02*
D03*
Y544140D02*
D03*
Y523840D02*
D03*
Y503540D02*
D03*
X85280Y554240D02*
D03*
Y533940D02*
D03*
Y513640D02*
D03*
D129*
Y493340D02*
D03*
D130*
X56350Y140750D02*
D03*
D131*
Y204250D02*
D03*
M02*
