G04*
G04 #@! TF.GenerationSoftware,Altium Limited,Altium Designer,24.1.2 (44)*
G04*
G04 Layer_Color=255*
%FSLAX44Y44*%
%MOMM*%
G71*
G04*
G04 #@! TF.SameCoordinates,BB806972-894B-4990-B732-A97902CF1386*
G04*
G04*
G04 #@! TF.FilePolarity,Positive*
G04*
G01*
G75*
%ADD118C,1.5000*%
%ADD122O,1.5240X1.0160*%
%ADD123R,1.5240X1.0160*%
%ADD130C,2.7300*%
%ADD131R,2.7300X2.7300*%
%ADD134C,5.5000*%
%ADD135R,1.7780X1.7780*%
%ADD136C,1.7780*%
%ADD137R,1.5000X1.5000*%
%ADD138C,3.2500*%
%ADD139C,2.3550*%
%ADD140C,1.3980*%
%ADD141R,1.3980X1.3980*%
D118*
X970000Y479600D02*
D03*
Y454200D02*
D03*
Y555800D02*
D03*
Y505000D02*
D03*
Y530400D02*
D03*
D122*
X968820Y368400D02*
D03*
Y355700D02*
D03*
D123*
Y343000D02*
D03*
D130*
X56350Y140750D02*
D03*
D131*
Y204250D02*
D03*
D134*
X967500Y32500D02*
D03*
Y667500D02*
D03*
X32500D02*
D03*
Y32500D02*
D03*
D135*
X970000Y141900D02*
D03*
D136*
Y167300D02*
D03*
Y192700D02*
D03*
Y218100D02*
D03*
D137*
Y428800D02*
D03*
D138*
X59880Y465340D02*
D03*
Y592340D02*
D03*
D139*
X94180Y610140D02*
D03*
Y447540D02*
D03*
D140*
X103080Y564440D02*
D03*
Y544140D02*
D03*
Y523840D02*
D03*
Y503540D02*
D03*
X85280Y554240D02*
D03*
Y533940D02*
D03*
Y513640D02*
D03*
D141*
Y493340D02*
D03*
M02*
