G04*
G04 #@! TF.GenerationSoftware,Altium Limited,Altium Designer,24.1.2 (44)*
G04*
G04 Layer_Color=65280*
%FSLAX44Y44*%
%MOMM*%
G71*
G04*
G04 #@! TF.SameCoordinates,BB806972-894B-4990-B732-A97902CF1386*
G04*
G04*
G04 #@! TF.FilePolarity,Positive*
G04*
G01*
G75*
%ADD14C,0.2540*%
%ADD144C,0.3810*%
%ADD145C,0.0254*%
D14*
X1080882Y676575D02*
Y661340D01*
X1091039D01*
X1098656Y671497D02*
X1103735D01*
X1106274Y668958D01*
Y661340D01*
X1098656D01*
X1096117Y663879D01*
X1098656Y666418D01*
X1106274D01*
X1111352Y671497D02*
Y663879D01*
X1113892Y661340D01*
X1121509D01*
Y658801D01*
X1118970Y656262D01*
X1116431D01*
X1121509Y661340D02*
Y671497D01*
X1134205Y661340D02*
X1129127D01*
X1126587Y663879D01*
Y668958D01*
X1129127Y671497D01*
X1134205D01*
X1136744Y668958D01*
Y666418D01*
X1126587D01*
X1141823Y671497D02*
Y661340D01*
Y666418D01*
X1144362Y668958D01*
X1146901Y671497D01*
X1149440D01*
X1088500Y387020D02*
Y402255D01*
X1080882Y394637D01*
X1091039D01*
X1080882Y460676D02*
X1083421Y463215D01*
X1088500D01*
X1091039Y460676D01*
Y458137D01*
X1088500Y455597D01*
X1085960D01*
X1088500D01*
X1091039Y453058D01*
Y450519D01*
X1088500Y447980D01*
X1083421D01*
X1080882Y450519D01*
X1091039Y508940D02*
X1080882D01*
X1091039Y519097D01*
Y521636D01*
X1088500Y524175D01*
X1083421D01*
X1080882Y521636D01*
Y569900D02*
X1085960D01*
X1083421D01*
Y585135D01*
X1080882Y582596D01*
X1185000Y661340D02*
Y676575D01*
X1195157Y661340D01*
Y676575D01*
X1202774Y671497D02*
X1207853D01*
X1210392Y668958D01*
Y661340D01*
X1202774D01*
X1200235Y663879D01*
X1202774Y666418D01*
X1210392D01*
X1215470Y661340D02*
Y671497D01*
X1218009D01*
X1220548Y668958D01*
Y661340D01*
Y668958D01*
X1223088Y671497D01*
X1225627Y668958D01*
Y661340D01*
X1238323D02*
X1233244D01*
X1230705Y663879D01*
Y668958D01*
X1233244Y671497D01*
X1238323D01*
X1240862Y668958D01*
Y666418D01*
X1230705D01*
X1185000Y341295D02*
Y326060D01*
X1192617D01*
X1195157Y328599D01*
Y331138D01*
X1192617Y333677D01*
X1185000D01*
X1192617D01*
X1195157Y336217D01*
Y338756D01*
X1192617Y341295D01*
X1185000D01*
X1202774Y326060D02*
X1207853D01*
X1210392Y328599D01*
Y333677D01*
X1207853Y336217D01*
X1202774D01*
X1200235Y333677D01*
Y328599D01*
X1202774Y326060D01*
X1218009Y338756D02*
Y336217D01*
X1215470D01*
X1220548D01*
X1218009D01*
Y328599D01*
X1220548Y326060D01*
X1230705Y338756D02*
Y336217D01*
X1228166D01*
X1233244D01*
X1230705D01*
Y328599D01*
X1233244Y326060D01*
X1243401D02*
X1248479D01*
X1251019Y328599D01*
Y333677D01*
X1248479Y336217D01*
X1243401D01*
X1240862Y333677D01*
Y328599D01*
X1243401Y326060D01*
X1256097D02*
Y336217D01*
X1258636D01*
X1261175Y333677D01*
Y326060D01*
Y333677D01*
X1263715Y336217D01*
X1266254Y333677D01*
Y326060D01*
X1294185Y341295D02*
X1289106D01*
X1286567Y338756D01*
Y328599D01*
X1289106Y326060D01*
X1294185D01*
X1296724Y328599D01*
Y338756D01*
X1294185Y341295D01*
X1301802Y336217D02*
X1306880Y326060D01*
X1311959Y336217D01*
X1324655Y326060D02*
X1319577D01*
X1317037Y328599D01*
Y333677D01*
X1319577Y336217D01*
X1324655D01*
X1327194Y333677D01*
Y331138D01*
X1317037D01*
X1332272Y336217D02*
Y326060D01*
Y331138D01*
X1334812Y333677D01*
X1337351Y336217D01*
X1339890D01*
X1347507Y326060D02*
X1352586D01*
X1350047D01*
Y341295D01*
X1347507D01*
X1362742Y336217D02*
X1367821D01*
X1370360Y333677D01*
Y326060D01*
X1362742D01*
X1360203Y328599D01*
X1362742Y331138D01*
X1370360D01*
X1375438Y336217D02*
Y328599D01*
X1377978Y326060D01*
X1385595D01*
Y323521D01*
X1383056Y320982D01*
X1380517D01*
X1385595Y326060D02*
Y336217D01*
X1185000Y371775D02*
Y356540D01*
X1192617D01*
X1195157Y359079D01*
Y361618D01*
X1192617Y364157D01*
X1185000D01*
X1192617D01*
X1195157Y366697D01*
Y369236D01*
X1192617Y371775D01*
X1185000D01*
X1202774Y356540D02*
X1207853D01*
X1210392Y359079D01*
Y364157D01*
X1207853Y366697D01*
X1202774D01*
X1200235Y364157D01*
Y359079D01*
X1202774Y356540D01*
X1218009Y369236D02*
Y366697D01*
X1215470D01*
X1220548D01*
X1218009D01*
Y359079D01*
X1220548Y356540D01*
X1230705Y369236D02*
Y366697D01*
X1228166D01*
X1233244D01*
X1230705D01*
Y359079D01*
X1233244Y356540D01*
X1243401D02*
X1248479D01*
X1251019Y359079D01*
Y364157D01*
X1248479Y366697D01*
X1243401D01*
X1240862Y364157D01*
Y359079D01*
X1243401Y356540D01*
X1256097D02*
Y366697D01*
X1258636D01*
X1261175Y364157D01*
Y356540D01*
Y364157D01*
X1263715Y366697D01*
X1266254Y364157D01*
Y356540D01*
X1296724Y369236D02*
X1294185Y371775D01*
X1289106D01*
X1286567Y369236D01*
Y366697D01*
X1289106Y364157D01*
X1294185D01*
X1296724Y361618D01*
Y359079D01*
X1294185Y356540D01*
X1289106D01*
X1286567Y359079D01*
X1304341Y356540D02*
X1309420D01*
X1311959Y359079D01*
Y364157D01*
X1309420Y366697D01*
X1304341D01*
X1301802Y364157D01*
Y359079D01*
X1304341Y356540D01*
X1317037D02*
X1322116D01*
X1319577D01*
Y371775D01*
X1317037D01*
X1339890D02*
Y356540D01*
X1332272D01*
X1329733Y359079D01*
Y364157D01*
X1332272Y366697D01*
X1339890D01*
X1352586Y356540D02*
X1347507D01*
X1344968Y359079D01*
Y364157D01*
X1347507Y366697D01*
X1352586D01*
X1355125Y364157D01*
Y361618D01*
X1344968D01*
X1360203Y366697D02*
Y356540D01*
Y361618D01*
X1362742Y364157D01*
X1365282Y366697D01*
X1367821D01*
X1185000Y402255D02*
Y387020D01*
X1192617D01*
X1195157Y389559D01*
Y392098D01*
X1192617Y394637D01*
X1185000D01*
X1192617D01*
X1195157Y397177D01*
Y399716D01*
X1192617Y402255D01*
X1185000D01*
X1202774Y387020D02*
X1207853D01*
X1210392Y389559D01*
Y394637D01*
X1207853Y397177D01*
X1202774D01*
X1200235Y394637D01*
Y389559D01*
X1202774Y387020D01*
X1218009Y399716D02*
Y397177D01*
X1215470D01*
X1220548D01*
X1218009D01*
Y389559D01*
X1220548Y387020D01*
X1230705Y399716D02*
Y397177D01*
X1228166D01*
X1233244D01*
X1230705D01*
Y389559D01*
X1233244Y387020D01*
X1243401D02*
X1248479D01*
X1251019Y389559D01*
Y394637D01*
X1248479Y397177D01*
X1243401D01*
X1240862Y394637D01*
Y389559D01*
X1243401Y387020D01*
X1256097D02*
Y397177D01*
X1258636D01*
X1261175Y394637D01*
Y387020D01*
Y394637D01*
X1263715Y397177D01*
X1266254Y394637D01*
Y387020D01*
X1286567Y402255D02*
Y387020D01*
X1296724D01*
X1304341Y397177D02*
X1309420D01*
X1311959Y394637D01*
Y387020D01*
X1304341D01*
X1301802Y389559D01*
X1304341Y392098D01*
X1311959D01*
X1317037Y397177D02*
Y389559D01*
X1319577Y387020D01*
X1327194D01*
Y384481D01*
X1324655Y381942D01*
X1322116D01*
X1327194Y387020D02*
Y397177D01*
X1339890Y387020D02*
X1334812D01*
X1332272Y389559D01*
Y394637D01*
X1334812Y397177D01*
X1339890D01*
X1342429Y394637D01*
Y392098D01*
X1332272D01*
X1347507Y397177D02*
Y387020D01*
Y392098D01*
X1350047Y394637D01*
X1352586Y397177D01*
X1355125D01*
X1185000Y432735D02*
Y417500D01*
X1192617D01*
X1195157Y420039D01*
Y430196D01*
X1192617Y432735D01*
X1185000D01*
X1200235Y417500D02*
X1205313D01*
X1202774D01*
Y427657D01*
X1200235D01*
X1220548Y417500D02*
X1215470D01*
X1212931Y420039D01*
Y425117D01*
X1215470Y427657D01*
X1220548D01*
X1223088Y425117D01*
Y422578D01*
X1212931D01*
X1228166Y417500D02*
X1233244D01*
X1230705D01*
Y432735D01*
X1228166D01*
X1248479Y417500D02*
X1243401D01*
X1240862Y420039D01*
Y425117D01*
X1243401Y427657D01*
X1248479D01*
X1251019Y425117D01*
Y422578D01*
X1240862D01*
X1266254Y427657D02*
X1258636D01*
X1256097Y425117D01*
Y420039D01*
X1258636Y417500D01*
X1266254D01*
X1273871Y430196D02*
Y427657D01*
X1271332D01*
X1276410D01*
X1273871D01*
Y420039D01*
X1276410Y417500D01*
X1284028Y427657D02*
Y417500D01*
Y422578D01*
X1286567Y425117D01*
X1289106Y427657D01*
X1291646D01*
X1299263Y417500D02*
X1304341D01*
X1301802D01*
Y427657D01*
X1299263D01*
X1322116D02*
X1314498D01*
X1311959Y425117D01*
Y420039D01*
X1314498Y417500D01*
X1322116D01*
X1342429Y430196D02*
X1344968Y432735D01*
X1350047D01*
X1352586Y430196D01*
Y427657D01*
X1350047Y425117D01*
X1347507D01*
X1350047D01*
X1352586Y422578D01*
Y420039D01*
X1350047Y417500D01*
X1344968D01*
X1342429Y420039D01*
X1185000Y447980D02*
Y463215D01*
X1192617D01*
X1195157Y460676D01*
Y455597D01*
X1192617Y453058D01*
X1185000D01*
X1200235Y463215D02*
Y447980D01*
X1205313Y453058D01*
X1210392Y447980D01*
Y463215D01*
X1215470Y447980D02*
Y463215D01*
X1223088D01*
X1225627Y460676D01*
Y455597D01*
X1223088Y453058D01*
X1215470D01*
X1220548D02*
X1225627Y447980D01*
X1195157Y491156D02*
X1192617Y493695D01*
X1187539D01*
X1185000Y491156D01*
Y480999D01*
X1187539Y478460D01*
X1192617D01*
X1195157Y480999D01*
X1202774Y478460D02*
X1207853D01*
X1210392Y480999D01*
Y486077D01*
X1207853Y488617D01*
X1202774D01*
X1200235Y486077D01*
Y480999D01*
X1202774Y478460D01*
X1215470Y488617D02*
Y478460D01*
Y483538D01*
X1218009Y486077D01*
X1220548Y488617D01*
X1223088D01*
X1238323Y478460D02*
X1233244D01*
X1230705Y480999D01*
Y486077D01*
X1233244Y488617D01*
X1238323D01*
X1240862Y486077D01*
Y483538D01*
X1230705D01*
X1195157Y521636D02*
X1192617Y524175D01*
X1187539D01*
X1185000Y521636D01*
Y511479D01*
X1187539Y508940D01*
X1192617D01*
X1195157Y511479D01*
Y516558D01*
X1190078D01*
X1200235Y508940D02*
Y524175D01*
X1210392Y508940D01*
Y524175D01*
X1215470D02*
Y508940D01*
X1223088D01*
X1225627Y511479D01*
Y521636D01*
X1223088Y524175D01*
X1215470D01*
X1185000Y554655D02*
Y539420D01*
X1192617D01*
X1195157Y541959D01*
Y552116D01*
X1192617Y554655D01*
X1185000D01*
X1200235Y539420D02*
X1205313D01*
X1202774D01*
Y549577D01*
X1200235D01*
X1220548Y539420D02*
X1215470D01*
X1212931Y541959D01*
Y547038D01*
X1215470Y549577D01*
X1220548D01*
X1223088Y547038D01*
Y544498D01*
X1212931D01*
X1228166Y539420D02*
X1233244D01*
X1230705D01*
Y554655D01*
X1228166D01*
X1248479Y539420D02*
X1243401D01*
X1240862Y541959D01*
Y547038D01*
X1243401Y549577D01*
X1248479D01*
X1251019Y547038D01*
Y544498D01*
X1240862D01*
X1266254Y549577D02*
X1258636D01*
X1256097Y547038D01*
Y541959D01*
X1258636Y539420D01*
X1266254D01*
X1273871Y552116D02*
Y549577D01*
X1271332D01*
X1276410D01*
X1273871D01*
Y541959D01*
X1276410Y539420D01*
X1284028Y549577D02*
Y539420D01*
Y544498D01*
X1286567Y547038D01*
X1289106Y549577D01*
X1291646D01*
X1299263Y539420D02*
X1304341D01*
X1301802D01*
Y549577D01*
X1299263D01*
X1322116D02*
X1314498D01*
X1311959Y547038D01*
Y541959D01*
X1314498Y539420D01*
X1322116D01*
X1352586D02*
X1342429D01*
X1352586Y549577D01*
Y552116D01*
X1350047Y554655D01*
X1344968D01*
X1342429Y552116D01*
X1185000Y585135D02*
X1195157D01*
X1190078D01*
Y569900D01*
X1202774D02*
X1207853D01*
X1210392Y572439D01*
Y577518D01*
X1207853Y580057D01*
X1202774D01*
X1200235Y577518D01*
Y572439D01*
X1202774Y569900D01*
X1215470Y564822D02*
Y580057D01*
X1223088D01*
X1225627Y577518D01*
Y572439D01*
X1223088Y569900D01*
X1215470D01*
X1245940Y585135D02*
Y569900D01*
X1256097D01*
X1263715Y580057D02*
X1268793D01*
X1271332Y577518D01*
Y569900D01*
X1263715D01*
X1261175Y572439D01*
X1263715Y574978D01*
X1271332D01*
X1276410Y580057D02*
Y572439D01*
X1278950Y569900D01*
X1286567D01*
Y567361D01*
X1284028Y564822D01*
X1281489D01*
X1286567Y569900D02*
Y580057D01*
X1299263Y569900D02*
X1294185D01*
X1291646Y572439D01*
Y577518D01*
X1294185Y580057D01*
X1299263D01*
X1301802Y577518D01*
Y574978D01*
X1291646D01*
X1306881Y580057D02*
Y569900D01*
Y574978D01*
X1309420Y577518D01*
X1311959Y580057D01*
X1314498D01*
X1185000Y615615D02*
X1195157D01*
X1190078D01*
Y600380D01*
X1202774D02*
X1207853D01*
X1210392Y602919D01*
Y607998D01*
X1207853Y610537D01*
X1202774D01*
X1200235Y607998D01*
Y602919D01*
X1202774Y600380D01*
X1215470Y595302D02*
Y610537D01*
X1223088D01*
X1225627Y607998D01*
Y602919D01*
X1223088Y600380D01*
X1215470D01*
X1256097Y613076D02*
X1253558Y615615D01*
X1248480D01*
X1245940Y613076D01*
Y610537D01*
X1248480Y607998D01*
X1253558D01*
X1256097Y605458D01*
Y602919D01*
X1253558Y600380D01*
X1248480D01*
X1245940Y602919D01*
X1263715Y600380D02*
X1268793D01*
X1271332Y602919D01*
Y607998D01*
X1268793Y610537D01*
X1263715D01*
X1261175Y607998D01*
Y602919D01*
X1263715Y600380D01*
X1276410D02*
X1281489D01*
X1278950D01*
Y615615D01*
X1276410D01*
X1299263D02*
Y600380D01*
X1291646D01*
X1289106Y602919D01*
Y607998D01*
X1291646Y610537D01*
X1299263D01*
X1311959Y600380D02*
X1306881D01*
X1304341Y602919D01*
Y607998D01*
X1306881Y610537D01*
X1311959D01*
X1314498Y607998D01*
Y605458D01*
X1304341D01*
X1319577Y610537D02*
Y600380D01*
Y605458D01*
X1322116Y607998D01*
X1324655Y610537D01*
X1327194D01*
X1185000Y646095D02*
X1195157D01*
X1190078D01*
Y630860D01*
X1202774D02*
X1207853D01*
X1210392Y633399D01*
Y638478D01*
X1207853Y641017D01*
X1202774D01*
X1200235Y638478D01*
Y633399D01*
X1202774Y630860D01*
X1215470Y625782D02*
Y641017D01*
X1223088D01*
X1225627Y638478D01*
Y633399D01*
X1223088Y630860D01*
X1215470D01*
X1253558Y646095D02*
X1248480D01*
X1245940Y643556D01*
Y633399D01*
X1248480Y630860D01*
X1253558D01*
X1256097Y633399D01*
Y643556D01*
X1253558Y646095D01*
X1261175Y641017D02*
X1266254Y630860D01*
X1271332Y641017D01*
X1284028Y630860D02*
X1278950D01*
X1276410Y633399D01*
Y638478D01*
X1278950Y641017D01*
X1284028D01*
X1286567Y638478D01*
Y635938D01*
X1276410D01*
X1291646Y641017D02*
Y630860D01*
Y635938D01*
X1294185Y638478D01*
X1296724Y641017D01*
X1299263D01*
X1306881Y630860D02*
X1311959D01*
X1309420D01*
Y646095D01*
X1306881D01*
X1322116Y641017D02*
X1327194D01*
X1329733Y638478D01*
Y630860D01*
X1322116D01*
X1319577Y633399D01*
X1322116Y635938D01*
X1329733D01*
X1334812Y641017D02*
Y633399D01*
X1337351Y630860D01*
X1344968D01*
Y628321D01*
X1342429Y625782D01*
X1339890D01*
X1344968Y630860D02*
Y641017D01*
X1421155Y661340D02*
Y676575D01*
X1426233Y671497D01*
X1431312Y676575D01*
Y661340D01*
X1438929Y671497D02*
X1444008D01*
X1446547Y668958D01*
Y661340D01*
X1438929D01*
X1436390Y663879D01*
X1438929Y666418D01*
X1446547D01*
X1454164Y674036D02*
Y671497D01*
X1451625D01*
X1456704D01*
X1454164D01*
Y663879D01*
X1456704Y661340D01*
X1471939D02*
X1466860D01*
X1464321Y663879D01*
Y668958D01*
X1466860Y671497D01*
X1471939D01*
X1474478Y668958D01*
Y666418D01*
X1464321D01*
X1479556Y671497D02*
Y661340D01*
Y666418D01*
X1482095Y668958D01*
X1484635Y671497D01*
X1487174D01*
X1494791Y661340D02*
X1499870D01*
X1497330D01*
Y671497D01*
X1494791D01*
X1510026D02*
X1515105D01*
X1517644Y668958D01*
Y661340D01*
X1510026D01*
X1507487Y663879D01*
X1510026Y666418D01*
X1517644D01*
X1522722Y661340D02*
X1527801D01*
X1525261D01*
Y676575D01*
X1522722D01*
X1431312Y369236D02*
X1428773Y371775D01*
X1423694D01*
X1421155Y369236D01*
Y366697D01*
X1423694Y364157D01*
X1428773D01*
X1431312Y361618D01*
Y359079D01*
X1428773Y356540D01*
X1423694D01*
X1421155Y359079D01*
X1438929Y356540D02*
X1444008D01*
X1446547Y359079D01*
Y364157D01*
X1444008Y366697D01*
X1438929D01*
X1436390Y364157D01*
Y359079D01*
X1438929Y356540D01*
X1451625D02*
X1456704D01*
X1454164D01*
Y371775D01*
X1451625D01*
X1474478D02*
Y356540D01*
X1466860D01*
X1464321Y359079D01*
Y364157D01*
X1466860Y366697D01*
X1474478D01*
X1487174Y356540D02*
X1482095D01*
X1479556Y359079D01*
Y364157D01*
X1482095Y366697D01*
X1487174D01*
X1489713Y364157D01*
Y361618D01*
X1479556D01*
X1494791Y366697D02*
Y356540D01*
Y361618D01*
X1497330Y364157D01*
X1499870Y366697D01*
X1502409D01*
X1525261Y356540D02*
Y371775D01*
X1532879D01*
X1535418Y369236D01*
Y364157D01*
X1532879Y361618D01*
X1525261D01*
X1530340D02*
X1535418Y356540D01*
X1548114D02*
X1543036D01*
X1540497Y359079D01*
Y364157D01*
X1543036Y366697D01*
X1548114D01*
X1550653Y364157D01*
Y361618D01*
X1540497D01*
X1555732Y356540D02*
X1563349D01*
X1565888Y359079D01*
X1563349Y361618D01*
X1558271D01*
X1555732Y364157D01*
X1558271Y366697D01*
X1565888D01*
X1570967Y356540D02*
X1576045D01*
X1573506D01*
Y366697D01*
X1570967D01*
X1583663Y356540D02*
X1591280D01*
X1593819Y359079D01*
X1591280Y361618D01*
X1586202D01*
X1583663Y364157D01*
X1586202Y366697D01*
X1593819D01*
X1601437Y369236D02*
Y366697D01*
X1598898D01*
X1603976D01*
X1601437D01*
Y359079D01*
X1603976Y356540D01*
X1421155Y417500D02*
Y432735D01*
X1428773D01*
X1431312Y430196D01*
Y425117D01*
X1428773Y422578D01*
X1421155D01*
X1436390Y417500D02*
Y432735D01*
X1444008D01*
X1446547Y430196D01*
Y425117D01*
X1444008Y422578D01*
X1436390D01*
X1451625Y425117D02*
X1461782D01*
X1466860Y430196D02*
X1469400Y432735D01*
X1474478D01*
X1477017Y430196D01*
Y420039D01*
X1474478Y417500D01*
X1469400D01*
X1466860Y420039D01*
Y430196D01*
X1482095D02*
X1484635Y432735D01*
X1489713D01*
X1492252Y430196D01*
Y420039D01*
X1489713Y417500D01*
X1484635D01*
X1482095Y420039D01*
Y430196D01*
X1507487Y432735D02*
X1502409Y430196D01*
X1497330Y425117D01*
Y420039D01*
X1499870Y417500D01*
X1504948D01*
X1507487Y420039D01*
Y422578D01*
X1504948Y425117D01*
X1497330D01*
X1431312Y460676D02*
X1428773Y463215D01*
X1423694D01*
X1421155Y460676D01*
Y450519D01*
X1423694Y447980D01*
X1428773D01*
X1431312Y450519D01*
X1446547Y463215D02*
X1436390D01*
Y455597D01*
X1441469D01*
X1436390D01*
Y447980D01*
X1451625Y455597D02*
X1461782D01*
X1466860Y460676D02*
X1469400Y463215D01*
X1474478D01*
X1477017Y460676D01*
Y450519D01*
X1474478Y447980D01*
X1469400D01*
X1466860Y450519D01*
Y460676D01*
X1482095D02*
X1484635Y463215D01*
X1489713D01*
X1492252Y460676D01*
Y450519D01*
X1489713Y447980D01*
X1484635D01*
X1482095Y450519D01*
Y460676D01*
X1504948Y447980D02*
Y463215D01*
X1497330Y455597D01*
X1507487D01*
X1431312Y493695D02*
X1421155D01*
Y486077D01*
X1426233D01*
X1421155D01*
Y478460D01*
X1436390D02*
Y493695D01*
X1444008D01*
X1446547Y491156D01*
Y486077D01*
X1444008Y483538D01*
X1436390D01*
X1441469D02*
X1446547Y478460D01*
X1451625Y486077D02*
X1461782D01*
X1474478Y478460D02*
Y493695D01*
X1466860Y486077D01*
X1477017D01*
X1431312Y521636D02*
X1428773Y524175D01*
X1423694D01*
X1421155Y521636D01*
Y511479D01*
X1423694Y508940D01*
X1428773D01*
X1431312Y511479D01*
X1446547Y524175D02*
X1436390D01*
Y516558D01*
X1441469D01*
X1436390D01*
Y508940D01*
X1451625Y516558D02*
X1461782D01*
X1466860Y521636D02*
X1469400Y524175D01*
X1474478D01*
X1477017Y521636D01*
Y511479D01*
X1474478Y508940D01*
X1469400D01*
X1466860Y511479D01*
Y521636D01*
X1482095D02*
X1484635Y524175D01*
X1489713D01*
X1492252Y521636D01*
Y511479D01*
X1489713Y508940D01*
X1484635D01*
X1482095Y511479D01*
Y521636D01*
X1504948Y508940D02*
Y524175D01*
X1497330Y516558D01*
X1507487D01*
X1421155Y539420D02*
Y554655D01*
X1428773D01*
X1431312Y552116D01*
Y547038D01*
X1428773Y544498D01*
X1421155D01*
X1436390Y539420D02*
Y554655D01*
X1444008D01*
X1446547Y552116D01*
Y547038D01*
X1444008Y544498D01*
X1436390D01*
X1451625Y547038D02*
X1461782D01*
X1466860Y552116D02*
X1469400Y554655D01*
X1474478D01*
X1477017Y552116D01*
Y541959D01*
X1474478Y539420D01*
X1469400D01*
X1466860Y541959D01*
Y552116D01*
X1482095D02*
X1484635Y554655D01*
X1489713D01*
X1492252Y552116D01*
Y541959D01*
X1489713Y539420D01*
X1484635D01*
X1482095Y541959D01*
Y552116D01*
X1507487Y554655D02*
X1502409Y552116D01*
X1497330Y547038D01*
Y541959D01*
X1499870Y539420D01*
X1504948D01*
X1507487Y541959D01*
Y544498D01*
X1504948Y547038D01*
X1497330D01*
X1431312Y613076D02*
X1428773Y615615D01*
X1423694D01*
X1421155Y613076D01*
Y610537D01*
X1423694Y607998D01*
X1428773D01*
X1431312Y605458D01*
Y602919D01*
X1428773Y600380D01*
X1423694D01*
X1421155Y602919D01*
X1438929Y600380D02*
X1444008D01*
X1446547Y602919D01*
Y607998D01*
X1444008Y610537D01*
X1438929D01*
X1436390Y607998D01*
Y602919D01*
X1438929Y600380D01*
X1451625D02*
X1456704D01*
X1454164D01*
Y615615D01*
X1451625D01*
X1474478D02*
Y600380D01*
X1466860D01*
X1464321Y602919D01*
Y607998D01*
X1466860Y610537D01*
X1474478D01*
X1487174Y600380D02*
X1482095D01*
X1479556Y602919D01*
Y607998D01*
X1482095Y610537D01*
X1487174D01*
X1489713Y607998D01*
Y605458D01*
X1479556D01*
X1494791Y610537D02*
Y600380D01*
Y605458D01*
X1497330Y607998D01*
X1499870Y610537D01*
X1502409D01*
X1525261Y600380D02*
Y615615D01*
X1532879D01*
X1535418Y613076D01*
Y607998D01*
X1532879Y605458D01*
X1525261D01*
X1530340D02*
X1535418Y600380D01*
X1548114D02*
X1543036D01*
X1540497Y602919D01*
Y607998D01*
X1543036Y610537D01*
X1548114D01*
X1550653Y607998D01*
Y605458D01*
X1540497D01*
X1555732Y600380D02*
X1563349D01*
X1565888Y602919D01*
X1563349Y605458D01*
X1558271D01*
X1555732Y607998D01*
X1558271Y610537D01*
X1565888D01*
X1570967Y600380D02*
X1576045D01*
X1573506D01*
Y610537D01*
X1570967D01*
X1583663Y600380D02*
X1591280D01*
X1593819Y602919D01*
X1591280Y605458D01*
X1586202D01*
X1583663Y607998D01*
X1586202Y610537D01*
X1593819D01*
X1601437Y613076D02*
Y610537D01*
X1598898D01*
X1603976D01*
X1601437D01*
Y602919D01*
X1603976Y600380D01*
X1639536Y676575D02*
X1649693D01*
X1644614D01*
Y661340D01*
X1654771Y676575D02*
Y661340D01*
Y668958D01*
X1657310Y671497D01*
X1662388D01*
X1664928Y668958D01*
Y661340D01*
X1670006D02*
X1675084D01*
X1672545D01*
Y671497D01*
X1670006D01*
X1692859D02*
X1685241D01*
X1682702Y668958D01*
Y663879D01*
X1685241Y661340D01*
X1692859D01*
X1697937D02*
Y676575D01*
Y666418D02*
X1705555Y671497D01*
X1697937Y666418D02*
X1705555Y661340D01*
X1713172D02*
Y671497D01*
X1720790D01*
X1723329Y668958D01*
Y661340D01*
X1736025D02*
X1730946D01*
X1728407Y663879D01*
Y668958D01*
X1730946Y671497D01*
X1736025D01*
X1738564Y668958D01*
Y666418D01*
X1728407D01*
X1743642Y661340D02*
X1751260D01*
X1753799Y663879D01*
X1751260Y666418D01*
X1746181D01*
X1743642Y668958D01*
X1746181Y671497D01*
X1753799D01*
X1758877Y661340D02*
X1766495D01*
X1769034Y663879D01*
X1766495Y666418D01*
X1761416D01*
X1758877Y668958D01*
X1761416Y671497D01*
X1769034D01*
X1639536Y369236D02*
X1642075Y371775D01*
X1647153D01*
X1649693Y369236D01*
Y359079D01*
X1647153Y356540D01*
X1642075D01*
X1639536Y359079D01*
Y369236D01*
X1654771Y356540D02*
Y359079D01*
X1657310D01*
Y356540D01*
X1654771D01*
X1675084D02*
Y371775D01*
X1667467Y364157D01*
X1677624D01*
X1682702Y369236D02*
X1685241Y371775D01*
X1690320D01*
X1692859Y369236D01*
Y359079D01*
X1690320Y356540D01*
X1685241D01*
X1682702Y359079D01*
Y369236D01*
X1697937Y356540D02*
Y366697D01*
X1700476D01*
X1703015Y364157D01*
Y356540D01*
Y364157D01*
X1705555Y366697D01*
X1708094Y364157D01*
Y356540D01*
X1713172D02*
X1718250D01*
X1715711D01*
Y366697D01*
X1713172D01*
X1725868Y356540D02*
X1730946D01*
X1728407D01*
Y371775D01*
X1725868D01*
X1639536Y387020D02*
X1644614D01*
X1642075D01*
Y402255D01*
X1639536Y399716D01*
X1652232Y387020D02*
Y389559D01*
X1654771D01*
Y387020D01*
X1652232D01*
X1672545D02*
Y402255D01*
X1664928Y394637D01*
X1675084D01*
X1680163Y399716D02*
X1682702Y402255D01*
X1687780D01*
X1690320Y399716D01*
Y389559D01*
X1687780Y387020D01*
X1682702D01*
X1680163Y389559D01*
Y399716D01*
X1695398Y387020D02*
Y397177D01*
X1697937D01*
X1700476Y394637D01*
Y387020D01*
Y394637D01*
X1703015Y397177D01*
X1705555Y394637D01*
Y387020D01*
X1710633D02*
X1715711D01*
X1713172D01*
Y397177D01*
X1710633D01*
X1723329Y387020D02*
X1728407D01*
X1725868D01*
Y402255D01*
X1723329D01*
X1639536Y430196D02*
X1642075Y432735D01*
X1647153D01*
X1649693Y430196D01*
Y427657D01*
X1647153Y425117D01*
X1649693Y422578D01*
Y420039D01*
X1647153Y417500D01*
X1642075D01*
X1639536Y420039D01*
Y422578D01*
X1642075Y425117D01*
X1639536Y427657D01*
Y430196D01*
X1642075Y425117D02*
X1647153D01*
X1654771Y417500D02*
Y420039D01*
X1657310D01*
Y417500D01*
X1654771D01*
X1677624D02*
X1667467D01*
X1677624Y427657D01*
Y430196D01*
X1675084Y432735D01*
X1670006D01*
X1667467Y430196D01*
X1682702D02*
X1685241Y432735D01*
X1690320D01*
X1692859Y430196D01*
Y427657D01*
X1690320Y425117D01*
X1692859Y422578D01*
Y420039D01*
X1690320Y417500D01*
X1685241D01*
X1682702Y420039D01*
Y422578D01*
X1685241Y425117D01*
X1682702Y427657D01*
Y430196D01*
X1685241Y425117D02*
X1690320D01*
X1697937Y417500D02*
Y427657D01*
X1700476D01*
X1703015Y425117D01*
Y417500D01*
Y425117D01*
X1705555Y427657D01*
X1708094Y425117D01*
Y417500D01*
X1713172D02*
X1718250D01*
X1715711D01*
Y427657D01*
X1713172D01*
X1725868Y417500D02*
X1730946D01*
X1728407D01*
Y432735D01*
X1725868D01*
X1639536Y460676D02*
X1642075Y463215D01*
X1647153D01*
X1649693Y460676D01*
Y450519D01*
X1647153Y447980D01*
X1642075D01*
X1639536Y450519D01*
Y460676D01*
X1654771Y447980D02*
Y450519D01*
X1657310D01*
Y447980D01*
X1654771D01*
X1677624Y463215D02*
X1672545Y460676D01*
X1667467Y455597D01*
Y450519D01*
X1670006Y447980D01*
X1675084D01*
X1677624Y450519D01*
Y453058D01*
X1675084Y455597D01*
X1667467D01*
X1682702Y460676D02*
X1685241Y463215D01*
X1690320D01*
X1692859Y460676D01*
Y450519D01*
X1690320Y447980D01*
X1685241D01*
X1682702Y450519D01*
Y460676D01*
X1697937Y447980D02*
Y458137D01*
X1700476D01*
X1703015Y455597D01*
Y447980D01*
Y455597D01*
X1705555Y458137D01*
X1708094Y455597D01*
Y447980D01*
X1713172D02*
X1718250D01*
X1715711D01*
Y458137D01*
X1713172D01*
X1725868Y447980D02*
X1730946D01*
X1728407D01*
Y463215D01*
X1725868D01*
X1647153Y478460D02*
Y493695D01*
X1639536Y486077D01*
X1649693D01*
X1654771Y478460D02*
X1659849D01*
X1657310D01*
Y493695D01*
X1654771Y491156D01*
X1667467Y478460D02*
Y480999D01*
X1670006D01*
Y478460D01*
X1667467D01*
X1680163Y480999D02*
X1682702Y478460D01*
X1687780D01*
X1690320Y480999D01*
Y491156D01*
X1687780Y493695D01*
X1682702D01*
X1680163Y491156D01*
Y488617D01*
X1682702Y486077D01*
X1690320D01*
X1695398Y491156D02*
X1697937Y493695D01*
X1703015D01*
X1705555Y491156D01*
Y488617D01*
X1703015Y486077D01*
X1700476D01*
X1703015D01*
X1705555Y483538D01*
Y480999D01*
X1703015Y478460D01*
X1697937D01*
X1695398Y480999D01*
X1710633Y478460D02*
Y488617D01*
X1713172D01*
X1715711Y486077D01*
Y478460D01*
Y486077D01*
X1718250Y488617D01*
X1720790Y486077D01*
Y478460D01*
X1725868D02*
X1730946D01*
X1728407D01*
Y488617D01*
X1725868D01*
X1738564Y478460D02*
X1743642D01*
X1741103D01*
Y493695D01*
X1738564D01*
X1639536Y521636D02*
X1642075Y524175D01*
X1647153D01*
X1649693Y521636D01*
Y511479D01*
X1647153Y508940D01*
X1642075D01*
X1639536Y511479D01*
Y521636D01*
X1654771Y508940D02*
Y511479D01*
X1657310D01*
Y508940D01*
X1654771D01*
X1677624Y524175D02*
X1672545Y521636D01*
X1667467Y516558D01*
Y511479D01*
X1670006Y508940D01*
X1675084D01*
X1677624Y511479D01*
Y514018D01*
X1675084Y516558D01*
X1667467D01*
X1682702Y521636D02*
X1685241Y524175D01*
X1690320D01*
X1692859Y521636D01*
Y511479D01*
X1690320Y508940D01*
X1685241D01*
X1682702Y511479D01*
Y521636D01*
X1697937Y508940D02*
Y519097D01*
X1700476D01*
X1703015Y516558D01*
Y508940D01*
Y516558D01*
X1705555Y519097D01*
X1708094Y516558D01*
Y508940D01*
X1713172D02*
X1718250D01*
X1715711D01*
Y519097D01*
X1713172D01*
X1725868Y508940D02*
X1730946D01*
X1728407D01*
Y524175D01*
X1725868D01*
X1639536Y552116D02*
X1642075Y554655D01*
X1647153D01*
X1649693Y552116D01*
Y549577D01*
X1647153Y547038D01*
X1649693Y544498D01*
Y541959D01*
X1647153Y539420D01*
X1642075D01*
X1639536Y541959D01*
Y544498D01*
X1642075Y547038D01*
X1639536Y549577D01*
Y552116D01*
X1642075Y547038D02*
X1647153D01*
X1654771Y539420D02*
Y541959D01*
X1657310D01*
Y539420D01*
X1654771D01*
X1677624D02*
X1667467D01*
X1677624Y549577D01*
Y552116D01*
X1675084Y554655D01*
X1670006D01*
X1667467Y552116D01*
X1682702D02*
X1685241Y554655D01*
X1690320D01*
X1692859Y552116D01*
Y549577D01*
X1690320Y547038D01*
X1692859Y544498D01*
Y541959D01*
X1690320Y539420D01*
X1685241D01*
X1682702Y541959D01*
Y544498D01*
X1685241Y547038D01*
X1682702Y549577D01*
Y552116D01*
X1685241Y547038D02*
X1690320D01*
X1697937Y539420D02*
Y549577D01*
X1700476D01*
X1703015Y547038D01*
Y539420D01*
Y547038D01*
X1705555Y549577D01*
X1708094Y547038D01*
Y539420D01*
X1713172D02*
X1718250D01*
X1715711D01*
Y549577D01*
X1713172D01*
X1725868Y539420D02*
X1730946D01*
X1728407D01*
Y554655D01*
X1725868D01*
X1639536Y569900D02*
X1644614D01*
X1642075D01*
Y585135D01*
X1639536Y582596D01*
X1652232Y569900D02*
Y572439D01*
X1654771D01*
Y569900D01*
X1652232D01*
X1672545D02*
Y585135D01*
X1664928Y577518D01*
X1675084D01*
X1680163Y582596D02*
X1682702Y585135D01*
X1687780D01*
X1690320Y582596D01*
Y572439D01*
X1687780Y569900D01*
X1682702D01*
X1680163Y572439D01*
Y582596D01*
X1695398Y569900D02*
Y580057D01*
X1697937D01*
X1700476Y577518D01*
Y569900D01*
Y577518D01*
X1703015Y580057D01*
X1705555Y577518D01*
Y569900D01*
X1710633D02*
X1715711D01*
X1713172D01*
Y580057D01*
X1710633D01*
X1723329Y569900D02*
X1728407D01*
X1725868D01*
Y585135D01*
X1723329D01*
X1639536Y613076D02*
X1642075Y615615D01*
X1647153D01*
X1649693Y613076D01*
Y602919D01*
X1647153Y600380D01*
X1642075D01*
X1639536Y602919D01*
Y613076D01*
X1654771Y600380D02*
Y602919D01*
X1657310D01*
Y600380D01*
X1654771D01*
X1675084D02*
Y615615D01*
X1667467Y607998D01*
X1677624D01*
X1682702Y613076D02*
X1685241Y615615D01*
X1690320D01*
X1692859Y613076D01*
Y602919D01*
X1690320Y600380D01*
X1685241D01*
X1682702Y602919D01*
Y613076D01*
X1697937Y600380D02*
Y610537D01*
X1700476D01*
X1703015Y607998D01*
Y600380D01*
Y607998D01*
X1705555Y610537D01*
X1708094Y607998D01*
Y600380D01*
X1713172D02*
X1718250D01*
X1715711D01*
Y610537D01*
X1713172D01*
X1725868Y600380D02*
X1730946D01*
X1728407D01*
Y615615D01*
X1725868D01*
X1814751Y674036D02*
X1812212Y676575D01*
X1807133D01*
X1804594Y674036D01*
Y663879D01*
X1807133Y661340D01*
X1812212D01*
X1814751Y663879D01*
X1822368Y661340D02*
X1827447D01*
X1829986Y663879D01*
Y668958D01*
X1827447Y671497D01*
X1822368D01*
X1819829Y668958D01*
Y663879D01*
X1822368Y661340D01*
X1835064D02*
Y671497D01*
X1842682D01*
X1845221Y668958D01*
Y661340D01*
X1850299D02*
X1857917D01*
X1860456Y663879D01*
X1857917Y666418D01*
X1852838D01*
X1850299Y668958D01*
X1852838Y671497D01*
X1860456D01*
X1868073Y674036D02*
Y671497D01*
X1865534D01*
X1870613D01*
X1868073D01*
Y663879D01*
X1870613Y661340D01*
X1880769Y671497D02*
X1885848D01*
X1888387Y668958D01*
Y661340D01*
X1880769D01*
X1878230Y663879D01*
X1880769Y666418D01*
X1888387D01*
X1893465Y661340D02*
Y671497D01*
X1901083D01*
X1903622Y668958D01*
Y661340D01*
X1911240Y674036D02*
Y671497D01*
X1908700D01*
X1913779D01*
X1911240D01*
Y663879D01*
X1913779Y661340D01*
X1804594Y369236D02*
X1807133Y371775D01*
X1812212D01*
X1814751Y369236D01*
Y366697D01*
X1812212Y364157D01*
X1809672D01*
X1812212D01*
X1814751Y361618D01*
Y359079D01*
X1812212Y356540D01*
X1807133D01*
X1804594Y359079D01*
X1819829Y356540D02*
Y359079D01*
X1822368D01*
Y356540D01*
X1819829D01*
X1842682Y371775D02*
X1832525D01*
Y364157D01*
X1837603Y366697D01*
X1840143D01*
X1842682Y364157D01*
Y359079D01*
X1840143Y356540D01*
X1835064D01*
X1832525Y359079D01*
X1812212Y417500D02*
Y432735D01*
X1804594Y425117D01*
X1814751D01*
X1819829Y417500D02*
Y420039D01*
X1822368D01*
Y417500D01*
X1819829D01*
X1840143D02*
Y432735D01*
X1832525Y425117D01*
X1842682D01*
X1812212Y478460D02*
Y493695D01*
X1804594Y486077D01*
X1814751D01*
X1819829Y478460D02*
Y480999D01*
X1822368D01*
Y478460D01*
X1819829D01*
X1842682Y493695D02*
X1837603Y491156D01*
X1832525Y486077D01*
Y480999D01*
X1835064Y478460D01*
X1840143D01*
X1842682Y480999D01*
Y483538D01*
X1840143Y486077D01*
X1832525D01*
X1812212Y539420D02*
Y554655D01*
X1804594Y547038D01*
X1814751D01*
X1819829Y539420D02*
Y541959D01*
X1822368D01*
Y539420D01*
X1819829D01*
X1840143D02*
Y554655D01*
X1832525Y547038D01*
X1842682D01*
X1804594Y613076D02*
X1807133Y615615D01*
X1812212D01*
X1814751Y613076D01*
Y610537D01*
X1812212Y607998D01*
X1809672D01*
X1812212D01*
X1814751Y605458D01*
Y602919D01*
X1812212Y600380D01*
X1807133D01*
X1804594Y602919D01*
X1819829Y600380D02*
Y602919D01*
X1822368D01*
Y600380D01*
X1819829D01*
X1842682Y615615D02*
X1832525D01*
Y607998D01*
X1837603Y610537D01*
X1840143D01*
X1842682Y607998D01*
Y602919D01*
X1840143Y600380D01*
X1835064D01*
X1832525Y602919D01*
X1949339Y676575D02*
Y661340D01*
X1956956D01*
X1959495Y663879D01*
Y666418D01*
X1956956Y668958D01*
X1949339D01*
X1956956D01*
X1959495Y671497D01*
Y674036D01*
X1956956Y676575D01*
X1949339D01*
X1967113Y661340D02*
X1972191D01*
X1974731Y663879D01*
Y668958D01*
X1972191Y671497D01*
X1967113D01*
X1964574Y668958D01*
Y663879D01*
X1967113Y661340D01*
X1982348Y671497D02*
X1987426D01*
X1989966Y668958D01*
Y661340D01*
X1982348D01*
X1979809Y663879D01*
X1982348Y666418D01*
X1989966D01*
X1995044Y671497D02*
Y661340D01*
Y666418D01*
X1997583Y668958D01*
X2000122Y671497D01*
X2002661D01*
X2020436Y676575D02*
Y661340D01*
X2012818D01*
X2010279Y663879D01*
Y668958D01*
X2012818Y671497D01*
X2020436D01*
X2040749Y676575D02*
Y661340D01*
X2050906D01*
X2058523Y671497D02*
X2063602D01*
X2066141Y668958D01*
Y661340D01*
X2058523D01*
X2055984Y663879D01*
X2058523Y666418D01*
X2066141D01*
X2071219Y671497D02*
Y663879D01*
X2073759Y661340D01*
X2081376D01*
Y658801D01*
X2078837Y656262D01*
X2076298D01*
X2081376Y661340D02*
Y671497D01*
X2094072Y661340D02*
X2088994D01*
X2086454Y663879D01*
Y668958D01*
X2088994Y671497D01*
X2094072D01*
X2096611Y668958D01*
Y666418D01*
X2086454D01*
X2101689Y671497D02*
Y661340D01*
Y666418D01*
X2104229Y668958D01*
X2106768Y671497D01*
X2109307D01*
X2142316Y674036D02*
X2139777Y676575D01*
X2134699D01*
X2132160Y674036D01*
Y671497D01*
X2134699Y668958D01*
X2139777D01*
X2142316Y666418D01*
Y663879D01*
X2139777Y661340D01*
X2134699D01*
X2132160Y663879D01*
X2149934Y674036D02*
Y671497D01*
X2147395D01*
X2152473D01*
X2149934D01*
Y663879D01*
X2152473Y661340D01*
X2162630Y671497D02*
X2167708D01*
X2170247Y668958D01*
Y661340D01*
X2162630D01*
X2160090Y663879D01*
X2162630Y666418D01*
X2170247D01*
X2185482Y671497D02*
X2177865D01*
X2175326Y668958D01*
Y663879D01*
X2177865Y661340D01*
X2185482D01*
X2190561D02*
Y676575D01*
Y666418D02*
X2198178Y671497D01*
X2190561Y666418D02*
X2198178Y661340D01*
X1080882Y310815D02*
X1091039D01*
X1085960D01*
Y295580D01*
X1098656D02*
X1103735D01*
X1106274Y298119D01*
Y303197D01*
X1103735Y305737D01*
X1098656D01*
X1096117Y303197D01*
Y298119D01*
X1098656Y295580D01*
X1113892Y308276D02*
Y305737D01*
X1111352D01*
X1116431D01*
X1113892D01*
Y298119D01*
X1116431Y295580D01*
X1126587Y305737D02*
X1131666D01*
X1134205Y303197D01*
Y295580D01*
X1126587D01*
X1124048Y298119D01*
X1126587Y300658D01*
X1134205D01*
X1139283Y295580D02*
X1144362D01*
X1141823D01*
Y310815D01*
X1139283D01*
X1167214D02*
Y295580D01*
X1174832D01*
X1177371Y298119D01*
Y300658D01*
Y303197D01*
X1174832Y305737D01*
X1167214D01*
X1184988Y295580D02*
X1190067D01*
X1192606Y298119D01*
Y303197D01*
X1190067Y305737D01*
X1184988D01*
X1182449Y303197D01*
Y298119D01*
X1184988Y295580D01*
X1200224Y305737D02*
X1205302D01*
X1207841Y303197D01*
Y295580D01*
X1200224D01*
X1197684Y298119D01*
X1200224Y300658D01*
X1207841D01*
X1212919Y305737D02*
Y295580D01*
Y300658D01*
X1215459Y303197D01*
X1217998Y305737D01*
X1220537D01*
X1238311Y310815D02*
Y295580D01*
X1230694D01*
X1228155Y298119D01*
Y303197D01*
X1230694Y305737D01*
X1238311D01*
X1261164Y308276D02*
Y305737D01*
X1258625D01*
X1263703D01*
X1261164D01*
Y298119D01*
X1263703Y295580D01*
X1271320Y310815D02*
Y295580D01*
Y303197D01*
X1273860Y305737D01*
X1278938D01*
X1281477Y303197D01*
Y295580D01*
X1286556D02*
X1291634D01*
X1289095D01*
Y305737D01*
X1286556D01*
X1309408D02*
X1301791D01*
X1299252Y303197D01*
Y298119D01*
X1301791Y295580D01*
X1309408D01*
X1314487D02*
Y310815D01*
Y300658D02*
X1322104Y305737D01*
X1314487Y300658D02*
X1322104Y295580D01*
X1329722D02*
Y305737D01*
X1337339D01*
X1339878Y303197D01*
Y295580D01*
X1352574D02*
X1347496D01*
X1344957Y298119D01*
Y303197D01*
X1347496Y305737D01*
X1352574D01*
X1355113Y303197D01*
Y300658D01*
X1344957D01*
X1360192Y295580D02*
X1367809D01*
X1370349Y298119D01*
X1367809Y300658D01*
X1362731D01*
X1360192Y303197D01*
X1362731Y305737D01*
X1370349D01*
X1375427Y295580D02*
X1383044D01*
X1385584Y298119D01*
X1383044Y300658D01*
X1377966D01*
X1375427Y303197D01*
X1377966Y305737D01*
X1385584D01*
X1390662D02*
X1393201D01*
Y303197D01*
X1390662D01*
Y305737D01*
Y298119D02*
X1393201D01*
Y295580D01*
X1390662D01*
Y298119D01*
X1649693Y310815D02*
X1644614Y308276D01*
X1639536Y303197D01*
Y298119D01*
X1642075Y295580D01*
X1647153D01*
X1649693Y298119D01*
Y300658D01*
X1647153Y303197D01*
X1639536D01*
X1654771Y308276D02*
X1657310Y310815D01*
X1662388D01*
X1664928Y308276D01*
Y305737D01*
X1662388Y303197D01*
X1659849D01*
X1662388D01*
X1664928Y300658D01*
Y298119D01*
X1662388Y295580D01*
X1657310D01*
X1654771Y298119D01*
X1670006Y295580D02*
Y298119D01*
X1672545D01*
Y295580D01*
X1670006D01*
X1692859D02*
X1682702D01*
X1692859Y305737D01*
Y308276D01*
X1690320Y310815D01*
X1685241D01*
X1682702Y308276D01*
X1697937Y298119D02*
X1700476Y295580D01*
X1705555D01*
X1708094Y298119D01*
Y308276D01*
X1705555Y310815D01*
X1700476D01*
X1697937Y308276D01*
Y305737D01*
X1700476Y303197D01*
X1708094D01*
X1713172Y295580D02*
Y305737D01*
X1715711D01*
X1718250Y303197D01*
Y295580D01*
Y303197D01*
X1720790Y305737D01*
X1723329Y303197D01*
Y295580D01*
X1728407D02*
X1733486D01*
X1730946D01*
Y305737D01*
X1728407D01*
X1741103Y295580D02*
X1746181D01*
X1743642D01*
Y310815D01*
X1741103D01*
D144*
X1063102Y653720D02*
X2215958D01*
X1063102Y684200D02*
X2215958D01*
X1063102Y318440D02*
Y684200D01*
Y318440D02*
X1167220D01*
X1063102Y348920D02*
X1167220D01*
X1063102Y379400D02*
X1167220D01*
X1063102Y409880D02*
X1167220D01*
X1063102Y440360D02*
X1167220D01*
X1063102Y470840D02*
X1167220D01*
X1063102Y501320D02*
X1167220D01*
X1063102Y531800D02*
X1167220D01*
X1063102Y562280D02*
X1167220D01*
X1063102Y592760D02*
X1167220D01*
X1063102Y623240D02*
X1167220D01*
Y318440D02*
Y684200D01*
Y318440D02*
X1403375D01*
X1167220Y348920D02*
X1403375D01*
X1167220Y379400D02*
X1403375D01*
X1167220Y409880D02*
X1403375D01*
X1167220Y440360D02*
X1403375D01*
X1167220Y470840D02*
X1403375D01*
X1167220Y501320D02*
X1403375D01*
X1167220Y531800D02*
X1403375D01*
X1167220Y562280D02*
X1403375D01*
X1167220Y592760D02*
X1403375D01*
X1167220Y623240D02*
X1403375D01*
Y318440D02*
Y684200D01*
Y318440D02*
X1621756D01*
X1403375Y348920D02*
X1621756D01*
X1403375Y379400D02*
X1621756D01*
X1403375Y409880D02*
X1621756D01*
X1403375Y440360D02*
X1621756D01*
X1403375Y470840D02*
X1621756D01*
X1403375Y501320D02*
X1621756D01*
X1403375Y531800D02*
X1621756D01*
X1403375Y562280D02*
X1621756D01*
X1403375Y592760D02*
X1621756D01*
X1403375Y623240D02*
X1621756D01*
Y318440D02*
Y684200D01*
Y318440D02*
X1786814D01*
X1621756Y348920D02*
X1786814D01*
X1621756Y379400D02*
X1786814D01*
X1621756Y409880D02*
X1786814D01*
X1621756Y440360D02*
X1786814D01*
X1621756Y470840D02*
X1786814D01*
X1621756Y501320D02*
X1786814D01*
X1621756Y531800D02*
X1786814D01*
X1621756Y562280D02*
X1786814D01*
X1621756Y592760D02*
X1786814D01*
X1621756Y623240D02*
X1786814D01*
Y318440D02*
Y684200D01*
Y318440D02*
X1931559D01*
X1786814Y348920D02*
X1931559D01*
X1786814Y379400D02*
X1931559D01*
X1786814Y409880D02*
X1931559D01*
X1786814Y440360D02*
X1931559D01*
X1786814Y470840D02*
X1931559D01*
X1786814Y501320D02*
X1931559D01*
X1786814Y531800D02*
X1931559D01*
X1786814Y562280D02*
X1931559D01*
X1786814Y592760D02*
X1931559D01*
X1786814Y623240D02*
X1931559D01*
Y318440D02*
Y684200D01*
Y318440D02*
X2215958D01*
X1931559Y348920D02*
X2215958D01*
X1931559Y379400D02*
X2215958D01*
X1931559Y409880D02*
X2215958D01*
X1931559Y440360D02*
X2215958D01*
X1931559Y470840D02*
X2215958D01*
X1931559Y501320D02*
X2215958D01*
X1931559Y531800D02*
X2215958D01*
X1931559Y562280D02*
X2215958D01*
X1931559Y592760D02*
X2215958D01*
X1931559Y623240D02*
X2215958D01*
Y318440D02*
Y684200D01*
D145*
X2200718Y318440D02*
X2215958Y333680D01*
X2185478Y318440D02*
X2215958Y348920D01*
X2170238Y318440D02*
X2200718Y348920D01*
X2154998Y318440D02*
X2185478Y348920D01*
X2139758Y318440D02*
X2170238Y348920D01*
X2124518Y318440D02*
X2154998Y348920D01*
X2109278Y318440D02*
X2139758Y348920D01*
X2094038Y318440D02*
X2124518Y348920D01*
X2078798Y318440D02*
X2109278Y348920D01*
X2063558Y318440D02*
X2094038Y348920D01*
X2048318Y318440D02*
X2078798Y348920D01*
X2033078Y318440D02*
X2063558Y348920D01*
X2017838Y318440D02*
X2048318Y348920D01*
X2002598Y318440D02*
X2033078Y348920D01*
X1987358Y318440D02*
X2017838Y348920D01*
X1972118Y318440D02*
X2002598Y348920D01*
X1956878Y318440D02*
X1987358Y348920D01*
X1941638Y318440D02*
X1972118Y348920D01*
X1931559Y323601D02*
X1956878Y348920D01*
X1931559Y338840D02*
X1941638Y348920D01*
X2200718D02*
X2215958Y364160D01*
X2185478Y348920D02*
X2215958Y379400D01*
X2170238Y348920D02*
X2200718Y379400D01*
X2154998Y348920D02*
X2185478Y379400D01*
X2139758Y348920D02*
X2170238Y379400D01*
X2124518Y348920D02*
X2154998Y379400D01*
X2109278Y348920D02*
X2139758Y379400D01*
X2094038Y348920D02*
X2124518Y379400D01*
X2078798Y348920D02*
X2109278Y379400D01*
X2063558Y348920D02*
X2094038Y379400D01*
X2048318Y348920D02*
X2078798Y379400D01*
X2033078Y348920D02*
X2063558Y379400D01*
X2017838Y348920D02*
X2048318Y379400D01*
X2002598Y348920D02*
X2033078Y379400D01*
X1987358Y348920D02*
X2017838Y379400D01*
X1972118Y348920D02*
X2002598Y379400D01*
X1956878Y348920D02*
X1987358Y379400D01*
X1941638Y348920D02*
X1972118Y379400D01*
X1931559Y354081D02*
X1956878Y379400D01*
X1931559Y369320D02*
X1941638Y379400D01*
X2200718D02*
X2215958Y394640D01*
X2185478Y379400D02*
X2215958Y409880D01*
X2170238Y379400D02*
X2200718Y409880D01*
X2154998Y379400D02*
X2185478Y409880D01*
X2139758Y379400D02*
X2170238Y409880D01*
X2124518Y379400D02*
X2154998Y409880D01*
X2109278Y379400D02*
X2139758Y409880D01*
X2094038Y379400D02*
X2124518Y409880D01*
X2078798Y379400D02*
X2109278Y409880D01*
X2063558Y379400D02*
X2094038Y409880D01*
X2048318Y379400D02*
X2078798Y409880D01*
X2033078Y379400D02*
X2063558Y409880D01*
X2017838Y379400D02*
X2048318Y409880D01*
X2002598Y379400D02*
X2033078Y409880D01*
X1987358Y379400D02*
X2017838Y409880D01*
X1972118Y379400D02*
X2002598Y409880D01*
X1956878Y379400D02*
X1987358Y409880D01*
X1941638Y379400D02*
X1972118Y409880D01*
X1931559Y384561D02*
X1956878Y409880D01*
X1931559Y399800D02*
X1941638Y409880D01*
X2200718D02*
X2215958Y425120D01*
X2185478Y409880D02*
X2215958Y440360D01*
X2170238Y409880D02*
X2200718Y440360D01*
X2154998Y409880D02*
X2185478Y440360D01*
X2139758Y409880D02*
X2170238Y440360D01*
X2124518Y409880D02*
X2154998Y440360D01*
X2109278Y409880D02*
X2139758Y440360D01*
X2094038Y409880D02*
X2124518Y440360D01*
X2078798Y409880D02*
X2109278Y440360D01*
X2063558Y409880D02*
X2094038Y440360D01*
X2048318Y409880D02*
X2078798Y440360D01*
X2033078Y409880D02*
X2063558Y440360D01*
X2017838Y409880D02*
X2048318Y440360D01*
X2002598Y409880D02*
X2033078Y440360D01*
X1987358Y409880D02*
X2017838Y440360D01*
X1972118Y409880D02*
X2002598Y440360D01*
X1956878Y409880D02*
X1987358Y440360D01*
X1941638Y409880D02*
X1972118Y440360D01*
X1931559Y415041D02*
X1956878Y440360D01*
X1931559Y430280D02*
X1941638Y440360D01*
X2200718D02*
X2215958Y455600D01*
X2185478Y440360D02*
X2215958Y470840D01*
X2170238Y440360D02*
X2200718Y470840D01*
X2154998Y440360D02*
X2185478Y470840D01*
X2139758Y440360D02*
X2170238Y470840D01*
X2124518Y440360D02*
X2154998Y470840D01*
X2109278Y440360D02*
X2139758Y470840D01*
X2094038Y440360D02*
X2124518Y470840D01*
X2078798Y440360D02*
X2109278Y470840D01*
X2063558Y440360D02*
X2094038Y470840D01*
X2048318Y440360D02*
X2078798Y470840D01*
X2033078Y440360D02*
X2063558Y470840D01*
X2017838Y440360D02*
X2048318Y470840D01*
X2002598Y440360D02*
X2033078Y470840D01*
X1987358Y440360D02*
X2017838Y470840D01*
X1972118Y440360D02*
X2002598Y470840D01*
X1956878Y440360D02*
X1987358Y470840D01*
X1941638Y440360D02*
X1972118Y470840D01*
X1931559Y445521D02*
X1956878Y470840D01*
X1931559Y460760D02*
X1941638Y470840D01*
X2200718D02*
X2215958Y486080D01*
X2185478Y470840D02*
X2215958Y501320D01*
X2170238Y470840D02*
X2200718Y501320D01*
X2154998Y470840D02*
X2185478Y501320D01*
X2139758Y470840D02*
X2170238Y501320D01*
X2124518Y470840D02*
X2154998Y501320D01*
X2109278Y470840D02*
X2139758Y501320D01*
X2094038Y470840D02*
X2124518Y501320D01*
X2078798Y470840D02*
X2109278Y501320D01*
X2063558Y470840D02*
X2094038Y501320D01*
X2048318Y470840D02*
X2078798Y501320D01*
X2033078Y470840D02*
X2063558Y501320D01*
X2017838Y470840D02*
X2048318Y501320D01*
X2002598Y470840D02*
X2033078Y501320D01*
X1987358Y470840D02*
X2017838Y501320D01*
X1972118Y470840D02*
X2002598Y501320D01*
X1956878Y470840D02*
X1987358Y501320D01*
X1941638Y470840D02*
X1972118Y501320D01*
X1931559Y476001D02*
X1956878Y501320D01*
X1931559Y491241D02*
X1941638Y501320D01*
X2200718D02*
X2215958Y516560D01*
X2185478Y501320D02*
X2215958Y531800D01*
X2170238Y501320D02*
X2200718Y531800D01*
X2154998Y501320D02*
X2185478Y531800D01*
X2139758Y501320D02*
X2170238Y531800D01*
X2124518Y501320D02*
X2154998Y531800D01*
X2109278Y501320D02*
X2139758Y531800D01*
X2094038Y501320D02*
X2124518Y531800D01*
X2078798Y501320D02*
X2109278Y531800D01*
X2063558Y501320D02*
X2094038Y531800D01*
X2048318Y501320D02*
X2078798Y531800D01*
X2033078Y501320D02*
X2063558Y531800D01*
X2017838Y501320D02*
X2048318Y531800D01*
X2002598Y501320D02*
X2033078Y531800D01*
X1987358Y501320D02*
X2017838Y531800D01*
X1972118Y501320D02*
X2002598Y531800D01*
X1956878Y501320D02*
X1987358Y531800D01*
X1941638Y501320D02*
X1972118Y531800D01*
X1931559Y506480D02*
X1956878Y531800D01*
X1931559Y521721D02*
X1941638Y531800D01*
X2200718D02*
X2215958Y547040D01*
X2185478Y531800D02*
X2215958Y562280D01*
X2170238Y531800D02*
X2200718Y562280D01*
X2154998Y531800D02*
X2185478Y562280D01*
X2139758Y531800D02*
X2170238Y562280D01*
X2124518Y531800D02*
X2154998Y562280D01*
X2109278Y531800D02*
X2139758Y562280D01*
X2094038Y531800D02*
X2124518Y562280D01*
X2078798Y531800D02*
X2109278Y562280D01*
X2063558Y531800D02*
X2094038Y562280D01*
X2048318Y531800D02*
X2078798Y562280D01*
X2033078Y531800D02*
X2063558Y562280D01*
X2017838Y531800D02*
X2048318Y562280D01*
X2002598Y531800D02*
X2033078Y562280D01*
X1987358Y531800D02*
X2017838Y562280D01*
X1972118Y531800D02*
X2002598Y562280D01*
X1956878Y531800D02*
X1987358Y562280D01*
X1941638Y531800D02*
X1972118Y562280D01*
X1931559Y536960D02*
X1956878Y562280D01*
X1931559Y552201D02*
X1941638Y562280D01*
X2200718D02*
X2215958Y577520D01*
X2185478Y562280D02*
X2215958Y592760D01*
X2170238Y562280D02*
X2200718Y592760D01*
X2154998Y562280D02*
X2185478Y592760D01*
X2139758Y562280D02*
X2170238Y592760D01*
X2124518Y562280D02*
X2154998Y592760D01*
X2109278Y562280D02*
X2139758Y592760D01*
X2094038Y562280D02*
X2124518Y592760D01*
X2078798Y562280D02*
X2109278Y592760D01*
X2063558Y562280D02*
X2094038Y592760D01*
X2048318Y562280D02*
X2078798Y592760D01*
X2033078Y562280D02*
X2063558Y592760D01*
X2017838Y562280D02*
X2048318Y592760D01*
X2002598Y562280D02*
X2033078Y592760D01*
X1987358Y562280D02*
X2017838Y592760D01*
X1972118Y562280D02*
X2002598Y592760D01*
X1956878Y562280D02*
X1987358Y592760D01*
X1941638Y562280D02*
X1972118Y592760D01*
X1931559Y567440D02*
X1956878Y592760D01*
X1931559Y582681D02*
X1941638Y592760D01*
X2200718D02*
X2215958Y608000D01*
X2185478Y592760D02*
X2215958Y623240D01*
X2170238Y592760D02*
X2200718Y623240D01*
X2154998Y592760D02*
X2185478Y623240D01*
X2139758Y592760D02*
X2170238Y623240D01*
X2124518Y592760D02*
X2154998Y623240D01*
X2109278Y592760D02*
X2139758Y623240D01*
X2094038Y592760D02*
X2124518Y623240D01*
X2078798Y592760D02*
X2109278Y623240D01*
X2063558Y592760D02*
X2094038Y623240D01*
X2048318Y592760D02*
X2078798Y623240D01*
X2033078Y592760D02*
X2063558Y623240D01*
X2017838Y592760D02*
X2048318Y623240D01*
X2002598Y592760D02*
X2033078Y623240D01*
X1987358Y592760D02*
X2017838Y623240D01*
X1972118Y592760D02*
X2002598Y623240D01*
X1956878Y592760D02*
X1987358Y623240D01*
X1941638Y592760D02*
X1972118Y623240D01*
X1931559Y597920D02*
X1956878Y623240D01*
X1931559Y613161D02*
X1941638Y623240D01*
X2200718D02*
X2215958Y638480D01*
X2185478Y623240D02*
X2215958Y653720D01*
X2170238Y623240D02*
X2200718Y653720D01*
X2154998Y623240D02*
X2185478Y653720D01*
X2139758Y623240D02*
X2170238Y653720D01*
X2124518Y623240D02*
X2154998Y653720D01*
X2109278Y623240D02*
X2139758Y653720D01*
X2094038Y623240D02*
X2124518Y653720D01*
X2078798Y623240D02*
X2109278Y653720D01*
X2063558Y623240D02*
X2094038Y653720D01*
X2048318Y623240D02*
X2078798Y653720D01*
X2033078Y623240D02*
X2063558Y653720D01*
X2017838Y623240D02*
X2048318Y653720D01*
X2002598Y623240D02*
X2033078Y653720D01*
X1987358Y623240D02*
X2017838Y653720D01*
X1972118Y623240D02*
X2002598Y653720D01*
X1956878Y623240D02*
X1987358Y653720D01*
X1941638Y623240D02*
X1972118Y653720D01*
X1931559Y628400D02*
X1956878Y653720D01*
X1931559Y643641D02*
X1941638Y653720D01*
M02*
