G04*
G04 #@! TF.GenerationSoftware,Altium Limited,Altium Designer,24.1.2 (44)*
G04*
G04 Layer_Color=2752767*
%FSLAX44Y44*%
%MOMM*%
G71*
G04*
G04 #@! TF.SameCoordinates,BB806972-894B-4990-B732-A97902CF1386*
G04*
G04*
G04 #@! TF.FilePolarity,Positive*
G04*
G01*
G75*
%ADD13C,0.1270*%
%ADD14C,0.2540*%
%ADD144C,0.3810*%
%ADD146C,0.4064*%
D13*
X976350Y218100D02*
G03*
X976350Y218100I-6350J0D01*
G01*
Y192700D02*
G03*
X976350Y192700I-6350J0D01*
G01*
Y167300D02*
G03*
X976350Y167300I-6350J0D01*
G01*
Y141900D02*
G03*
X976350Y141900I-6350J0D01*
G01*
X306070Y278130D02*
X313690D01*
Y285750D01*
X306070D02*
X313690D01*
X306070Y278130D02*
Y285750D01*
X303530Y275590D02*
X316230D01*
Y288290D01*
X303530D02*
X316230D01*
X303530Y275590D02*
Y288290D01*
X306070D02*
X313690D01*
Y295910D01*
X306070D02*
X313690D01*
X306070Y288290D02*
Y295910D01*
X303530Y285750D02*
X316230D01*
Y298450D01*
X303530D02*
X316230D01*
X303530Y285750D02*
Y298450D01*
X401130Y213170D02*
X408750D01*
Y220790D01*
X401130D02*
X408750D01*
X401130Y213170D02*
Y220790D01*
X398590Y210630D02*
X411290D01*
Y223330D01*
X398590D02*
X411290D01*
X398590Y210630D02*
Y223330D01*
X401510Y233490D02*
X409130D01*
Y241110D01*
X401510D02*
X409130D01*
X401510Y233490D02*
Y241110D01*
X398970Y230950D02*
X411670D01*
Y243650D01*
X398970D02*
X411670D01*
X398970Y230950D02*
Y243650D01*
X229306Y184150D02*
X236926D01*
Y191770D01*
X229306D02*
X236926D01*
X229306Y184150D02*
Y191770D01*
X226766Y181610D02*
X239466D01*
Y194310D01*
X226766D02*
X239466D01*
X226766Y181610D02*
Y194310D01*
X240894Y184150D02*
X248514D01*
Y191770D01*
X240894D02*
X248514D01*
X240894Y184150D02*
Y191770D01*
X238354Y181610D02*
X251054D01*
Y194310D01*
X238354D02*
X251054D01*
X238354Y181610D02*
Y194310D01*
X280953Y181319D02*
X288573D01*
Y188939D01*
X280953D02*
X288573D01*
X280953Y181319D02*
Y188939D01*
X278413Y178779D02*
X291113D01*
Y191479D01*
X278413D02*
X291113D01*
X278413Y178779D02*
Y191479D01*
X229870Y306070D02*
X237490D01*
Y313690D01*
X229870D02*
X237490D01*
X229870Y306070D02*
Y313690D01*
X227330Y303530D02*
X240030D01*
Y316230D01*
X227330D02*
X240030D01*
X227330Y303530D02*
Y316230D01*
X265430Y186690D02*
X273050D01*
Y194310D01*
X265430D02*
X273050D01*
X265430Y186690D02*
Y194310D01*
X262890Y184150D02*
X275590D01*
Y196850D01*
X262890D02*
X275590D01*
X262890Y184150D02*
Y196850D01*
X214630Y303530D02*
X222250D01*
Y311150D01*
X214630D02*
X222250D01*
X214630Y303530D02*
Y311150D01*
X212090Y300990D02*
X224790D01*
Y313690D01*
X212090D02*
X224790D01*
X212090Y300990D02*
Y313690D01*
X218420Y205968D02*
X226040D01*
Y213587D01*
X218420D02*
X226040D01*
X218420Y205968D02*
Y213587D01*
X215880Y203428D02*
X228580D01*
Y216127D01*
X215880D02*
X228580D01*
X215880Y203428D02*
Y216127D01*
X298496Y206160D02*
X306116D01*
Y213780D01*
X298496D02*
X306116D01*
X298496Y206160D02*
Y213780D01*
X295956Y203620D02*
X308656D01*
Y216320D01*
X295956D02*
X308656D01*
X295956Y203620D02*
Y216320D01*
X308610Y369570D02*
X316230D01*
Y377190D01*
X308610D02*
X316230D01*
X308610Y369570D02*
Y377190D01*
X306070Y367030D02*
X318770D01*
Y379730D01*
X306070D02*
X318770D01*
X306070Y367030D02*
Y379730D01*
X214630Y372110D02*
X222250D01*
Y379730D01*
X214630D02*
X222250D01*
X214630Y372110D02*
Y379730D01*
X212090Y369570D02*
X224790D01*
Y382270D01*
X212090D02*
X224790D01*
X212090Y369570D02*
Y382270D01*
X245110Y300990D02*
X252730D01*
Y308610D01*
X245110D02*
X252730D01*
X245110Y300990D02*
Y308610D01*
X242570Y298450D02*
X255270D01*
Y311150D01*
X242570D02*
X255270D01*
X242570Y298450D02*
Y311150D01*
X278130Y298450D02*
X285750D01*
Y306070D01*
X278130D02*
X285750D01*
X278130Y298450D02*
Y306070D01*
X275590Y295910D02*
X288290D01*
Y308610D01*
X275590D02*
X288290D01*
X275590Y295910D02*
Y308610D01*
X265430Y316230D02*
X273050D01*
Y323850D01*
X265430D02*
X273050D01*
X265430Y316230D02*
Y323850D01*
X262890Y313690D02*
X275590D01*
Y326390D01*
X262890D02*
X275590D01*
X262890Y313690D02*
Y326390D01*
X285750Y303530D02*
X293370D01*
Y311150D01*
X285750D02*
X293370D01*
X285750Y303530D02*
Y311150D01*
X283210Y300990D02*
X295910D01*
Y313690D01*
X283210D02*
X295910D01*
X283210Y300990D02*
Y313690D01*
X255270Y308610D02*
X262890D01*
Y316230D01*
X255270D02*
X262890D01*
X255270Y308610D02*
Y316230D01*
X252730Y306070D02*
X265430D01*
Y318770D01*
X252730D02*
X265430D01*
X252730Y306070D02*
Y318770D01*
X199390Y196850D02*
X207010D01*
Y204470D01*
X199390D02*
X207010D01*
X199390Y196850D02*
Y204470D01*
X196850Y194310D02*
X209550D01*
Y207010D01*
X196850D02*
X209550D01*
X196850Y194310D02*
Y207010D01*
X320230Y241110D02*
X327850D01*
Y248730D01*
X320230D02*
X327850D01*
X320230Y241110D02*
Y248730D01*
X317690Y238570D02*
X330390D01*
Y251270D01*
X317690D02*
X330390D01*
X317690Y238570D02*
Y251270D01*
X255270Y199390D02*
X262890D01*
Y207010D01*
X255270D02*
X262890D01*
X255270Y199390D02*
Y207010D01*
X252730Y196850D02*
X265430D01*
Y209550D01*
X252730D02*
X265430D01*
X252730Y196850D02*
Y209550D01*
X255270Y207010D02*
X262890D01*
Y214630D01*
X255270D02*
X262890D01*
X255270Y207010D02*
Y214630D01*
X252730Y204470D02*
X265430D01*
Y217170D01*
X252730D02*
X265430D01*
X252730Y204470D02*
Y217170D01*
X316230Y341630D02*
X323850D01*
Y349250D01*
X316230D02*
X323850D01*
X316230Y341630D02*
Y349250D01*
X313690Y339090D02*
X326390D01*
Y351790D01*
X313690D02*
X326390D01*
X313690Y339090D02*
Y351790D01*
X201930Y128270D02*
X209550D01*
Y135890D01*
X201930D02*
X209550D01*
X201930Y128270D02*
Y135890D01*
X199390Y125730D02*
X212090D01*
Y138430D01*
X199390D02*
X212090D01*
X199390Y125730D02*
Y138430D01*
X235806Y94140D02*
X243426D01*
Y101760D01*
X235806D02*
X243426D01*
X235806Y94140D02*
Y101760D01*
X233266Y91600D02*
X245966D01*
Y104300D01*
X233266D02*
X245966D01*
X233266Y91600D02*
Y104300D01*
X796290Y46990D02*
X803910D01*
Y54610D01*
X796290D02*
X803910D01*
X796290Y46990D02*
Y54610D01*
X793750Y44450D02*
X806450D01*
Y57150D01*
X793750D02*
X806450D01*
X793750Y44450D02*
Y57150D01*
X806450Y46990D02*
X814070D01*
Y54610D01*
X806450D02*
X814070D01*
X806450Y46990D02*
Y54610D01*
X803910Y44450D02*
X816610D01*
Y57150D01*
X803910D02*
X816610D01*
X803910Y44450D02*
Y57150D01*
X676010Y81650D02*
X683630D01*
Y89270D01*
X676010D02*
X683630D01*
X676010Y81650D02*
Y89270D01*
X673470Y79110D02*
X686170D01*
Y91810D01*
X673470D02*
X686170D01*
X673470Y79110D02*
Y91810D01*
X793750Y92710D02*
X801370D01*
Y100330D01*
X793750D02*
X801370D01*
X793750Y92710D02*
Y100330D01*
X791210Y90170D02*
X803910D01*
Y102870D01*
X791210D02*
X803910D01*
X791210Y90170D02*
Y102870D01*
X801370Y54610D02*
X808990D01*
Y62230D01*
X801370D02*
X808990D01*
X801370Y54610D02*
Y62230D01*
X798830Y52070D02*
X811530D01*
Y64770D01*
X798830D02*
X811530D01*
X798830Y52070D02*
Y64770D01*
X695770Y311250D02*
X703390D01*
Y318870D01*
X695770D02*
X703390D01*
X695770Y311250D02*
Y318870D01*
X693230Y308710D02*
X705930D01*
Y321410D01*
X693230D02*
X705930D01*
X693230Y308710D02*
Y321410D01*
X708470Y329030D02*
X716090D01*
Y336650D01*
X708470D02*
X716090D01*
X708470Y329030D02*
Y336650D01*
X705930Y326490D02*
X718630D01*
Y339190D01*
X705930D02*
X718630D01*
X705930Y326490D02*
Y339190D01*
X688150Y293470D02*
X695770D01*
Y301090D01*
X688150D02*
X695770D01*
X688150Y293470D02*
Y301090D01*
X685610Y290930D02*
X698310D01*
Y303630D01*
X685610D02*
X698310D01*
X685610Y290930D02*
Y303630D01*
X788490Y269350D02*
X796110D01*
Y276970D01*
X788490D02*
X796110D01*
X788490Y269350D02*
Y276970D01*
X785950Y266810D02*
X798650D01*
Y279510D01*
X785950D02*
X798650D01*
X785950Y266810D02*
Y279510D01*
X756730Y191870D02*
X764350D01*
Y199490D01*
X756730D02*
X764350D01*
X756730Y191870D02*
Y199490D01*
X754190Y189330D02*
X766890D01*
Y202030D01*
X754190D02*
X766890D01*
X754190Y189330D02*
Y202030D01*
X827850Y194410D02*
X835470D01*
Y202030D01*
X827850D02*
X835470D01*
X827850Y194410D02*
Y202030D01*
X825310Y191870D02*
X838010D01*
Y204570D01*
X825310D02*
X838010D01*
X825310Y191870D02*
Y204570D01*
X827850Y184250D02*
X835470D01*
Y191870D01*
X827850D02*
X835470D01*
X827850Y184250D02*
Y191870D01*
X825310Y181710D02*
X838010D01*
Y194410D01*
X825310D02*
X838010D01*
X825310Y181710D02*
Y194410D01*
X820230Y189330D02*
X827850D01*
Y196950D01*
X820230D02*
X827850D01*
X820230Y189330D02*
Y196950D01*
X817690Y186790D02*
X830390D01*
Y199490D01*
X817690D02*
X830390D01*
X817690Y186790D02*
Y199490D01*
X820230Y179170D02*
X827850D01*
Y186790D01*
X820230D02*
X827850D01*
X820230Y179170D02*
Y186790D01*
X817690Y176630D02*
X830390D01*
Y189330D01*
X817690D02*
X830390D01*
X817690Y176630D02*
Y189330D01*
X428630Y560710D02*
X436250D01*
Y568330D01*
X428630D02*
X436250D01*
X428630Y560710D02*
Y568330D01*
X426090Y558170D02*
X438790D01*
Y570870D01*
X426090D02*
X438790D01*
X426090Y558170D02*
Y570870D01*
X403122Y561605D02*
X410742D01*
Y569225D01*
X403122D02*
X410742D01*
X403122Y561605D02*
Y569225D01*
X400582Y559065D02*
X413282D01*
Y571765D01*
X400582D02*
X413282D01*
X400582Y559065D02*
Y571765D01*
X427990Y499110D02*
X435610D01*
Y506730D01*
X427990D02*
X435610D01*
X427990Y499110D02*
Y506730D01*
X425450Y496570D02*
X438150D01*
Y509270D01*
X425450D02*
X438150D01*
X425450Y496570D02*
Y509270D01*
X403194Y498903D02*
X410814D01*
Y506522D01*
X403194D02*
X410814D01*
X403194Y498903D02*
Y506522D01*
X400654Y496362D02*
X413354D01*
Y509062D01*
X400654D02*
X413354D01*
X400654Y496362D02*
Y509062D01*
X722630Y425450D02*
X730250D01*
Y433070D01*
X722630D02*
X730250D01*
X722630Y425450D02*
Y433070D01*
X720090Y422910D02*
X732790D01*
Y435610D01*
X720090D02*
X732790D01*
X720090Y422910D02*
Y435610D01*
X730250Y519430D02*
X737870D01*
Y527050D01*
X730250D02*
X737870D01*
X730250Y519430D02*
Y527050D01*
X727710Y516890D02*
X740410D01*
Y529590D01*
X727710D02*
X740410D01*
X727710Y516890D02*
Y529590D01*
X882650Y514350D02*
X890270D01*
Y521970D01*
X882650D02*
X890270D01*
X882650Y514350D02*
Y521970D01*
X880110Y511810D02*
X892810D01*
Y524510D01*
X880110D02*
X892810D01*
X880110Y511810D02*
Y524510D01*
X651510Y542290D02*
X659130D01*
Y549910D01*
X651510D02*
X659130D01*
X651510Y542290D02*
Y549910D01*
X648970Y539750D02*
X661670D01*
Y552450D01*
X648970D02*
X661670D01*
X648970Y539750D02*
Y552450D01*
X651510Y532130D02*
X659130D01*
Y539750D01*
X651510D02*
X659130D01*
X651510Y532130D02*
Y539750D01*
X648970Y529590D02*
X661670D01*
Y542290D01*
X648970D02*
X661670D01*
X648970Y529590D02*
Y542290D01*
X715010Y412750D02*
X722630D01*
Y420370D01*
X715010D02*
X722630D01*
X715010Y412750D02*
Y420370D01*
X712470Y410210D02*
X725170D01*
Y422910D01*
X712470D02*
X725170D01*
X712470Y410210D02*
Y422910D01*
X343340Y622740D02*
X350960D01*
Y630360D01*
X343340D02*
X350960D01*
X343340Y622740D02*
Y630360D01*
X340800Y620200D02*
X353500D01*
Y632900D01*
X340800D02*
X353500D01*
X340800Y620200D02*
Y632900D01*
X577850Y572770D02*
X585470D01*
Y580390D01*
X577850D02*
X585470D01*
X577850Y572770D02*
Y580390D01*
X575310Y570230D02*
X588010D01*
Y582930D01*
X575310D02*
X588010D01*
X575310Y570230D02*
Y582930D01*
X757725Y557995D02*
X765345D01*
Y565615D01*
X757725D02*
X765345D01*
X757725Y557995D02*
Y565615D01*
X755185Y555455D02*
X767885D01*
Y568155D01*
X755185D02*
X767885D01*
X755185Y555455D02*
Y568155D01*
X547370Y504190D02*
X554990D01*
Y511810D01*
X547370D02*
X554990D01*
X547370Y504190D02*
Y511810D01*
X544830Y501650D02*
X557530D01*
Y514350D01*
X544830D02*
X557530D01*
X544830Y501650D02*
Y514350D01*
X394970Y623570D02*
X402590D01*
Y631190D01*
X394970D02*
X402590D01*
X394970Y623570D02*
Y631190D01*
X392430Y621030D02*
X405130D01*
Y633730D01*
X392430D02*
X405130D01*
X392430Y621030D02*
Y633730D01*
X394970Y613410D02*
X402590D01*
Y621030D01*
X394970D02*
X402590D01*
X394970Y613410D02*
Y621030D01*
X392430Y610870D02*
X405130D01*
Y623570D01*
X392430D02*
X405130D01*
X392430Y610870D02*
Y623570D01*
X402590Y618490D02*
X410210D01*
Y626110D01*
X402590D02*
X410210D01*
X402590Y618490D02*
Y626110D01*
X400050Y615950D02*
X412750D01*
Y628650D01*
X400050D02*
X412750D01*
X400050Y615950D02*
Y628650D01*
X438150Y618490D02*
X445770D01*
Y626110D01*
X438150D02*
X445770D01*
X438150Y618490D02*
Y626110D01*
X435610Y615950D02*
X448310D01*
Y628650D01*
X435610D02*
X448310D01*
X435610Y615950D02*
Y628650D01*
X445770Y613410D02*
X453390D01*
Y621030D01*
X445770D02*
X453390D01*
X445770Y613410D02*
Y621030D01*
X443230Y610870D02*
X455930D01*
Y623570D01*
X443230D02*
X455930D01*
X443230Y610870D02*
Y623570D01*
X445770D02*
X453390D01*
Y631190D01*
X445770D02*
X453390D01*
X445770Y623570D02*
Y631190D01*
X443230Y621030D02*
X455930D01*
Y633730D01*
X443230D02*
X455930D01*
X443230Y621030D02*
Y633730D01*
X585470Y463550D02*
X593090D01*
Y471170D01*
X585470D02*
X593090D01*
X585470Y463550D02*
Y471170D01*
X582930Y461010D02*
X595630D01*
Y473710D01*
X582930D02*
X595630D01*
X582930Y461010D02*
Y473710D01*
X595630Y453390D02*
X603250D01*
Y461010D01*
X595630D02*
X603250D01*
X595630Y453390D02*
Y461010D01*
X593090Y450850D02*
X605790D01*
Y463550D01*
X593090D02*
X605790D01*
X593090Y450850D02*
Y463550D01*
X755650Y477180D02*
X763270D01*
Y484800D01*
X755650D02*
X763270D01*
X755650Y477180D02*
Y484800D01*
X753110Y474640D02*
X765810D01*
Y487340D01*
X753110D02*
X765810D01*
X753110Y474640D02*
Y487340D01*
X862330Y593090D02*
X869950D01*
Y600710D01*
X862330D02*
X869950D01*
X862330Y593090D02*
Y600710D01*
X859790Y590550D02*
X872490D01*
Y603250D01*
X859790D02*
X872490D01*
X859790Y590550D02*
Y603250D01*
X929250Y441570D02*
X936870D01*
Y449190D01*
X929250D02*
X936870D01*
X929250Y441570D02*
Y449190D01*
X926710Y439030D02*
X939410D01*
Y451730D01*
X926710D02*
X939410D01*
X926710Y439030D02*
Y451730D01*
X937070Y308710D02*
X944690D01*
Y316330D01*
X937070D02*
X944690D01*
X937070Y308710D02*
Y316330D01*
X934530Y306170D02*
X947230D01*
Y318870D01*
X934530D02*
X947230D01*
X934530Y306170D02*
Y318870D01*
X725170Y600710D02*
X732790D01*
Y608330D01*
X725170D02*
X732790D01*
X725170Y600710D02*
Y608330D01*
X722630Y598170D02*
X735330D01*
Y610870D01*
X722630D02*
X735330D01*
X722630Y598170D02*
Y610870D01*
X608795Y595165D02*
X616415D01*
Y602785D01*
X608795D02*
X616415D01*
X608795Y595165D02*
Y602785D01*
X606255Y592625D02*
X618955D01*
Y605325D01*
X606255D02*
X618955D01*
X606255Y592625D02*
Y605325D01*
X615950Y608330D02*
X623570D01*
Y615950D01*
X615950D02*
X623570D01*
X615950Y608330D02*
Y615950D01*
X613410Y605790D02*
X626110D01*
Y618490D01*
X613410D02*
X626110D01*
X613410Y605790D02*
Y618490D01*
X740410Y565150D02*
X748030D01*
Y572770D01*
X740410D02*
X748030D01*
X740410Y565150D02*
Y572770D01*
X737870Y562610D02*
X750570D01*
Y575310D01*
X737870D02*
X750570D01*
X737870Y562610D02*
Y575310D01*
X890270Y557530D02*
X897890D01*
Y565150D01*
X890270D02*
X897890D01*
X890270Y557530D02*
Y565150D01*
X887730Y554990D02*
X900430D01*
Y567690D01*
X887730D02*
X900430D01*
X887730Y554990D02*
Y567690D01*
X910590Y425450D02*
X918210D01*
Y433070D01*
X910590D02*
X918210D01*
X910590Y425450D02*
Y433070D01*
X908050Y422910D02*
X920750D01*
Y435610D01*
X908050D02*
X920750D01*
X908050Y422910D02*
Y435610D01*
Y364490D02*
X915670D01*
Y372110D01*
X908050D02*
X915670D01*
X908050Y364490D02*
Y372110D01*
X905510Y361950D02*
X918210D01*
Y374650D01*
X905510D02*
X918210D01*
X905510Y361950D02*
Y374650D01*
X857250Y364490D02*
X864870D01*
Y372110D01*
X857250D02*
X864870D01*
X857250Y364490D02*
Y372110D01*
X854710Y361950D02*
X867410D01*
Y374650D01*
X854710D02*
X867410D01*
X854710Y361950D02*
Y374650D01*
X296190Y430810D02*
X303810D01*
Y438430D01*
X296190D02*
X303810D01*
X296190Y430810D02*
Y438430D01*
X293650Y428270D02*
X306350D01*
Y440970D01*
X293650D02*
X306350D01*
X293650Y428270D02*
Y440970D01*
X283210Y646430D02*
X290830D01*
Y654050D01*
X283210D02*
X290830D01*
X283210Y646430D02*
Y654050D01*
X280670Y643890D02*
X293370D01*
Y656590D01*
X280670D02*
X293370D01*
X280670Y643890D02*
Y656590D01*
X300990Y674370D02*
X308610D01*
Y681990D01*
X300990D02*
X308610D01*
X300990Y674370D02*
Y681990D01*
X298450Y671830D02*
X311150D01*
Y684530D01*
X298450D02*
X311150D01*
X298450Y671830D02*
Y684530D01*
X300990Y626110D02*
X308610D01*
Y633730D01*
X300990D02*
X308610D01*
X300990Y626110D02*
Y633730D01*
X298450Y623570D02*
X311150D01*
Y636270D01*
X298450D02*
X311150D01*
X298450Y623570D02*
Y636270D01*
X295910Y621030D02*
X303530D01*
Y628650D01*
X295910D02*
X303530D01*
X295910Y621030D02*
Y628650D01*
X293370Y618490D02*
X306070D01*
Y631190D01*
X293370D02*
X306070D01*
X293370Y618490D02*
Y631190D01*
X483870Y389890D02*
X491490D01*
Y397510D01*
X483870D02*
X491490D01*
X483870Y389890D02*
Y397510D01*
X481330Y387350D02*
X494030D01*
Y400050D01*
X481330D02*
X494030D01*
X481330Y387350D02*
Y400050D01*
X483870Y374650D02*
X491490D01*
Y382270D01*
X483870D02*
X491490D01*
X483870Y374650D02*
Y382270D01*
X481330Y372110D02*
X494030D01*
Y384810D01*
X481330D02*
X494030D01*
X481330Y372110D02*
Y384810D01*
X483870Y356870D02*
X491490D01*
Y364490D01*
X483870D02*
X491490D01*
X483870Y356870D02*
Y364490D01*
X481330Y354330D02*
X494030D01*
Y367030D01*
X481330D02*
X494030D01*
X481330Y354330D02*
Y367030D01*
X501650Y392430D02*
X509270D01*
Y400050D01*
X501650D02*
X509270D01*
X501650Y392430D02*
Y400050D01*
X499110Y389890D02*
X511810D01*
Y402590D01*
X499110D02*
X511810D01*
X499110Y389890D02*
Y402590D01*
X842010Y313690D02*
X849630D01*
Y321310D01*
X842010D02*
X849630D01*
X842010Y313690D02*
Y321310D01*
X839470Y311150D02*
X852170D01*
Y323850D01*
X839470D02*
X852170D01*
X839470Y311150D02*
Y323850D01*
X704850Y49530D02*
X712470D01*
Y57150D01*
X704850D02*
X712470D01*
X704850Y49530D02*
Y57150D01*
X702310Y46990D02*
X715010D01*
Y59690D01*
X702310D02*
X715010D01*
X702310Y46990D02*
Y59690D01*
X704850Y41910D02*
X712470D01*
Y49530D01*
X704850D02*
X712470D01*
X704850Y41910D02*
Y49530D01*
X702310Y39370D02*
X715010D01*
Y52070D01*
X702310D02*
X715010D01*
X702310Y39370D02*
Y52070D01*
X704850Y57150D02*
X712470D01*
Y64770D01*
X704850D02*
X712470D01*
X704850Y57150D02*
Y64770D01*
X702310Y54610D02*
X715010D01*
Y67310D01*
X702310D02*
X715010D01*
X702310Y54610D02*
Y67310D01*
X631190Y331470D02*
X638810D01*
Y339090D01*
X631190D02*
X638810D01*
X631190Y331470D02*
Y339090D01*
X628650Y328930D02*
X641350D01*
Y341630D01*
X628650D02*
X641350D01*
X628650Y328930D02*
Y341630D01*
X631190Y321310D02*
X638810D01*
Y328930D01*
X631190D02*
X638810D01*
X631190Y321310D02*
Y328930D01*
X628650Y318770D02*
X641350D01*
Y331470D01*
X628650D02*
X641350D01*
X628650Y318770D02*
Y331470D01*
X631190Y311150D02*
X638810D01*
Y318770D01*
X631190D02*
X638810D01*
X631190Y311150D02*
Y318770D01*
X628650Y308610D02*
X641350D01*
Y321310D01*
X628650D02*
X641350D01*
X628650Y308610D02*
Y321310D01*
X448310Y367030D02*
X455930D01*
Y374650D01*
X448310D02*
X455930D01*
X448310Y367030D02*
Y374650D01*
X445770Y364490D02*
X458470D01*
Y377190D01*
X445770D02*
X458470D01*
X445770Y364490D02*
Y377190D01*
X448310Y356870D02*
X455930D01*
Y364490D01*
X448310D02*
X455930D01*
X448310Y356870D02*
Y364490D01*
X445770Y354330D02*
X458470D01*
Y367030D01*
X445770D02*
X458470D01*
X445770Y354330D02*
Y367030D01*
X448310Y346710D02*
X455930D01*
Y354330D01*
X448310D02*
X455930D01*
X448310Y346710D02*
Y354330D01*
X445770Y344170D02*
X458470D01*
Y356870D01*
X445770D02*
X458470D01*
X445770Y344170D02*
Y356870D01*
X448310Y336550D02*
X455930D01*
Y344170D01*
X448310D02*
X455930D01*
X448310Y336550D02*
Y344170D01*
X445770Y334010D02*
X458470D01*
Y346710D01*
X445770D02*
X458470D01*
X445770Y334010D02*
Y346710D01*
X448310Y326390D02*
X455930D01*
Y334010D01*
X448310D02*
X455930D01*
X448310Y326390D02*
Y334010D01*
X445770Y323850D02*
X458470D01*
Y336550D01*
X445770D02*
X458470D01*
X445770Y323850D02*
Y336550D01*
X448310Y316230D02*
X455930D01*
Y323850D01*
X448310D02*
X455930D01*
X448310Y316230D02*
Y323850D01*
X445770Y313690D02*
X458470D01*
Y326390D01*
X445770D02*
X458470D01*
X445770Y313690D02*
Y326390D01*
X440690Y321310D02*
X448310D01*
Y328930D01*
X440690D02*
X448310D01*
X440690Y321310D02*
Y328930D01*
X438150Y318770D02*
X450850D01*
Y331470D01*
X438150D02*
X450850D01*
X438150Y318770D02*
Y331470D01*
X440690D02*
X448310D01*
Y339090D01*
X440690D02*
X448310D01*
X440690Y331470D02*
Y339090D01*
X438150Y328930D02*
X450850D01*
Y341630D01*
X438150D02*
X450850D01*
X438150Y328930D02*
Y341630D01*
X440690D02*
X448310D01*
Y349250D01*
X440690D02*
X448310D01*
X440690Y341630D02*
Y349250D01*
X438150Y339090D02*
X450850D01*
Y351790D01*
X438150D02*
X450850D01*
X438150Y339090D02*
Y351790D01*
X440690D02*
X448310D01*
Y359410D01*
X440690D02*
X448310D01*
X440690Y351790D02*
Y359410D01*
X438150Y349250D02*
X450850D01*
Y361950D01*
X438150D02*
X450850D01*
X438150Y349250D02*
Y361950D01*
X440690D02*
X448310D01*
Y369570D01*
X440690D02*
X448310D01*
X440690Y361950D02*
Y369570D01*
X438150Y359410D02*
X450850D01*
Y372110D01*
X438150D02*
X450850D01*
X438150Y359410D02*
Y372110D01*
X369570Y166370D02*
X377190D01*
Y173990D01*
X369570D02*
X377190D01*
X369570Y166370D02*
Y173990D01*
X367030Y163830D02*
X379730D01*
Y176530D01*
X367030D02*
X379730D01*
X367030Y163830D02*
Y176530D01*
X415290Y339090D02*
X422910D01*
Y346710D01*
X415290D02*
X422910D01*
X415290Y339090D02*
Y346710D01*
X412750Y336550D02*
X425450D01*
Y349250D01*
X412750D02*
X425450D01*
X412750Y336550D02*
Y349250D01*
X511810Y90170D02*
X519430D01*
Y97790D01*
X511810D02*
X519430D01*
X511810Y90170D02*
Y97790D01*
X509270Y87630D02*
X521970D01*
Y100330D01*
X509270D02*
X521970D01*
X509270Y87630D02*
Y100330D01*
X511810Y80010D02*
X519430D01*
Y87630D01*
X511810D02*
X519430D01*
X511810Y80010D02*
Y87630D01*
X509270Y77470D02*
X521970D01*
Y90170D01*
X509270D02*
X521970D01*
X509270Y77470D02*
Y90170D01*
X504190Y85090D02*
X511810D01*
Y92710D01*
X504190D02*
X511810D01*
X504190Y85090D02*
Y92710D01*
X501650Y82550D02*
X514350D01*
Y95250D01*
X501650D02*
X514350D01*
X501650Y82550D02*
Y95250D01*
X496570Y85090D02*
X504190D01*
Y92710D01*
X496570D02*
X504190D01*
X496570Y85090D02*
Y92710D01*
X494030Y82550D02*
X506730D01*
Y95250D01*
X494030D02*
X506730D01*
X494030Y82550D02*
Y95250D01*
X501650Y92710D02*
X509270D01*
Y100330D01*
X501650D02*
X509270D01*
X501650Y92710D02*
Y100330D01*
X499110Y90170D02*
X511810D01*
Y102870D01*
X499110D02*
X511810D01*
X499110Y90170D02*
Y102870D01*
X501650Y77470D02*
X509270D01*
Y85090D01*
X501650D02*
X509270D01*
X501650Y77470D02*
Y85090D01*
X499110Y74930D02*
X511810D01*
Y87630D01*
X499110D02*
X511810D01*
X499110Y74930D02*
Y87630D01*
X684530Y123190D02*
X692150D01*
Y130810D01*
X684530D02*
X692150D01*
X684530Y123190D02*
Y130810D01*
X681990Y120650D02*
X694690D01*
Y133350D01*
X681990D02*
X694690D01*
X681990Y120650D02*
Y133350D01*
X872490Y176530D02*
X880110D01*
Y184150D01*
X872490D02*
X880110D01*
X872490Y176530D02*
Y184150D01*
X869950Y173990D02*
X882650D01*
Y186690D01*
X869950D02*
X882650D01*
X869950Y173990D02*
Y186690D01*
X872969Y404651D02*
X880589D01*
Y412271D01*
X872969D02*
X880589D01*
X872969Y404651D02*
Y412271D01*
X870429Y402111D02*
X883129D01*
Y414811D01*
X870429D02*
X883129D01*
X870429Y402111D02*
Y414811D01*
X354330Y448310D02*
X361950D01*
Y455930D01*
X354330D02*
X361950D01*
X354330Y448310D02*
Y455930D01*
X351790Y445770D02*
X364490D01*
Y458470D01*
X351790D02*
X364490D01*
X351790Y445770D02*
Y458470D01*
X97790Y298450D02*
X105410D01*
Y306070D01*
X97790D02*
X105410D01*
X97790Y298450D02*
Y306070D01*
X95250Y295910D02*
X107950D01*
Y308610D01*
X95250D02*
X107950D01*
X95250Y295910D02*
Y308610D01*
X130810Y298450D02*
X138430D01*
Y306070D01*
X130810D02*
X138430D01*
X130810Y298450D02*
Y306070D01*
X128270Y295910D02*
X140970D01*
Y308610D01*
X128270D02*
X140970D01*
X128270Y295910D02*
Y308610D01*
X161290Y298450D02*
X168910D01*
Y306070D01*
X161290D02*
X168910D01*
X161290Y298450D02*
Y306070D01*
X158750Y295910D02*
X171450D01*
Y308610D01*
X158750D02*
X171450D01*
X158750Y295910D02*
Y308610D01*
X189230Y318770D02*
X196850D01*
Y326390D01*
X189230D02*
X196850D01*
X189230Y318770D02*
Y326390D01*
X186690Y316230D02*
X199390D01*
Y328930D01*
X186690D02*
X199390D01*
X186690Y316230D02*
Y328930D01*
Y181610D02*
X194310D01*
Y189230D01*
X186690D02*
X194310D01*
X186690Y181610D02*
Y189230D01*
X184150Y179070D02*
X196850D01*
Y191770D01*
X184150D02*
X196850D01*
X184150Y179070D02*
Y191770D01*
X135890Y179070D02*
X143510D01*
Y186690D01*
X135890D02*
X143510D01*
X135890Y179070D02*
Y186690D01*
X133350Y176530D02*
X146050D01*
Y189230D01*
X133350D02*
X146050D01*
X133350Y176530D02*
Y189230D01*
X44450Y278130D02*
X52070D01*
Y285750D01*
X44450D02*
X52070D01*
X44450Y278130D02*
Y285750D01*
X41910Y275590D02*
X54610D01*
Y288290D01*
X41910D02*
X54610D01*
X41910Y275590D02*
Y288290D01*
X98690Y356190D02*
X106310D01*
Y363810D01*
X98690D02*
X106310D01*
X98690Y356190D02*
Y363810D01*
X96150Y353650D02*
X108850D01*
Y366350D01*
X96150D02*
X108850D01*
X96150Y353650D02*
Y366350D01*
X128690Y356190D02*
X136310D01*
Y363810D01*
X128690D02*
X136310D01*
X128690Y356190D02*
Y363810D01*
X126150Y353650D02*
X138850D01*
Y366350D01*
X126150D02*
X138850D01*
X126150Y353650D02*
Y366350D01*
X161190Y356190D02*
X168810D01*
Y363810D01*
X161190D02*
X168810D01*
X161190Y356190D02*
Y363810D01*
X158650Y353650D02*
X171350D01*
Y366350D01*
X158650D02*
X171350D01*
X158650Y353650D02*
Y366350D01*
X146190Y366190D02*
X153810D01*
Y373810D01*
X146190D02*
X153810D01*
X146190Y366190D02*
Y373810D01*
X143650Y363650D02*
X156350D01*
Y376350D01*
X143650D02*
X156350D01*
X143650Y363650D02*
Y376350D01*
X113690Y366190D02*
X121310D01*
Y373810D01*
X113690D02*
X121310D01*
X113690Y366190D02*
Y373810D01*
X111150Y363650D02*
X123850D01*
Y376350D01*
X111150D02*
X123850D01*
X111150Y363650D02*
Y376350D01*
X86190Y368690D02*
X93810D01*
Y376310D01*
X86190D02*
X93810D01*
X86190Y368690D02*
Y376310D01*
X83650Y366150D02*
X96350D01*
Y378850D01*
X83650D02*
X96350D01*
X83650Y366150D02*
Y378850D01*
X43690Y376190D02*
X51310D01*
Y383810D01*
X43690D02*
X51310D01*
X43690Y376190D02*
Y383810D01*
X41150Y373650D02*
X53850D01*
Y386350D01*
X41150D02*
X53850D01*
X41150Y373650D02*
Y386350D01*
X176190Y101190D02*
X183810D01*
Y108810D01*
X176190D02*
X183810D01*
X176190Y101190D02*
Y108810D01*
X173650Y98650D02*
X186350D01*
Y111350D01*
X173650D02*
X186350D01*
X173650Y98650D02*
Y111350D01*
X183690Y96190D02*
X191310D01*
Y103810D01*
X183690D02*
X191310D01*
X183690Y96190D02*
Y103810D01*
X181150Y93650D02*
X193850D01*
Y106350D01*
X181150D02*
X193850D01*
X181150Y93650D02*
Y106350D01*
X133690Y43690D02*
X141310D01*
Y51310D01*
X133690D02*
X141310D01*
X133690Y43690D02*
Y51310D01*
X131150Y41150D02*
X143850D01*
Y53850D01*
X131150D02*
X143850D01*
X131150Y41150D02*
Y53850D01*
X133690Y33690D02*
X141310D01*
Y41310D01*
X133690D02*
X141310D01*
X133690Y33690D02*
Y41310D01*
X131150Y31150D02*
X143850D01*
Y43850D01*
X131150D02*
X143850D01*
X131150Y31150D02*
Y43850D01*
X201190Y51190D02*
X208810D01*
Y58810D01*
X201190D02*
X208810D01*
X201190Y51190D02*
Y58810D01*
X198650Y48650D02*
X211350D01*
Y61350D01*
X198650D02*
X211350D01*
X198650Y48650D02*
Y61350D01*
X221190Y46190D02*
X228810D01*
Y53810D01*
X221190D02*
X228810D01*
X221190Y46190D02*
Y53810D01*
X218650Y43650D02*
X231350D01*
Y56350D01*
X218650D02*
X231350D01*
X218650Y43650D02*
Y56350D01*
X253690Y46190D02*
X261310D01*
Y53810D01*
X253690D02*
X261310D01*
X253690Y46190D02*
Y53810D01*
X251150Y43650D02*
X263850D01*
Y56350D01*
X251150D02*
X263850D01*
X251150Y43650D02*
Y56350D01*
X268690Y48690D02*
X276310D01*
Y56310D01*
X268690D02*
X276310D01*
X268690Y48690D02*
Y56310D01*
X266150Y46150D02*
X278850D01*
Y58850D01*
X266150D02*
X278850D01*
X266150Y46150D02*
Y58850D01*
X236190Y58690D02*
X243810D01*
Y66310D01*
X236190D02*
X243810D01*
X236190Y58690D02*
Y66310D01*
X233650Y56150D02*
X246350D01*
Y68850D01*
X233650D02*
X246350D01*
X233650Y56150D02*
Y68850D01*
X288690Y46190D02*
X296310D01*
Y53810D01*
X288690D02*
X296310D01*
X288690Y46190D02*
Y53810D01*
X286150Y43650D02*
X298850D01*
Y56350D01*
X286150D02*
X298850D01*
X286150Y43650D02*
Y56350D01*
X308690Y43690D02*
X316310D01*
Y51310D01*
X308690D02*
X316310D01*
X308690Y43690D02*
Y51310D01*
X306150Y41150D02*
X318850D01*
Y53850D01*
X306150D02*
X318850D01*
X306150Y41150D02*
Y53850D01*
X321190Y141190D02*
X328810D01*
Y148810D01*
X321190D02*
X328810D01*
X321190Y141190D02*
Y148810D01*
X318650Y138650D02*
X331350D01*
Y151350D01*
X318650D02*
X331350D01*
X318650Y138650D02*
Y151350D01*
X321190Y131190D02*
X328810D01*
Y138810D01*
X321190D02*
X328810D01*
X321190Y131190D02*
Y138810D01*
X318650Y128650D02*
X331350D01*
Y141350D01*
X318650D02*
X331350D01*
X318650Y128650D02*
Y141350D01*
X321190Y118690D02*
X328810D01*
Y126310D01*
X321190D02*
X328810D01*
X321190Y118690D02*
Y126310D01*
X318650Y116150D02*
X331350D01*
Y128850D01*
X318650D02*
X331350D01*
X318650Y116150D02*
Y128850D01*
X321190Y108690D02*
X328810D01*
Y116310D01*
X321190D02*
X328810D01*
X321190Y108690D02*
Y116310D01*
X318650Y106150D02*
X331350D01*
Y118850D01*
X318650D02*
X331350D01*
X318650Y106150D02*
Y118850D01*
X368690Y83690D02*
X376310D01*
Y91310D01*
X368690D02*
X376310D01*
X368690Y83690D02*
Y91310D01*
X366150Y81150D02*
X378850D01*
Y93850D01*
X366150D02*
X378850D01*
X366150Y81150D02*
Y93850D01*
X256190Y243690D02*
X263810D01*
Y251310D01*
X256190D02*
X263810D01*
X256190Y243690D02*
Y251310D01*
X253650Y241150D02*
X266350D01*
Y253850D01*
X253650D02*
X266350D01*
X253650Y241150D02*
Y253850D01*
X256190Y256190D02*
X263810D01*
Y263810D01*
X256190D02*
X263810D01*
X256190Y256190D02*
Y263810D01*
X253650Y253650D02*
X266350D01*
Y266350D01*
X253650D02*
X266350D01*
X253650Y253650D02*
Y266350D01*
X353690Y286190D02*
X361310D01*
Y293810D01*
X353690D02*
X361310D01*
X353690Y286190D02*
Y293810D01*
X351150Y283650D02*
X363850D01*
Y296350D01*
X351150D02*
X363850D01*
X351150Y283650D02*
Y296350D01*
X373690Y286190D02*
X381310D01*
Y293810D01*
X373690D02*
X381310D01*
X373690Y286190D02*
Y293810D01*
X371150Y283650D02*
X383850D01*
Y296350D01*
X371150D02*
X383850D01*
X371150Y283650D02*
Y296350D01*
X393690Y286190D02*
X401310D01*
Y293810D01*
X393690D02*
X401310D01*
X393690Y286190D02*
Y293810D01*
X391150Y283650D02*
X403850D01*
Y296350D01*
X391150D02*
X403850D01*
X391150Y283650D02*
Y296350D01*
X431190Y278690D02*
X438810D01*
Y286310D01*
X431190D02*
X438810D01*
X431190Y278690D02*
Y286310D01*
X428650Y276150D02*
X441350D01*
Y288850D01*
X428650D02*
X441350D01*
X428650Y276150D02*
Y288850D01*
X471190Y271190D02*
X478810D01*
Y278810D01*
X471190D02*
X478810D01*
X471190Y271190D02*
Y278810D01*
X468650Y268650D02*
X481350D01*
Y281350D01*
X468650D02*
X481350D01*
X468650Y268650D02*
Y281350D01*
X476190Y218690D02*
X483810D01*
Y226310D01*
X476190D02*
X483810D01*
X476190Y218690D02*
Y226310D01*
X473650Y216150D02*
X486350D01*
Y228850D01*
X473650D02*
X486350D01*
X473650Y216150D02*
Y228850D01*
X553690Y246190D02*
X561310D01*
Y253810D01*
X553690D02*
X561310D01*
X553690Y246190D02*
Y253810D01*
X551150Y243650D02*
X563850D01*
Y256350D01*
X551150D02*
X563850D01*
X551150Y243650D02*
Y256350D01*
X553690Y228690D02*
X561310D01*
Y236310D01*
X553690D02*
X561310D01*
X553690Y228690D02*
Y236310D01*
X551150Y226150D02*
X563850D01*
Y238850D01*
X551150D02*
X563850D01*
X551150Y226150D02*
Y238850D01*
X553690Y203690D02*
X561310D01*
Y211310D01*
X553690D02*
X561310D01*
X553690Y203690D02*
Y211310D01*
X551150Y201150D02*
X563850D01*
Y213850D01*
X551150D02*
X563850D01*
X551150Y201150D02*
Y213850D01*
X578690Y291190D02*
X586310D01*
Y298810D01*
X578690D02*
X586310D01*
X578690Y291190D02*
Y298810D01*
X576150Y288650D02*
X588850D01*
Y301350D01*
X576150D02*
X588850D01*
X576150Y288650D02*
Y301350D01*
X578690Y273690D02*
X586310D01*
Y281310D01*
X578690D02*
X586310D01*
X578690Y273690D02*
Y281310D01*
X576150Y271150D02*
X588850D01*
Y283850D01*
X576150D02*
X588850D01*
X576150Y271150D02*
Y283850D01*
X573690Y156190D02*
X581310D01*
Y163810D01*
X573690D02*
X581310D01*
X573690Y156190D02*
Y163810D01*
X571150Y153650D02*
X583850D01*
Y166350D01*
X571150D02*
X583850D01*
X571150Y153650D02*
Y166350D01*
X573690Y131190D02*
X581310D01*
Y138810D01*
X573690D02*
X581310D01*
X573690Y131190D02*
Y138810D01*
X571150Y128650D02*
X583850D01*
Y141350D01*
X571150D02*
X583850D01*
X571150Y128650D02*
Y141350D01*
X561190Y103690D02*
X568810D01*
Y111310D01*
X561190D02*
X568810D01*
X561190Y103690D02*
Y111310D01*
X558650Y101150D02*
X571350D01*
Y113850D01*
X558650D02*
X571350D01*
X558650Y101150D02*
Y113850D01*
X56190Y103690D02*
X63810D01*
Y111310D01*
X56190D02*
X63810D01*
X56190Y103690D02*
Y111310D01*
X53650Y101150D02*
X66350D01*
Y113850D01*
X53650D02*
X66350D01*
X53650Y101150D02*
Y113850D01*
X61190Y76190D02*
X68810D01*
Y83810D01*
X61190D02*
X68810D01*
X61190Y76190D02*
Y83810D01*
X58650Y73650D02*
X71350D01*
Y86350D01*
X58650D02*
X71350D01*
X58650Y73650D02*
Y86350D01*
X96190Y96190D02*
X103810D01*
Y103810D01*
X96190D02*
X103810D01*
X96190Y96190D02*
Y103810D01*
X93650Y93650D02*
X106350D01*
Y106350D01*
X93650D02*
X106350D01*
X93650Y93650D02*
Y106350D01*
X111190Y136190D02*
X118810D01*
Y143810D01*
X111190D02*
X118810D01*
X111190Y136190D02*
Y143810D01*
X108650Y133650D02*
X121350D01*
Y146350D01*
X108650D02*
X121350D01*
X108650Y133650D02*
Y146350D01*
X666190Y98690D02*
X673810D01*
Y106310D01*
X666190D02*
X673810D01*
X666190Y98690D02*
Y106310D01*
X663650Y96150D02*
X676350D01*
Y108850D01*
X663650D02*
X676350D01*
X663650Y96150D02*
Y108850D01*
X718690Y108690D02*
X726310D01*
Y116310D01*
X718690D02*
X726310D01*
X718690Y108690D02*
Y116310D01*
X716150Y106150D02*
X728850D01*
Y118850D01*
X716150D02*
X728850D01*
X716150Y106150D02*
Y118850D01*
X746190Y56190D02*
X753810D01*
Y63810D01*
X746190D02*
X753810D01*
X746190Y56190D02*
Y63810D01*
X743650Y53650D02*
X756350D01*
Y66350D01*
X743650D02*
X756350D01*
X743650Y53650D02*
Y66350D01*
X686190Y58690D02*
X693810D01*
Y66310D01*
X686190D02*
X693810D01*
X686190Y58690D02*
Y66310D01*
X683650Y56150D02*
X696350D01*
Y68850D01*
X683650D02*
X696350D01*
X683650Y56150D02*
Y68850D01*
X838690Y126190D02*
X846310D01*
Y133810D01*
X838690D02*
X846310D01*
X838690Y126190D02*
Y133810D01*
X836150Y123650D02*
X848850D01*
Y136350D01*
X836150D02*
X848850D01*
X836150Y123650D02*
Y136350D01*
X833690Y103690D02*
X841310D01*
Y111310D01*
X833690D02*
X841310D01*
X833690Y103690D02*
Y111310D01*
X831150Y101150D02*
X843850D01*
Y113850D01*
X831150D02*
X843850D01*
X831150Y101150D02*
Y113850D01*
X836190Y81190D02*
X843810D01*
Y88810D01*
X836190D02*
X843810D01*
X836190Y81190D02*
Y88810D01*
X833650Y78650D02*
X846350D01*
Y91350D01*
X833650D02*
X846350D01*
X833650Y78650D02*
Y91350D01*
X878690Y53690D02*
X886310D01*
Y61310D01*
X878690D02*
X886310D01*
X878690Y53690D02*
Y61310D01*
X876150Y51150D02*
X888850D01*
Y63850D01*
X876150D02*
X888850D01*
X876150Y51150D02*
Y63850D01*
X868690Y38690D02*
X876310D01*
Y46310D01*
X868690D02*
X876310D01*
X868690Y38690D02*
Y46310D01*
X866150Y36150D02*
X878850D01*
Y48850D01*
X866150D02*
X878850D01*
X866150Y36150D02*
Y48850D01*
X903690Y201190D02*
X911310D01*
Y208810D01*
X903690D02*
X911310D01*
X903690Y201190D02*
Y208810D01*
X901150Y198650D02*
X913850D01*
Y211350D01*
X901150D02*
X913850D01*
X901150Y198650D02*
Y211350D01*
X788690Y226190D02*
X796310D01*
Y233810D01*
X788690D02*
X796310D01*
X788690Y226190D02*
Y233810D01*
X786150Y223650D02*
X798850D01*
Y236350D01*
X786150D02*
X798850D01*
X786150Y223650D02*
Y236350D01*
X776190Y226190D02*
X783810D01*
Y233810D01*
X776190D02*
X783810D01*
X776190Y226190D02*
Y233810D01*
X773650Y223650D02*
X786350D01*
Y236350D01*
X773650D02*
X786350D01*
X773650Y223650D02*
Y236350D01*
X763690Y226190D02*
X771310D01*
Y233810D01*
X763690D02*
X771310D01*
X763690Y226190D02*
Y233810D01*
X761150Y223650D02*
X773850D01*
Y236350D01*
X761150D02*
X773850D01*
X761150Y223650D02*
Y236350D01*
X746190Y226190D02*
X753810D01*
Y233810D01*
X746190D02*
X753810D01*
X746190Y226190D02*
Y233810D01*
X743650Y223650D02*
X756350D01*
Y236350D01*
X743650D02*
X756350D01*
X743650Y223650D02*
Y236350D01*
X778690Y281190D02*
X786310D01*
Y288810D01*
X778690D02*
X786310D01*
X778690Y281190D02*
Y288810D01*
X776150Y278650D02*
X788850D01*
Y291350D01*
X776150D02*
X788850D01*
X776150Y278650D02*
Y291350D01*
X748690Y276190D02*
X756310D01*
Y283810D01*
X748690D02*
X756310D01*
X748690Y276190D02*
Y283810D01*
X746150Y273650D02*
X758850D01*
Y286350D01*
X746150D02*
X758850D01*
X746150Y273650D02*
Y286350D01*
X733690Y281190D02*
X741310D01*
Y288810D01*
X733690D02*
X741310D01*
X733690Y281190D02*
Y288810D01*
X731150Y278650D02*
X743850D01*
Y291350D01*
X731150D02*
X743850D01*
X731150Y278650D02*
Y291350D01*
X831190Y256190D02*
X838810D01*
Y263810D01*
X831190D02*
X838810D01*
X831190Y256190D02*
Y263810D01*
X828650Y253650D02*
X841350D01*
Y266350D01*
X828650D02*
X841350D01*
X828650Y253650D02*
Y266350D01*
X816190Y251190D02*
X823810D01*
Y258810D01*
X816190D02*
X823810D01*
X816190Y251190D02*
Y258810D01*
X813650Y248650D02*
X826350D01*
Y261350D01*
X813650D02*
X826350D01*
X813650Y248650D02*
Y261350D01*
X953690Y298690D02*
X961310D01*
Y306310D01*
X953690D02*
X961310D01*
X953690Y298690D02*
Y306310D01*
X951150Y296150D02*
X963850D01*
Y308850D01*
X951150D02*
X963850D01*
X951150Y296150D02*
Y308850D01*
X923690Y373690D02*
X931310D01*
Y381310D01*
X923690D02*
X931310D01*
X923690Y373690D02*
Y381310D01*
X921150Y371150D02*
X933850D01*
Y383850D01*
X921150D02*
X933850D01*
X921150Y371150D02*
Y383850D01*
X831190Y338690D02*
X838810D01*
Y346310D01*
X831190D02*
X838810D01*
X831190Y338690D02*
Y346310D01*
X828650Y336150D02*
X841350D01*
Y348850D01*
X828650D02*
X841350D01*
X828650Y336150D02*
Y348850D01*
X766190Y328690D02*
X773810D01*
Y336310D01*
X766190D02*
X773810D01*
X766190Y328690D02*
Y336310D01*
X763650Y326150D02*
X776350D01*
Y338850D01*
X763650D02*
X776350D01*
X763650Y326150D02*
Y338850D01*
X773690Y328690D02*
X781310D01*
Y336310D01*
X773690D02*
X781310D01*
X773690Y328690D02*
Y336310D01*
X771150Y326150D02*
X783850D01*
Y338850D01*
X771150D02*
X783850D01*
X771150Y326150D02*
Y338850D01*
X781190Y328690D02*
X788810D01*
Y336310D01*
X781190D02*
X788810D01*
X781190Y328690D02*
Y336310D01*
X778650Y326150D02*
X791350D01*
Y338850D01*
X778650D02*
X791350D01*
X778650Y326150D02*
Y338850D01*
X788690Y328690D02*
X796310D01*
Y336310D01*
X788690D02*
X796310D01*
X788690Y328690D02*
Y336310D01*
X786150Y326150D02*
X798850D01*
Y338850D01*
X786150D02*
X798850D01*
X786150Y326150D02*
Y338850D01*
X763690Y458690D02*
X771310D01*
Y466310D01*
X763690D02*
X771310D01*
X763690Y458690D02*
Y466310D01*
X761150Y456150D02*
X773850D01*
Y468850D01*
X761150D02*
X773850D01*
X761150Y456150D02*
Y468850D01*
X756190Y451190D02*
X763810D01*
Y458810D01*
X756190D02*
X763810D01*
X756190Y451190D02*
Y458810D01*
X753650Y448650D02*
X766350D01*
Y461350D01*
X753650D02*
X766350D01*
X753650Y448650D02*
Y461350D01*
X748690Y443690D02*
X756310D01*
Y451310D01*
X748690D02*
X756310D01*
X748690Y443690D02*
Y451310D01*
X746150Y441150D02*
X758850D01*
Y453850D01*
X746150D02*
X758850D01*
X746150Y441150D02*
Y453850D01*
X551190Y376190D02*
X558810D01*
Y383810D01*
X551190D02*
X558810D01*
X551190Y376190D02*
Y383810D01*
X548650Y373650D02*
X561350D01*
Y386350D01*
X548650D02*
X561350D01*
X548650Y373650D02*
Y386350D01*
X556190Y353690D02*
X563810D01*
Y361310D01*
X556190D02*
X563810D01*
X556190Y353690D02*
Y361310D01*
X553650Y351150D02*
X566350D01*
Y363850D01*
X553650D02*
X566350D01*
X553650Y351150D02*
Y363850D01*
X578690Y446190D02*
X586310D01*
Y453810D01*
X578690D02*
X586310D01*
X578690Y446190D02*
Y453810D01*
X576150Y443650D02*
X588850D01*
Y456350D01*
X576150D02*
X588850D01*
X576150Y443650D02*
Y456350D01*
X568690Y456190D02*
X576310D01*
Y463810D01*
X568690D02*
X576310D01*
X568690Y456190D02*
Y463810D01*
X566150Y453650D02*
X578850D01*
Y466350D01*
X566150D02*
X578850D01*
X566150Y453650D02*
Y466350D01*
X558690Y468690D02*
X566310D01*
Y476310D01*
X558690D02*
X566310D01*
X558690Y468690D02*
Y476310D01*
X556150Y466150D02*
X568850D01*
Y478850D01*
X556150D02*
X568850D01*
X556150Y466150D02*
Y478850D01*
X538690Y486190D02*
X546310D01*
Y493810D01*
X538690D02*
X546310D01*
X538690Y486190D02*
Y493810D01*
X536150Y483650D02*
X548850D01*
Y496350D01*
X536150D02*
X548850D01*
X536150Y483650D02*
Y496350D01*
X603690Y511190D02*
X611310D01*
Y518810D01*
X603690D02*
X611310D01*
X603690Y511190D02*
Y518810D01*
X601150Y508650D02*
X613850D01*
Y521350D01*
X601150D02*
X613850D01*
X601150Y508650D02*
Y521350D01*
X618690Y496190D02*
X626310D01*
Y503810D01*
X618690D02*
X626310D01*
X618690Y496190D02*
Y503810D01*
X616150Y493650D02*
X628850D01*
Y506350D01*
X616150D02*
X628850D01*
X616150Y493650D02*
Y506350D01*
X911190Y451190D02*
X918810D01*
Y458810D01*
X911190D02*
X918810D01*
X911190Y451190D02*
Y458810D01*
X908650Y448650D02*
X921350D01*
Y461350D01*
X908650D02*
X921350D01*
X908650Y448650D02*
Y461350D01*
X731190Y658690D02*
X738810D01*
Y666310D01*
X731190D02*
X738810D01*
X731190Y658690D02*
Y666310D01*
X728650Y656150D02*
X741350D01*
Y668850D01*
X728650D02*
X741350D01*
X728650Y656150D02*
Y668850D01*
X751190Y638690D02*
X758810D01*
Y646310D01*
X751190D02*
X758810D01*
X751190Y638690D02*
Y646310D01*
X748650Y636150D02*
X761350D01*
Y648850D01*
X748650D02*
X761350D01*
X748650Y636150D02*
Y648850D01*
X741190Y608690D02*
X748810D01*
Y616310D01*
X741190D02*
X748810D01*
X741190Y608690D02*
Y616310D01*
X738650Y606150D02*
X751350D01*
Y618850D01*
X738650D02*
X751350D01*
X738650Y606150D02*
Y618850D01*
X748690Y598690D02*
X756310D01*
Y606310D01*
X748690D02*
X756310D01*
X748690Y598690D02*
Y606310D01*
X746150Y596150D02*
X758850D01*
Y608850D01*
X746150D02*
X758850D01*
X746150Y596150D02*
Y608850D01*
X771190Y581190D02*
X778810D01*
Y588810D01*
X771190D02*
X778810D01*
X771190Y581190D02*
Y588810D01*
X768650Y578650D02*
X781350D01*
Y591350D01*
X768650D02*
X781350D01*
X768650Y578650D02*
Y591350D01*
X891190Y648690D02*
X898810D01*
Y656310D01*
X891190D02*
X898810D01*
X891190Y648690D02*
Y656310D01*
X888650Y646150D02*
X901350D01*
Y658850D01*
X888650D02*
X901350D01*
X888650Y646150D02*
Y658850D01*
X903690Y626190D02*
X911310D01*
Y633810D01*
X903690D02*
X911310D01*
X903690Y626190D02*
Y633810D01*
X901150Y623650D02*
X913850D01*
Y636350D01*
X901150D02*
X913850D01*
X901150Y623650D02*
Y636350D01*
X926190Y601190D02*
X933810D01*
Y608810D01*
X926190D02*
X933810D01*
X926190Y601190D02*
Y608810D01*
X923650Y598650D02*
X936350D01*
Y611350D01*
X923650D02*
X936350D01*
X923650Y598650D02*
Y611350D01*
X898690Y601190D02*
X906310D01*
Y608810D01*
X898690D02*
X906310D01*
X898690Y601190D02*
Y608810D01*
X896150Y598650D02*
X908850D01*
Y611350D01*
X896150D02*
X908850D01*
X896150Y598650D02*
Y611350D01*
X596190Y618690D02*
X603810D01*
Y626310D01*
X596190D02*
X603810D01*
X596190Y618690D02*
Y626310D01*
X593650Y616150D02*
X606350D01*
Y628850D01*
X593650D02*
X606350D01*
X593650Y616150D02*
Y628850D01*
X588690Y611190D02*
X596310D01*
Y618810D01*
X588690D02*
X596310D01*
X588690Y611190D02*
Y618810D01*
X586150Y608650D02*
X598850D01*
Y621350D01*
X586150D02*
X598850D01*
X586150Y608650D02*
Y621350D01*
X566190Y618690D02*
X573810D01*
Y626310D01*
X566190D02*
X573810D01*
X566190Y618690D02*
Y626310D01*
X563650Y616150D02*
X576350D01*
Y628850D01*
X563650D02*
X576350D01*
X563650Y616150D02*
Y628850D01*
X528690Y648690D02*
X536310D01*
Y656310D01*
X528690D02*
X536310D01*
X528690Y648690D02*
Y656310D01*
X526150Y646150D02*
X538850D01*
Y658850D01*
X526150D02*
X538850D01*
X526150Y646150D02*
Y658850D01*
X513690Y636190D02*
X521310D01*
Y643810D01*
X513690D02*
X521310D01*
X513690Y636190D02*
Y643810D01*
X511150Y633650D02*
X523850D01*
Y646350D01*
X511150D02*
X523850D01*
X511150Y633650D02*
Y646350D01*
X571190Y648690D02*
X578810D01*
Y656310D01*
X571190D02*
X578810D01*
X571190Y648690D02*
Y656310D01*
X568650Y646150D02*
X581350D01*
Y658850D01*
X568650D02*
X581350D01*
X568650Y646150D02*
Y658850D01*
X561190Y578690D02*
X568810D01*
Y586310D01*
X561190D02*
X568810D01*
X561190Y578690D02*
Y586310D01*
X558650Y576150D02*
X571350D01*
Y588850D01*
X558650D02*
X571350D01*
X558650Y576150D02*
Y588850D01*
X551190Y571190D02*
X558810D01*
Y578810D01*
X551190D02*
X558810D01*
X551190Y571190D02*
Y578810D01*
X548650Y568650D02*
X561350D01*
Y581350D01*
X548650D02*
X561350D01*
X548650Y568650D02*
Y581350D01*
X634291Y569698D02*
X641911D01*
Y577318D01*
X634291D02*
X641911D01*
X634291Y569698D02*
Y577318D01*
X631751Y567158D02*
X644451D01*
Y579858D01*
X631751D02*
X644451D01*
X631751Y567158D02*
Y579858D01*
X618690Y553690D02*
X626310D01*
Y561310D01*
X618690D02*
X626310D01*
X618690Y553690D02*
Y561310D01*
X616150Y551150D02*
X628850D01*
Y563850D01*
X616150D02*
X628850D01*
X616150Y551150D02*
Y563850D01*
X718690Y588690D02*
X726310D01*
Y596310D01*
X718690D02*
X726310D01*
X718690Y588690D02*
Y596310D01*
X716150Y586150D02*
X728850D01*
Y598850D01*
X716150D02*
X728850D01*
X716150Y586150D02*
Y598850D01*
X706190Y556190D02*
X713810D01*
Y563810D01*
X706190D02*
X713810D01*
X706190Y556190D02*
Y563810D01*
X703650Y553650D02*
X716350D01*
Y566350D01*
X703650D02*
X716350D01*
X703650Y553650D02*
Y566350D01*
X723690Y528690D02*
X731310D01*
Y536310D01*
X723690D02*
X731310D01*
X723690Y528690D02*
Y536310D01*
X721150Y526150D02*
X733850D01*
Y538850D01*
X721150D02*
X733850D01*
X721150Y526150D02*
Y538850D01*
X356190Y636190D02*
X363810D01*
Y643810D01*
X356190D02*
X363810D01*
X356190Y636190D02*
Y643810D01*
X353650Y633650D02*
X366350D01*
Y646350D01*
X353650D02*
X366350D01*
X353650Y633650D02*
Y646350D01*
X356190Y648690D02*
X363810D01*
Y656310D01*
X356190D02*
X363810D01*
X356190Y648690D02*
Y656310D01*
X353650Y646150D02*
X366350D01*
Y658850D01*
X353650D02*
X366350D01*
X353650Y646150D02*
Y658850D01*
X341190Y673690D02*
X348810D01*
Y681310D01*
X341190D02*
X348810D01*
X341190Y673690D02*
Y681310D01*
X338650Y671150D02*
X351350D01*
Y683850D01*
X338650D02*
X351350D01*
X338650Y671150D02*
Y683850D01*
X326190Y616190D02*
X333810D01*
Y623810D01*
X326190D02*
X333810D01*
X326190Y616190D02*
Y623810D01*
X323650Y613650D02*
X336350D01*
Y626350D01*
X323650D02*
X336350D01*
X323650Y613650D02*
Y626350D01*
X326190Y603690D02*
X333810D01*
Y611310D01*
X326190D02*
X333810D01*
X326190Y603690D02*
Y611310D01*
X323650Y601150D02*
X336350D01*
Y613850D01*
X323650D02*
X336350D01*
X323650Y601150D02*
Y613850D01*
X603690Y646190D02*
X611310D01*
Y653810D01*
X603690D02*
X611310D01*
X603690Y646190D02*
Y653810D01*
X601150Y643650D02*
X613850D01*
Y656350D01*
X601150D02*
X613850D01*
X601150Y643650D02*
Y656350D01*
X26150Y32500D02*
X32500Y26150D01*
X38850Y32500D01*
X32500Y38850D02*
X38850Y32500D01*
X26150D02*
X32500Y38850D01*
X26150Y667500D02*
X32500Y661150D01*
X38850Y667500D01*
X32500Y673850D02*
X38850Y667500D01*
X26150D02*
X32500Y673850D01*
X961150Y667500D02*
X967500Y661150D01*
X973850Y667500D01*
X967500Y673850D02*
X973850Y667500D01*
X961150D02*
X967500Y673850D01*
X50000Y197900D02*
Y201075D01*
X53175Y204250D01*
X50000Y207425D02*
X53175Y204250D01*
X50000Y207425D02*
Y210600D01*
X53175D01*
X56350Y207425D01*
X59525Y210600D01*
X62700D01*
Y207425D02*
Y210600D01*
X59525Y204250D02*
X62700Y207425D01*
X59525Y204250D02*
X62700Y201075D01*
Y197900D02*
Y201075D01*
X59525Y197900D02*
X62700D01*
X56350Y201075D02*
X59525Y197900D01*
X53175D02*
X56350Y201075D01*
X50000Y197900D02*
X53175D01*
X50000Y134400D02*
Y137575D01*
X53175Y140750D01*
X50000Y143925D02*
X53175Y140750D01*
X50000Y143925D02*
Y147100D01*
X53175D01*
X56350Y143925D01*
X59525Y147100D01*
X62700D01*
Y143925D02*
Y147100D01*
X59525Y140750D02*
X62700Y143925D01*
X59525Y140750D02*
X62700Y137575D01*
Y134400D02*
Y137575D01*
X59525Y134400D02*
X62700D01*
X56350Y137575D02*
X59525Y134400D01*
X53175D02*
X56350Y137575D01*
X50000Y134400D02*
X53175D01*
X78930Y490165D02*
X82105D01*
X78930D02*
Y496515D01*
X82105D01*
Y499690D01*
X88455D01*
Y496515D02*
Y499690D01*
Y496515D02*
X91630D01*
Y490165D02*
Y496515D01*
X88455Y490165D02*
X91630D01*
X88455Y486990D02*
Y490165D01*
X82105Y486990D02*
X88455D01*
X82105D02*
Y490165D01*
X78930Y510465D02*
X82105D01*
X78930D02*
Y516815D01*
X82105D01*
Y519990D01*
X88455D01*
Y516815D02*
Y519990D01*
Y516815D02*
X91630D01*
Y510465D02*
Y516815D01*
X88455Y510465D02*
X91630D01*
X88455Y507290D02*
Y510465D01*
X82105Y507290D02*
X88455D01*
X82105D02*
Y510465D01*
X78930Y530765D02*
X82105D01*
X78930D02*
Y537115D01*
X82105D01*
Y540290D01*
X88455D01*
Y537115D02*
Y540290D01*
Y537115D02*
X91630D01*
Y530765D02*
Y537115D01*
X88455Y530765D02*
X91630D01*
X88455Y527590D02*
Y530765D01*
X82105Y527590D02*
X88455D01*
X82105D02*
Y530765D01*
X78930Y551065D02*
X82105D01*
X78930D02*
Y557415D01*
X82105D01*
Y560590D01*
X88455D01*
Y557415D02*
Y560590D01*
Y557415D02*
X91630D01*
Y551065D02*
Y557415D01*
X88455Y551065D02*
X91630D01*
X88455Y547890D02*
Y551065D01*
X82105Y547890D02*
X88455D01*
X82105D02*
Y551065D01*
X96730Y500365D02*
X99905D01*
X96730D02*
Y506715D01*
X99905D01*
Y509890D01*
X106255D01*
Y506715D02*
Y509890D01*
Y506715D02*
X109430D01*
Y500365D02*
Y506715D01*
X106255Y500365D02*
X109430D01*
X106255Y497190D02*
Y500365D01*
X99905Y497190D02*
X106255D01*
X99905D02*
Y500365D01*
X96730Y520665D02*
X99905D01*
X96730D02*
Y527015D01*
X99905D01*
Y530190D01*
X106255D01*
Y527015D02*
Y530190D01*
Y527015D02*
X109430D01*
Y520665D02*
Y527015D01*
X106255Y520665D02*
X109430D01*
X106255Y517490D02*
Y520665D01*
X99905Y517490D02*
X106255D01*
X99905D02*
Y520665D01*
X96730Y540965D02*
X99905D01*
X96730D02*
Y547315D01*
X99905D01*
Y550490D01*
X106255D01*
Y547315D02*
Y550490D01*
Y547315D02*
X109430D01*
Y540965D02*
Y547315D01*
X106255Y540965D02*
X109430D01*
X106255Y537790D02*
Y540965D01*
X99905Y537790D02*
X106255D01*
X99905D02*
Y540965D01*
X96730Y561265D02*
X99905D01*
X96730D02*
Y567615D01*
X99905D01*
Y570790D01*
X106255D01*
Y567615D02*
Y570790D01*
Y567615D02*
X109430D01*
Y561265D02*
Y567615D01*
X106255Y561265D02*
X109430D01*
X106255Y558090D02*
Y561265D01*
X99905Y558090D02*
X106255D01*
X99905D02*
Y561265D01*
X87830Y441190D02*
X94180Y444365D01*
X100530Y441190D01*
X97355Y447540D02*
X100530Y441190D01*
X97355Y447540D02*
X100530Y453890D01*
X94180Y450715D02*
X100530Y453890D01*
X87830D02*
X94180Y450715D01*
X87830Y453890D02*
X91005Y447540D01*
X87830Y441190D02*
X91005Y447540D01*
X87830Y603790D02*
X94180Y606965D01*
X100530Y603790D01*
X97355Y610140D02*
X100530Y603790D01*
X97355Y610140D02*
X100530Y616490D01*
X94180Y613315D02*
X100530Y616490D01*
X87830D02*
X94180Y613315D01*
X87830Y616490D02*
X91005Y610140D01*
X87830Y603790D02*
X91005Y610140D01*
X56705Y589165D02*
X59880Y585990D01*
X53530Y589165D02*
X56705D01*
X53530D02*
X56705Y592340D01*
X53530Y595515D02*
X56705Y592340D01*
X53530Y595515D02*
X56705D01*
X59880Y598690D01*
X63055Y595515D01*
X66230D01*
X63055Y592340D02*
X66230Y595515D01*
X63055Y592340D02*
X66230Y589165D01*
X63055D02*
X66230D01*
X59880Y585990D02*
X63055Y589165D01*
X56705Y462165D02*
X59880Y458990D01*
X53530Y462165D02*
X56705D01*
X53530D02*
X56705Y465340D01*
X53530Y468515D02*
X56705Y465340D01*
X53530Y468515D02*
X56705D01*
X59880Y471690D01*
X63055Y468515D01*
X66230D01*
X63055Y465340D02*
X66230Y468515D01*
X63055Y465340D02*
X66230Y462165D01*
X63055D02*
X66230D01*
X59880Y458990D02*
X63055Y462165D01*
X970000Y524050D02*
X976350Y536750D01*
X963650D02*
X976350D01*
X963650D02*
X970000Y524050D01*
Y498650D02*
X976350Y511350D01*
X963650D02*
X976350D01*
X963650D02*
X970000Y498650D01*
Y422450D02*
X976350Y435150D01*
X963650D02*
X976350D01*
X963650D02*
X970000Y422450D01*
Y549450D02*
X976350Y562150D01*
X963650D02*
X976350D01*
X963650D02*
X970000Y549450D01*
Y447850D02*
X976350Y460550D01*
X963650D02*
X976350D01*
X963650D02*
X970000Y447850D01*
Y473250D02*
X976350Y485950D01*
X963650D02*
X976350D01*
X963650D02*
X970000Y473250D01*
X962470Y336650D02*
X975170D01*
Y349350D01*
X962470D02*
X975170D01*
X962470Y336650D02*
Y349350D01*
X975170D01*
Y362050D01*
X962470D02*
X975170D01*
X962470Y349350D02*
Y362050D01*
X975170D01*
Y374750D01*
X962470D02*
X975170D01*
X962470Y362050D02*
Y374750D01*
X961150Y32500D02*
X967500Y26150D01*
X973850Y32500D01*
X967500Y38850D02*
X973850Y32500D01*
X961150D02*
X967500Y38850D01*
D14*
X61525Y1102302D02*
G03*
X61525Y1102302I-8467J0D01*
G01*
X44592Y1246235D02*
X53059Y1250468D01*
X61525Y1246235D01*
X57292Y1254702D02*
X61525Y1246235D01*
X57292Y1254702D02*
X61525Y1263168D01*
X53059Y1258935D02*
X61525Y1263168D01*
X44592D02*
X53059Y1258935D01*
X44592Y1263168D02*
X48825Y1254702D01*
X44592Y1246235D02*
X48825Y1254702D01*
X44592Y1208135D02*
Y1212368D01*
X48825Y1216602D01*
X44592Y1220835D02*
X48825Y1216602D01*
X44592Y1220835D02*
Y1225068D01*
X48825D01*
X53059Y1220835D01*
X57292Y1225068D01*
X61525D01*
Y1220835D02*
Y1225068D01*
X57292Y1216602D02*
X61525Y1220835D01*
X57292Y1216602D02*
X61525Y1212368D01*
Y1208135D02*
Y1212368D01*
X57292Y1208135D02*
X61525D01*
X53059Y1212368D02*
X57292Y1208135D01*
X48825D02*
X53059Y1212368D01*
X44592Y1208135D02*
X48825D01*
Y1174268D02*
X53059Y1170035D01*
X44592Y1174268D02*
X48825D01*
X44592D02*
X48825Y1178502D01*
X44592Y1182735D02*
X48825Y1178502D01*
X44592Y1182735D02*
X48825D01*
X53059Y1186968D01*
X57292Y1182735D01*
X61525D01*
X57292Y1178502D02*
X61525Y1182735D01*
X57292Y1178502D02*
X61525Y1174268D01*
X57292D02*
X61525D01*
X53059Y1170035D02*
X57292Y1174268D01*
X44592Y1131935D02*
X61525D01*
Y1148868D01*
X44592D02*
X61525D01*
X44592Y1131935D02*
Y1148868D01*
Y1064202D02*
X53059Y1055735D01*
X61525Y1064202D01*
X53059Y1072668D02*
X61525Y1064202D01*
X44592D02*
X53059Y1072668D01*
Y1017635D02*
X61525Y1034568D01*
X44592D02*
X61525D01*
X44592D02*
X53059Y1017635D01*
X44592Y983768D02*
X48825D01*
X44592D02*
Y992235D01*
X48825D01*
Y996468D01*
X57292D01*
Y992235D02*
Y996468D01*
Y992235D02*
X61525D01*
Y983768D02*
Y992235D01*
X57292Y983768D02*
X61525D01*
X57292Y979535D02*
Y983768D01*
X48825Y979535D02*
X57292D01*
X48825D02*
Y983768D01*
X47979Y944822D02*
X58139D01*
Y954982D01*
X47979D02*
X58139D01*
X47979Y944822D02*
Y954982D01*
X44592Y941435D02*
X61525D01*
Y958368D01*
X44592D02*
X61525D01*
X44592Y941435D02*
Y958368D01*
X1670307Y1256392D02*
X1662689D01*
X1660150Y1253852D01*
Y1248774D01*
X1662689Y1246235D01*
X1670307D01*
X1685542D02*
X1675385D01*
X1685542Y1256392D01*
Y1258931D01*
X1683003Y1261470D01*
X1677924D01*
X1675385Y1258931D01*
X1690620D02*
X1693159Y1261470D01*
X1698238D01*
X1700777Y1258931D01*
Y1256392D01*
X1698238Y1253852D01*
X1695698D01*
X1698238D01*
X1700777Y1251313D01*
Y1248774D01*
X1698238Y1246235D01*
X1693159D01*
X1690620Y1248774D01*
X1716012Y1261470D02*
X1710934Y1258931D01*
X1705855Y1253852D01*
Y1248774D01*
X1708394Y1246235D01*
X1713473D01*
X1716012Y1248774D01*
Y1251313D01*
X1713473Y1253852D01*
X1705855D01*
X1721090Y1261470D02*
Y1246235D01*
Y1253852D01*
X1723629Y1256392D01*
X1728708D01*
X1731247Y1253852D01*
Y1246235D01*
X1736325D02*
X1741404D01*
X1738864D01*
Y1261470D01*
X1736325Y1258931D01*
X1759178Y1261470D02*
X1749021D01*
Y1253852D01*
X1754099Y1256392D01*
X1756639D01*
X1759178Y1253852D01*
Y1248774D01*
X1756639Y1246235D01*
X1751560D01*
X1749021Y1248774D01*
X1764256Y1261470D02*
X1774413D01*
Y1258931D01*
X1764256Y1248774D01*
Y1246235D01*
X1665228Y1208135D02*
X1660150Y1213213D01*
Y1218292D01*
X1665228Y1223370D01*
X1672846Y1208135D02*
Y1223370D01*
X1677924Y1218292D01*
X1683003Y1223370D01*
Y1208135D01*
X1688081D02*
X1693159D01*
X1690620D01*
Y1218292D01*
X1688081D01*
X1700777D02*
X1710934Y1208135D01*
X1705855Y1213213D01*
X1710934Y1218292D01*
X1700777Y1208135D01*
X1723629D02*
X1718551D01*
X1716012Y1210674D01*
Y1215752D01*
X1718551Y1218292D01*
X1723629D01*
X1726169Y1215752D01*
Y1213213D01*
X1716012D01*
X1741404Y1223370D02*
Y1208135D01*
X1733786D01*
X1731247Y1210674D01*
Y1215752D01*
X1733786Y1218292D01*
X1741404D01*
X1746482Y1208135D02*
X1751560Y1213213D01*
Y1218292D01*
X1746482Y1223370D01*
X1670307Y1180192D02*
X1662689D01*
X1660150Y1177653D01*
Y1172574D01*
X1662689Y1170035D01*
X1670307D01*
X1675385Y1182731D02*
X1677924Y1185270D01*
X1683003D01*
X1685542Y1182731D01*
Y1180192D01*
X1683003Y1177653D01*
X1680463D01*
X1683003D01*
X1685542Y1175113D01*
Y1172574D01*
X1683003Y1170035D01*
X1677924D01*
X1675385Y1172574D01*
X1700777Y1170035D02*
X1690620D01*
X1700777Y1180192D01*
Y1182731D01*
X1698238Y1185270D01*
X1693159D01*
X1690620Y1182731D01*
X1716012Y1185270D02*
X1705855D01*
Y1177653D01*
X1710934Y1180192D01*
X1713473D01*
X1716012Y1177653D01*
Y1172574D01*
X1713473Y1170035D01*
X1708394D01*
X1705855Y1172574D01*
X1721090Y1185270D02*
Y1170035D01*
Y1177653D01*
X1723629Y1180192D01*
X1728708D01*
X1731247Y1177653D01*
Y1170035D01*
X1736325D02*
Y1180192D01*
X1743943D01*
X1746482Y1177653D01*
Y1170035D01*
X1751560Y1182731D02*
X1754100Y1185270D01*
X1759178D01*
X1761717Y1182731D01*
Y1180192D01*
X1759178Y1177653D01*
X1756639D01*
X1759178D01*
X1761717Y1175113D01*
Y1172574D01*
X1759178Y1170035D01*
X1754100D01*
X1751560Y1172574D01*
X1776952Y1170035D02*
X1766796D01*
X1776952Y1180192D01*
Y1182731D01*
X1774413Y1185270D01*
X1769335D01*
X1766796Y1182731D01*
X1792187Y1185270D02*
X1782030D01*
Y1177653D01*
X1787109Y1180192D01*
X1789648D01*
X1792187Y1177653D01*
Y1172574D01*
X1789648Y1170035D01*
X1784570D01*
X1782030Y1172574D01*
X1665228Y1131935D02*
X1660150Y1137013D01*
Y1142092D01*
X1665228Y1147170D01*
X1672846Y1131935D02*
Y1147170D01*
X1677924Y1142092D01*
X1683003Y1147170D01*
Y1131935D01*
X1688081D02*
X1693159D01*
X1690620D01*
Y1142092D01*
X1688081D01*
X1700777D02*
X1710934Y1131935D01*
X1705855Y1137013D01*
X1710934Y1142092D01*
X1700777Y1131935D01*
X1723629D02*
X1718551D01*
X1716012Y1134474D01*
Y1139553D01*
X1718551Y1142092D01*
X1723629D01*
X1726169Y1139553D01*
Y1137013D01*
X1716012D01*
X1741404Y1147170D02*
Y1131935D01*
X1733786D01*
X1731247Y1134474D01*
Y1139553D01*
X1733786Y1142092D01*
X1741404D01*
X1746482Y1131935D02*
X1751560Y1137013D01*
Y1142092D01*
X1746482Y1147170D01*
X1665228Y1093835D02*
X1660150Y1098913D01*
Y1103992D01*
X1665228Y1109070D01*
X1672846Y1093835D02*
Y1109070D01*
X1677924Y1103992D01*
X1683003Y1109070D01*
Y1093835D01*
X1688081D02*
X1693159D01*
X1690620D01*
Y1103992D01*
X1688081D01*
X1700777D02*
X1710934Y1093835D01*
X1705855Y1098913D01*
X1710934Y1103992D01*
X1700777Y1093835D01*
X1723629D02*
X1718551D01*
X1716012Y1096374D01*
Y1101452D01*
X1718551Y1103992D01*
X1723629D01*
X1726169Y1101452D01*
Y1098913D01*
X1716012D01*
X1741404Y1109070D02*
Y1093835D01*
X1733786D01*
X1731247Y1096374D01*
Y1101452D01*
X1733786Y1103992D01*
X1741404D01*
X1746482Y1093835D02*
X1751560Y1098913D01*
Y1103992D01*
X1746482Y1109070D01*
X1670307Y1065892D02*
X1662689D01*
X1660150Y1063353D01*
Y1058274D01*
X1662689Y1055735D01*
X1670307D01*
X1685542Y1070970D02*
X1675385D01*
Y1063353D01*
X1680463Y1065892D01*
X1683003D01*
X1685542Y1063353D01*
Y1058274D01*
X1683003Y1055735D01*
X1677924D01*
X1675385Y1058274D01*
X1700777Y1070970D02*
X1690620D01*
Y1063353D01*
X1695698Y1065892D01*
X1698238D01*
X1700777Y1063353D01*
Y1058274D01*
X1698238Y1055735D01*
X1693159D01*
X1690620Y1058274D01*
X1705855Y1068431D02*
X1708394Y1070970D01*
X1713473D01*
X1716012Y1068431D01*
Y1058274D01*
X1713473Y1055735D01*
X1708394D01*
X1705855Y1058274D01*
Y1068431D01*
X1721090Y1070970D02*
Y1055735D01*
Y1063353D01*
X1723629Y1065892D01*
X1728708D01*
X1731247Y1063353D01*
Y1055735D01*
X1746482D02*
X1736325D01*
X1746482Y1065892D01*
Y1068431D01*
X1743943Y1070970D01*
X1738864D01*
X1736325Y1068431D01*
X1751560D02*
X1754100Y1070970D01*
X1759178D01*
X1761717Y1068431D01*
Y1058274D01*
X1759178Y1055735D01*
X1754100D01*
X1751560Y1058274D01*
Y1068431D01*
X1766796D02*
X1769335Y1070970D01*
X1774413D01*
X1776952Y1068431D01*
Y1058274D01*
X1774413Y1055735D01*
X1769335D01*
X1766796Y1058274D01*
Y1068431D01*
X1782030Y1055735D02*
Y1065892D01*
X1784570D01*
X1787109Y1063353D01*
Y1055735D01*
Y1063353D01*
X1789648Y1065892D01*
X1792187Y1063353D01*
Y1055735D01*
X1807422Y1070970D02*
X1797266D01*
Y1063353D01*
X1802344Y1065892D01*
X1804883D01*
X1807422Y1063353D01*
Y1058274D01*
X1804883Y1055735D01*
X1799805D01*
X1797266Y1058274D01*
X1822657Y1070970D02*
X1817579Y1068431D01*
X1812501Y1063353D01*
Y1058274D01*
X1815040Y1055735D01*
X1820118D01*
X1822657Y1058274D01*
Y1060813D01*
X1820118Y1063353D01*
X1812501D01*
X1827736Y1068431D02*
X1830275Y1070970D01*
X1835353D01*
X1837892Y1068431D01*
Y1058274D01*
X1835353Y1055735D01*
X1830275D01*
X1827736Y1058274D01*
Y1068431D01*
X1665228Y1017635D02*
X1660150Y1022713D01*
Y1027792D01*
X1665228Y1032870D01*
X1672846Y1017635D02*
Y1032870D01*
X1677924Y1027792D01*
X1683003Y1032870D01*
Y1017635D01*
X1688081D02*
X1693159D01*
X1690620D01*
Y1027792D01*
X1688081D01*
X1700777D02*
X1710934Y1017635D01*
X1705855Y1022713D01*
X1710934Y1027792D01*
X1700777Y1017635D01*
X1723629D02*
X1718551D01*
X1716012Y1020174D01*
Y1025253D01*
X1718551Y1027792D01*
X1723629D01*
X1726169Y1025253D01*
Y1022713D01*
X1716012D01*
X1741404Y1032870D02*
Y1017635D01*
X1733786D01*
X1731247Y1020174D01*
Y1025253D01*
X1733786Y1027792D01*
X1741404D01*
X1746482Y1017635D02*
X1751560Y1022713D01*
Y1027792D01*
X1746482Y1032870D01*
X1665228Y979535D02*
X1660150Y984613D01*
Y989692D01*
X1665228Y994770D01*
X1672846Y979535D02*
Y994770D01*
X1677924Y989692D01*
X1683003Y994770D01*
Y979535D01*
X1688081D02*
X1693159D01*
X1690620D01*
Y989692D01*
X1688081D01*
X1700777D02*
X1710934Y979535D01*
X1705855Y984613D01*
X1710934Y989692D01*
X1700777Y979535D01*
X1723629D02*
X1718551D01*
X1716012Y982074D01*
Y987152D01*
X1718551Y989692D01*
X1723629D01*
X1726169Y987152D01*
Y984613D01*
X1716012D01*
X1741404Y994770D02*
Y979535D01*
X1733786D01*
X1731247Y982074D01*
Y987152D01*
X1733786Y989692D01*
X1741404D01*
X1746482Y979535D02*
X1751560Y984613D01*
Y989692D01*
X1746482Y994770D01*
X1660150Y951592D02*
X1665228Y941435D01*
X1670307Y951592D01*
X1685542Y956670D02*
X1680463Y954131D01*
X1675385Y949053D01*
Y943974D01*
X1677924Y941435D01*
X1683003D01*
X1685542Y943974D01*
Y946513D01*
X1683003Y949053D01*
X1675385D01*
X1690620Y954131D02*
X1693159Y956670D01*
X1698238D01*
X1700777Y954131D01*
Y943974D01*
X1698238Y941435D01*
X1693159D01*
X1690620Y943974D01*
Y954131D01*
X1705855Y956670D02*
Y941435D01*
Y949053D01*
X1708394Y951592D01*
X1713473D01*
X1716012Y949053D01*
Y941435D01*
X1721090Y954131D02*
X1723629Y956670D01*
X1728708D01*
X1731247Y954131D01*
Y951592D01*
X1728708Y949053D01*
X1726169D01*
X1728708D01*
X1731247Y946513D01*
Y943974D01*
X1728708Y941435D01*
X1723629D01*
X1721090Y943974D01*
X1736325Y954131D02*
X1738864Y956670D01*
X1743943D01*
X1746482Y954131D01*
Y943974D01*
X1743943Y941435D01*
X1738864D01*
X1736325Y943974D01*
Y954131D01*
X1751560Y941435D02*
Y951592D01*
X1754100D01*
X1756639Y949053D01*
Y941435D01*
Y949053D01*
X1759178Y951592D01*
X1761717Y949053D01*
Y941435D01*
X1766796Y954131D02*
X1769335Y956670D01*
X1774413D01*
X1776952Y954131D01*
Y943974D01*
X1774413Y941435D01*
X1769335D01*
X1766796Y943974D01*
Y954131D01*
X1782030Y941435D02*
Y951592D01*
X1784570D01*
X1787109Y949053D01*
Y941435D01*
Y949053D01*
X1789648Y951592D01*
X1792187Y949053D01*
Y941435D01*
X1797266Y951592D02*
X1807422Y941435D01*
X1802344Y946513D01*
X1807422Y951592D01*
X1797266Y941435D01*
X1812501Y954131D02*
X1815040Y956670D01*
X1820118D01*
X1822657Y954131D01*
Y943974D01*
X1820118Y941435D01*
X1815040D01*
X1812501Y943974D01*
Y954131D01*
X1470717Y1246235D02*
Y1261470D01*
X1478335D01*
X1480874Y1258931D01*
Y1253852D01*
X1478335Y1251313D01*
X1470717D01*
X1475796D02*
X1480874Y1246235D01*
X1488492D02*
X1493570D01*
X1496109Y1248774D01*
Y1253852D01*
X1493570Y1256392D01*
X1488492D01*
X1485952Y1253852D01*
Y1248774D01*
X1488492Y1246235D01*
X1501187Y1256392D02*
Y1248774D01*
X1503727Y1246235D01*
X1511344D01*
Y1256392D01*
X1516422Y1246235D02*
Y1256392D01*
X1524040D01*
X1526579Y1253852D01*
Y1246235D01*
X1541814Y1261470D02*
Y1246235D01*
X1534197D01*
X1531658Y1248774D01*
Y1253852D01*
X1534197Y1256392D01*
X1541814D01*
X1554510Y1246235D02*
X1549432D01*
X1546893Y1248774D01*
Y1253852D01*
X1549432Y1256392D01*
X1554510D01*
X1557049Y1253852D01*
Y1251313D01*
X1546893D01*
X1572284Y1261470D02*
Y1246235D01*
X1564667D01*
X1562128Y1248774D01*
Y1253852D01*
X1564667Y1256392D01*
X1572284D01*
X1475796Y1208135D02*
X1470717Y1213213D01*
Y1218292D01*
X1475796Y1223370D01*
X1483413Y1208135D02*
Y1223370D01*
X1488492Y1218292D01*
X1493570Y1223370D01*
Y1208135D01*
X1498648D02*
X1503727D01*
X1501187D01*
Y1218292D01*
X1498648D01*
X1511344D02*
X1521501Y1208135D01*
X1516422Y1213213D01*
X1521501Y1218292D01*
X1511344Y1208135D01*
X1534197D02*
X1529118D01*
X1526579Y1210674D01*
Y1215752D01*
X1529118Y1218292D01*
X1534197D01*
X1536736Y1215752D01*
Y1213213D01*
X1526579D01*
X1551971Y1223370D02*
Y1208135D01*
X1544353D01*
X1541814Y1210674D01*
Y1215752D01*
X1544353Y1218292D01*
X1551971D01*
X1557049Y1208135D02*
X1562128Y1213213D01*
Y1218292D01*
X1557049Y1223370D01*
X1470717Y1170035D02*
Y1185270D01*
X1478335D01*
X1480874Y1182731D01*
Y1177653D01*
X1478335Y1175113D01*
X1470717D01*
X1475796D02*
X1480874Y1170035D01*
X1488492D02*
X1493570D01*
X1496109Y1172574D01*
Y1177653D01*
X1493570Y1180192D01*
X1488492D01*
X1485952Y1177653D01*
Y1172574D01*
X1488492Y1170035D01*
X1501187Y1180192D02*
Y1172574D01*
X1503727Y1170035D01*
X1511344D01*
Y1180192D01*
X1516422Y1170035D02*
Y1180192D01*
X1524040D01*
X1526579Y1177653D01*
Y1170035D01*
X1541814Y1185270D02*
Y1170035D01*
X1534197D01*
X1531658Y1172574D01*
Y1177653D01*
X1534197Y1180192D01*
X1541814D01*
X1554510Y1170035D02*
X1549432D01*
X1546893Y1172574D01*
Y1177653D01*
X1549432Y1180192D01*
X1554510D01*
X1557049Y1177653D01*
Y1175113D01*
X1546893D01*
X1572284Y1185270D02*
Y1170035D01*
X1564667D01*
X1562128Y1172574D01*
Y1177653D01*
X1564667Y1180192D01*
X1572284D01*
X1475796Y1131935D02*
X1470717Y1137013D01*
Y1142092D01*
X1475796Y1147170D01*
X1483413Y1131935D02*
Y1147170D01*
X1488492Y1142092D01*
X1493570Y1147170D01*
Y1131935D01*
X1498648D02*
X1503727D01*
X1501187D01*
Y1142092D01*
X1498648D01*
X1511344D02*
X1521501Y1131935D01*
X1516422Y1137013D01*
X1521501Y1142092D01*
X1511344Y1131935D01*
X1534197D02*
X1529118D01*
X1526579Y1134474D01*
Y1139553D01*
X1529118Y1142092D01*
X1534197D01*
X1536736Y1139553D01*
Y1137013D01*
X1526579D01*
X1551971Y1147170D02*
Y1131935D01*
X1544353D01*
X1541814Y1134474D01*
Y1139553D01*
X1544353Y1142092D01*
X1551971D01*
X1557049Y1131935D02*
X1562128Y1137013D01*
Y1142092D01*
X1557049Y1147170D01*
X1475796Y1093835D02*
X1470717Y1098913D01*
Y1103992D01*
X1475796Y1109070D01*
X1483413Y1093835D02*
Y1109070D01*
X1488492Y1103992D01*
X1493570Y1109070D01*
Y1093835D01*
X1498648D02*
X1503727D01*
X1501187D01*
Y1103992D01*
X1498648D01*
X1511344D02*
X1521501Y1093835D01*
X1516422Y1098913D01*
X1521501Y1103992D01*
X1511344Y1093835D01*
X1534197D02*
X1529118D01*
X1526579Y1096374D01*
Y1101452D01*
X1529118Y1103992D01*
X1534197D01*
X1536736Y1101452D01*
Y1098913D01*
X1526579D01*
X1551971Y1109070D02*
Y1093835D01*
X1544353D01*
X1541814Y1096374D01*
Y1101452D01*
X1544353Y1103992D01*
X1551971D01*
X1557049Y1093835D02*
X1562128Y1098913D01*
Y1103992D01*
X1557049Y1109070D01*
X1470717Y1055735D02*
Y1070970D01*
X1478335D01*
X1480874Y1068431D01*
Y1063353D01*
X1478335Y1060813D01*
X1470717D01*
X1475796D02*
X1480874Y1055735D01*
X1488492D02*
X1493570D01*
X1496109Y1058274D01*
Y1063353D01*
X1493570Y1065892D01*
X1488492D01*
X1485952Y1063353D01*
Y1058274D01*
X1488492Y1055735D01*
X1501187Y1065892D02*
Y1058274D01*
X1503727Y1055735D01*
X1511344D01*
Y1065892D01*
X1516422Y1055735D02*
Y1065892D01*
X1524040D01*
X1526579Y1063353D01*
Y1055735D01*
X1541814Y1070970D02*
Y1055735D01*
X1534197D01*
X1531658Y1058274D01*
Y1063353D01*
X1534197Y1065892D01*
X1541814D01*
X1554510Y1055735D02*
X1549432D01*
X1546893Y1058274D01*
Y1063353D01*
X1549432Y1065892D01*
X1554510D01*
X1557049Y1063353D01*
Y1060813D01*
X1546893D01*
X1572284Y1070970D02*
Y1055735D01*
X1564667D01*
X1562128Y1058274D01*
Y1063353D01*
X1564667Y1065892D01*
X1572284D01*
X1475796Y1017635D02*
X1470717Y1022713D01*
Y1027792D01*
X1475796Y1032870D01*
X1483413Y1017635D02*
Y1032870D01*
X1488492Y1027792D01*
X1493570Y1032870D01*
Y1017635D01*
X1498648D02*
X1503727D01*
X1501187D01*
Y1027792D01*
X1498648D01*
X1511344D02*
X1521501Y1017635D01*
X1516422Y1022713D01*
X1521501Y1027792D01*
X1511344Y1017635D01*
X1534197D02*
X1529118D01*
X1526579Y1020174D01*
Y1025253D01*
X1529118Y1027792D01*
X1534197D01*
X1536736Y1025253D01*
Y1022713D01*
X1526579D01*
X1551971Y1032870D02*
Y1017635D01*
X1544353D01*
X1541814Y1020174D01*
Y1025253D01*
X1544353Y1027792D01*
X1551971D01*
X1557049Y1017635D02*
X1562128Y1022713D01*
Y1027792D01*
X1557049Y1032870D01*
X1475796Y979535D02*
X1470717Y984613D01*
Y989692D01*
X1475796Y994770D01*
X1483413Y979535D02*
Y994770D01*
X1488492Y989692D01*
X1493570Y994770D01*
Y979535D01*
X1498648D02*
X1503727D01*
X1501187D01*
Y989692D01*
X1498648D01*
X1511344D02*
X1521501Y979535D01*
X1516422Y984613D01*
X1521501Y989692D01*
X1511344Y979535D01*
X1534197D02*
X1529118D01*
X1526579Y982074D01*
Y987152D01*
X1529118Y989692D01*
X1534197D01*
X1536736Y987152D01*
Y984613D01*
X1526579D01*
X1551971Y994770D02*
Y979535D01*
X1544353D01*
X1541814Y982074D01*
Y987152D01*
X1544353Y989692D01*
X1551971D01*
X1557049Y979535D02*
X1562128Y984613D01*
Y989692D01*
X1557049Y994770D01*
X1470717Y941435D02*
Y956670D01*
X1478335D01*
X1480874Y954131D01*
Y949053D01*
X1478335Y946513D01*
X1470717D01*
X1475796D02*
X1480874Y941435D01*
X1488492D02*
X1493570D01*
X1496109Y943974D01*
Y949053D01*
X1493570Y951592D01*
X1488492D01*
X1485952Y949053D01*
Y943974D01*
X1488492Y941435D01*
X1501187Y951592D02*
Y943974D01*
X1503727Y941435D01*
X1511344D01*
Y951592D01*
X1516422Y941435D02*
Y951592D01*
X1524040D01*
X1526579Y949053D01*
Y941435D01*
X1541814Y956670D02*
Y941435D01*
X1534197D01*
X1531658Y943974D01*
Y949053D01*
X1534197Y951592D01*
X1541814D01*
X1554510Y941435D02*
X1549432D01*
X1546893Y943974D01*
Y949053D01*
X1549432Y951592D01*
X1554510D01*
X1557049Y949053D01*
Y946513D01*
X1546893D01*
X1572284Y956670D02*
Y941435D01*
X1564667D01*
X1562128Y943974D01*
Y949053D01*
X1564667Y951592D01*
X1572284D01*
X1320896Y1246235D02*
Y1261470D01*
X1328513D01*
X1331052Y1258931D01*
Y1253852D01*
X1328513Y1251313D01*
X1320896D01*
X1338670Y1256392D02*
X1343748D01*
X1346288Y1253852D01*
Y1246235D01*
X1338670D01*
X1336131Y1248774D01*
X1338670Y1251313D01*
X1346288D01*
X1361523Y1261470D02*
Y1246235D01*
X1353905D01*
X1351366Y1248774D01*
Y1253852D01*
X1353905Y1256392D01*
X1361523D01*
X1320896Y1208135D02*
Y1223370D01*
X1328513D01*
X1331052Y1220831D01*
Y1215752D01*
X1328513Y1213213D01*
X1320896D01*
X1338670Y1218292D02*
X1343748D01*
X1346288Y1215752D01*
Y1208135D01*
X1338670D01*
X1336131Y1210674D01*
X1338670Y1213213D01*
X1346288D01*
X1361523Y1223370D02*
Y1208135D01*
X1353905D01*
X1351366Y1210674D01*
Y1215752D01*
X1353905Y1218292D01*
X1361523D01*
X1320896Y1170035D02*
Y1185270D01*
X1328513D01*
X1331052Y1182731D01*
Y1177653D01*
X1328513Y1175113D01*
X1320896D01*
X1338670Y1180192D02*
X1343748D01*
X1346288Y1177653D01*
Y1170035D01*
X1338670D01*
X1336131Y1172574D01*
X1338670Y1175113D01*
X1346288D01*
X1361523Y1185270D02*
Y1170035D01*
X1353905D01*
X1351366Y1172574D01*
Y1177653D01*
X1353905Y1180192D01*
X1361523D01*
X1320896Y1131935D02*
Y1147170D01*
X1328513D01*
X1331052Y1144631D01*
Y1139553D01*
X1328513Y1137013D01*
X1320896D01*
X1338670Y1142092D02*
X1343748D01*
X1346288Y1139553D01*
Y1131935D01*
X1338670D01*
X1336131Y1134474D01*
X1338670Y1137013D01*
X1346288D01*
X1361523Y1147170D02*
Y1131935D01*
X1353905D01*
X1351366Y1134474D01*
Y1139553D01*
X1353905Y1142092D01*
X1361523D01*
X1320896Y1093835D02*
Y1109070D01*
X1328513D01*
X1331052Y1106531D01*
Y1101452D01*
X1328513Y1098913D01*
X1320896D01*
X1338670Y1103992D02*
X1343748D01*
X1346288Y1101452D01*
Y1093835D01*
X1338670D01*
X1336131Y1096374D01*
X1338670Y1098913D01*
X1346288D01*
X1361523Y1109070D02*
Y1093835D01*
X1353905D01*
X1351366Y1096374D01*
Y1101452D01*
X1353905Y1103992D01*
X1361523D01*
X1320896Y1055735D02*
Y1070970D01*
X1328513D01*
X1331052Y1068431D01*
Y1063353D01*
X1328513Y1060813D01*
X1320896D01*
X1338670Y1065892D02*
X1343748D01*
X1346288Y1063353D01*
Y1055735D01*
X1338670D01*
X1336131Y1058274D01*
X1338670Y1060813D01*
X1346288D01*
X1361523Y1070970D02*
Y1055735D01*
X1353905D01*
X1351366Y1058274D01*
Y1063353D01*
X1353905Y1065892D01*
X1361523D01*
X1320896Y1017635D02*
Y1032870D01*
X1328513D01*
X1331052Y1030331D01*
Y1025253D01*
X1328513Y1022713D01*
X1320896D01*
X1338670Y1027792D02*
X1343748D01*
X1346288Y1025253D01*
Y1017635D01*
X1338670D01*
X1336131Y1020174D01*
X1338670Y1022713D01*
X1346288D01*
X1361523Y1032870D02*
Y1017635D01*
X1353905D01*
X1351366Y1020174D01*
Y1025253D01*
X1353905Y1027792D01*
X1361523D01*
X1320896Y979535D02*
Y994770D01*
X1328513D01*
X1331052Y992231D01*
Y987152D01*
X1328513Y984613D01*
X1320896D01*
X1338670Y989692D02*
X1343748D01*
X1346288Y987152D01*
Y979535D01*
X1338670D01*
X1336131Y982074D01*
X1338670Y984613D01*
X1346288D01*
X1361523Y994770D02*
Y979535D01*
X1353905D01*
X1351366Y982074D01*
Y987152D01*
X1353905Y989692D01*
X1361523D01*
X1320896Y956670D02*
Y946513D01*
X1325974Y941435D01*
X1331052Y946513D01*
Y956670D01*
X1336131Y941435D02*
X1341209D01*
X1338670D01*
Y951592D01*
X1336131D01*
X1351366D02*
X1356444D01*
X1358983Y949053D01*
Y941435D01*
X1351366D01*
X1348827Y943974D01*
X1351366Y946513D01*
X1358983D01*
X940010Y1261470D02*
X950167D01*
X945088D01*
Y1246235D01*
X957784D02*
X962862D01*
X965402Y1248774D01*
Y1253852D01*
X962862Y1256392D01*
X957784D01*
X955245Y1253852D01*
Y1248774D01*
X957784Y1246235D01*
X970480Y1241157D02*
Y1256392D01*
X978098D01*
X980637Y1253852D01*
Y1248774D01*
X978098Y1246235D01*
X970480D01*
X1000950Y1261470D02*
Y1246235D01*
X1011107D01*
X1018724Y1256392D02*
X1023803D01*
X1026342Y1253852D01*
Y1246235D01*
X1018724D01*
X1016185Y1248774D01*
X1018724Y1251313D01*
X1026342D01*
X1031420Y1256392D02*
Y1248774D01*
X1033960Y1246235D01*
X1041577D01*
Y1243696D01*
X1039038Y1241157D01*
X1036499D01*
X1041577Y1246235D02*
Y1256392D01*
X1054273Y1246235D02*
X1049194D01*
X1046655Y1248774D01*
Y1253852D01*
X1049194Y1256392D01*
X1054273D01*
X1056812Y1253852D01*
Y1251313D01*
X1046655D01*
X1061890Y1256392D02*
Y1246235D01*
Y1251313D01*
X1064430Y1253852D01*
X1066969Y1256392D01*
X1069508D01*
X1092361Y1253852D02*
X1102517D01*
X1122831Y1261470D02*
Y1246235D01*
X1130448D01*
X1132987Y1248774D01*
Y1251313D01*
X1130448Y1253852D01*
X1122831D01*
X1130448D01*
X1132987Y1256392D01*
Y1258931D01*
X1130448Y1261470D01*
X1122831D01*
X1140605Y1246235D02*
X1145683D01*
X1148223Y1248774D01*
Y1253852D01*
X1145683Y1256392D01*
X1140605D01*
X1138066Y1253852D01*
Y1248774D01*
X1140605Y1246235D01*
X1155840Y1258931D02*
Y1256392D01*
X1153301D01*
X1158379D01*
X1155840D01*
Y1248774D01*
X1158379Y1246235D01*
X1168536Y1258931D02*
Y1256392D01*
X1165997D01*
X1171075D01*
X1168536D01*
Y1248774D01*
X1171075Y1246235D01*
X1181232D02*
X1186310D01*
X1188849Y1248774D01*
Y1253852D01*
X1186310Y1256392D01*
X1181232D01*
X1178693Y1253852D01*
Y1248774D01*
X1181232Y1246235D01*
X1193928D02*
Y1256392D01*
X1196467D01*
X1199006Y1253852D01*
Y1246235D01*
Y1253852D01*
X1201545Y1256392D01*
X1204084Y1253852D01*
Y1246235D01*
X1224398Y1261470D02*
Y1246235D01*
X1234555D01*
X1242172Y1256392D02*
X1247251D01*
X1249790Y1253852D01*
Y1246235D01*
X1242172D01*
X1239633Y1248774D01*
X1242172Y1251313D01*
X1249790D01*
X1254868Y1256392D02*
Y1248774D01*
X1257407Y1246235D01*
X1265025D01*
Y1243696D01*
X1262486Y1241157D01*
X1259946D01*
X1265025Y1246235D02*
Y1256392D01*
X1277721Y1246235D02*
X1272642D01*
X1270103Y1248774D01*
Y1253852D01*
X1272642Y1256392D01*
X1277721D01*
X1280260Y1253852D01*
Y1251313D01*
X1270103D01*
X1285338Y1256392D02*
Y1246235D01*
Y1251313D01*
X1287877Y1253852D01*
X1290417Y1256392D01*
X1292956D01*
X940010Y1223370D02*
X950167D01*
X945088D01*
Y1208135D01*
X957784D02*
X962862D01*
X965402Y1210674D01*
Y1215752D01*
X962862Y1218292D01*
X957784D01*
X955245Y1215752D01*
Y1210674D01*
X957784Y1208135D01*
X970480Y1203057D02*
Y1218292D01*
X978098D01*
X980637Y1215752D01*
Y1210674D01*
X978098Y1208135D01*
X970480D01*
X1000950Y1223370D02*
Y1208135D01*
X1011107D01*
X1018724Y1218292D02*
X1023803D01*
X1026342Y1215752D01*
Y1208135D01*
X1018724D01*
X1016185Y1210674D01*
X1018724Y1213213D01*
X1026342D01*
X1031420Y1218292D02*
Y1210674D01*
X1033960Y1208135D01*
X1041577D01*
Y1205596D01*
X1039038Y1203057D01*
X1036499D01*
X1041577Y1208135D02*
Y1218292D01*
X1054273Y1208135D02*
X1049194D01*
X1046655Y1210674D01*
Y1215752D01*
X1049194Y1218292D01*
X1054273D01*
X1056812Y1215752D01*
Y1213213D01*
X1046655D01*
X1061890Y1218292D02*
Y1208135D01*
Y1213213D01*
X1064430Y1215752D01*
X1066969Y1218292D01*
X1069508D01*
X1092361Y1215752D02*
X1102517D01*
X1122831Y1223370D02*
Y1208135D01*
X1130448D01*
X1132987Y1210674D01*
Y1213213D01*
X1130448Y1215752D01*
X1122831D01*
X1130448D01*
X1132987Y1218292D01*
Y1220831D01*
X1130448Y1223370D01*
X1122831D01*
X1140605Y1208135D02*
X1145683D01*
X1148223Y1210674D01*
Y1215752D01*
X1145683Y1218292D01*
X1140605D01*
X1138066Y1215752D01*
Y1210674D01*
X1140605Y1208135D01*
X1155840Y1220831D02*
Y1218292D01*
X1153301D01*
X1158379D01*
X1155840D01*
Y1210674D01*
X1158379Y1208135D01*
X1168536Y1220831D02*
Y1218292D01*
X1165997D01*
X1171075D01*
X1168536D01*
Y1210674D01*
X1171075Y1208135D01*
X1181232D02*
X1186310D01*
X1188849Y1210674D01*
Y1215752D01*
X1186310Y1218292D01*
X1181232D01*
X1178693Y1215752D01*
Y1210674D01*
X1181232Y1208135D01*
X1193928D02*
Y1218292D01*
X1196467D01*
X1199006Y1215752D01*
Y1208135D01*
Y1215752D01*
X1201545Y1218292D01*
X1204084Y1215752D01*
Y1208135D01*
X1224398Y1223370D02*
Y1208135D01*
X1234555D01*
X1242172Y1218292D02*
X1247251D01*
X1249790Y1215752D01*
Y1208135D01*
X1242172D01*
X1239633Y1210674D01*
X1242172Y1213213D01*
X1249790D01*
X1254868Y1218292D02*
Y1210674D01*
X1257407Y1208135D01*
X1265025D01*
Y1205596D01*
X1262486Y1203057D01*
X1259946D01*
X1265025Y1208135D02*
Y1218292D01*
X1277721Y1208135D02*
X1272642D01*
X1270103Y1210674D01*
Y1215752D01*
X1272642Y1218292D01*
X1277721D01*
X1280260Y1215752D01*
Y1213213D01*
X1270103D01*
X1285338Y1218292D02*
Y1208135D01*
Y1213213D01*
X1287877Y1215752D01*
X1290417Y1218292D01*
X1292956D01*
X940010Y1185270D02*
X950167D01*
X945088D01*
Y1170035D01*
X957784D02*
X962862D01*
X965402Y1172574D01*
Y1177653D01*
X962862Y1180192D01*
X957784D01*
X955245Y1177653D01*
Y1172574D01*
X957784Y1170035D01*
X970480Y1164957D02*
Y1180192D01*
X978098D01*
X980637Y1177653D01*
Y1172574D01*
X978098Y1170035D01*
X970480D01*
X1000950Y1185270D02*
Y1170035D01*
X1011107D01*
X1018724Y1180192D02*
X1023803D01*
X1026342Y1177653D01*
Y1170035D01*
X1018724D01*
X1016185Y1172574D01*
X1018724Y1175113D01*
X1026342D01*
X1031420Y1180192D02*
Y1172574D01*
X1033960Y1170035D01*
X1041577D01*
Y1167496D01*
X1039038Y1164957D01*
X1036499D01*
X1041577Y1170035D02*
Y1180192D01*
X1054273Y1170035D02*
X1049194D01*
X1046655Y1172574D01*
Y1177653D01*
X1049194Y1180192D01*
X1054273D01*
X1056812Y1177653D01*
Y1175113D01*
X1046655D01*
X1061890Y1180192D02*
Y1170035D01*
Y1175113D01*
X1064430Y1177653D01*
X1066969Y1180192D01*
X1069508D01*
X1092361Y1177653D02*
X1102517D01*
X1122831Y1185270D02*
Y1170035D01*
X1130448D01*
X1132987Y1172574D01*
Y1175113D01*
X1130448Y1177653D01*
X1122831D01*
X1130448D01*
X1132987Y1180192D01*
Y1182731D01*
X1130448Y1185270D01*
X1122831D01*
X1140605Y1170035D02*
X1145683D01*
X1148223Y1172574D01*
Y1177653D01*
X1145683Y1180192D01*
X1140605D01*
X1138066Y1177653D01*
Y1172574D01*
X1140605Y1170035D01*
X1155840Y1182731D02*
Y1180192D01*
X1153301D01*
X1158379D01*
X1155840D01*
Y1172574D01*
X1158379Y1170035D01*
X1168536Y1182731D02*
Y1180192D01*
X1165997D01*
X1171075D01*
X1168536D01*
Y1172574D01*
X1171075Y1170035D01*
X1181232D02*
X1186310D01*
X1188849Y1172574D01*
Y1177653D01*
X1186310Y1180192D01*
X1181232D01*
X1178693Y1177653D01*
Y1172574D01*
X1181232Y1170035D01*
X1193928D02*
Y1180192D01*
X1196467D01*
X1199006Y1177653D01*
Y1170035D01*
Y1177653D01*
X1201545Y1180192D01*
X1204084Y1177653D01*
Y1170035D01*
X1224398Y1185270D02*
Y1170035D01*
X1234555D01*
X1242172Y1180192D02*
X1247251D01*
X1249790Y1177653D01*
Y1170035D01*
X1242172D01*
X1239633Y1172574D01*
X1242172Y1175113D01*
X1249790D01*
X1254868Y1180192D02*
Y1172574D01*
X1257407Y1170035D01*
X1265025D01*
Y1167496D01*
X1262486Y1164957D01*
X1259946D01*
X1265025Y1170035D02*
Y1180192D01*
X1277721Y1170035D02*
X1272642D01*
X1270103Y1172574D01*
Y1177653D01*
X1272642Y1180192D01*
X1277721D01*
X1280260Y1177653D01*
Y1175113D01*
X1270103D01*
X1285338Y1180192D02*
Y1170035D01*
Y1175113D01*
X1287877Y1177653D01*
X1290417Y1180192D01*
X1292956D01*
X940010Y1147170D02*
X950167D01*
X945088D01*
Y1131935D01*
X957784D02*
X962862D01*
X965402Y1134474D01*
Y1139553D01*
X962862Y1142092D01*
X957784D01*
X955245Y1139553D01*
Y1134474D01*
X957784Y1131935D01*
X970480Y1126857D02*
Y1142092D01*
X978098D01*
X980637Y1139553D01*
Y1134474D01*
X978098Y1131935D01*
X970480D01*
X1000950Y1147170D02*
Y1131935D01*
X1011107D01*
X1018724Y1142092D02*
X1023803D01*
X1026342Y1139553D01*
Y1131935D01*
X1018724D01*
X1016185Y1134474D01*
X1018724Y1137013D01*
X1026342D01*
X1031420Y1142092D02*
Y1134474D01*
X1033960Y1131935D01*
X1041577D01*
Y1129396D01*
X1039038Y1126857D01*
X1036499D01*
X1041577Y1131935D02*
Y1142092D01*
X1054273Y1131935D02*
X1049194D01*
X1046655Y1134474D01*
Y1139553D01*
X1049194Y1142092D01*
X1054273D01*
X1056812Y1139553D01*
Y1137013D01*
X1046655D01*
X1061890Y1142092D02*
Y1131935D01*
Y1137013D01*
X1064430Y1139553D01*
X1066969Y1142092D01*
X1069508D01*
X1092361Y1139553D02*
X1102517D01*
X1122831Y1147170D02*
Y1131935D01*
X1130448D01*
X1132987Y1134474D01*
Y1137013D01*
X1130448Y1139553D01*
X1122831D01*
X1130448D01*
X1132987Y1142092D01*
Y1144631D01*
X1130448Y1147170D01*
X1122831D01*
X1140605Y1131935D02*
X1145683D01*
X1148223Y1134474D01*
Y1139553D01*
X1145683Y1142092D01*
X1140605D01*
X1138066Y1139553D01*
Y1134474D01*
X1140605Y1131935D01*
X1155840Y1144631D02*
Y1142092D01*
X1153301D01*
X1158379D01*
X1155840D01*
Y1134474D01*
X1158379Y1131935D01*
X1168536Y1144631D02*
Y1142092D01*
X1165997D01*
X1171075D01*
X1168536D01*
Y1134474D01*
X1171075Y1131935D01*
X1181232D02*
X1186310D01*
X1188849Y1134474D01*
Y1139553D01*
X1186310Y1142092D01*
X1181232D01*
X1178693Y1139553D01*
Y1134474D01*
X1181232Y1131935D01*
X1193928D02*
Y1142092D01*
X1196467D01*
X1199006Y1139553D01*
Y1131935D01*
Y1139553D01*
X1201545Y1142092D01*
X1204084Y1139553D01*
Y1131935D01*
X1224398Y1147170D02*
Y1131935D01*
X1234555D01*
X1242172Y1142092D02*
X1247251D01*
X1249790Y1139553D01*
Y1131935D01*
X1242172D01*
X1239633Y1134474D01*
X1242172Y1137013D01*
X1249790D01*
X1254868Y1142092D02*
Y1134474D01*
X1257407Y1131935D01*
X1265025D01*
Y1129396D01*
X1262486Y1126857D01*
X1259946D01*
X1265025Y1131935D02*
Y1142092D01*
X1277721Y1131935D02*
X1272642D01*
X1270103Y1134474D01*
Y1139553D01*
X1272642Y1142092D01*
X1277721D01*
X1280260Y1139553D01*
Y1137013D01*
X1270103D01*
X1285338Y1142092D02*
Y1131935D01*
Y1137013D01*
X1287877Y1139553D01*
X1290417Y1142092D01*
X1292956D01*
X940010Y1109070D02*
X950167D01*
X945088D01*
Y1093835D01*
X957784D02*
X962862D01*
X965402Y1096374D01*
Y1101452D01*
X962862Y1103992D01*
X957784D01*
X955245Y1101452D01*
Y1096374D01*
X957784Y1093835D01*
X970480Y1088757D02*
Y1103992D01*
X978098D01*
X980637Y1101452D01*
Y1096374D01*
X978098Y1093835D01*
X970480D01*
X1000950Y1109070D02*
Y1093835D01*
X1011107D01*
X1018724Y1103992D02*
X1023803D01*
X1026342Y1101452D01*
Y1093835D01*
X1018724D01*
X1016185Y1096374D01*
X1018724Y1098913D01*
X1026342D01*
X1031420Y1103992D02*
Y1096374D01*
X1033960Y1093835D01*
X1041577D01*
Y1091296D01*
X1039038Y1088757D01*
X1036499D01*
X1041577Y1093835D02*
Y1103992D01*
X1054273Y1093835D02*
X1049194D01*
X1046655Y1096374D01*
Y1101452D01*
X1049194Y1103992D01*
X1054273D01*
X1056812Y1101452D01*
Y1098913D01*
X1046655D01*
X1061890Y1103992D02*
Y1093835D01*
Y1098913D01*
X1064430Y1101452D01*
X1066969Y1103992D01*
X1069508D01*
X1092361Y1101452D02*
X1102517D01*
X1122831Y1109070D02*
Y1093835D01*
X1130448D01*
X1132987Y1096374D01*
Y1098913D01*
X1130448Y1101452D01*
X1122831D01*
X1130448D01*
X1132987Y1103992D01*
Y1106531D01*
X1130448Y1109070D01*
X1122831D01*
X1140605Y1093835D02*
X1145683D01*
X1148223Y1096374D01*
Y1101452D01*
X1145683Y1103992D01*
X1140605D01*
X1138066Y1101452D01*
Y1096374D01*
X1140605Y1093835D01*
X1155840Y1106531D02*
Y1103992D01*
X1153301D01*
X1158379D01*
X1155840D01*
Y1096374D01*
X1158379Y1093835D01*
X1168536Y1106531D02*
Y1103992D01*
X1165997D01*
X1171075D01*
X1168536D01*
Y1096374D01*
X1171075Y1093835D01*
X1181232D02*
X1186310D01*
X1188849Y1096374D01*
Y1101452D01*
X1186310Y1103992D01*
X1181232D01*
X1178693Y1101452D01*
Y1096374D01*
X1181232Y1093835D01*
X1193928D02*
Y1103992D01*
X1196467D01*
X1199006Y1101452D01*
Y1093835D01*
Y1101452D01*
X1201545Y1103992D01*
X1204084Y1101452D01*
Y1093835D01*
X1224398Y1109070D02*
Y1093835D01*
X1234555D01*
X1242172Y1103992D02*
X1247251D01*
X1249790Y1101452D01*
Y1093835D01*
X1242172D01*
X1239633Y1096374D01*
X1242172Y1098913D01*
X1249790D01*
X1254868Y1103992D02*
Y1096374D01*
X1257407Y1093835D01*
X1265025D01*
Y1091296D01*
X1262486Y1088757D01*
X1259946D01*
X1265025Y1093835D02*
Y1103992D01*
X1277721Y1093835D02*
X1272642D01*
X1270103Y1096374D01*
Y1101452D01*
X1272642Y1103992D01*
X1277721D01*
X1280260Y1101452D01*
Y1098913D01*
X1270103D01*
X1285338Y1103992D02*
Y1093835D01*
Y1098913D01*
X1287877Y1101452D01*
X1290417Y1103992D01*
X1292956D01*
X940010Y1070970D02*
X950167D01*
X945088D01*
Y1055735D01*
X957784D02*
X962862D01*
X965402Y1058274D01*
Y1063353D01*
X962862Y1065892D01*
X957784D01*
X955245Y1063353D01*
Y1058274D01*
X957784Y1055735D01*
X970480Y1050657D02*
Y1065892D01*
X978098D01*
X980637Y1063353D01*
Y1058274D01*
X978098Y1055735D01*
X970480D01*
X1000950Y1070970D02*
Y1055735D01*
X1011107D01*
X1018724Y1065892D02*
X1023803D01*
X1026342Y1063353D01*
Y1055735D01*
X1018724D01*
X1016185Y1058274D01*
X1018724Y1060813D01*
X1026342D01*
X1031420Y1065892D02*
Y1058274D01*
X1033960Y1055735D01*
X1041577D01*
Y1053196D01*
X1039038Y1050657D01*
X1036499D01*
X1041577Y1055735D02*
Y1065892D01*
X1054273Y1055735D02*
X1049194D01*
X1046655Y1058274D01*
Y1063353D01*
X1049194Y1065892D01*
X1054273D01*
X1056812Y1063353D01*
Y1060813D01*
X1046655D01*
X1061890Y1065892D02*
Y1055735D01*
Y1060813D01*
X1064430Y1063353D01*
X1066969Y1065892D01*
X1069508D01*
X1092361Y1063353D02*
X1102517D01*
X1122831Y1070970D02*
Y1055735D01*
X1130448D01*
X1132987Y1058274D01*
Y1060813D01*
X1130448Y1063353D01*
X1122831D01*
X1130448D01*
X1132987Y1065892D01*
Y1068431D01*
X1130448Y1070970D01*
X1122831D01*
X1140605Y1055735D02*
X1145683D01*
X1148223Y1058274D01*
Y1063353D01*
X1145683Y1065892D01*
X1140605D01*
X1138066Y1063353D01*
Y1058274D01*
X1140605Y1055735D01*
X1155840Y1068431D02*
Y1065892D01*
X1153301D01*
X1158379D01*
X1155840D01*
Y1058274D01*
X1158379Y1055735D01*
X1168536Y1068431D02*
Y1065892D01*
X1165997D01*
X1171075D01*
X1168536D01*
Y1058274D01*
X1171075Y1055735D01*
X1181232D02*
X1186310D01*
X1188849Y1058274D01*
Y1063353D01*
X1186310Y1065892D01*
X1181232D01*
X1178693Y1063353D01*
Y1058274D01*
X1181232Y1055735D01*
X1193928D02*
Y1065892D01*
X1196467D01*
X1199006Y1063353D01*
Y1055735D01*
Y1063353D01*
X1201545Y1065892D01*
X1204084Y1063353D01*
Y1055735D01*
X1224398Y1070970D02*
Y1055735D01*
X1234555D01*
X1242172Y1065892D02*
X1247251D01*
X1249790Y1063353D01*
Y1055735D01*
X1242172D01*
X1239633Y1058274D01*
X1242172Y1060813D01*
X1249790D01*
X1254868Y1065892D02*
Y1058274D01*
X1257407Y1055735D01*
X1265025D01*
Y1053196D01*
X1262486Y1050657D01*
X1259946D01*
X1265025Y1055735D02*
Y1065892D01*
X1277721Y1055735D02*
X1272642D01*
X1270103Y1058274D01*
Y1063353D01*
X1272642Y1065892D01*
X1277721D01*
X1280260Y1063353D01*
Y1060813D01*
X1270103D01*
X1285338Y1065892D02*
Y1055735D01*
Y1060813D01*
X1287877Y1063353D01*
X1290417Y1065892D01*
X1292956D01*
X940010Y1032870D02*
X950167D01*
X945088D01*
Y1017635D01*
X957784D02*
X962862D01*
X965402Y1020174D01*
Y1025253D01*
X962862Y1027792D01*
X957784D01*
X955245Y1025253D01*
Y1020174D01*
X957784Y1017635D01*
X970480Y1012557D02*
Y1027792D01*
X978098D01*
X980637Y1025253D01*
Y1020174D01*
X978098Y1017635D01*
X970480D01*
X1000950Y1032870D02*
Y1017635D01*
X1011107D01*
X1018724Y1027792D02*
X1023803D01*
X1026342Y1025253D01*
Y1017635D01*
X1018724D01*
X1016185Y1020174D01*
X1018724Y1022713D01*
X1026342D01*
X1031420Y1027792D02*
Y1020174D01*
X1033960Y1017635D01*
X1041577D01*
Y1015096D01*
X1039038Y1012557D01*
X1036499D01*
X1041577Y1017635D02*
Y1027792D01*
X1054273Y1017635D02*
X1049194D01*
X1046655Y1020174D01*
Y1025253D01*
X1049194Y1027792D01*
X1054273D01*
X1056812Y1025253D01*
Y1022713D01*
X1046655D01*
X1061890Y1027792D02*
Y1017635D01*
Y1022713D01*
X1064430Y1025253D01*
X1066969Y1027792D01*
X1069508D01*
X1092361Y1025253D02*
X1102517D01*
X1122831Y1032870D02*
Y1017635D01*
X1130448D01*
X1132987Y1020174D01*
Y1022713D01*
X1130448Y1025253D01*
X1122831D01*
X1130448D01*
X1132987Y1027792D01*
Y1030331D01*
X1130448Y1032870D01*
X1122831D01*
X1140605Y1017635D02*
X1145683D01*
X1148223Y1020174D01*
Y1025253D01*
X1145683Y1027792D01*
X1140605D01*
X1138066Y1025253D01*
Y1020174D01*
X1140605Y1017635D01*
X1155840Y1030331D02*
Y1027792D01*
X1153301D01*
X1158379D01*
X1155840D01*
Y1020174D01*
X1158379Y1017635D01*
X1168536Y1030331D02*
Y1027792D01*
X1165997D01*
X1171075D01*
X1168536D01*
Y1020174D01*
X1171075Y1017635D01*
X1181232D02*
X1186310D01*
X1188849Y1020174D01*
Y1025253D01*
X1186310Y1027792D01*
X1181232D01*
X1178693Y1025253D01*
Y1020174D01*
X1181232Y1017635D01*
X1193928D02*
Y1027792D01*
X1196467D01*
X1199006Y1025253D01*
Y1017635D01*
Y1025253D01*
X1201545Y1027792D01*
X1204084Y1025253D01*
Y1017635D01*
X1224398Y1032870D02*
Y1017635D01*
X1234555D01*
X1242172Y1027792D02*
X1247251D01*
X1249790Y1025253D01*
Y1017635D01*
X1242172D01*
X1239633Y1020174D01*
X1242172Y1022713D01*
X1249790D01*
X1254868Y1027792D02*
Y1020174D01*
X1257407Y1017635D01*
X1265025D01*
Y1015096D01*
X1262486Y1012557D01*
X1259946D01*
X1265025Y1017635D02*
Y1027792D01*
X1277721Y1017635D02*
X1272642D01*
X1270103Y1020174D01*
Y1025253D01*
X1272642Y1027792D01*
X1277721D01*
X1280260Y1025253D01*
Y1022713D01*
X1270103D01*
X1285338Y1027792D02*
Y1017635D01*
Y1022713D01*
X1287877Y1025253D01*
X1290417Y1027792D01*
X1292956D01*
X940010Y994770D02*
X950167D01*
X945088D01*
Y979535D01*
X957784D02*
X962862D01*
X965402Y982074D01*
Y987152D01*
X962862Y989692D01*
X957784D01*
X955245Y987152D01*
Y982074D01*
X957784Y979535D01*
X970480Y974457D02*
Y989692D01*
X978098D01*
X980637Y987152D01*
Y982074D01*
X978098Y979535D01*
X970480D01*
X1000950Y994770D02*
Y979535D01*
X1011107D01*
X1018724Y989692D02*
X1023803D01*
X1026342Y987152D01*
Y979535D01*
X1018724D01*
X1016185Y982074D01*
X1018724Y984613D01*
X1026342D01*
X1031420Y989692D02*
Y982074D01*
X1033960Y979535D01*
X1041577D01*
Y976996D01*
X1039038Y974457D01*
X1036499D01*
X1041577Y979535D02*
Y989692D01*
X1054273Y979535D02*
X1049194D01*
X1046655Y982074D01*
Y987152D01*
X1049194Y989692D01*
X1054273D01*
X1056812Y987152D01*
Y984613D01*
X1046655D01*
X1061890Y989692D02*
Y979535D01*
Y984613D01*
X1064430Y987152D01*
X1066969Y989692D01*
X1069508D01*
X1092361Y987152D02*
X1102517D01*
X1122831Y994770D02*
Y979535D01*
X1130448D01*
X1132987Y982074D01*
Y984613D01*
X1130448Y987152D01*
X1122831D01*
X1130448D01*
X1132987Y989692D01*
Y992231D01*
X1130448Y994770D01*
X1122831D01*
X1140605Y979535D02*
X1145683D01*
X1148223Y982074D01*
Y987152D01*
X1145683Y989692D01*
X1140605D01*
X1138066Y987152D01*
Y982074D01*
X1140605Y979535D01*
X1155840Y992231D02*
Y989692D01*
X1153301D01*
X1158379D01*
X1155840D01*
Y982074D01*
X1158379Y979535D01*
X1168536Y992231D02*
Y989692D01*
X1165997D01*
X1171075D01*
X1168536D01*
Y982074D01*
X1171075Y979535D01*
X1181232D02*
X1186310D01*
X1188849Y982074D01*
Y987152D01*
X1186310Y989692D01*
X1181232D01*
X1178693Y987152D01*
Y982074D01*
X1181232Y979535D01*
X1193928D02*
Y989692D01*
X1196467D01*
X1199006Y987152D01*
Y979535D01*
Y987152D01*
X1201545Y989692D01*
X1204084Y987152D01*
Y979535D01*
X1224398Y994770D02*
Y979535D01*
X1234555D01*
X1242172Y989692D02*
X1247251D01*
X1249790Y987152D01*
Y979535D01*
X1242172D01*
X1239633Y982074D01*
X1242172Y984613D01*
X1249790D01*
X1254868Y989692D02*
Y982074D01*
X1257407Y979535D01*
X1265025D01*
Y976996D01*
X1262486Y974457D01*
X1259946D01*
X1265025Y979535D02*
Y989692D01*
X1277721Y979535D02*
X1272642D01*
X1270103Y982074D01*
Y987152D01*
X1272642Y989692D01*
X1277721D01*
X1280260Y987152D01*
Y984613D01*
X1270103D01*
X1285338Y989692D02*
Y979535D01*
Y984613D01*
X1287877Y987152D01*
X1290417Y989692D01*
X1292956D01*
X940010Y956670D02*
X950167D01*
X945088D01*
Y941435D01*
X957784D02*
X962862D01*
X965402Y943974D01*
Y949053D01*
X962862Y951592D01*
X957784D01*
X955245Y949053D01*
Y943974D01*
X957784Y941435D01*
X970480Y936357D02*
Y951592D01*
X978098D01*
X980637Y949053D01*
Y943974D01*
X978098Y941435D01*
X970480D01*
X1000950Y956670D02*
Y941435D01*
X1011107D01*
X1018724Y951592D02*
X1023803D01*
X1026342Y949053D01*
Y941435D01*
X1018724D01*
X1016185Y943974D01*
X1018724Y946513D01*
X1026342D01*
X1031420Y951592D02*
Y943974D01*
X1033960Y941435D01*
X1041577D01*
Y938896D01*
X1039038Y936357D01*
X1036499D01*
X1041577Y941435D02*
Y951592D01*
X1054273Y941435D02*
X1049194D01*
X1046655Y943974D01*
Y949053D01*
X1049194Y951592D01*
X1054273D01*
X1056812Y949053D01*
Y946513D01*
X1046655D01*
X1061890Y951592D02*
Y941435D01*
Y946513D01*
X1064430Y949053D01*
X1066969Y951592D01*
X1069508D01*
X1092361Y949053D02*
X1102517D01*
X1122831Y956670D02*
Y941435D01*
X1130448D01*
X1132987Y943974D01*
Y946513D01*
X1130448Y949053D01*
X1122831D01*
X1130448D01*
X1132987Y951592D01*
Y954131D01*
X1130448Y956670D01*
X1122831D01*
X1140605Y941435D02*
X1145683D01*
X1148223Y943974D01*
Y949053D01*
X1145683Y951592D01*
X1140605D01*
X1138066Y949053D01*
Y943974D01*
X1140605Y941435D01*
X1155840Y954131D02*
Y951592D01*
X1153301D01*
X1158379D01*
X1155840D01*
Y943974D01*
X1158379Y941435D01*
X1168536Y954131D02*
Y951592D01*
X1165997D01*
X1171075D01*
X1168536D01*
Y943974D01*
X1171075Y941435D01*
X1181232D02*
X1186310D01*
X1188849Y943974D01*
Y949053D01*
X1186310Y951592D01*
X1181232D01*
X1178693Y949053D01*
Y943974D01*
X1181232Y941435D01*
X1193928D02*
Y951592D01*
X1196467D01*
X1199006Y949053D01*
Y941435D01*
Y949053D01*
X1201545Y951592D01*
X1204084Y949053D01*
Y941435D01*
X1224398Y956670D02*
Y941435D01*
X1234555D01*
X1242172Y951592D02*
X1247251D01*
X1249790Y949053D01*
Y941435D01*
X1242172D01*
X1239633Y943974D01*
X1242172Y946513D01*
X1249790D01*
X1254868Y951592D02*
Y943974D01*
X1257407Y941435D01*
X1265025D01*
Y938896D01*
X1262486Y936357D01*
X1259946D01*
X1265025Y941435D02*
Y951592D01*
X1277721Y941435D02*
X1272642D01*
X1270103Y943974D01*
Y949053D01*
X1272642Y951592D01*
X1277721D01*
X1280260Y949053D01*
Y946513D01*
X1270103D01*
X1285338Y951592D02*
Y941435D01*
Y946513D01*
X1287877Y949053D01*
X1290417Y951592D01*
X1292956D01*
X753624Y1246235D02*
Y1261470D01*
X761242D01*
X763781Y1258931D01*
Y1253852D01*
X761242Y1251313D01*
X753624D01*
X758702D02*
X763781Y1246235D01*
X771398D02*
X776477D01*
X779016Y1248774D01*
Y1253852D01*
X776477Y1256392D01*
X771398D01*
X768859Y1253852D01*
Y1248774D01*
X771398Y1246235D01*
X784094Y1256392D02*
Y1248774D01*
X786634Y1246235D01*
X794251D01*
Y1256392D01*
X799329Y1246235D02*
Y1256392D01*
X806947D01*
X809486Y1253852D01*
Y1246235D01*
X824721Y1261470D02*
Y1246235D01*
X817104D01*
X814564Y1248774D01*
Y1253852D01*
X817104Y1256392D01*
X824721D01*
X753624Y1208135D02*
Y1223370D01*
X761242D01*
X763781Y1220831D01*
Y1215752D01*
X761242Y1213213D01*
X753624D01*
X758702D02*
X763781Y1208135D01*
X771398D02*
X776477D01*
X779016Y1210674D01*
Y1215752D01*
X776477Y1218292D01*
X771398D01*
X768859Y1215752D01*
Y1210674D01*
X771398Y1208135D01*
X784094Y1218292D02*
Y1210674D01*
X786634Y1208135D01*
X794251D01*
Y1218292D01*
X799329Y1208135D02*
Y1218292D01*
X806947D01*
X809486Y1215752D01*
Y1208135D01*
X824721Y1223370D02*
Y1208135D01*
X817104D01*
X814564Y1210674D01*
Y1215752D01*
X817104Y1218292D01*
X824721D01*
X753624Y1170035D02*
Y1185270D01*
X761242D01*
X763781Y1182731D01*
Y1177653D01*
X761242Y1175113D01*
X753624D01*
X758702D02*
X763781Y1170035D01*
X771398D02*
X776477D01*
X779016Y1172574D01*
Y1177653D01*
X776477Y1180192D01*
X771398D01*
X768859Y1177653D01*
Y1172574D01*
X771398Y1170035D01*
X784094Y1180192D02*
Y1172574D01*
X786634Y1170035D01*
X794251D01*
Y1180192D01*
X799329Y1170035D02*
Y1180192D01*
X806947D01*
X809486Y1177653D01*
Y1170035D01*
X824721Y1185270D02*
Y1170035D01*
X817104D01*
X814564Y1172574D01*
Y1177653D01*
X817104Y1180192D01*
X824721D01*
X753624Y1131935D02*
Y1147170D01*
X761242D01*
X763781Y1144631D01*
Y1139553D01*
X761242Y1137013D01*
X753624D01*
X758702D02*
X763781Y1131935D01*
X771398D02*
X776477D01*
X779016Y1134474D01*
Y1139553D01*
X776477Y1142092D01*
X771398D01*
X768859Y1139553D01*
Y1134474D01*
X771398Y1131935D01*
X784094Y1142092D02*
Y1134474D01*
X786634Y1131935D01*
X794251D01*
Y1142092D01*
X799329Y1131935D02*
Y1142092D01*
X806947D01*
X809486Y1139553D01*
Y1131935D01*
X824721Y1147170D02*
Y1131935D01*
X817104D01*
X814564Y1134474D01*
Y1139553D01*
X817104Y1142092D01*
X824721D01*
X753624Y1093835D02*
Y1109070D01*
X761242D01*
X763781Y1106531D01*
Y1101452D01*
X761242Y1098913D01*
X753624D01*
X758702D02*
X763781Y1093835D01*
X771398D02*
X776477D01*
X779016Y1096374D01*
Y1101452D01*
X776477Y1103992D01*
X771398D01*
X768859Y1101452D01*
Y1096374D01*
X771398Y1093835D01*
X784094Y1103992D02*
Y1096374D01*
X786634Y1093835D01*
X794251D01*
Y1103992D01*
X799329Y1093835D02*
Y1103992D01*
X806947D01*
X809486Y1101452D01*
Y1093835D01*
X824721Y1109070D02*
Y1093835D01*
X817104D01*
X814564Y1096374D01*
Y1101452D01*
X817104Y1103992D01*
X824721D01*
X753624Y1055735D02*
Y1070970D01*
X761242D01*
X763781Y1068431D01*
Y1063353D01*
X761242Y1060813D01*
X753624D01*
X758702D02*
X763781Y1055735D01*
X771398D02*
X776477D01*
X779016Y1058274D01*
Y1063353D01*
X776477Y1065892D01*
X771398D01*
X768859Y1063353D01*
Y1058274D01*
X771398Y1055735D01*
X784094Y1065892D02*
Y1058274D01*
X786634Y1055735D01*
X794251D01*
Y1065892D01*
X799329Y1055735D02*
Y1065892D01*
X806947D01*
X809486Y1063353D01*
Y1055735D01*
X824721Y1070970D02*
Y1055735D01*
X817104D01*
X814564Y1058274D01*
Y1063353D01*
X817104Y1065892D01*
X824721D01*
X753624Y1017635D02*
Y1032870D01*
X761242D01*
X763781Y1030331D01*
Y1025253D01*
X761242Y1022713D01*
X753624D01*
X758702D02*
X763781Y1017635D01*
X771398D02*
X776477D01*
X779016Y1020174D01*
Y1025253D01*
X776477Y1027792D01*
X771398D01*
X768859Y1025253D01*
Y1020174D01*
X771398Y1017635D01*
X784094Y1027792D02*
Y1020174D01*
X786634Y1017635D01*
X794251D01*
Y1027792D01*
X799329Y1017635D02*
Y1027792D01*
X806947D01*
X809486Y1025253D01*
Y1017635D01*
X824721Y1032870D02*
Y1017635D01*
X817104D01*
X814564Y1020174D01*
Y1025253D01*
X817104Y1027792D01*
X824721D01*
X753624Y979535D02*
Y994770D01*
X761242D01*
X763781Y992231D01*
Y987152D01*
X761242Y984613D01*
X753624D01*
X758702D02*
X763781Y979535D01*
X771398D02*
X776477D01*
X779016Y982074D01*
Y987152D01*
X776477Y989692D01*
X771398D01*
X768859Y987152D01*
Y982074D01*
X771398Y979535D01*
X784094Y989692D02*
Y982074D01*
X786634Y979535D01*
X794251D01*
Y989692D01*
X799329Y979535D02*
Y989692D01*
X806947D01*
X809486Y987152D01*
Y979535D01*
X824721Y994770D02*
Y979535D01*
X817104D01*
X814564Y982074D01*
Y987152D01*
X817104Y989692D01*
X824721D01*
X753624Y941435D02*
Y956670D01*
X761242D01*
X763781Y954131D01*
Y949053D01*
X761242Y946513D01*
X753624D01*
X758702D02*
X763781Y941435D01*
X771398D02*
X776477D01*
X779016Y943974D01*
Y949053D01*
X776477Y951592D01*
X771398D01*
X768859Y949053D01*
Y943974D01*
X771398Y941435D01*
X784094Y951592D02*
Y943974D01*
X786634Y941435D01*
X794251D01*
Y951592D01*
X799329Y941435D02*
Y951592D01*
X806947D01*
X809486Y949053D01*
Y941435D01*
X824721Y956670D02*
Y941435D01*
X817104D01*
X814564Y943974D01*
Y949053D01*
X817104Y951592D01*
X824721D01*
X625132Y1246235D02*
Y1261470D01*
X632749D01*
X635288Y1258931D01*
Y1253852D01*
X632749Y1251313D01*
X625132D01*
X640367Y1261470D02*
X650524D01*
X645445D01*
Y1246235D01*
X655602Y1261470D02*
Y1246235D01*
Y1253852D01*
X665759D01*
Y1261470D01*
Y1246235D01*
X625132Y1208135D02*
Y1223370D01*
X632749D01*
X635288Y1220831D01*
Y1215752D01*
X632749Y1213213D01*
X625132D01*
X640367Y1223370D02*
X650524D01*
X645445D01*
Y1208135D01*
X655602Y1223370D02*
Y1208135D01*
Y1215752D01*
X665759D01*
Y1223370D01*
Y1208135D01*
X625132Y1170035D02*
Y1185270D01*
X635288Y1170035D01*
Y1185270D01*
X640367Y1170035D02*
Y1185270D01*
X647984D01*
X650524Y1182731D01*
Y1177653D01*
X647984Y1175113D01*
X640367D01*
X655602Y1185270D02*
X665759D01*
X660680D01*
Y1170035D01*
X670837Y1185270D02*
Y1170035D01*
Y1177653D01*
X680994D01*
Y1185270D01*
Y1170035D01*
X625132Y1131935D02*
Y1147170D01*
X632749D01*
X635288Y1144631D01*
Y1139553D01*
X632749Y1137013D01*
X625132D01*
X640367Y1147170D02*
X650524D01*
X645445D01*
Y1131935D01*
X655602Y1147170D02*
Y1131935D01*
Y1139553D01*
X665759D01*
Y1147170D01*
Y1131935D01*
X625132Y1093835D02*
Y1109070D01*
X632749D01*
X635288Y1106531D01*
Y1101452D01*
X632749Y1098913D01*
X625132D01*
X640367Y1109070D02*
X650524D01*
X645445D01*
Y1093835D01*
X655602Y1109070D02*
Y1093835D01*
Y1101452D01*
X665759D01*
Y1109070D01*
Y1093835D01*
X625132Y1055735D02*
Y1070970D01*
X632749D01*
X635288Y1068431D01*
Y1063353D01*
X632749Y1060813D01*
X625132D01*
X640367Y1070970D02*
X650524D01*
X645445D01*
Y1055735D01*
X655602Y1070970D02*
Y1055735D01*
Y1063353D01*
X665759D01*
Y1070970D01*
Y1055735D01*
X625132Y1017635D02*
Y1032870D01*
X632749D01*
X635288Y1030331D01*
Y1025253D01*
X632749Y1022713D01*
X625132D01*
X640367Y1032870D02*
X650524D01*
X645445D01*
Y1017635D01*
X655602Y1032870D02*
Y1017635D01*
Y1025253D01*
X665759D01*
Y1032870D01*
Y1017635D01*
X625132Y979535D02*
Y994770D01*
X632749D01*
X635288Y992231D01*
Y987152D01*
X632749Y984613D01*
X625132D01*
X640367Y994770D02*
X650524D01*
X645445D01*
Y979535D01*
X655602Y994770D02*
Y979535D01*
Y987152D01*
X665759D01*
Y994770D01*
Y979535D01*
X625132Y941435D02*
Y956670D01*
X632749D01*
X635288Y954131D01*
Y949053D01*
X632749Y946513D01*
X625132D01*
X640367Y956670D02*
X650524D01*
X645445D01*
Y941435D01*
X655602Y956670D02*
Y941435D01*
Y949053D01*
X665759D01*
Y956670D01*
Y941435D01*
X343274Y1261470D02*
X338195Y1258931D01*
X333117Y1253852D01*
Y1248774D01*
X335656Y1246235D01*
X340735D01*
X343274Y1248774D01*
Y1251313D01*
X340735Y1253852D01*
X333117D01*
X348352Y1246235D02*
X353431D01*
X350891D01*
Y1261470D01*
X348352Y1258931D01*
X361048Y1246235D02*
Y1248774D01*
X363587D01*
Y1246235D01*
X361048D01*
X373744Y1258931D02*
X376283Y1261470D01*
X381362D01*
X383901Y1258931D01*
Y1256392D01*
X381362Y1253852D01*
X383901Y1251313D01*
Y1248774D01*
X381362Y1246235D01*
X376283D01*
X373744Y1248774D01*
Y1251313D01*
X376283Y1253852D01*
X373744Y1256392D01*
Y1258931D01*
X376283Y1253852D02*
X381362D01*
X388979Y1246235D02*
X394057D01*
X391518D01*
Y1261470D01*
X388979Y1258931D01*
X401675Y1246235D02*
Y1256392D01*
X404214D01*
X406753Y1253852D01*
Y1246235D01*
Y1253852D01*
X409292Y1256392D01*
X411832Y1253852D01*
Y1246235D01*
X416910D02*
X421988D01*
X419449D01*
Y1256392D01*
X416910D01*
X429606Y1246235D02*
X434684D01*
X432145D01*
Y1261470D01*
X429606D01*
X462615Y1246235D02*
X457537Y1251313D01*
Y1256392D01*
X462615Y1261470D01*
X470233Y1246235D02*
X475311D01*
X472772D01*
Y1261470D01*
X470233Y1258931D01*
X482929Y1246235D02*
Y1248774D01*
X485468D01*
Y1246235D01*
X482929D01*
X505781Y1261470D02*
X495625D01*
Y1253852D01*
X500703Y1256392D01*
X503242D01*
X505781Y1253852D01*
Y1248774D01*
X503242Y1246235D01*
X498164D01*
X495625Y1248774D01*
X510860Y1261470D02*
X521016D01*
Y1258931D01*
X510860Y1248774D01*
Y1246235D01*
X526095Y1258931D02*
X528634Y1261470D01*
X533712D01*
X536251Y1258931D01*
Y1248774D01*
X533712Y1246235D01*
X528634D01*
X526095Y1248774D01*
Y1258931D01*
X541330Y1246235D02*
Y1256392D01*
X543869D01*
X546408Y1253852D01*
Y1246235D01*
Y1253852D01*
X548947Y1256392D01*
X551487Y1253852D01*
Y1246235D01*
X556565D02*
Y1256392D01*
X559104D01*
X561643Y1253852D01*
Y1246235D01*
Y1253852D01*
X564182Y1256392D01*
X566721Y1253852D01*
Y1246235D01*
X571800D02*
X576878Y1251313D01*
Y1256392D01*
X571800Y1261470D01*
X333117Y1223370D02*
X343274D01*
Y1220831D01*
X333117Y1210674D01*
Y1208135D01*
X348352Y1220831D02*
X350891Y1223370D01*
X355970D01*
X358509Y1220831D01*
Y1210674D01*
X355970Y1208135D01*
X350891D01*
X348352Y1210674D01*
Y1220831D01*
X363587Y1208135D02*
Y1210674D01*
X366127D01*
Y1208135D01*
X363587D01*
X376283Y1220831D02*
X378822Y1223370D01*
X383901D01*
X386440Y1220831D01*
Y1210674D01*
X383901Y1208135D01*
X378822D01*
X376283Y1210674D01*
Y1220831D01*
X391518D02*
X394058Y1223370D01*
X399136D01*
X401675Y1220831D01*
Y1218292D01*
X399136Y1215752D01*
X401675Y1213213D01*
Y1210674D01*
X399136Y1208135D01*
X394058D01*
X391518Y1210674D01*
Y1213213D01*
X394058Y1215752D01*
X391518Y1218292D01*
Y1220831D01*
X394058Y1215752D02*
X399136D01*
X406753Y1208135D02*
Y1218292D01*
X409292D01*
X411832Y1215752D01*
Y1208135D01*
Y1215752D01*
X414371Y1218292D01*
X416910Y1215752D01*
Y1208135D01*
X421988D02*
X427067D01*
X424528D01*
Y1218292D01*
X421988D01*
X434684Y1208135D02*
X439763D01*
X437224D01*
Y1223370D01*
X434684D01*
X467694Y1208135D02*
X462615Y1213213D01*
Y1218292D01*
X467694Y1223370D01*
X475311Y1208135D02*
X480390D01*
X477850D01*
Y1223370D01*
X475311Y1220831D01*
X488007Y1208135D02*
Y1210674D01*
X490546D01*
Y1208135D01*
X488007D01*
X500703Y1223370D02*
X510860D01*
Y1220831D01*
X500703Y1210674D01*
Y1208135D01*
X515938Y1220831D02*
X518477Y1223370D01*
X523555D01*
X526095Y1220831D01*
Y1218292D01*
X523555Y1215752D01*
X526095Y1213213D01*
Y1210674D01*
X523555Y1208135D01*
X518477D01*
X515938Y1210674D01*
Y1213213D01*
X518477Y1215752D01*
X515938Y1218292D01*
Y1220831D01*
X518477Y1215752D02*
X523555D01*
X531173Y1220831D02*
X533712Y1223370D01*
X538791D01*
X541330Y1220831D01*
Y1210674D01*
X538791Y1208135D01*
X533712D01*
X531173Y1210674D01*
Y1220831D01*
X546408Y1208135D02*
Y1218292D01*
X548947D01*
X551487Y1215752D01*
Y1208135D01*
Y1215752D01*
X554026Y1218292D01*
X556565Y1215752D01*
Y1208135D01*
X561643D02*
Y1218292D01*
X564182D01*
X566721Y1215752D01*
Y1208135D01*
Y1215752D01*
X569261Y1218292D01*
X571800Y1215752D01*
Y1208135D01*
X576878D02*
X581957Y1213213D01*
Y1218292D01*
X576878Y1223370D01*
X333117Y1170035D02*
X338195D01*
X335656D01*
Y1185270D01*
X333117Y1182731D01*
X355970Y1170035D02*
X345813D01*
X355970Y1180192D01*
Y1182731D01*
X353431Y1185270D01*
X348352D01*
X345813Y1182731D01*
X361048Y1185270D02*
X371205D01*
Y1182731D01*
X361048Y1172574D01*
Y1170035D01*
X376283D02*
Y1172574D01*
X378822D01*
Y1170035D01*
X376283D01*
X388979Y1172574D02*
X391518Y1170035D01*
X396597D01*
X399136Y1172574D01*
Y1182731D01*
X396597Y1185270D01*
X391518D01*
X388979Y1182731D01*
Y1180192D01*
X391518Y1177653D01*
X399136D01*
X414371Y1185270D02*
X404214D01*
Y1177653D01*
X409292Y1180192D01*
X411832D01*
X414371Y1177653D01*
Y1172574D01*
X411832Y1170035D01*
X406753D01*
X404214Y1172574D01*
X419449Y1170035D02*
Y1180192D01*
X421988D01*
X424528Y1177653D01*
Y1170035D01*
Y1177653D01*
X427067Y1180192D01*
X429606Y1177653D01*
Y1170035D01*
X434684D02*
X439763D01*
X437224D01*
Y1180192D01*
X434684D01*
X447380Y1170035D02*
X452458D01*
X449919D01*
Y1185270D01*
X447380D01*
X480390Y1170035D02*
X475311Y1175113D01*
Y1180192D01*
X480390Y1185270D01*
X488007Y1182731D02*
X490546Y1185270D01*
X495625D01*
X498164Y1182731D01*
Y1180192D01*
X495625Y1177653D01*
X493085D01*
X495625D01*
X498164Y1175113D01*
Y1172574D01*
X495625Y1170035D01*
X490546D01*
X488007Y1172574D01*
X503242Y1170035D02*
Y1172574D01*
X505781D01*
Y1170035D01*
X503242D01*
X526095D02*
X515938D01*
X526095Y1180192D01*
Y1182731D01*
X523555Y1185270D01*
X518477D01*
X515938Y1182731D01*
X541330Y1185270D02*
X531173D01*
Y1177653D01*
X536251Y1180192D01*
X538791D01*
X541330Y1177653D01*
Y1172574D01*
X538791Y1170035D01*
X533712D01*
X531173Y1172574D01*
X546408Y1182731D02*
X548947Y1185270D01*
X554026D01*
X556565Y1182731D01*
Y1172574D01*
X554026Y1170035D01*
X548947D01*
X546408Y1172574D01*
Y1182731D01*
X561643Y1170035D02*
Y1180192D01*
X564182D01*
X566721Y1177653D01*
Y1170035D01*
Y1177653D01*
X569261Y1180192D01*
X571800Y1177653D01*
Y1170035D01*
X576878D02*
Y1180192D01*
X579417D01*
X581957Y1177653D01*
Y1170035D01*
Y1177653D01*
X584496Y1180192D01*
X587035Y1177653D01*
Y1170035D01*
X592113D02*
X597192Y1175113D01*
Y1180192D01*
X592113Y1185270D01*
X333117Y1144631D02*
X335656Y1147170D01*
X340735D01*
X343274Y1144631D01*
Y1142092D01*
X340735Y1139553D01*
X338195D01*
X340735D01*
X343274Y1137013D01*
Y1134474D01*
X340735Y1131935D01*
X335656D01*
X333117Y1134474D01*
X358509Y1131935D02*
X348352D01*
X358509Y1142092D01*
Y1144631D01*
X355970Y1147170D01*
X350891D01*
X348352Y1144631D01*
X363587Y1131935D02*
Y1134474D01*
X366127D01*
Y1131935D01*
X363587D01*
X376283Y1144631D02*
X378822Y1147170D01*
X383901D01*
X386440Y1144631D01*
Y1134474D01*
X383901Y1131935D01*
X378822D01*
X376283Y1134474D01*
Y1144631D01*
X391518D02*
X394058Y1147170D01*
X399136D01*
X401675Y1144631D01*
Y1134474D01*
X399136Y1131935D01*
X394058D01*
X391518Y1134474D01*
Y1144631D01*
X406753Y1131935D02*
Y1142092D01*
X409292D01*
X411832Y1139553D01*
Y1131935D01*
Y1139553D01*
X414371Y1142092D01*
X416910Y1139553D01*
Y1131935D01*
X421988D02*
X427067D01*
X424528D01*
Y1142092D01*
X421988D01*
X434684Y1131935D02*
X439763D01*
X437224D01*
Y1147170D01*
X434684D01*
X467694Y1131935D02*
X462615Y1137013D01*
Y1142092D01*
X467694Y1147170D01*
X475311Y1144631D02*
X477850Y1147170D01*
X482929D01*
X485468Y1144631D01*
Y1134474D01*
X482929Y1131935D01*
X477850D01*
X475311Y1134474D01*
Y1144631D01*
X490546Y1131935D02*
Y1134474D01*
X493085D01*
Y1131935D01*
X490546D01*
X503242Y1144631D02*
X505781Y1147170D01*
X510860D01*
X513399Y1144631D01*
Y1142092D01*
X510860Y1139553D01*
X513399Y1137013D01*
Y1134474D01*
X510860Y1131935D01*
X505781D01*
X503242Y1134474D01*
Y1137013D01*
X505781Y1139553D01*
X503242Y1142092D01*
Y1144631D01*
X505781Y1139553D02*
X510860D01*
X518477Y1131935D02*
X523555D01*
X521016D01*
Y1147170D01*
X518477Y1144631D01*
X531173D02*
X533712Y1147170D01*
X538791D01*
X541330Y1144631D01*
Y1142092D01*
X538791Y1139553D01*
X536251D01*
X538791D01*
X541330Y1137013D01*
Y1134474D01*
X538791Y1131935D01*
X533712D01*
X531173Y1134474D01*
X546408Y1131935D02*
Y1142092D01*
X548947D01*
X551487Y1139553D01*
Y1131935D01*
Y1139553D01*
X554026Y1142092D01*
X556565Y1139553D01*
Y1131935D01*
X561643D02*
Y1142092D01*
X564182D01*
X566721Y1139553D01*
Y1131935D01*
Y1139553D01*
X569261Y1142092D01*
X571800Y1139553D01*
Y1131935D01*
X576878D02*
X581957Y1137013D01*
Y1142092D01*
X576878Y1147170D01*
X340735Y1093835D02*
Y1109070D01*
X333117Y1101452D01*
X343274D01*
X348352Y1106531D02*
X350891Y1109070D01*
X355970D01*
X358509Y1106531D01*
Y1103992D01*
X355970Y1101452D01*
X353431D01*
X355970D01*
X358509Y1098913D01*
Y1096374D01*
X355970Y1093835D01*
X350891D01*
X348352Y1096374D01*
X363587Y1093835D02*
Y1096374D01*
X366127D01*
Y1093835D01*
X363587D01*
X376283Y1106531D02*
X378822Y1109070D01*
X383901D01*
X386440Y1106531D01*
Y1103992D01*
X383901Y1101452D01*
X381362D01*
X383901D01*
X386440Y1098913D01*
Y1096374D01*
X383901Y1093835D01*
X378822D01*
X376283Y1096374D01*
X391518Y1093835D02*
X396597D01*
X394058D01*
Y1109070D01*
X391518Y1106531D01*
X404214Y1093835D02*
Y1103992D01*
X406753D01*
X409292Y1101452D01*
Y1093835D01*
Y1101452D01*
X411832Y1103992D01*
X414371Y1101452D01*
Y1093835D01*
X419449D02*
X424528D01*
X421988D01*
Y1103992D01*
X419449D01*
X432145Y1093835D02*
X437224D01*
X434684D01*
Y1109070D01*
X432145D01*
X465154Y1093835D02*
X460076Y1098913D01*
Y1103992D01*
X465154Y1109070D01*
X472772Y1093835D02*
X477850D01*
X475311D01*
Y1109070D01*
X472772Y1106531D01*
X485468Y1093835D02*
Y1096374D01*
X488007D01*
Y1093835D01*
X485468D01*
X498164D02*
X503242D01*
X500703D01*
Y1109070D01*
X498164Y1106531D01*
X510860D02*
X513399Y1109070D01*
X518477D01*
X521016Y1106531D01*
Y1096374D01*
X518477Y1093835D01*
X513399D01*
X510860Y1096374D01*
Y1106531D01*
X526095D02*
X528634Y1109070D01*
X533712D01*
X536251Y1106531D01*
Y1096374D01*
X533712Y1093835D01*
X528634D01*
X526095Y1096374D01*
Y1106531D01*
X541330Y1093835D02*
Y1103992D01*
X543869D01*
X546408Y1101452D01*
Y1093835D01*
Y1101452D01*
X548947Y1103992D01*
X551487Y1101452D01*
Y1093835D01*
X556565D02*
Y1103992D01*
X559104D01*
X561643Y1101452D01*
Y1093835D01*
Y1101452D01*
X564182Y1103992D01*
X566721Y1101452D01*
Y1093835D01*
X571800D02*
X576878Y1098913D01*
Y1103992D01*
X571800Y1109070D01*
X333117Y1070970D02*
X343274D01*
Y1068431D01*
X333117Y1058274D01*
Y1055735D01*
X348352Y1068431D02*
X350891Y1070970D01*
X355970D01*
X358509Y1068431D01*
Y1065892D01*
X355970Y1063353D01*
X358509Y1060813D01*
Y1058274D01*
X355970Y1055735D01*
X350891D01*
X348352Y1058274D01*
Y1060813D01*
X350891Y1063353D01*
X348352Y1065892D01*
Y1068431D01*
X350891Y1063353D02*
X355970D01*
X363587Y1055735D02*
Y1058274D01*
X366127D01*
Y1055735D01*
X363587D01*
X376283Y1070970D02*
X386440D01*
Y1068431D01*
X376283Y1058274D01*
Y1055735D01*
X399136D02*
Y1070970D01*
X391518Y1063353D01*
X401675D01*
X406753Y1055735D02*
Y1065892D01*
X409292D01*
X411832Y1063353D01*
Y1055735D01*
Y1063353D01*
X414371Y1065892D01*
X416910Y1063353D01*
Y1055735D01*
X421988D02*
X427067D01*
X424528D01*
Y1065892D01*
X421988D01*
X434684Y1055735D02*
X439763D01*
X437224D01*
Y1070970D01*
X434684D01*
X467694Y1055735D02*
X462615Y1060813D01*
Y1065892D01*
X467694Y1070970D01*
X485468Y1055735D02*
X475311D01*
X485468Y1065892D01*
Y1068431D01*
X482929Y1070970D01*
X477850D01*
X475311Y1068431D01*
X490546Y1055735D02*
Y1058274D01*
X493085D01*
Y1055735D01*
X490546D01*
X503242Y1068431D02*
X505781Y1070970D01*
X510860D01*
X513399Y1068431D01*
Y1058274D01*
X510860Y1055735D01*
X505781D01*
X503242Y1058274D01*
Y1068431D01*
X518477D02*
X521016Y1070970D01*
X526095D01*
X528634Y1068431D01*
Y1058274D01*
X526095Y1055735D01*
X521016D01*
X518477Y1058274D01*
Y1068431D01*
X533712D02*
X536251Y1070970D01*
X541330D01*
X543869Y1068431D01*
Y1058274D01*
X541330Y1055735D01*
X536251D01*
X533712Y1058274D01*
Y1068431D01*
X548947Y1055735D02*
Y1065892D01*
X551487D01*
X554026Y1063353D01*
Y1055735D01*
Y1063353D01*
X556565Y1065892D01*
X559104Y1063353D01*
Y1055735D01*
X564182D02*
Y1065892D01*
X566722D01*
X569261Y1063353D01*
Y1055735D01*
Y1063353D01*
X571800Y1065892D01*
X574339Y1063353D01*
Y1055735D01*
X579417D02*
X584496Y1060813D01*
Y1065892D01*
X579417Y1070970D01*
X333117Y1030331D02*
X335656Y1032870D01*
X340735D01*
X343274Y1030331D01*
Y1027792D01*
X340735Y1025253D01*
X338195D01*
X340735D01*
X343274Y1022713D01*
Y1020174D01*
X340735Y1017635D01*
X335656D01*
X333117Y1020174D01*
X358509Y1032870D02*
X348352D01*
Y1025253D01*
X353431Y1027792D01*
X355970D01*
X358509Y1025253D01*
Y1020174D01*
X355970Y1017635D01*
X350891D01*
X348352Y1020174D01*
X363587Y1017635D02*
Y1020174D01*
X366127D01*
Y1017635D01*
X363587D01*
X383901D02*
Y1032870D01*
X376283Y1025253D01*
X386440D01*
X391518Y1030331D02*
X394058Y1032870D01*
X399136D01*
X401675Y1030331D01*
Y1027792D01*
X399136Y1025253D01*
X396597D01*
X399136D01*
X401675Y1022713D01*
Y1020174D01*
X399136Y1017635D01*
X394058D01*
X391518Y1020174D01*
X406753Y1017635D02*
Y1027792D01*
X409292D01*
X411832Y1025253D01*
Y1017635D01*
Y1025253D01*
X414371Y1027792D01*
X416910Y1025253D01*
Y1017635D01*
X421988D02*
X427067D01*
X424528D01*
Y1027792D01*
X421988D01*
X434684Y1017635D02*
X439763D01*
X437224D01*
Y1032870D01*
X434684D01*
X467694Y1017635D02*
X462615Y1022713D01*
Y1027792D01*
X467694Y1032870D01*
X475311Y1030331D02*
X477850Y1032870D01*
X482929D01*
X485468Y1030331D01*
Y1020174D01*
X482929Y1017635D01*
X477850D01*
X475311Y1020174D01*
Y1030331D01*
X490546Y1017635D02*
Y1020174D01*
X493085D01*
Y1017635D01*
X490546D01*
X503242Y1020174D02*
X505781Y1017635D01*
X510860D01*
X513399Y1020174D01*
Y1030331D01*
X510860Y1032870D01*
X505781D01*
X503242Y1030331D01*
Y1027792D01*
X505781Y1025253D01*
X513399D01*
X518477Y1030331D02*
X521016Y1032870D01*
X526095D01*
X528634Y1030331D01*
Y1020174D01*
X526095Y1017635D01*
X521016D01*
X518477Y1020174D01*
Y1030331D01*
X533712D02*
X536251Y1032870D01*
X541330D01*
X543869Y1030331D01*
Y1020174D01*
X541330Y1017635D01*
X536251D01*
X533712Y1020174D01*
Y1030331D01*
X548947Y1017635D02*
Y1027792D01*
X551487D01*
X554026Y1025253D01*
Y1017635D01*
Y1025253D01*
X556565Y1027792D01*
X559104Y1025253D01*
Y1017635D01*
X564182D02*
Y1027792D01*
X566722D01*
X569261Y1025253D01*
Y1017635D01*
Y1025253D01*
X571800Y1027792D01*
X574339Y1025253D01*
Y1017635D01*
X579417D02*
X584496Y1022713D01*
Y1027792D01*
X579417Y1032870D01*
X333117Y992231D02*
X335656Y994770D01*
X340735D01*
X343274Y992231D01*
Y989692D01*
X340735Y987152D01*
X338195D01*
X340735D01*
X343274Y984613D01*
Y982074D01*
X340735Y979535D01*
X335656D01*
X333117Y982074D01*
X358509Y994770D02*
X348352D01*
Y987152D01*
X353431Y989692D01*
X355970D01*
X358509Y987152D01*
Y982074D01*
X355970Y979535D01*
X350891D01*
X348352Y982074D01*
X363587Y979535D02*
Y982074D01*
X366127D01*
Y979535D01*
X363587D01*
X376283Y992231D02*
X378822Y994770D01*
X383901D01*
X386440Y992231D01*
Y982074D01*
X383901Y979535D01*
X378822D01*
X376283Y982074D01*
Y992231D01*
X399136Y979535D02*
Y994770D01*
X391518Y987152D01*
X401675D01*
X406753Y979535D02*
Y989692D01*
X409292D01*
X411832Y987152D01*
Y979535D01*
Y987152D01*
X414371Y989692D01*
X416910Y987152D01*
Y979535D01*
X421988D02*
X427067D01*
X424528D01*
Y989692D01*
X421988D01*
X434684Y979535D02*
X439763D01*
X437224D01*
Y994770D01*
X434684D01*
X467694Y979535D02*
X462615Y984613D01*
Y989692D01*
X467694Y994770D01*
X475311Y992231D02*
X477850Y994770D01*
X482929D01*
X485468Y992231D01*
Y982074D01*
X482929Y979535D01*
X477850D01*
X475311Y982074D01*
Y992231D01*
X490546Y979535D02*
Y982074D01*
X493085D01*
Y979535D01*
X490546D01*
X503242Y992231D02*
X505781Y994770D01*
X510860D01*
X513399Y992231D01*
Y989692D01*
X510860Y987152D01*
X513399Y984613D01*
Y982074D01*
X510860Y979535D01*
X505781D01*
X503242Y982074D01*
Y984613D01*
X505781Y987152D01*
X503242Y989692D01*
Y992231D01*
X505781Y987152D02*
X510860D01*
X518477Y982074D02*
X521016Y979535D01*
X526095D01*
X528634Y982074D01*
Y992231D01*
X526095Y994770D01*
X521016D01*
X518477Y992231D01*
Y989692D01*
X521016Y987152D01*
X528634D01*
X533712Y992231D02*
X536251Y994770D01*
X541330D01*
X543869Y992231D01*
Y982074D01*
X541330Y979535D01*
X536251D01*
X533712Y982074D01*
Y992231D01*
X548947Y979535D02*
Y989692D01*
X551487D01*
X554026Y987152D01*
Y979535D01*
Y987152D01*
X556565Y989692D01*
X559104Y987152D01*
Y979535D01*
X564182D02*
Y989692D01*
X566722D01*
X569261Y987152D01*
Y979535D01*
Y987152D01*
X571800Y989692D01*
X574339Y987152D01*
Y979535D01*
X579417D02*
X584496Y984613D01*
Y989692D01*
X579417Y994770D01*
X333117Y941435D02*
X338195D01*
X335656D01*
Y956670D01*
X333117Y954131D01*
X345813Y941435D02*
X350891D01*
X348352D01*
Y956670D01*
X345813Y954131D01*
X358509Y941435D02*
Y943974D01*
X361048D01*
Y941435D01*
X358509D01*
X371205Y954131D02*
X373744Y956670D01*
X378822D01*
X381362Y954131D01*
Y951592D01*
X378822Y949053D01*
X381362Y946513D01*
Y943974D01*
X378822Y941435D01*
X373744D01*
X371205Y943974D01*
Y946513D01*
X373744Y949053D01*
X371205Y951592D01*
Y954131D01*
X373744Y949053D02*
X378822D01*
X386440Y941435D02*
X391518D01*
X388979D01*
Y956670D01*
X386440Y954131D01*
X399136Y941435D02*
Y951592D01*
X401675D01*
X404214Y949053D01*
Y941435D01*
Y949053D01*
X406753Y951592D01*
X409292Y949053D01*
Y941435D01*
X414371D02*
X419449D01*
X416910D01*
Y951592D01*
X414371D01*
X427067Y941435D02*
X432145D01*
X429606D01*
Y956670D01*
X427067D01*
X460076Y941435D02*
X454998Y946513D01*
Y951592D01*
X460076Y956670D01*
X467694Y954131D02*
X470233Y956670D01*
X475311D01*
X477850Y954131D01*
Y943974D01*
X475311Y941435D01*
X470233D01*
X467694Y943974D01*
Y954131D01*
X482929Y941435D02*
Y943974D01*
X485468D01*
Y941435D01*
X482929D01*
X495625Y954131D02*
X498164Y956670D01*
X503242D01*
X505781Y954131D01*
Y951592D01*
X503242Y949053D01*
X500703D01*
X503242D01*
X505781Y946513D01*
Y943974D01*
X503242Y941435D01*
X498164D01*
X495625Y943974D01*
X510860Y954131D02*
X513399Y956670D01*
X518477D01*
X521016Y954131D01*
Y943974D01*
X518477Y941435D01*
X513399D01*
X510860Y943974D01*
Y954131D01*
X526095D02*
X528634Y956670D01*
X533712D01*
X536251Y954131D01*
Y943974D01*
X533712Y941435D01*
X528634D01*
X526095Y943974D01*
Y954131D01*
X541330Y941435D02*
Y951592D01*
X543869D01*
X546408Y949053D01*
Y941435D01*
Y949053D01*
X548947Y951592D01*
X551487Y949053D01*
Y941435D01*
X556565D02*
Y951592D01*
X559104D01*
X561643Y949053D01*
Y941435D01*
Y949053D01*
X564182Y951592D01*
X566721Y949053D01*
Y941435D01*
X571800D02*
X576878Y946513D01*
Y951592D01*
X571800Y956670D01*
X190914Y903335D02*
X180757D01*
X190914Y913492D01*
Y916031D01*
X188375Y918570D01*
X183297D01*
X180757Y916031D01*
X206149Y918570D02*
X201071Y916031D01*
X195993Y910953D01*
Y905874D01*
X198532Y903335D01*
X203610D01*
X206149Y905874D01*
Y908413D01*
X203610Y910953D01*
X195993D01*
X211228Y916031D02*
X213767Y918570D01*
X218845D01*
X221384Y916031D01*
Y905874D01*
X218845Y903335D01*
X213767D01*
X211228Y905874D01*
Y916031D01*
X241698Y918570D02*
X251854D01*
X246776D01*
Y903335D01*
X259472D02*
X264550D01*
X267090Y905874D01*
Y910953D01*
X264550Y913492D01*
X259472D01*
X256933Y910953D01*
Y905874D01*
X259472Y903335D01*
X274707Y916031D02*
Y913492D01*
X272168D01*
X277246D01*
X274707D01*
Y905874D01*
X277246Y903335D01*
X287403Y913492D02*
X292481D01*
X295021Y910953D01*
Y903335D01*
X287403D01*
X284864Y905874D01*
X287403Y908413D01*
X295021D01*
X300099Y903335D02*
X305177D01*
X302638D01*
Y918570D01*
X300099D01*
X190914Y1246235D02*
X180757D01*
X190914Y1256392D01*
Y1258931D01*
X188375Y1261470D01*
X183297D01*
X180757Y1258931D01*
X190914Y1208135D02*
X180757D01*
X190914Y1218292D01*
Y1220831D01*
X188375Y1223370D01*
X183297D01*
X180757Y1220831D01*
X190914Y1170035D02*
X180757D01*
X190914Y1180192D01*
Y1182731D01*
X188375Y1185270D01*
X183297D01*
X180757Y1182731D01*
Y1144631D02*
X183297Y1147170D01*
X188375D01*
X190914Y1144631D01*
Y1142092D01*
X188375Y1139553D01*
X185836D01*
X188375D01*
X190914Y1137013D01*
Y1134474D01*
X188375Y1131935D01*
X183297D01*
X180757Y1134474D01*
X188375Y1093835D02*
Y1109070D01*
X180757Y1101452D01*
X190914D01*
X188375Y1055735D02*
Y1070970D01*
X180757Y1063353D01*
X190914D01*
Y1032870D02*
X185836Y1030331D01*
X180757Y1025253D01*
Y1020174D01*
X183297Y1017635D01*
X188375D01*
X190914Y1020174D01*
Y1022713D01*
X188375Y1025253D01*
X180757D01*
Y992231D02*
X183297Y994770D01*
X188375D01*
X190914Y992231D01*
Y989692D01*
X188375Y987152D01*
X190914Y984613D01*
Y982074D01*
X188375Y979535D01*
X183297D01*
X180757Y982074D01*
Y984613D01*
X183297Y987152D01*
X180757Y989692D01*
Y992231D01*
X183297Y987152D02*
X188375D01*
X190914Y941435D02*
X180757D01*
X190914Y951592D01*
Y954131D01*
X188375Y956670D01*
X183297D01*
X180757Y954131D01*
X206149Y941435D02*
X195993D01*
X206149Y951592D01*
Y954131D01*
X203610Y956670D01*
X198532D01*
X195993Y954131D01*
X211228Y943974D02*
X213767Y941435D01*
X218845D01*
X221384Y943974D01*
Y954131D01*
X218845Y956670D01*
X213767D01*
X211228Y954131D01*
Y951592D01*
X213767Y949053D01*
X221384D01*
D144*
X29405Y1272905D02*
X2760161D01*
X29405Y930005D02*
X2760161D01*
X29405Y891905D02*
X2760161D01*
Y1311005D01*
X29405D02*
X2760161D01*
X29405Y891905D02*
Y1311005D01*
X2409995Y891905D02*
Y1311005D01*
X2071258Y891905D02*
Y1311005D01*
X1854402Y891905D02*
Y1311005D01*
X1648720Y891905D02*
Y1311005D01*
X1459287Y891905D02*
Y1311005D01*
X1309466Y891905D02*
Y1311005D01*
X928580Y891905D02*
Y1311005D01*
X742194Y891905D02*
Y1311005D01*
X613702Y891905D02*
Y1311005D01*
X321687Y891905D02*
Y1311005D01*
X169327Y891905D02*
Y1311005D01*
D146*
X2421425Y1302617D02*
Y1284335D01*
Y1293476D01*
X2433613D01*
Y1302617D01*
Y1284335D01*
X2442754D02*
X2448848D01*
X2451895Y1287382D01*
Y1293476D01*
X2448848Y1296523D01*
X2442754D01*
X2439707Y1293476D01*
Y1287382D01*
X2442754Y1284335D01*
X2457989D02*
X2464083D01*
X2461036D01*
Y1302617D01*
X2457989D01*
X2482365Y1284335D02*
X2476271D01*
X2473224Y1287382D01*
Y1293476D01*
X2476271Y1296523D01*
X2482365D01*
X2485412Y1293476D01*
Y1290429D01*
X2473224D01*
X2509788Y1302617D02*
X2521976D01*
X2515882D01*
Y1284335D01*
X2531117D02*
X2537211D01*
X2540258Y1287382D01*
Y1293476D01*
X2537211Y1296523D01*
X2531117D01*
X2528070Y1293476D01*
Y1287382D01*
X2531117Y1284335D01*
X2546352D02*
X2552446D01*
X2549399D01*
Y1302617D01*
X2546352D01*
X2570728Y1284335D02*
X2564634D01*
X2561587Y1287382D01*
Y1293476D01*
X2564634Y1296523D01*
X2570728D01*
X2573775Y1293476D01*
Y1290429D01*
X2561587D01*
X2579869Y1296523D02*
Y1284335D01*
Y1290429D01*
X2582916Y1293476D01*
X2585963Y1296523D01*
X2589011D01*
X2601198D02*
X2607292D01*
X2610340Y1293476D01*
Y1284335D01*
X2601198D01*
X2598152Y1287382D01*
X2601198Y1290429D01*
X2610340D01*
X2616434Y1284335D02*
Y1296523D01*
X2625575D01*
X2628622Y1293476D01*
Y1284335D01*
X2646904Y1296523D02*
X2637763D01*
X2634716Y1293476D01*
Y1287382D01*
X2637763Y1284335D01*
X2646904D01*
X2662139D02*
X2656045D01*
X2652998Y1287382D01*
Y1293476D01*
X2656045Y1296523D01*
X2662139D01*
X2665186Y1293476D01*
Y1290429D01*
X2652998D01*
X2695656Y1284335D02*
X2689562Y1290429D01*
Y1296523D01*
X2695656Y1302617D01*
X2704797Y1293476D02*
X2716985D01*
X2723079Y1284335D02*
X2729173Y1290429D01*
Y1296523D01*
X2723079Y1302617D01*
X2082688D02*
Y1284335D01*
Y1293476D01*
X2094876D01*
Y1302617D01*
Y1284335D01*
X2104017D02*
X2110112D01*
X2113159Y1287382D01*
Y1293476D01*
X2110112Y1296523D01*
X2104017D01*
X2100970Y1293476D01*
Y1287382D01*
X2104017Y1284335D01*
X2119252D02*
X2125347D01*
X2122299D01*
Y1302617D01*
X2119252D01*
X2143629Y1284335D02*
X2137535D01*
X2134488Y1287382D01*
Y1293476D01*
X2137535Y1296523D01*
X2143629D01*
X2146676Y1293476D01*
Y1290429D01*
X2134488D01*
X2171052Y1302617D02*
X2183240D01*
X2177146D01*
Y1284335D01*
X2192381D02*
X2198475D01*
X2201522Y1287382D01*
Y1293476D01*
X2198475Y1296523D01*
X2192381D01*
X2189334Y1293476D01*
Y1287382D01*
X2192381Y1284335D01*
X2207616D02*
X2213710D01*
X2210663D01*
Y1302617D01*
X2207616D01*
X2231992Y1284335D02*
X2225898D01*
X2222851Y1287382D01*
Y1293476D01*
X2225898Y1296523D01*
X2231992D01*
X2235039Y1293476D01*
Y1290429D01*
X2222851D01*
X2241133Y1296523D02*
Y1284335D01*
Y1290429D01*
X2244180Y1293476D01*
X2247227Y1296523D01*
X2250274D01*
X2262462D02*
X2268556D01*
X2271603Y1293476D01*
Y1284335D01*
X2262462D01*
X2259415Y1287382D01*
X2262462Y1290429D01*
X2271603D01*
X2277697Y1284335D02*
Y1296523D01*
X2286838D01*
X2289885Y1293476D01*
Y1284335D01*
X2308167Y1296523D02*
X2299026D01*
X2295979Y1293476D01*
Y1287382D01*
X2299026Y1284335D01*
X2308167D01*
X2323402D02*
X2317308D01*
X2314261Y1287382D01*
Y1293476D01*
X2317308Y1296523D01*
X2323402D01*
X2326449Y1293476D01*
Y1290429D01*
X2314261D01*
X2356920Y1284335D02*
X2350826Y1290429D01*
Y1296523D01*
X2356920Y1302617D01*
X2366061Y1293476D02*
X2378249D01*
X2372155Y1299570D02*
Y1287382D01*
X2384343Y1284335D02*
X2390437Y1290429D01*
Y1296523D01*
X2384343Y1302617D01*
X1865833D02*
Y1284335D01*
X1874973D01*
X1878020Y1287382D01*
Y1299570D01*
X1874973Y1302617D01*
X1865833D01*
X1893256Y1284335D02*
X1887162D01*
X1884115Y1287382D01*
Y1293476D01*
X1887162Y1296523D01*
X1893256D01*
X1896303Y1293476D01*
Y1290429D01*
X1884115D01*
X1902397Y1284335D02*
X1911538D01*
X1914585Y1287382D01*
X1911538Y1290429D01*
X1905444D01*
X1902397Y1293476D01*
X1905444Y1296523D01*
X1914585D01*
X1932867D02*
X1923726D01*
X1920679Y1293476D01*
Y1287382D01*
X1923726Y1284335D01*
X1932867D01*
X1938961Y1296523D02*
Y1284335D01*
Y1290429D01*
X1942008Y1293476D01*
X1945055Y1296523D01*
X1948102D01*
X1957243Y1284335D02*
X1963337D01*
X1960290D01*
Y1296523D01*
X1957243D01*
X1972478Y1278241D02*
Y1296523D01*
X1981619D01*
X1984666Y1293476D01*
Y1287382D01*
X1981619Y1284335D01*
X1972478D01*
X1993807Y1299570D02*
Y1296523D01*
X1990760D01*
X1996854D01*
X1993807D01*
Y1287382D01*
X1996854Y1284335D01*
X2005995D02*
X2012089D01*
X2009042D01*
Y1296523D01*
X2005995D01*
X2024277Y1284335D02*
X2030371D01*
X2033418Y1287382D01*
Y1293476D01*
X2030371Y1296523D01*
X2024277D01*
X2021230Y1293476D01*
Y1287382D01*
X2024277Y1284335D01*
X2039512D02*
Y1296523D01*
X2048653D01*
X2051700Y1293476D01*
Y1284335D01*
X1660150Y1302617D02*
X1672338D01*
X1666244D01*
Y1284335D01*
X1687573D02*
X1681479D01*
X1678432Y1287382D01*
Y1293476D01*
X1681479Y1296523D01*
X1687573D01*
X1690620Y1293476D01*
Y1290429D01*
X1678432D01*
X1696714Y1284335D02*
Y1296523D01*
X1699761D01*
X1702808Y1293476D01*
Y1284335D01*
Y1293476D01*
X1705855Y1296523D01*
X1708902Y1293476D01*
Y1284335D01*
X1714996Y1278241D02*
Y1296523D01*
X1724137D01*
X1727184Y1293476D01*
Y1287382D01*
X1724137Y1284335D01*
X1714996D01*
X1733278D02*
X1739372D01*
X1736325D01*
Y1302617D01*
X1733278D01*
X1751560Y1296523D02*
X1757654D01*
X1760701Y1293476D01*
Y1284335D01*
X1751560D01*
X1748513Y1287382D01*
X1751560Y1290429D01*
X1760701D01*
X1769842Y1299570D02*
Y1296523D01*
X1766795D01*
X1772889D01*
X1769842D01*
Y1287382D01*
X1772889Y1284335D01*
X1791172D02*
X1785078D01*
X1782030Y1287382D01*
Y1293476D01*
X1785078Y1296523D01*
X1791172D01*
X1794219Y1293476D01*
Y1290429D01*
X1782030D01*
X1470717Y1284335D02*
Y1302617D01*
X1479858D01*
X1482905Y1299570D01*
Y1293476D01*
X1479858Y1290429D01*
X1470717D01*
X1492046Y1296523D02*
X1498140D01*
X1501187Y1293476D01*
Y1284335D01*
X1492046D01*
X1488999Y1287382D01*
X1492046Y1290429D01*
X1501187D01*
X1519469Y1302617D02*
Y1284335D01*
X1510328D01*
X1507281Y1287382D01*
Y1293476D01*
X1510328Y1296523D01*
X1519469D01*
X1556034Y1299570D02*
X1552987Y1302617D01*
X1546893D01*
X1543846Y1299570D01*
Y1296523D01*
X1546893Y1293476D01*
X1552987D01*
X1556034Y1290429D01*
Y1287382D01*
X1552987Y1284335D01*
X1546893D01*
X1543846Y1287382D01*
X1562128Y1302617D02*
Y1284335D01*
Y1293476D01*
X1565175Y1296523D01*
X1571269D01*
X1574316Y1293476D01*
Y1284335D01*
X1583457Y1296523D02*
X1589551D01*
X1592598Y1293476D01*
Y1284335D01*
X1583457D01*
X1580410Y1287382D01*
X1583457Y1290429D01*
X1592598D01*
X1598692Y1278241D02*
Y1296523D01*
X1607833D01*
X1610880Y1293476D01*
Y1287382D01*
X1607833Y1284335D01*
X1598692D01*
X1626115D02*
X1620021D01*
X1616974Y1287382D01*
Y1293476D01*
X1620021Y1296523D01*
X1626115D01*
X1629162Y1293476D01*
Y1290429D01*
X1616974D01*
X1320896Y1302617D02*
Y1290429D01*
X1326990Y1284335D01*
X1333084Y1290429D01*
Y1302617D01*
X1339178Y1284335D02*
X1345272D01*
X1342225D01*
Y1296523D01*
X1339178D01*
X1357460D02*
X1363554D01*
X1366601Y1293476D01*
Y1284335D01*
X1357460D01*
X1354413Y1287382D01*
X1357460Y1290429D01*
X1366601D01*
X1372695Y1284335D02*
X1384883Y1296523D01*
X1390977Y1284335D02*
Y1302617D01*
X1400118D01*
X1403165Y1299570D01*
Y1293476D01*
X1400118Y1290429D01*
X1390977D01*
X1412306Y1296523D02*
X1418400D01*
X1421447Y1293476D01*
Y1284335D01*
X1412306D01*
X1409259Y1287382D01*
X1412306Y1290429D01*
X1421447D01*
X1439729Y1302617D02*
Y1284335D01*
X1430588D01*
X1427541Y1287382D01*
Y1293476D01*
X1430588Y1296523D01*
X1439729D01*
X940010Y1302617D02*
Y1284335D01*
X949151D01*
X952198Y1287382D01*
Y1299570D01*
X949151Y1302617D01*
X940010D01*
X958292Y1296523D02*
Y1284335D01*
Y1290429D01*
X961339Y1293476D01*
X964386Y1296523D01*
X967433D01*
X976574Y1284335D02*
X982668D01*
X979621D01*
Y1296523D01*
X976574D01*
X991809Y1284335D02*
X997903D01*
X994856D01*
Y1302617D01*
X991809D01*
X1007044Y1284335D02*
X1013138D01*
X1010091D01*
Y1302617D01*
X1007044D01*
X1040561D02*
Y1284335D01*
X1052749D01*
X1061890Y1296523D02*
X1067984D01*
X1071031Y1293476D01*
Y1284335D01*
X1061890D01*
X1058843Y1287382D01*
X1061890Y1290429D01*
X1071031D01*
X1077125Y1296523D02*
Y1287382D01*
X1080173Y1284335D01*
X1089314D01*
Y1281288D01*
X1086266Y1278241D01*
X1083220D01*
X1089314Y1284335D02*
Y1296523D01*
X1104549Y1284335D02*
X1098455D01*
X1095408Y1287382D01*
Y1293476D01*
X1098455Y1296523D01*
X1104549D01*
X1107596Y1293476D01*
Y1290429D01*
X1095408D01*
X1113690Y1296523D02*
Y1284335D01*
Y1290429D01*
X1116737Y1293476D01*
X1119784Y1296523D01*
X1122831D01*
X1150254Y1284335D02*
Y1302617D01*
X1159395D01*
X1162442Y1299570D01*
Y1293476D01*
X1159395Y1290429D01*
X1150254D01*
X1171583Y1296523D02*
X1177677D01*
X1180724Y1293476D01*
Y1284335D01*
X1171583D01*
X1168536Y1287382D01*
X1171583Y1290429D01*
X1180724D01*
X1186818Y1284335D02*
X1192912D01*
X1189865D01*
Y1296523D01*
X1186818D01*
X1202053D02*
Y1284335D01*
Y1290429D01*
X1205100Y1293476D01*
X1208147Y1296523D01*
X1211194D01*
X753624Y1302617D02*
Y1284335D01*
Y1293476D01*
X765812D01*
Y1302617D01*
Y1284335D01*
X774953D02*
X781047D01*
X784094Y1287382D01*
Y1293476D01*
X781047Y1296523D01*
X774953D01*
X771906Y1293476D01*
Y1287382D01*
X774953Y1284335D01*
X790188D02*
X796282D01*
X793235D01*
Y1302617D01*
X790188D01*
X814564Y1284335D02*
X808470D01*
X805423Y1287382D01*
Y1293476D01*
X808470Y1296523D01*
X814564D01*
X817611Y1293476D01*
Y1290429D01*
X805423D01*
X841988Y1302617D02*
X854176D01*
X848082D01*
Y1284335D01*
X860270Y1296523D02*
Y1287382D01*
X863317Y1284335D01*
X872458D01*
Y1281288D01*
X869411Y1278241D01*
X866364D01*
X872458Y1284335D02*
Y1296523D01*
X878552Y1278241D02*
Y1296523D01*
X887693D01*
X890740Y1293476D01*
Y1287382D01*
X887693Y1284335D01*
X878552D01*
X905975D02*
X899881D01*
X896834Y1287382D01*
Y1293476D01*
X899881Y1296523D01*
X905975D01*
X909022Y1293476D01*
Y1290429D01*
X896834D01*
X625132Y1284335D02*
Y1302617D01*
X634273D01*
X637320Y1299570D01*
Y1293476D01*
X634273Y1290429D01*
X625132D01*
X643414Y1284335D02*
X649508D01*
X646461D01*
Y1302617D01*
X643414D01*
X661696Y1296523D02*
X667790D01*
X670837Y1293476D01*
Y1284335D01*
X661696D01*
X658649Y1287382D01*
X661696Y1290429D01*
X670837D01*
X679978Y1299570D02*
Y1296523D01*
X676931D01*
X683025D01*
X679978D01*
Y1287382D01*
X683025Y1284335D01*
X701307D02*
X695213D01*
X692166Y1287382D01*
Y1293476D01*
X695213Y1296523D01*
X701307D01*
X704354Y1293476D01*
Y1290429D01*
X692166D01*
X722636Y1302617D02*
Y1284335D01*
X713495D01*
X710448Y1287382D01*
Y1293476D01*
X713495Y1296523D01*
X722636D01*
X333117Y1302617D02*
Y1284335D01*
Y1293476D01*
X345305D01*
Y1302617D01*
Y1284335D01*
X354446D02*
X360540D01*
X363587Y1287382D01*
Y1293476D01*
X360540Y1296523D01*
X354446D01*
X351399Y1293476D01*
Y1287382D01*
X354446Y1284335D01*
X369681D02*
X375775D01*
X372728D01*
Y1302617D01*
X369681D01*
X394058Y1284335D02*
X387963D01*
X384916Y1287382D01*
Y1293476D01*
X387963Y1296523D01*
X394058D01*
X397104Y1293476D01*
Y1290429D01*
X384916D01*
X433669Y1299570D02*
X430622Y1302617D01*
X424528D01*
X421481Y1299570D01*
Y1296523D01*
X424528Y1293476D01*
X430622D01*
X433669Y1290429D01*
Y1287382D01*
X430622Y1284335D01*
X424528D01*
X421481Y1287382D01*
X439763Y1284335D02*
X445857D01*
X442810D01*
Y1296523D01*
X439763D01*
X454998D02*
X467186D01*
X454998Y1284335D01*
X467186D01*
X482421D02*
X476327D01*
X473280Y1287382D01*
Y1293476D01*
X476327Y1296523D01*
X482421D01*
X485468Y1293476D01*
Y1290429D01*
X473280D01*
X192945Y1299570D02*
X189898Y1302617D01*
X183804D01*
X180757Y1299570D01*
Y1287382D01*
X183804Y1284335D01*
X189898D01*
X192945Y1287382D01*
X202087Y1284335D02*
X208181D01*
X211228Y1287382D01*
Y1293476D01*
X208181Y1296523D01*
X202087D01*
X199039Y1293476D01*
Y1287382D01*
X202087Y1284335D01*
X217322Y1296523D02*
Y1287382D01*
X220369Y1284335D01*
X229510D01*
Y1296523D01*
X235604Y1284335D02*
Y1296523D01*
X244745D01*
X247792Y1293476D01*
Y1284335D01*
X256933Y1299570D02*
Y1296523D01*
X253886D01*
X259980D01*
X256933D01*
Y1287382D01*
X259980Y1284335D01*
X64453Y1299570D02*
X61406Y1302617D01*
X55312D01*
X52265Y1299570D01*
Y1296523D01*
X55312Y1293476D01*
X61406D01*
X64453Y1290429D01*
Y1287382D01*
X61406Y1284335D01*
X55312D01*
X52265Y1287382D01*
X70547Y1296523D02*
Y1287382D01*
X73594Y1284335D01*
X82735D01*
Y1281288D01*
X79688Y1278241D01*
X76641D01*
X82735Y1284335D02*
Y1296523D01*
X88829Y1284335D02*
Y1296523D01*
X91876D01*
X94923Y1293476D01*
Y1284335D01*
Y1293476D01*
X97970Y1296523D01*
X101017Y1293476D01*
Y1284335D01*
X107111Y1302617D02*
Y1284335D01*
X116252D01*
X119299Y1287382D01*
Y1290429D01*
Y1293476D01*
X116252Y1296523D01*
X107111D01*
X128440Y1284335D02*
X134534D01*
X137581Y1287382D01*
Y1293476D01*
X134534Y1296523D01*
X128440D01*
X125393Y1293476D01*
Y1287382D01*
X128440Y1284335D01*
X143675D02*
X149769D01*
X146722D01*
Y1302617D01*
X143675D01*
M02*
