G04*
G04 #@! TF.GenerationSoftware,Altium Limited,Altium Designer,24.1.2 (44)*
G04*
G04 Layer_Physical_Order=2*
G04 Layer_Color=36540*
%FSLAX44Y44*%
%MOMM*%
G71*
G04*
G04 #@! TF.SameCoordinates,BB806972-894B-4990-B732-A97902CF1386*
G04*
G04*
G04 #@! TF.FilePolarity,Positive*
G04*
G01*
G75*
%ADD118C,1.5000*%
%ADD122O,1.5240X1.0160*%
%ADD123R,1.5240X1.0160*%
%ADD130C,2.7300*%
%ADD131R,2.7300X2.7300*%
%ADD134C,5.5000*%
%ADD135R,1.7780X1.7780*%
%ADD136C,1.7780*%
%ADD137R,1.5000X1.5000*%
%ADD138C,3.2500*%
%ADD139C,2.3550*%
%ADD140C,1.3980*%
%ADD141R,1.3980X1.3980*%
%ADD142C,0.6000*%
G36*
X320000Y452160D02*
X320059Y450968D01*
X320524Y448630D01*
X321436Y446428D01*
X322760Y444446D01*
X324446Y442760D01*
X326428Y441436D01*
X328630Y440524D01*
X330968Y440059D01*
X332160Y440000D01*
X332160Y440000D01*
X502340Y440000D01*
X504079D01*
X507491Y439321D01*
X510705Y437990D01*
X513598Y436057D01*
X516057Y433597D01*
X517990Y430705D01*
X519321Y427491D01*
X520000Y424079D01*
X520000Y422340D01*
X520000Y422340D01*
X520000Y422340D01*
X520000Y359980D01*
X520000Y358997D01*
X519616Y357069D01*
X518864Y355253D01*
X517772Y353618D01*
X516382Y352228D01*
X514747Y351136D01*
X512931Y350383D01*
X511003Y350000D01*
X510020Y350000D01*
X479538D01*
X477494Y350407D01*
X475569Y351204D01*
X473836Y352362D01*
X472362Y353836D01*
X471204Y355569D01*
X470407Y357494D01*
X470000Y359538D01*
X470000Y360580D01*
X470000D01*
X470000Y393600D01*
X469921Y395207D01*
X469294Y398361D01*
X468064Y401331D01*
X466277Y404004D01*
X464004Y406277D01*
X461331Y408063D01*
X458360Y409294D01*
X455207Y409921D01*
X453600Y410000D01*
X453600Y410000D01*
X453600Y410000D01*
X2849D01*
Y661058D01*
X4119Y661158D01*
X4191Y660704D01*
X5602Y656359D01*
X7677Y652288D01*
X10362Y648592D01*
X13592Y645362D01*
X17288Y642676D01*
X21359Y640602D01*
X25704Y639191D01*
X30216Y638476D01*
X34784D01*
X39297Y639191D01*
X43641Y640602D01*
X47712Y642676D01*
X51408Y645362D01*
X54638Y648592D01*
X57324Y652288D01*
X59398Y656359D01*
X60809Y660704D01*
X61524Y665216D01*
Y669784D01*
X60809Y674296D01*
X59398Y678641D01*
X57324Y682712D01*
X54638Y686408D01*
X51408Y689638D01*
X47712Y692324D01*
X43641Y694398D01*
X39297Y695809D01*
X38842Y695881D01*
X38942Y697151D01*
X320000D01*
Y452160D01*
D02*
G37*
G36*
X961158Y695881D02*
X960704Y695809D01*
X956359Y694398D01*
X952288Y692324D01*
X948592Y689638D01*
X945362Y686408D01*
X942676Y682712D01*
X940602Y678641D01*
X939191Y674296D01*
X938476Y669784D01*
Y665216D01*
X939191Y660704D01*
X940602Y656359D01*
X942676Y652288D01*
X945362Y648592D01*
X948592Y645362D01*
X952288Y642676D01*
X956359Y640602D01*
X960704Y639191D01*
X965216Y638476D01*
X969784D01*
X974296Y639191D01*
X978641Y640602D01*
X982712Y642676D01*
X986408Y645362D01*
X989638Y648592D01*
X992324Y652288D01*
X994398Y656359D01*
X995809Y660704D01*
X995881Y661158D01*
X997151Y661058D01*
Y38942D01*
X995881Y38842D01*
X995809Y39297D01*
X994398Y43641D01*
X992324Y47712D01*
X989638Y51408D01*
X986408Y54638D01*
X982712Y57324D01*
X978641Y59398D01*
X974296Y60809D01*
X969784Y61524D01*
X965216D01*
X960704Y60809D01*
X956359Y59398D01*
X952288Y57324D01*
X948592Y54638D01*
X945362Y51408D01*
X942676Y47712D01*
X940602Y43641D01*
X939191Y39297D01*
X938476Y34784D01*
Y30216D01*
X939191Y25704D01*
X940602Y21359D01*
X942676Y17288D01*
X945362Y13592D01*
X948592Y10362D01*
X952288Y7677D01*
X956359Y5602D01*
X960704Y4191D01*
X961158Y4119D01*
X961058Y2849D01*
X38942D01*
X38842Y4119D01*
X39297Y4191D01*
X43641Y5602D01*
X47712Y7677D01*
X51408Y10362D01*
X54638Y13592D01*
X57324Y17288D01*
X59398Y21359D01*
X60809Y25704D01*
X61524Y30216D01*
Y34784D01*
X60809Y39297D01*
X59398Y43641D01*
X57324Y47712D01*
X54638Y51408D01*
X51408Y54638D01*
X47712Y57324D01*
X43641Y59398D01*
X39297Y60809D01*
X34784Y61524D01*
X30216D01*
X25704Y60809D01*
X21359Y59398D01*
X17288Y57324D01*
X13592Y54638D01*
X10362Y51408D01*
X7677Y47712D01*
X5602Y43641D01*
X4191Y39297D01*
X4119Y38842D01*
X2849Y38942D01*
Y407410D01*
X453531D01*
X454889Y407344D01*
X457605Y406804D01*
X460104Y405768D01*
X462353Y404266D01*
X464266Y402353D01*
X465768Y400104D01*
X466804Y397605D01*
X467344Y394890D01*
X467410Y393536D01*
X467410Y360580D01*
X467410Y360580D01*
X467410Y359538D01*
X467460Y359288D01*
Y359033D01*
X467867Y356989D01*
X467964Y356753D01*
X468014Y356503D01*
X468811Y354577D01*
X468953Y354365D01*
X469051Y354130D01*
X470209Y352397D01*
X470389Y352216D01*
X470531Y352004D01*
X472004Y350531D01*
X472216Y350389D01*
X472397Y350209D01*
X474130Y349051D01*
X474365Y348953D01*
X474577Y348811D01*
X476503Y348014D01*
X476753Y347964D01*
X476989Y347867D01*
X479033Y347460D01*
X479288D01*
X479538Y347410D01*
X510020D01*
X511003Y347410D01*
X511253Y347460D01*
X511508D01*
X513436Y347844D01*
X513672Y347941D01*
X513922Y347991D01*
X515738Y348743D01*
X515950Y348885D01*
X516186Y348983D01*
X517821Y350075D01*
X518001Y350255D01*
X518213Y350397D01*
X519603Y351787D01*
X519745Y351999D01*
X519925Y352179D01*
X521017Y353814D01*
X521115Y354049D01*
X521257Y354262D01*
X522009Y356078D01*
X522059Y356328D01*
X522156Y356564D01*
X522540Y358492D01*
Y358747D01*
X522590Y358997D01*
X522590Y359980D01*
X522590Y422340D01*
X522589Y422341D01*
X522590Y424079D01*
X522540Y424329D01*
Y424585D01*
X521861Y427996D01*
X521764Y428232D01*
X521714Y428482D01*
X520383Y431696D01*
X520241Y431908D01*
X520143Y432144D01*
X518211Y435036D01*
X518030Y435217D01*
X517889Y435429D01*
X515429Y437889D01*
X515217Y438030D01*
X515036Y438211D01*
X512144Y440143D01*
X511908Y440241D01*
X511696Y440383D01*
X508482Y441714D01*
X508232Y441764D01*
X507996Y441861D01*
X504585Y442540D01*
X504329D01*
X504079Y442590D01*
X502340D01*
X332224Y442590D01*
X331286Y442636D01*
X329385Y443014D01*
X327654Y443731D01*
X326097Y444772D01*
X324772Y446097D01*
X323731Y447654D01*
X323014Y449385D01*
X322636Y451286D01*
X322590Y452223D01*
Y697151D01*
X961058D01*
X961158Y695881D01*
D02*
G37*
%LPC*%
G36*
X61731Y611130D02*
X58029D01*
X54399Y610408D01*
X50980Y608992D01*
X47902Y606935D01*
X45285Y604318D01*
X43229Y601240D01*
X41812Y597821D01*
X41090Y594191D01*
Y590489D01*
X41812Y586859D01*
X43229Y583440D01*
X45285Y580362D01*
X47902Y577745D01*
X50980Y575689D01*
X54399Y574272D01*
X58029Y573550D01*
X61731D01*
X65361Y574272D01*
X68780Y575689D01*
X71858Y577745D01*
X74475Y580362D01*
X76532Y583440D01*
X77948Y586859D01*
X78670Y590489D01*
Y594191D01*
X77948Y597821D01*
X76532Y601240D01*
X74475Y604318D01*
X71858Y606935D01*
X68780Y608992D01*
X65361Y610408D01*
X61731Y611130D01*
D02*
G37*
G36*
X104201Y572954D02*
X101959D01*
X99794Y572374D01*
X97852Y571253D01*
X96267Y569668D01*
X95146Y567726D01*
X94566Y565561D01*
Y563319D01*
X95146Y561154D01*
X96267Y559212D01*
X97852Y557627D01*
X99794Y556506D01*
X101959Y555926D01*
X104201D01*
X106366Y556506D01*
X108308Y557627D01*
X109893Y559212D01*
X111014Y561154D01*
X111594Y563319D01*
Y565561D01*
X111014Y567726D01*
X109893Y569668D01*
X108308Y571253D01*
X106366Y572374D01*
X104201Y572954D01*
D02*
G37*
G36*
X86401Y562754D02*
X84159D01*
X81994Y562174D01*
X80052Y561053D01*
X78467Y559468D01*
X77346Y557526D01*
X76766Y555361D01*
Y553119D01*
X77346Y550954D01*
X78467Y549012D01*
X80052Y547427D01*
X81994Y546306D01*
X84159Y545726D01*
X86401D01*
X88566Y546306D01*
X90508Y547427D01*
X92093Y549012D01*
X93214Y550954D01*
X93794Y553119D01*
Y555361D01*
X93214Y557526D01*
X92093Y559468D01*
X90508Y561053D01*
X88566Y562174D01*
X86401Y562754D01*
D02*
G37*
G36*
X104201Y552654D02*
X101959D01*
X99794Y552074D01*
X97852Y550953D01*
X96267Y549368D01*
X95146Y547426D01*
X94566Y545261D01*
Y543019D01*
X95146Y540854D01*
X96267Y538912D01*
X97852Y537327D01*
X99794Y536206D01*
X101959Y535626D01*
X104201D01*
X106366Y536206D01*
X108308Y537327D01*
X109893Y538912D01*
X111014Y540854D01*
X111594Y543019D01*
Y545261D01*
X111014Y547426D01*
X109893Y549368D01*
X108308Y550953D01*
X106366Y552074D01*
X104201Y552654D01*
D02*
G37*
G36*
X86401Y542454D02*
X84159D01*
X81994Y541874D01*
X80052Y540753D01*
X78467Y539168D01*
X77346Y537226D01*
X76766Y535061D01*
Y532819D01*
X77346Y530654D01*
X78467Y528712D01*
X80052Y527127D01*
X81994Y526006D01*
X84159Y525426D01*
X86401D01*
X88566Y526006D01*
X90508Y527127D01*
X92093Y528712D01*
X93214Y530654D01*
X93794Y532819D01*
Y535061D01*
X93214Y537226D01*
X92093Y539168D01*
X90508Y540753D01*
X88566Y541874D01*
X86401Y542454D01*
D02*
G37*
G36*
X104201Y532354D02*
X101959D01*
X99794Y531774D01*
X97852Y530653D01*
X96267Y529068D01*
X95146Y527126D01*
X94566Y524961D01*
Y522719D01*
X95146Y520554D01*
X96267Y518612D01*
X97852Y517027D01*
X99794Y515906D01*
X101959Y515326D01*
X104201D01*
X106366Y515906D01*
X108308Y517027D01*
X109893Y518612D01*
X111014Y520554D01*
X111594Y522719D01*
Y524961D01*
X111014Y527126D01*
X109893Y529068D01*
X108308Y530653D01*
X106366Y531774D01*
X104201Y532354D01*
D02*
G37*
G36*
X86401Y522154D02*
X84159D01*
X81994Y521574D01*
X80052Y520453D01*
X78467Y518868D01*
X77346Y516926D01*
X76766Y514761D01*
Y512519D01*
X77346Y510354D01*
X78467Y508412D01*
X80052Y506827D01*
X81994Y505706D01*
X84159Y505126D01*
X86401D01*
X88566Y505706D01*
X90508Y506827D01*
X92093Y508412D01*
X93214Y510354D01*
X93794Y512519D01*
Y514761D01*
X93214Y516926D01*
X92093Y518868D01*
X90508Y520453D01*
X88566Y521574D01*
X86401Y522154D01*
D02*
G37*
G36*
X104201Y512054D02*
X101959D01*
X99794Y511474D01*
X97852Y510353D01*
X96267Y508768D01*
X95146Y506826D01*
X94566Y504661D01*
Y502804D01*
X94049Y502168D01*
X93403Y501854D01*
X76766D01*
Y484826D01*
X93794D01*
Y500393D01*
X95064Y500560D01*
X95146Y500254D01*
X96267Y498312D01*
X97852Y496727D01*
X99794Y495606D01*
X101959Y495026D01*
X104201D01*
X106366Y495606D01*
X108308Y496727D01*
X109893Y498312D01*
X111014Y500254D01*
X111594Y502419D01*
Y504661D01*
X111014Y506826D01*
X109893Y508768D01*
X108308Y510353D01*
X106366Y511474D01*
X104201Y512054D01*
D02*
G37*
G36*
X61731Y484130D02*
X58029D01*
X54399Y483408D01*
X50980Y481992D01*
X47902Y479935D01*
X45285Y477318D01*
X43229Y474240D01*
X41812Y470821D01*
X41090Y467191D01*
Y463489D01*
X41812Y459859D01*
X43229Y456440D01*
X45285Y453362D01*
X47902Y450745D01*
X50980Y448689D01*
X54399Y447272D01*
X58029Y446550D01*
X61731D01*
X65361Y447272D01*
X68780Y448689D01*
X71858Y450745D01*
X74475Y453362D01*
X76532Y456440D01*
X77948Y459859D01*
X78670Y463489D01*
Y467191D01*
X77948Y470821D01*
X76532Y474240D01*
X74475Y477318D01*
X71858Y479935D01*
X68780Y481992D01*
X65361Y483408D01*
X61731Y484130D01*
D02*
G37*
G36*
X608400Y654524D02*
X606600D01*
X604937Y653835D01*
X603665Y652563D01*
X602976Y650900D01*
Y649100D01*
X603665Y647437D01*
X604937Y646165D01*
X606600Y645476D01*
X608400D01*
X610063Y646165D01*
X611335Y647437D01*
X612024Y649100D01*
Y650900D01*
X611335Y652563D01*
X610063Y653835D01*
X608400Y654524D01*
D02*
G37*
G36*
X450480Y631904D02*
X448680D01*
X447017Y631215D01*
X445745Y629943D01*
X445056Y628280D01*
Y627261D01*
X443806Y626432D01*
X442860Y626824D01*
X441060D01*
X439397Y626135D01*
X438125Y624863D01*
X437436Y623200D01*
Y621400D01*
X438125Y619737D01*
X439397Y618465D01*
X441060Y617776D01*
X442860D01*
X443806Y618168D01*
X445056Y617339D01*
Y616320D01*
X445745Y614657D01*
X447017Y613385D01*
X448680Y612696D01*
X450480D01*
X452143Y613385D01*
X453415Y614657D01*
X454104Y616320D01*
Y618120D01*
X453415Y619783D01*
X452143Y621055D01*
X450671Y621665D01*
X450628Y621932D01*
Y622668D01*
X450671Y622935D01*
X452143Y623545D01*
X453415Y624817D01*
X454104Y626480D01*
Y628280D01*
X453415Y629943D01*
X452143Y631215D01*
X450480Y631904D01*
D02*
G37*
G36*
X348050Y631074D02*
X346250D01*
X344587Y630385D01*
X343315Y629113D01*
X342626Y627450D01*
Y625650D01*
X343315Y623987D01*
X344587Y622715D01*
X346250Y622026D01*
X348050D01*
X349713Y622715D01*
X350985Y623987D01*
X351674Y625650D01*
Y627450D01*
X350985Y629113D01*
X349713Y630385D01*
X348050Y631074D01*
D02*
G37*
G36*
X399680Y631904D02*
X397880D01*
X396217Y631215D01*
X394945Y629943D01*
X394256Y628280D01*
Y626480D01*
X394945Y624817D01*
X396217Y623545D01*
X397689Y622935D01*
X397732Y622668D01*
Y621932D01*
X397689Y621665D01*
X396217Y621055D01*
X394945Y619783D01*
X394256Y618120D01*
Y616320D01*
X394945Y614657D01*
X396217Y613385D01*
X397880Y612696D01*
X399680D01*
X401343Y613385D01*
X402615Y614657D01*
X403304Y616320D01*
Y617339D01*
X404554Y618168D01*
X405500Y617776D01*
X407300D01*
X408963Y618465D01*
X410235Y619737D01*
X410924Y621400D01*
Y623200D01*
X410235Y624863D01*
X408963Y626135D01*
X407300Y626824D01*
X405500D01*
X404554Y626432D01*
X403304Y627261D01*
Y628280D01*
X402615Y629943D01*
X401343Y631215D01*
X399680Y631904D01*
D02*
G37*
G36*
X620660Y616664D02*
X618860D01*
X617197Y615975D01*
X615925Y614703D01*
X615236Y613040D01*
Y611240D01*
X615925Y609577D01*
X617197Y608305D01*
X618860Y607616D01*
X620660D01*
X622323Y608305D01*
X623595Y609577D01*
X624284Y611240D01*
Y613040D01*
X623595Y614703D01*
X622323Y615975D01*
X620660Y616664D01*
D02*
G37*
G36*
X729880Y609044D02*
X728080D01*
X726417Y608355D01*
X725145Y607083D01*
X724456Y605420D01*
Y603620D01*
X725145Y601957D01*
X726417Y600685D01*
X728080Y599996D01*
X729880D01*
X731543Y600685D01*
X732815Y601957D01*
X733504Y603620D01*
Y605420D01*
X732815Y607083D01*
X731543Y608355D01*
X729880Y609044D01*
D02*
G37*
G36*
X613505Y603499D02*
X611705D01*
X610043Y602810D01*
X608770Y601537D01*
X608081Y599875D01*
Y598075D01*
X608770Y596412D01*
X610043Y595140D01*
X611705Y594451D01*
X613505D01*
X615168Y595140D01*
X616440Y596412D01*
X617129Y598075D01*
Y599875D01*
X616440Y601537D01*
X615168Y602810D01*
X613505Y603499D01*
D02*
G37*
G36*
X867040Y601424D02*
X865240D01*
X863577Y600735D01*
X862305Y599463D01*
X861616Y597800D01*
Y596000D01*
X862305Y594337D01*
X863577Y593065D01*
X865240Y592376D01*
X867040D01*
X868703Y593065D01*
X869975Y594337D01*
X870664Y596000D01*
Y597800D01*
X869975Y599463D01*
X868703Y600735D01*
X867040Y601424D01*
D02*
G37*
G36*
X582560Y581104D02*
X580760D01*
X579097Y580415D01*
X577825Y579143D01*
X577136Y577480D01*
Y575680D01*
X577825Y574017D01*
X579097Y572745D01*
X580760Y572056D01*
X582560D01*
X584223Y572745D01*
X585495Y574017D01*
X586184Y575680D01*
Y577480D01*
X585495Y579143D01*
X584223Y580415D01*
X582560Y581104D01*
D02*
G37*
G36*
X745120Y573484D02*
X743320D01*
X741657Y572795D01*
X740385Y571523D01*
X739696Y569860D01*
Y568060D01*
X740385Y566397D01*
X741657Y565125D01*
X743320Y564436D01*
X745120D01*
X746783Y565125D01*
X748055Y566397D01*
X748744Y568060D01*
Y569860D01*
X748055Y571523D01*
X746783Y572795D01*
X745120Y573484D01*
D02*
G37*
G36*
X407832Y569939D02*
X406032D01*
X404369Y569250D01*
X403097Y567978D01*
X402408Y566315D01*
Y564515D01*
X403097Y562853D01*
X404369Y561580D01*
X406032Y560891D01*
X407832D01*
X409495Y561580D01*
X410767Y562853D01*
X411456Y564515D01*
Y566315D01*
X410767Y567978D01*
X409495Y569250D01*
X407832Y569939D01*
D02*
G37*
G36*
X762435Y566329D02*
X760635D01*
X758972Y565640D01*
X757700Y564368D01*
X757011Y562705D01*
Y560905D01*
X757700Y559243D01*
X758972Y557970D01*
X760635Y557281D01*
X762435D01*
X764097Y557970D01*
X765370Y559243D01*
X766059Y560905D01*
Y562705D01*
X765370Y564368D01*
X764097Y565640D01*
X762435Y566329D01*
D02*
G37*
G36*
X894980Y565864D02*
X893180D01*
X891517Y565175D01*
X890245Y563903D01*
X889556Y562240D01*
Y560440D01*
X890245Y558777D01*
X891517Y557505D01*
X893180Y556816D01*
X894980D01*
X896643Y557505D01*
X897915Y558777D01*
X898604Y560440D01*
Y562240D01*
X897915Y563903D01*
X896643Y565175D01*
X894980Y565864D01*
D02*
G37*
G36*
X971188Y564824D02*
X968812D01*
X966517Y564209D01*
X964459Y563021D01*
X962779Y561341D01*
X961591Y559283D01*
X960976Y556988D01*
Y554612D01*
X961591Y552317D01*
X962779Y550259D01*
X964459Y548579D01*
X966517Y547391D01*
X968812Y546776D01*
X971188D01*
X973483Y547391D01*
X975541Y548579D01*
X977221Y550259D01*
X978409Y552317D01*
X979024Y554612D01*
Y556988D01*
X978409Y559283D01*
X977221Y561341D01*
X975541Y563021D01*
X973483Y564209D01*
X971188Y564824D01*
D02*
G37*
G36*
X656220Y550624D02*
X654420D01*
X652757Y549935D01*
X651485Y548663D01*
X650796Y547000D01*
Y545200D01*
X651485Y543537D01*
X652757Y542265D01*
X654229Y541655D01*
X654272Y541388D01*
Y540652D01*
X654229Y540385D01*
X652757Y539775D01*
X651485Y538503D01*
X650796Y536840D01*
Y535040D01*
X651485Y533377D01*
X652757Y532105D01*
X654420Y531416D01*
X656220D01*
X657883Y532105D01*
X659155Y533377D01*
X659844Y535040D01*
Y536840D01*
X659155Y538503D01*
X657883Y539775D01*
X656411Y540385D01*
X656368Y540652D01*
Y541388D01*
X656411Y541655D01*
X657883Y542265D01*
X659155Y543537D01*
X659844Y545200D01*
Y547000D01*
X659155Y548663D01*
X657883Y549935D01*
X656220Y550624D01*
D02*
G37*
G36*
X971188Y539424D02*
X968812D01*
X966517Y538809D01*
X964459Y537621D01*
X962779Y535941D01*
X961591Y533883D01*
X960976Y531588D01*
Y529212D01*
X961591Y526917D01*
X962779Y524859D01*
X964459Y523179D01*
X966517Y521991D01*
X968812Y521376D01*
X971188D01*
X973483Y521991D01*
X975541Y523179D01*
X977221Y524859D01*
X978409Y526917D01*
X979024Y529212D01*
Y531588D01*
X978409Y533883D01*
X977221Y535941D01*
X975541Y537621D01*
X973483Y538809D01*
X971188Y539424D01*
D02*
G37*
G36*
X734960Y527764D02*
X733160D01*
X731497Y527075D01*
X730225Y525803D01*
X729536Y524140D01*
Y522340D01*
X730225Y520677D01*
X731497Y519405D01*
X733160Y518716D01*
X734960D01*
X736623Y519405D01*
X737895Y520677D01*
X738584Y522340D01*
Y524140D01*
X737895Y525803D01*
X736623Y527075D01*
X734960Y527764D01*
D02*
G37*
G36*
X887360Y522684D02*
X885560D01*
X883897Y521995D01*
X882625Y520723D01*
X881936Y519060D01*
Y517260D01*
X882625Y515597D01*
X883897Y514325D01*
X885560Y513636D01*
X887360D01*
X889023Y514325D01*
X890295Y515597D01*
X890984Y517260D01*
Y519060D01*
X890295Y520723D01*
X889023Y521995D01*
X887360Y522684D01*
D02*
G37*
G36*
X552080Y512524D02*
X550280D01*
X548617Y511835D01*
X547345Y510563D01*
X546656Y508900D01*
Y507100D01*
X547345Y505437D01*
X548617Y504165D01*
X550280Y503476D01*
X552080D01*
X553743Y504165D01*
X555015Y505437D01*
X555704Y507100D01*
Y508900D01*
X555015Y510563D01*
X553743Y511835D01*
X552080Y512524D01*
D02*
G37*
G36*
X407904Y507237D02*
X406104D01*
X404441Y506548D01*
X403169Y505275D01*
X402480Y503612D01*
Y501813D01*
X403169Y500150D01*
X404441Y498877D01*
X406104Y498189D01*
X407904D01*
X409567Y498877D01*
X410839Y500150D01*
X411528Y501813D01*
Y503612D01*
X410839Y505275D01*
X409567Y506548D01*
X407904Y507237D01*
D02*
G37*
G36*
X971188Y514024D02*
X968812D01*
X966517Y513409D01*
X964459Y512221D01*
X962779Y510541D01*
X961591Y508483D01*
X960976Y506188D01*
Y503812D01*
X961591Y501517D01*
X962779Y499459D01*
X964459Y497779D01*
X966517Y496591D01*
X968812Y495976D01*
X971188D01*
X973483Y496591D01*
X975541Y497779D01*
X977221Y499459D01*
X978409Y501517D01*
X979024Y503812D01*
Y506188D01*
X978409Y508483D01*
X977221Y510541D01*
X975541Y512221D01*
X973483Y513409D01*
X971188Y514024D01*
D02*
G37*
G36*
X760360Y485514D02*
X758560D01*
X756897Y484826D01*
X755625Y483553D01*
X754936Y481890D01*
Y480090D01*
X755625Y478428D01*
X756897Y477155D01*
X758560Y476466D01*
X760360D01*
X762023Y477155D01*
X763295Y478428D01*
X763984Y480090D01*
Y481890D01*
X763295Y483553D01*
X762023Y484826D01*
X760360Y485514D01*
D02*
G37*
G36*
X590180Y471884D02*
X588380D01*
X586717Y471195D01*
X585445Y469923D01*
X584756Y468260D01*
Y466460D01*
X585445Y464797D01*
X586717Y463525D01*
X588380Y462836D01*
X590180D01*
X591843Y463525D01*
X593115Y464797D01*
X593804Y466460D01*
Y468260D01*
X593115Y469923D01*
X591843Y471195D01*
X590180Y471884D01*
D02*
G37*
G36*
X600340Y461724D02*
X598540D01*
X596877Y461035D01*
X595605Y459763D01*
X594916Y458100D01*
Y456300D01*
X595605Y454637D01*
X596877Y453365D01*
X598540Y452676D01*
X600340D01*
X602003Y453365D01*
X603275Y454637D01*
X603964Y456300D01*
Y458100D01*
X603275Y459763D01*
X602003Y461035D01*
X600340Y461724D01*
D02*
G37*
G36*
X359040Y456644D02*
X357240D01*
X355577Y455955D01*
X354305Y454683D01*
X353616Y453020D01*
Y451220D01*
X354305Y449557D01*
X355577Y448285D01*
X357240Y447596D01*
X359040D01*
X360703Y448285D01*
X361975Y449557D01*
X362664Y451220D01*
Y453020D01*
X361975Y454683D01*
X360703Y455955D01*
X359040Y456644D01*
D02*
G37*
G36*
X971188Y463224D02*
X968812D01*
X966517Y462609D01*
X964459Y461421D01*
X962779Y459741D01*
X961591Y457683D01*
X960976Y455388D01*
Y453012D01*
X961591Y450717D01*
X962779Y448659D01*
X964459Y446979D01*
X966517Y445791D01*
X968812Y445176D01*
X971188D01*
X973483Y445791D01*
X975541Y446979D01*
X977221Y448659D01*
X978409Y450717D01*
X979024Y453012D01*
Y455388D01*
X978409Y457683D01*
X977221Y459741D01*
X975541Y461421D01*
X973483Y462609D01*
X971188Y463224D01*
D02*
G37*
G36*
X933960Y449904D02*
X932160D01*
X930497Y449215D01*
X929225Y447943D01*
X928536Y446280D01*
Y444480D01*
X929225Y442817D01*
X930497Y441545D01*
X932160Y440856D01*
X933960D01*
X935623Y441545D01*
X936895Y442817D01*
X937584Y444480D01*
Y446280D01*
X936895Y447943D01*
X935623Y449215D01*
X933960Y449904D01*
D02*
G37*
G36*
X915300Y433784D02*
X913500D01*
X911837Y433095D01*
X910565Y431823D01*
X909876Y430160D01*
Y428360D01*
X910565Y426697D01*
X911837Y425425D01*
X913500Y424736D01*
X915300D01*
X916963Y425425D01*
X918235Y426697D01*
X918924Y428360D01*
Y430160D01*
X918235Y431823D01*
X916963Y433095D01*
X915300Y433784D01*
D02*
G37*
G36*
X727340D02*
X725540D01*
X723877Y433095D01*
X722605Y431823D01*
X721916Y430160D01*
Y428360D01*
X722605Y426697D01*
X723877Y425425D01*
X725540Y424736D01*
X727340D01*
X729003Y425425D01*
X730275Y426697D01*
X730964Y428360D01*
Y430160D01*
X730275Y431823D01*
X729003Y433095D01*
X727340Y433784D01*
D02*
G37*
G36*
X979024Y437824D02*
X960976D01*
Y419776D01*
X979024D01*
Y437824D01*
D02*
G37*
G36*
X719720Y421084D02*
X717920D01*
X716257Y420395D01*
X714985Y419123D01*
X714296Y417460D01*
Y415660D01*
X714985Y413997D01*
X716257Y412725D01*
X717920Y412036D01*
X719720D01*
X721383Y412725D01*
X722655Y413997D01*
X723344Y415660D01*
Y417460D01*
X722655Y419123D01*
X721383Y420395D01*
X719720Y421084D01*
D02*
G37*
G36*
X877679Y412985D02*
X875879D01*
X874216Y412296D01*
X872944Y411024D01*
X872255Y409361D01*
Y407561D01*
X872944Y405899D01*
X874216Y404626D01*
X875879Y403937D01*
X877679D01*
X879342Y404626D01*
X880614Y405899D01*
X881303Y407561D01*
Y409361D01*
X880614Y411024D01*
X879342Y412296D01*
X877679Y412985D01*
D02*
G37*
G36*
X219340Y380444D02*
X217540D01*
X215877Y379755D01*
X214605Y378483D01*
X213916Y376820D01*
Y375020D01*
X214605Y373357D01*
X215877Y372085D01*
X217540Y371396D01*
X219340D01*
X221003Y372085D01*
X222275Y373357D01*
X222964Y375020D01*
Y376820D01*
X222275Y378483D01*
X221003Y379755D01*
X219340Y380444D01*
D02*
G37*
G36*
X453020Y375364D02*
X451220D01*
X449557Y374675D01*
X448285Y373403D01*
X447596Y371740D01*
Y370721D01*
X446346Y369892D01*
X445400Y370284D01*
X443600D01*
X441937Y369595D01*
X440665Y368323D01*
X439976Y366660D01*
Y364860D01*
X440665Y363197D01*
X441937Y361925D01*
X443409Y361315D01*
X443452Y361048D01*
Y360312D01*
X443409Y360045D01*
X441937Y359435D01*
X440665Y358163D01*
X439976Y356500D01*
Y354700D01*
X440665Y353037D01*
X441937Y351765D01*
X443409Y351155D01*
X443452Y350888D01*
Y350152D01*
X443409Y349885D01*
X441937Y349275D01*
X440665Y348003D01*
X439976Y346340D01*
Y344540D01*
X440665Y342877D01*
X441937Y341605D01*
X443409Y340995D01*
X443452Y340728D01*
Y339992D01*
X443409Y339725D01*
X441937Y339115D01*
X440665Y337843D01*
X439976Y336180D01*
Y334380D01*
X440665Y332717D01*
X441937Y331445D01*
X443409Y330835D01*
X443452Y330568D01*
Y329832D01*
X443409Y329565D01*
X441937Y328955D01*
X440665Y327683D01*
X439976Y326020D01*
Y324220D01*
X440665Y322557D01*
X441937Y321285D01*
X443600Y320596D01*
X445400D01*
X446346Y320988D01*
X447596Y320159D01*
Y319140D01*
X448285Y317477D01*
X449557Y316205D01*
X451220Y315516D01*
X453020D01*
X454683Y316205D01*
X455955Y317477D01*
X456644Y319140D01*
Y320940D01*
X455955Y322603D01*
X454683Y323875D01*
X453211Y324485D01*
X453168Y324752D01*
Y325488D01*
X453211Y325755D01*
X454683Y326365D01*
X455955Y327637D01*
X456644Y329300D01*
Y331100D01*
X455955Y332763D01*
X454683Y334035D01*
X453211Y334645D01*
X453168Y334912D01*
Y335648D01*
X453211Y335915D01*
X454683Y336525D01*
X455955Y337797D01*
X456644Y339460D01*
Y341260D01*
X455955Y342923D01*
X454683Y344195D01*
X453211Y344805D01*
X453168Y345072D01*
Y345808D01*
X453211Y346075D01*
X454683Y346685D01*
X455955Y347957D01*
X456644Y349620D01*
Y351420D01*
X455955Y353083D01*
X454683Y354355D01*
X453211Y354965D01*
X453168Y355232D01*
Y355968D01*
X453211Y356235D01*
X454683Y356845D01*
X455955Y358117D01*
X456644Y359780D01*
Y361580D01*
X455955Y363243D01*
X454683Y364515D01*
X453211Y365125D01*
X453168Y365392D01*
Y366128D01*
X453211Y366395D01*
X454683Y367005D01*
X455955Y368277D01*
X456644Y369940D01*
Y371740D01*
X455955Y373403D01*
X454683Y374675D01*
X453020Y375364D01*
D02*
G37*
G36*
X313320Y377904D02*
X311520D01*
X309857Y377215D01*
X308585Y375943D01*
X307896Y374280D01*
Y372480D01*
X308585Y370817D01*
X309857Y369545D01*
X311520Y368856D01*
X313320D01*
X314983Y369545D01*
X316255Y370817D01*
X316944Y372480D01*
Y374280D01*
X316255Y375943D01*
X314983Y377215D01*
X313320Y377904D01*
D02*
G37*
G36*
X912760Y372824D02*
X910960D01*
X909297Y372135D01*
X908025Y370863D01*
X907336Y369200D01*
Y367400D01*
X908025Y365737D01*
X909297Y364465D01*
X910960Y363776D01*
X912760D01*
X914423Y364465D01*
X915695Y365737D01*
X916384Y367400D01*
Y369200D01*
X915695Y370863D01*
X914423Y372135D01*
X912760Y372824D01*
D02*
G37*
G36*
X861960D02*
X860160D01*
X858497Y372135D01*
X857225Y370863D01*
X856536Y369200D01*
Y367400D01*
X857225Y365737D01*
X858497Y364465D01*
X860160Y363776D01*
X861960D01*
X863623Y364465D01*
X864895Y365737D01*
X865584Y367400D01*
Y369200D01*
X864895Y370863D01*
X863623Y372135D01*
X861960Y372824D01*
D02*
G37*
G36*
X320940Y349964D02*
X319140D01*
X317477Y349275D01*
X316205Y348003D01*
X315516Y346340D01*
Y344540D01*
X316205Y342877D01*
X317477Y341605D01*
X319140Y340916D01*
X320940D01*
X322603Y341605D01*
X323875Y342877D01*
X324564Y344540D01*
Y346340D01*
X323875Y348003D01*
X322603Y349275D01*
X320940Y349964D01*
D02*
G37*
G36*
X420000Y347424D02*
X418200D01*
X416537Y346735D01*
X415265Y345463D01*
X414576Y343800D01*
Y342000D01*
X415265Y340337D01*
X416537Y339065D01*
X418200Y338376D01*
X420000D01*
X421663Y339065D01*
X422935Y340337D01*
X423624Y342000D01*
Y343800D01*
X422935Y345463D01*
X421663Y346735D01*
X420000Y347424D01*
D02*
G37*
G36*
X971360Y362361D02*
X966280D01*
X964556Y362134D01*
X962950Y361469D01*
X961570Y360410D01*
X960511Y359030D01*
X959846Y357424D01*
X959619Y355700D01*
X959846Y353976D01*
X960511Y352369D01*
X961570Y350990D01*
X961721Y350874D01*
X961290Y349604D01*
X959676D01*
Y336396D01*
X977964D01*
Y349604D01*
X976350D01*
X975919Y350874D01*
X976070Y350990D01*
X977129Y352369D01*
X977794Y353976D01*
X978021Y355700D01*
X977794Y357424D01*
X977129Y359030D01*
X976070Y360410D01*
X974690Y361469D01*
X973084Y362134D01*
X971360Y362361D01*
D02*
G37*
G36*
X713180Y337364D02*
X711380D01*
X709717Y336675D01*
X708445Y335403D01*
X707756Y333740D01*
Y331940D01*
X708445Y330277D01*
X709717Y329005D01*
X711380Y328316D01*
X713180D01*
X714843Y329005D01*
X716115Y330277D01*
X716804Y331940D01*
Y333740D01*
X716115Y335403D01*
X714843Y336675D01*
X713180Y337364D01*
D02*
G37*
G36*
X193940Y327104D02*
X192140D01*
X190477Y326415D01*
X189205Y325143D01*
X188516Y323480D01*
Y321680D01*
X189205Y320017D01*
X190477Y318745D01*
X192140Y318056D01*
X193940D01*
X195603Y318745D01*
X196875Y320017D01*
X197564Y321680D01*
Y323480D01*
X196875Y325143D01*
X195603Y326415D01*
X193940Y327104D01*
D02*
G37*
G36*
X270140Y324564D02*
X268340D01*
X266677Y323875D01*
X265405Y322603D01*
X264716Y320940D01*
Y319140D01*
X265405Y317477D01*
X266677Y316205D01*
X268340Y315516D01*
X270140D01*
X271803Y316205D01*
X273075Y317477D01*
X273764Y319140D01*
Y320940D01*
X273075Y322603D01*
X271803Y323875D01*
X270140Y324564D01*
D02*
G37*
G36*
X846720Y322024D02*
X844920D01*
X843257Y321335D01*
X841985Y320063D01*
X841296Y318400D01*
Y316600D01*
X841985Y314937D01*
X843257Y313665D01*
X844920Y312976D01*
X846720D01*
X848383Y313665D01*
X849655Y314937D01*
X850344Y316600D01*
Y318400D01*
X849655Y320063D01*
X848383Y321335D01*
X846720Y322024D01*
D02*
G37*
G36*
X700480Y319584D02*
X698680D01*
X697017Y318895D01*
X695745Y317623D01*
X695056Y315960D01*
Y314160D01*
X695745Y312497D01*
X697017Y311225D01*
X698680Y310536D01*
X700480D01*
X702143Y311225D01*
X703415Y312497D01*
X704104Y314160D01*
Y315960D01*
X703415Y317623D01*
X702143Y318895D01*
X700480Y319584D01*
D02*
G37*
G36*
X635900Y339804D02*
X634100D01*
X632437Y339115D01*
X631165Y337843D01*
X630476Y336180D01*
Y334380D01*
X631165Y332717D01*
X632437Y331445D01*
X633909Y330835D01*
X633952Y330568D01*
Y329832D01*
X633909Y329565D01*
X632437Y328955D01*
X631165Y327683D01*
X630476Y326020D01*
Y324220D01*
X631165Y322557D01*
X632437Y321285D01*
X633909Y320675D01*
X633952Y320408D01*
Y319672D01*
X633909Y319405D01*
X632437Y318795D01*
X631165Y317523D01*
X630476Y315860D01*
Y314060D01*
X631165Y312397D01*
X632437Y311125D01*
X634100Y310436D01*
X635900D01*
X637563Y311125D01*
X638835Y312397D01*
X639524Y314060D01*
Y315860D01*
X638835Y317523D01*
X637563Y318795D01*
X636091Y319405D01*
X636048Y319672D01*
Y320408D01*
X636091Y320675D01*
X637563Y321285D01*
X638835Y322557D01*
X639524Y324220D01*
Y326020D01*
X638835Y327683D01*
X637563Y328955D01*
X636091Y329565D01*
X636048Y329832D01*
Y330568D01*
X636091Y330835D01*
X637563Y331445D01*
X638835Y332717D01*
X639524Y334380D01*
Y336180D01*
X638835Y337843D01*
X637563Y339115D01*
X635900Y339804D01*
D02*
G37*
G36*
X941780Y317044D02*
X939980D01*
X938317Y316355D01*
X937045Y315083D01*
X936356Y313420D01*
Y311620D01*
X937045Y309957D01*
X938317Y308685D01*
X939980Y307996D01*
X941780D01*
X943443Y308685D01*
X944715Y309957D01*
X945404Y311620D01*
Y313420D01*
X944715Y315083D01*
X943443Y316355D01*
X941780Y317044D01*
D02*
G37*
G36*
X259980Y316944D02*
X258180D01*
X256517Y316255D01*
X255245Y314983D01*
X254556Y313320D01*
Y311520D01*
X255245Y309857D01*
X256517Y308585D01*
X258180Y307896D01*
X259980D01*
X261643Y308585D01*
X262915Y309857D01*
X263604Y311520D01*
Y313320D01*
X262915Y314983D01*
X261643Y316255D01*
X259980Y316944D01*
D02*
G37*
G36*
X290460Y311864D02*
X288660D01*
X286997Y311175D01*
X285725Y309903D01*
X285036Y308240D01*
Y307221D01*
X283786Y306392D01*
X282840Y306784D01*
X281040D01*
X279377Y306095D01*
X278105Y304823D01*
X277416Y303160D01*
Y301360D01*
X278105Y299697D01*
X279377Y298425D01*
X281040Y297736D01*
X282840D01*
X284503Y298425D01*
X285775Y299697D01*
X286464Y301360D01*
Y302379D01*
X287714Y303208D01*
X288660Y302816D01*
X290460D01*
X292123Y303505D01*
X293395Y304777D01*
X294084Y306440D01*
Y308240D01*
X293395Y309903D01*
X292123Y311175D01*
X290460Y311864D01*
D02*
G37*
G36*
X234580Y314404D02*
X232780D01*
X231117Y313715D01*
X229845Y312443D01*
X229156Y310780D01*
Y308980D01*
X229845Y307317D01*
X231117Y306045D01*
X232780Y305356D01*
X234580D01*
X236243Y306045D01*
X237515Y307317D01*
X238204Y308980D01*
Y310780D01*
X237515Y312443D01*
X236243Y313715D01*
X234580Y314404D01*
D02*
G37*
G36*
X219340Y311864D02*
X217540D01*
X215877Y311175D01*
X214605Y309903D01*
X213916Y308240D01*
Y306440D01*
X214605Y304777D01*
X215877Y303505D01*
X217540Y302816D01*
X219340D01*
X221003Y303505D01*
X222275Y304777D01*
X222964Y306440D01*
Y308240D01*
X222275Y309903D01*
X221003Y311175D01*
X219340Y311864D01*
D02*
G37*
G36*
X249820Y309324D02*
X248020D01*
X246357Y308635D01*
X245085Y307363D01*
X244396Y305700D01*
Y303900D01*
X245085Y302237D01*
X246357Y300965D01*
X248020Y300276D01*
X249820D01*
X251483Y300965D01*
X252755Y302237D01*
X253444Y303900D01*
Y305700D01*
X252755Y307363D01*
X251483Y308635D01*
X249820Y309324D01*
D02*
G37*
G36*
X166000Y306784D02*
X164200D01*
X162537Y306095D01*
X161265Y304823D01*
X160576Y303160D01*
Y301360D01*
X161265Y299697D01*
X162537Y298425D01*
X164200Y297736D01*
X166000D01*
X167663Y298425D01*
X168935Y299697D01*
X169624Y301360D01*
Y303160D01*
X168935Y304823D01*
X167663Y306095D01*
X166000Y306784D01*
D02*
G37*
G36*
X135520D02*
X133720D01*
X132057Y306095D01*
X130785Y304823D01*
X130096Y303160D01*
Y301360D01*
X130785Y299697D01*
X132057Y298425D01*
X133720Y297736D01*
X135520D01*
X137183Y298425D01*
X138455Y299697D01*
X139144Y301360D01*
Y303160D01*
X138455Y304823D01*
X137183Y306095D01*
X135520Y306784D01*
D02*
G37*
G36*
X102500D02*
X100700D01*
X99037Y306095D01*
X97765Y304823D01*
X97076Y303160D01*
Y301360D01*
X97765Y299697D01*
X99037Y298425D01*
X100700Y297736D01*
X102500D01*
X104163Y298425D01*
X105435Y299697D01*
X106124Y301360D01*
Y303160D01*
X105435Y304823D01*
X104163Y306095D01*
X102500Y306784D01*
D02*
G37*
G36*
X692860Y301804D02*
X691060D01*
X689397Y301115D01*
X688125Y299843D01*
X687436Y298180D01*
Y296380D01*
X688125Y294717D01*
X689397Y293445D01*
X691060Y292756D01*
X692860D01*
X694523Y293445D01*
X695795Y294717D01*
X696484Y296380D01*
Y298180D01*
X695795Y299843D01*
X694523Y301115D01*
X692860Y301804D01*
D02*
G37*
G36*
X310780Y296624D02*
X308980D01*
X307317Y295935D01*
X306045Y294663D01*
X305356Y293000D01*
Y291200D01*
X306045Y289537D01*
X307317Y288265D01*
X308789Y287655D01*
X308832Y287388D01*
Y286652D01*
X308789Y286385D01*
X307317Y285775D01*
X306045Y284503D01*
X305356Y282840D01*
Y281040D01*
X306045Y279377D01*
X307317Y278105D01*
X308980Y277416D01*
X310780D01*
X312443Y278105D01*
X313715Y279377D01*
X314404Y281040D01*
Y282840D01*
X313715Y284503D01*
X312443Y285775D01*
X310971Y286385D01*
X310928Y286652D01*
Y287388D01*
X310971Y287655D01*
X312443Y288265D01*
X313715Y289537D01*
X314404Y291200D01*
Y293000D01*
X313715Y294663D01*
X312443Y295935D01*
X310780Y296624D01*
D02*
G37*
G36*
X49160Y286464D02*
X47360D01*
X45697Y285775D01*
X44425Y284503D01*
X43736Y282840D01*
Y281040D01*
X44425Y279377D01*
X45697Y278105D01*
X47360Y277416D01*
X49160D01*
X50823Y278105D01*
X52095Y279377D01*
X52784Y281040D01*
Y282840D01*
X52095Y284503D01*
X50823Y285775D01*
X49160Y286464D01*
D02*
G37*
G36*
X793200Y277684D02*
X791400D01*
X789737Y276995D01*
X788465Y275723D01*
X787776Y274060D01*
Y272260D01*
X788465Y270597D01*
X789737Y269325D01*
X791400Y268636D01*
X793200D01*
X794863Y269325D01*
X796135Y270597D01*
X796824Y272260D01*
Y274060D01*
X796135Y275723D01*
X794863Y276995D01*
X793200Y277684D01*
D02*
G37*
G36*
X324940Y249444D02*
X323140D01*
X321477Y248755D01*
X320205Y247483D01*
X319516Y245820D01*
Y244020D01*
X320205Y242357D01*
X321477Y241085D01*
X323140Y240396D01*
X324940D01*
X326603Y241085D01*
X327875Y242357D01*
X328564Y244020D01*
Y245820D01*
X327875Y247483D01*
X326603Y248755D01*
X324940Y249444D01*
D02*
G37*
G36*
X406220Y241824D02*
X404420D01*
X402757Y241135D01*
X401485Y239863D01*
X400796Y238200D01*
Y236400D01*
X401485Y234737D01*
X402757Y233465D01*
X404420Y232776D01*
X406220D01*
X407883Y233465D01*
X409155Y234737D01*
X409844Y236400D01*
Y238200D01*
X409155Y239863D01*
X407883Y241135D01*
X406220Y241824D01*
D02*
G37*
G36*
X405840Y221504D02*
X404040D01*
X402377Y220815D01*
X401105Y219543D01*
X400416Y217880D01*
Y216080D01*
X401105Y214417D01*
X402377Y213145D01*
X404040Y212456D01*
X405840D01*
X407503Y213145D01*
X408775Y214417D01*
X409464Y216080D01*
Y217880D01*
X408775Y219543D01*
X407503Y220815D01*
X405840Y221504D01*
D02*
G37*
G36*
X303206Y214494D02*
X301406D01*
X299744Y213805D01*
X298471Y212532D01*
X297782Y210870D01*
Y209070D01*
X298471Y207407D01*
X299744Y206134D01*
X301406Y205446D01*
X303206D01*
X304869Y206134D01*
X306142Y207407D01*
X306830Y209070D01*
Y210870D01*
X306142Y212532D01*
X304869Y213805D01*
X303206Y214494D01*
D02*
G37*
G36*
X223130Y214301D02*
X221330D01*
X219667Y213613D01*
X218394Y212340D01*
X217706Y210677D01*
Y208878D01*
X218394Y207215D01*
X219667Y205942D01*
X221330Y205254D01*
X223130D01*
X224792Y205942D01*
X226065Y207215D01*
X226754Y208878D01*
Y210677D01*
X226065Y212340D01*
X224792Y213613D01*
X223130Y214301D01*
D02*
G37*
G36*
X259980Y215344D02*
X258180D01*
X256517Y214655D01*
X255245Y213383D01*
X254556Y211720D01*
Y209920D01*
X255245Y208257D01*
X256492Y207010D01*
X255245Y205763D01*
X254556Y204100D01*
Y202300D01*
X255245Y200637D01*
X256517Y199365D01*
X258180Y198676D01*
X259980D01*
X261643Y199365D01*
X262915Y200637D01*
X263604Y202300D01*
Y204100D01*
X262915Y205763D01*
X261668Y207010D01*
X262915Y208257D01*
X263604Y209920D01*
Y211720D01*
X262915Y213383D01*
X261643Y214655D01*
X259980Y215344D01*
D02*
G37*
G36*
X832560Y202744D02*
X830760D01*
X829097Y202055D01*
X827825Y200783D01*
X827136Y199120D01*
Y198101D01*
X825886Y197272D01*
X824940Y197664D01*
X823140D01*
X821477Y196975D01*
X820205Y195703D01*
X819516Y194040D01*
Y192240D01*
X820205Y190577D01*
X821477Y189305D01*
X822949Y188695D01*
X822992Y188428D01*
Y187692D01*
X822949Y187425D01*
X821477Y186815D01*
X820205Y185543D01*
X819516Y183880D01*
Y182080D01*
X820205Y180417D01*
X821477Y179145D01*
X823140Y178456D01*
X824940D01*
X826603Y179145D01*
X827875Y180417D01*
X828564Y182080D01*
Y183099D01*
X829814Y183928D01*
X830760Y183536D01*
X832560D01*
X834223Y184225D01*
X835495Y185497D01*
X836184Y187160D01*
Y188960D01*
X835495Y190623D01*
X834223Y191895D01*
X832751Y192505D01*
X832708Y192772D01*
Y193508D01*
X832751Y193775D01*
X834223Y194385D01*
X835495Y195657D01*
X836184Y197320D01*
Y199120D01*
X835495Y200783D01*
X834223Y202055D01*
X832560Y202744D01*
D02*
G37*
G36*
X204100Y205184D02*
X202300D01*
X200637Y204495D01*
X199365Y203223D01*
X198676Y201560D01*
Y199760D01*
X199365Y198097D01*
X200637Y196825D01*
X202300Y196136D01*
X204100D01*
X205763Y196825D01*
X207035Y198097D01*
X207724Y199760D01*
Y201560D01*
X207035Y203223D01*
X205763Y204495D01*
X204100Y205184D01*
D02*
G37*
G36*
X761440Y200204D02*
X759640D01*
X757977Y199515D01*
X756705Y198243D01*
X756016Y196580D01*
Y194780D01*
X756705Y193117D01*
X757977Y191845D01*
X759640Y191156D01*
X761440D01*
X763103Y191845D01*
X764375Y193117D01*
X765064Y194780D01*
Y196580D01*
X764375Y198243D01*
X763103Y199515D01*
X761440Y200204D01*
D02*
G37*
G36*
X71524Y219424D02*
X41176D01*
Y189076D01*
X71524D01*
Y219424D01*
D02*
G37*
G36*
X270140Y195024D02*
X268340D01*
X266677Y194335D01*
X265405Y193063D01*
X264716Y191400D01*
Y189600D01*
X265405Y187937D01*
X266677Y186665D01*
X268340Y185976D01*
X270140D01*
X271803Y186665D01*
X273075Y187937D01*
X273764Y189600D01*
Y191400D01*
X273075Y193063D01*
X271803Y194335D01*
X270140Y195024D01*
D02*
G37*
G36*
X245604Y192484D02*
X243804D01*
X242141Y191795D01*
X240869Y190523D01*
X240180Y188860D01*
Y187060D01*
X240869Y185397D01*
X242141Y184125D01*
X243804Y183436D01*
X245604D01*
X247267Y184125D01*
X248539Y185397D01*
X249228Y187060D01*
Y188860D01*
X248539Y190523D01*
X247267Y191795D01*
X245604Y192484D01*
D02*
G37*
G36*
X234016D02*
X232216D01*
X230553Y191795D01*
X229281Y190523D01*
X228592Y188860D01*
Y187060D01*
X229281Y185397D01*
X230553Y184125D01*
X232216Y183436D01*
X234016D01*
X235679Y184125D01*
X236951Y185397D01*
X237640Y187060D01*
Y188860D01*
X236951Y190523D01*
X235679Y191795D01*
X234016Y192484D01*
D02*
G37*
G36*
X971371Y203114D02*
X968629D01*
X965980Y202404D01*
X963606Y201033D01*
X961667Y199094D01*
X960296Y196720D01*
X959586Y194071D01*
Y191329D01*
X960296Y188680D01*
X961667Y186306D01*
X963606Y184367D01*
X965980Y182996D01*
X968629Y182286D01*
X971371D01*
X974020Y182996D01*
X976394Y184367D01*
X978333Y186306D01*
X979704Y188680D01*
X980414Y191329D01*
Y194071D01*
X979704Y196720D01*
X978333Y199094D01*
X976394Y201033D01*
X974020Y202404D01*
X971371Y203114D01*
D02*
G37*
G36*
X191400Y189944D02*
X189600D01*
X187937Y189255D01*
X186665Y187983D01*
X185976Y186320D01*
Y184520D01*
X186665Y182857D01*
X187937Y181585D01*
X189600Y180896D01*
X191400D01*
X193063Y181585D01*
X194335Y182857D01*
X195024Y184520D01*
Y186320D01*
X194335Y187983D01*
X193063Y189255D01*
X191400Y189944D01*
D02*
G37*
G36*
X285663Y189653D02*
X283863D01*
X282200Y188964D01*
X280928Y187692D01*
X280239Y186029D01*
Y184229D01*
X280928Y182566D01*
X282200Y181294D01*
X283863Y180605D01*
X285663D01*
X287326Y181294D01*
X288598Y182566D01*
X289287Y184229D01*
Y186029D01*
X288598Y187692D01*
X287326Y188964D01*
X285663Y189653D01*
D02*
G37*
G36*
X140600Y187404D02*
X138800D01*
X137137Y186715D01*
X135865Y185443D01*
X135176Y183780D01*
Y181980D01*
X135865Y180317D01*
X137137Y179045D01*
X138800Y178356D01*
X140600D01*
X142263Y179045D01*
X143535Y180317D01*
X144224Y181980D01*
Y183780D01*
X143535Y185443D01*
X142263Y186715D01*
X140600Y187404D01*
D02*
G37*
G36*
X877200Y184864D02*
X875400D01*
X873737Y184175D01*
X872465Y182903D01*
X871776Y181240D01*
Y179440D01*
X872465Y177777D01*
X873737Y176505D01*
X875400Y175816D01*
X877200D01*
X878863Y176505D01*
X880135Y177777D01*
X880824Y179440D01*
Y181240D01*
X880135Y182903D01*
X878863Y184175D01*
X877200Y184864D01*
D02*
G37*
G36*
X374280Y174704D02*
X372480D01*
X370817Y174015D01*
X369545Y172743D01*
X368856Y171080D01*
Y169280D01*
X369545Y167617D01*
X370817Y166345D01*
X372480Y165656D01*
X374280D01*
X375943Y166345D01*
X377215Y167617D01*
X377904Y169280D01*
Y171080D01*
X377215Y172743D01*
X375943Y174015D01*
X374280Y174704D01*
D02*
G37*
G36*
X971371Y177714D02*
X968629D01*
X965980Y177004D01*
X963606Y175633D01*
X961667Y173694D01*
X960296Y171320D01*
X959586Y168671D01*
Y165929D01*
X960296Y163280D01*
X961667Y160906D01*
X963606Y158967D01*
X965980Y157596D01*
X968629Y156886D01*
X971371D01*
X974020Y157596D01*
X976394Y158967D01*
X978333Y160906D01*
X979704Y163280D01*
X980414Y165929D01*
Y168671D01*
X979704Y171320D01*
X978333Y173694D01*
X976394Y175633D01*
X974020Y177004D01*
X971371Y177714D01*
D02*
G37*
G36*
X980414Y152314D02*
X959586D01*
Y131486D01*
X980414D01*
Y152314D01*
D02*
G37*
G36*
X206640Y136604D02*
X204840D01*
X203177Y135915D01*
X201905Y134643D01*
X201216Y132980D01*
Y131180D01*
X201905Y129517D01*
X203177Y128245D01*
X204840Y127556D01*
X206640D01*
X208303Y128245D01*
X209575Y129517D01*
X210264Y131180D01*
Y132980D01*
X209575Y134643D01*
X208303Y135915D01*
X206640Y136604D01*
D02*
G37*
G36*
X689240Y131524D02*
X687440D01*
X685777Y130835D01*
X684505Y129563D01*
X683816Y127900D01*
Y126100D01*
X684505Y124437D01*
X685777Y123165D01*
X687440Y122476D01*
X689240D01*
X690903Y123165D01*
X692175Y124437D01*
X692864Y126100D01*
Y127900D01*
X692175Y129563D01*
X690903Y130835D01*
X689240Y131524D01*
D02*
G37*
G36*
X240516Y102474D02*
X238716D01*
X237053Y101785D01*
X235781Y100513D01*
X235092Y98850D01*
Y97050D01*
X235781Y95387D01*
X237053Y94115D01*
X238716Y93426D01*
X240516D01*
X242179Y94115D01*
X243451Y95387D01*
X244140Y97050D01*
Y98850D01*
X243451Y100513D01*
X242179Y101785D01*
X240516Y102474D01*
D02*
G37*
G36*
X798460Y101044D02*
X796660D01*
X794997Y100355D01*
X793725Y99083D01*
X793036Y97420D01*
Y95620D01*
X793725Y93957D01*
X794997Y92685D01*
X796660Y91996D01*
X798460D01*
X800123Y92685D01*
X801395Y93957D01*
X802084Y95620D01*
Y97420D01*
X801395Y99083D01*
X800123Y100355D01*
X798460Y101044D01*
D02*
G37*
G36*
X680720Y89984D02*
X678920D01*
X677257Y89295D01*
X675985Y88023D01*
X675296Y86360D01*
Y84560D01*
X675985Y82897D01*
X677257Y81625D01*
X678920Y80936D01*
X680720D01*
X682383Y81625D01*
X683655Y82897D01*
X684344Y84560D01*
Y86360D01*
X683655Y88023D01*
X682383Y89295D01*
X680720Y89984D01*
D02*
G37*
G36*
X506360Y101044D02*
X504560D01*
X502897Y100355D01*
X501625Y99083D01*
X500936Y97420D01*
Y95620D01*
X501328Y94674D01*
X500499Y93424D01*
X499480D01*
X497817Y92735D01*
X496545Y91463D01*
X495856Y89800D01*
Y88000D01*
X496545Y86337D01*
X497817Y85065D01*
X499480Y84376D01*
X500499D01*
X501328Y83126D01*
X500936Y82180D01*
Y80380D01*
X501625Y78717D01*
X502897Y77445D01*
X504560Y76756D01*
X506360D01*
X508023Y77445D01*
X509295Y78717D01*
X509984Y80380D01*
Y82180D01*
X509429Y83521D01*
X509826Y83886D01*
X511096Y83330D01*
Y82920D01*
X511785Y81257D01*
X513057Y79985D01*
X514720Y79296D01*
X516520D01*
X518183Y79985D01*
X519455Y81257D01*
X520144Y82920D01*
Y84720D01*
X519455Y86383D01*
X518183Y87655D01*
X516711Y88265D01*
X516668Y88532D01*
Y89268D01*
X516711Y89535D01*
X518183Y90145D01*
X519455Y91417D01*
X520144Y93080D01*
Y94880D01*
X519455Y96543D01*
X518183Y97815D01*
X516520Y98504D01*
X514720D01*
X513057Y97815D01*
X511785Y96543D01*
X511096Y94880D01*
Y94470D01*
X509826Y93913D01*
X509429Y94279D01*
X509984Y95620D01*
Y97420D01*
X509295Y99083D01*
X508023Y100355D01*
X506360Y101044D01*
D02*
G37*
G36*
X806080Y62944D02*
X804280D01*
X802617Y62255D01*
X801345Y60983D01*
X800656Y59320D01*
Y57520D01*
X801048Y56574D01*
X800219Y55324D01*
X799200D01*
X797537Y54635D01*
X796265Y53363D01*
X795576Y51700D01*
Y49900D01*
X796265Y48237D01*
X797537Y46965D01*
X799200Y46276D01*
X801000D01*
X802663Y46965D01*
X803935Y48237D01*
X804545Y49709D01*
X804812Y49752D01*
X805548D01*
X805815Y49709D01*
X806425Y48237D01*
X807697Y46965D01*
X809360Y46276D01*
X811160D01*
X812823Y46965D01*
X814095Y48237D01*
X814784Y49900D01*
Y51700D01*
X814095Y53363D01*
X812823Y54635D01*
X811160Y55324D01*
X810141D01*
X809312Y56574D01*
X809704Y57520D01*
Y59320D01*
X809015Y60983D01*
X807743Y62255D01*
X806080Y62944D01*
D02*
G37*
G36*
X709560Y65484D02*
X707760D01*
X706097Y64795D01*
X704825Y63523D01*
X704136Y61860D01*
Y60060D01*
X704825Y58397D01*
X706072Y57150D01*
X704825Y55903D01*
X704136Y54240D01*
Y52440D01*
X704825Y50777D01*
X706072Y49530D01*
X704825Y48283D01*
X704136Y46620D01*
Y44820D01*
X704825Y43157D01*
X706097Y41885D01*
X707760Y41196D01*
X709560D01*
X711223Y41885D01*
X712495Y43157D01*
X713184Y44820D01*
Y46620D01*
X712495Y48283D01*
X711248Y49530D01*
X712495Y50777D01*
X713184Y52440D01*
Y54240D01*
X712495Y55903D01*
X711248Y57150D01*
X712495Y58397D01*
X713184Y60060D01*
Y61860D01*
X712495Y63523D01*
X711223Y64795D01*
X709560Y65484D01*
D02*
G37*
%LPD*%
D118*
X970000Y479600D02*
D03*
Y454200D02*
D03*
Y555800D02*
D03*
Y505000D02*
D03*
Y530400D02*
D03*
D122*
X968820Y368400D02*
D03*
Y355700D02*
D03*
D123*
Y343000D02*
D03*
D130*
X56350Y140750D02*
D03*
D131*
Y204250D02*
D03*
D134*
X967500Y32500D02*
D03*
Y667500D02*
D03*
X32500D02*
D03*
Y32500D02*
D03*
D135*
X970000Y141900D02*
D03*
D136*
Y167300D02*
D03*
Y192700D02*
D03*
Y218100D02*
D03*
D137*
Y428800D02*
D03*
D138*
X59880Y465340D02*
D03*
Y592340D02*
D03*
D139*
X94180Y610140D02*
D03*
Y447540D02*
D03*
D140*
X103080Y564440D02*
D03*
Y544140D02*
D03*
Y523840D02*
D03*
Y503540D02*
D03*
X85280Y554240D02*
D03*
Y533940D02*
D03*
Y513640D02*
D03*
D141*
Y493340D02*
D03*
D142*
X607500Y650000D02*
D03*
X330000Y607500D02*
D03*
Y620000D02*
D03*
X345000Y677500D02*
D03*
X360000Y652500D02*
D03*
Y640000D02*
D03*
X727500Y532500D02*
D03*
X710000Y560000D02*
D03*
X722500Y592500D02*
D03*
X622500Y557500D02*
D03*
X638101Y573508D02*
D03*
X555000Y575000D02*
D03*
X565000Y582500D02*
D03*
X575000Y652500D02*
D03*
X517500Y640000D02*
D03*
X532500Y652500D02*
D03*
X570000Y622500D02*
D03*
X592500Y615000D02*
D03*
X600000Y622500D02*
D03*
X902500Y605000D02*
D03*
X930000D02*
D03*
X907500Y630000D02*
D03*
X895000Y652500D02*
D03*
X775000Y585000D02*
D03*
X752500Y602500D02*
D03*
X745000Y612500D02*
D03*
X755000Y642500D02*
D03*
X735000Y662500D02*
D03*
X915000Y455000D02*
D03*
X622500Y500000D02*
D03*
X607500Y515000D02*
D03*
X542500Y490000D02*
D03*
X562500Y472500D02*
D03*
X572500Y460000D02*
D03*
X582500Y450000D02*
D03*
X560000Y357500D02*
D03*
X555000Y380000D02*
D03*
X752500Y447500D02*
D03*
X760000Y455000D02*
D03*
X767500Y462500D02*
D03*
X792500Y332500D02*
D03*
X785000D02*
D03*
X777500D02*
D03*
X770000D02*
D03*
X835000Y342500D02*
D03*
X927500Y377500D02*
D03*
X957500Y302500D02*
D03*
X820000Y255000D02*
D03*
X835000Y260000D02*
D03*
X737500Y285000D02*
D03*
X752500Y280000D02*
D03*
X782500Y285000D02*
D03*
X750000Y230000D02*
D03*
X767500D02*
D03*
X780000D02*
D03*
X792500D02*
D03*
X907500Y205000D02*
D03*
X872500Y42500D02*
D03*
X882500Y57500D02*
D03*
X840000Y85000D02*
D03*
X837500Y107500D02*
D03*
X842500Y130000D02*
D03*
X690000Y62500D02*
D03*
X750000Y60000D02*
D03*
X722500Y112500D02*
D03*
X670000Y102500D02*
D03*
X115000Y140000D02*
D03*
X100000Y100000D02*
D03*
X65000Y80000D02*
D03*
X60000Y107500D02*
D03*
X565000D02*
D03*
X577500Y135000D02*
D03*
Y160000D02*
D03*
X582500Y277500D02*
D03*
Y295000D02*
D03*
X557500Y207500D02*
D03*
Y232500D02*
D03*
Y250000D02*
D03*
X480000Y222500D02*
D03*
X475000Y275000D02*
D03*
X435000Y282500D02*
D03*
X397500Y290000D02*
D03*
X377500D02*
D03*
X357500D02*
D03*
X260000Y260000D02*
D03*
Y247500D02*
D03*
X372500Y87500D02*
D03*
X325000Y112500D02*
D03*
Y122500D02*
D03*
Y135000D02*
D03*
Y145000D02*
D03*
X312500Y47500D02*
D03*
X292500Y50000D02*
D03*
X240000Y62500D02*
D03*
X272500Y52500D02*
D03*
X257500Y50000D02*
D03*
X225000D02*
D03*
X205000Y55000D02*
D03*
X137500Y37500D02*
D03*
Y47500D02*
D03*
X187500Y100000D02*
D03*
X180000Y105000D02*
D03*
X47500Y380000D02*
D03*
X90000Y372500D02*
D03*
X117500Y370000D02*
D03*
X150000D02*
D03*
X165000Y360000D02*
D03*
X132500D02*
D03*
X102500D02*
D03*
X48260Y281940D02*
D03*
X139700Y182880D02*
D03*
X190500Y185420D02*
D03*
X193040Y322580D02*
D03*
X165100Y302260D02*
D03*
X134620D02*
D03*
X101600D02*
D03*
X358140Y452120D02*
D03*
X876779Y408461D02*
D03*
X876300Y180340D02*
D03*
X688340Y127000D02*
D03*
X505460Y81280D02*
D03*
Y96520D02*
D03*
X500380Y88900D02*
D03*
X508000D02*
D03*
X515620Y83820D02*
D03*
Y93980D02*
D03*
X419100Y342900D02*
D03*
X373380Y170180D02*
D03*
X444500Y365760D02*
D03*
Y355600D02*
D03*
Y345440D02*
D03*
Y335280D02*
D03*
Y325120D02*
D03*
X452120Y320040D02*
D03*
Y330200D02*
D03*
Y340360D02*
D03*
Y350520D02*
D03*
Y360680D02*
D03*
Y370840D02*
D03*
X635000Y314960D02*
D03*
Y325120D02*
D03*
Y335280D02*
D03*
X708660Y60960D02*
D03*
Y45720D02*
D03*
Y53340D02*
D03*
X845820Y317500D02*
D03*
X505460Y396240D02*
D03*
X487680Y360680D02*
D03*
Y378460D02*
D03*
Y393700D02*
D03*
X299720Y624840D02*
D03*
X304800Y629920D02*
D03*
Y678180D02*
D03*
X287020Y650240D02*
D03*
X300000Y434620D02*
D03*
X861060Y368300D02*
D03*
X911860D02*
D03*
X914400Y429260D02*
D03*
X894080Y561340D02*
D03*
X744220Y568960D02*
D03*
X619760Y612140D02*
D03*
X612605Y598975D02*
D03*
X728980Y604520D02*
D03*
X940880Y312520D02*
D03*
X933060Y445380D02*
D03*
X866140Y596900D02*
D03*
X759460Y480990D02*
D03*
X599440Y457200D02*
D03*
X589280Y467360D02*
D03*
X449580Y627380D02*
D03*
Y617220D02*
D03*
X441960Y622300D02*
D03*
X406400D02*
D03*
X398780Y617220D02*
D03*
Y627380D02*
D03*
X551180Y508000D02*
D03*
X761535Y561805D02*
D03*
X581660Y576580D02*
D03*
X347150Y626550D02*
D03*
X718820Y416560D02*
D03*
X655320Y535940D02*
D03*
Y546100D02*
D03*
X886460Y518160D02*
D03*
X734060Y523240D02*
D03*
X726440Y429260D02*
D03*
X407004Y502713D02*
D03*
X431800Y502920D02*
D03*
X406932Y565415D02*
D03*
X432440Y564520D02*
D03*
X824040Y182980D02*
D03*
Y193140D02*
D03*
X831660Y188060D02*
D03*
Y198220D02*
D03*
X760540Y195680D02*
D03*
X792300Y273160D02*
D03*
X691960Y297280D02*
D03*
X712280Y332840D02*
D03*
X699580Y315060D02*
D03*
X805180Y58420D02*
D03*
X797560Y96520D02*
D03*
X679820Y85460D02*
D03*
X810260Y50800D02*
D03*
X800100D02*
D03*
X239616Y97950D02*
D03*
X205740Y132080D02*
D03*
X320040Y345440D02*
D03*
X259080Y210820D02*
D03*
Y203200D02*
D03*
X324040Y244920D02*
D03*
X203200Y200660D02*
D03*
X259080Y312420D02*
D03*
X289560Y307340D02*
D03*
X269240Y320040D02*
D03*
X281940Y302260D02*
D03*
X248920Y304800D02*
D03*
X218440Y375920D02*
D03*
X312420Y373380D02*
D03*
X302306Y209970D02*
D03*
X222230Y209778D02*
D03*
X218440Y307340D02*
D03*
X269240Y190500D02*
D03*
X233680Y309880D02*
D03*
X284763Y185129D02*
D03*
X244704Y187960D02*
D03*
X233116D02*
D03*
X405320Y237300D02*
D03*
X404940Y216980D02*
D03*
X309880Y292100D02*
D03*
Y281940D02*
D03*
M02*
