G04*
G04 #@! TF.GenerationSoftware,Altium Limited,Altium Designer,24.1.2 (44)*
G04*
G04 Layer_Color=32896*
%FSLAX44Y44*%
%MOMM*%
G71*
G04*
G04 #@! TF.SameCoordinates,BB806972-894B-4990-B732-A97902CF1386*
G04*
G04*
G04 #@! TF.FilePolarity,Positive*
G04*
G01*
G75*
%ADD14C,0.2540*%
%ADD18C,0.2032*%
D14*
X907516Y231816D02*
X986256D01*
X907500Y206416D02*
X986256D01*
X907500Y181016D02*
X986256D01*
X955776Y130000D02*
Y231816D01*
X907516Y130216D02*
X986256D01*
Y130000D02*
Y231816D01*
X907516Y155616D02*
X986256D01*
X907516Y130000D02*
Y231816D01*
Y417116D02*
Y569516D01*
Y493316D02*
X986256D01*
Y417116D02*
Y569516D01*
X907516Y417116D02*
X986256D01*
X907516Y442516D02*
X986256D01*
X907516Y467916D02*
X986256D01*
X955776Y417500D02*
Y569516D01*
X907500Y518716D02*
X986256D01*
X910056Y544116D02*
X986256D01*
X907516Y569516D02*
X986256D01*
X681077Y390994D02*
Y400305D01*
X676422Y404960D01*
X671767Y400305D01*
Y390994D01*
Y397977D01*
X681077D01*
X667112Y390994D02*
Y400305D01*
X662457Y404960D01*
X657801Y400305D01*
Y390994D01*
Y397977D01*
X667112D01*
X653146D02*
X643836D01*
X639181Y404960D02*
Y390994D01*
X632198D01*
X629870Y393322D01*
Y402632D01*
X632198Y404960D01*
X639181D01*
X615905D02*
X625215D01*
Y390994D01*
X615905D01*
X625215Y397977D02*
X620560D01*
X601939Y402632D02*
X604267Y404960D01*
X608922D01*
X611250Y402632D01*
Y400305D01*
X608922Y397977D01*
X604267D01*
X601939Y395650D01*
Y393322D01*
X604267Y390994D01*
X608922D01*
X611250Y393322D01*
X597284Y404960D02*
X592629D01*
X594957D01*
Y390994D01*
X597284D01*
X592629D01*
X576336Y402632D02*
X578664Y404960D01*
X583319D01*
X585646Y402632D01*
Y393322D01*
X583319Y390994D01*
X578664D01*
X576336Y393322D01*
Y397977D01*
X580991D01*
X571681Y390994D02*
Y404960D01*
X562370Y390994D01*
Y404960D01*
X557715Y397977D02*
X548405D01*
X534440Y402632D02*
X536767Y404960D01*
X541422D01*
X543750Y402632D01*
Y393322D01*
X541422Y390994D01*
X536767D01*
X534440Y393322D01*
X529784Y404960D02*
Y390994D01*
Y397977D01*
X520474D01*
Y404960D01*
Y390994D01*
X515819D02*
Y400305D01*
X511164Y404960D01*
X506509Y400305D01*
Y390994D01*
Y397977D01*
X515819D01*
X501853Y404960D02*
Y390994D01*
X492543D01*
X487888Y404960D02*
Y390994D01*
X478578D01*
X464612Y404960D02*
X473923D01*
Y390994D01*
X464612D01*
X473923Y397977D02*
X469267D01*
X459957Y390994D02*
Y404960D01*
X450647Y390994D01*
Y404960D01*
X436681Y402632D02*
X439009Y404960D01*
X443664D01*
X445992Y402632D01*
Y393322D01*
X443664Y390994D01*
X439009D01*
X436681Y393322D01*
Y397977D01*
X441336D01*
X422716Y404960D02*
X432026D01*
Y390994D01*
X422716D01*
X432026Y397977D02*
X427371D01*
X404095Y404960D02*
Y390994D01*
X397112D01*
X394785Y393322D01*
Y395650D01*
X397112Y397977D01*
X404095D01*
X397112D01*
X394785Y400305D01*
Y402632D01*
X397112Y404960D01*
X404095D01*
X383147D02*
X387802D01*
X390130Y402632D01*
Y393322D01*
X387802Y390994D01*
X383147D01*
X380819Y393322D01*
Y402632D01*
X383147Y404960D01*
X376164Y390994D02*
Y400305D01*
X371509Y404960D01*
X366854Y400305D01*
Y390994D01*
Y397977D01*
X376164D01*
X362199Y390994D02*
Y404960D01*
X355216D01*
X352888Y402632D01*
Y397977D01*
X355216Y395650D01*
X362199D01*
X357543D02*
X352888Y390994D01*
X348233Y404960D02*
Y390994D01*
X341250D01*
X338923Y393322D01*
Y402632D01*
X341250Y404960D01*
X348233D01*
X655474Y368140D02*
Y382105D01*
X650819Y377450D01*
X646163Y382105D01*
Y368140D01*
X641508Y377450D02*
Y370467D01*
X639181Y368140D01*
X632198D01*
Y377450D01*
X627543Y382105D02*
Y368140D01*
Y375123D01*
X625215Y377450D01*
X620560D01*
X618232Y375123D01*
Y368140D01*
X611250Y377450D02*
X606595D01*
X604267Y375123D01*
Y368140D01*
X611250D01*
X613577Y370467D01*
X611250Y372795D01*
X604267D01*
X599612Y368140D02*
Y377450D01*
X597284D01*
X594957Y375123D01*
Y368140D01*
Y375123D01*
X592629Y377450D01*
X590302Y375123D01*
Y368140D01*
X585646D02*
Y377450D01*
X583319D01*
X580991Y375123D01*
Y368140D01*
Y375123D01*
X578664Y377450D01*
X576336Y375123D01*
Y368140D01*
X569353Y377450D02*
X564698D01*
X562370Y375123D01*
Y368140D01*
X569353D01*
X571681Y370467D01*
X569353Y372795D01*
X562370D01*
X548405Y382105D02*
Y368140D01*
X555388D01*
X557715Y370467D01*
Y375123D01*
X555388Y377450D01*
X548405D01*
X520474Y379778D02*
X522802Y382105D01*
X527457D01*
X529784Y379778D01*
Y377450D01*
X527457Y375123D01*
X522802D01*
X520474Y372795D01*
Y370467D01*
X522802Y368140D01*
X527457D01*
X529784Y370467D01*
X513491Y377450D02*
X508836D01*
X506509Y375123D01*
Y368140D01*
X513491D01*
X515819Y370467D01*
X513491Y372795D01*
X506509D01*
X501853Y368140D02*
X497198D01*
X499526D01*
Y377450D01*
X501853D01*
X487888Y368140D02*
Y379778D01*
Y375123D01*
X490216D01*
X485560D01*
X487888D01*
Y379778D01*
X485560Y382105D01*
X464612D02*
Y370467D01*
X462285Y368140D01*
X457629D01*
X455302Y370467D01*
Y382105D01*
X450647Y368140D02*
X445992D01*
X448319D01*
Y382105D01*
X450647D01*
X425043D02*
X420388D01*
X422716D01*
Y368140D01*
X425043D01*
X420388D01*
X413405D02*
X406423D01*
X404095Y370467D01*
X406423Y372795D01*
X411078D01*
X413405Y375123D01*
X411078Y377450D01*
X404095D01*
X399440Y368140D02*
X394785D01*
X397112D01*
Y382105D01*
X399440D01*
X385475Y377450D02*
X380819D01*
X378492Y375123D01*
Y368140D01*
X385475D01*
X387802Y370467D01*
X385475Y372795D01*
X378492D01*
X373837Y368140D02*
Y377450D01*
X371509D01*
X369181Y375123D01*
Y368140D01*
Y375123D01*
X366854Y377450D01*
X364526Y375123D01*
Y368140D01*
X664784Y354596D02*
X655474D01*
X664784Y345285D01*
X655474D01*
X650819Y356923D02*
X648491Y359251D01*
X643836D01*
X641508Y356923D01*
Y354596D01*
X643836Y352268D01*
X646163D01*
X643836D01*
X641508Y349940D01*
Y347613D01*
X643836Y345285D01*
X648491D01*
X650819Y347613D01*
X627543Y359251D02*
X636853D01*
Y352268D01*
X632198Y354596D01*
X629870D01*
X627543Y352268D01*
Y347613D01*
X629870Y345285D01*
X634525D01*
X636853Y347613D01*
X622888Y356923D02*
X620560Y359251D01*
X615905D01*
X613577Y356923D01*
Y354596D01*
X615905Y352268D01*
X618232D01*
X615905D01*
X613577Y349940D01*
Y347613D01*
X615905Y345285D01*
X620560D01*
X622888Y347613D01*
X608922Y359251D02*
X599612D01*
Y356923D01*
X608922Y347613D01*
Y345285D01*
X594957Y356923D02*
X592629Y359251D01*
X587974D01*
X585646Y356923D01*
Y354596D01*
X587974Y352268D01*
X590302D01*
X587974D01*
X585646Y349940D01*
Y347613D01*
X587974Y345285D01*
X592629D01*
X594957Y347613D01*
X580991Y356923D02*
X578664Y359251D01*
X574008D01*
X571681Y356923D01*
Y354596D01*
X574008Y352268D01*
X571681Y349940D01*
Y347613D01*
X574008Y345285D01*
X578664D01*
X580991Y347613D01*
Y349940D01*
X578664Y352268D01*
X580991Y354596D01*
Y356923D01*
X578664Y352268D02*
X574008D01*
X560043Y345285D02*
Y359251D01*
X567026Y352268D01*
X557715D01*
X546077Y349940D02*
Y352268D01*
X548405D01*
Y349940D01*
X546077D01*
X543750Y352268D01*
Y356923D01*
X546077Y359251D01*
X550733D01*
X553060Y356923D01*
Y347613D01*
X550733Y345285D01*
X543750D01*
X536767Y354596D02*
X532112D01*
X529784Y352268D01*
Y345285D01*
X536767D01*
X539095Y347613D01*
X536767Y349940D01*
X529784D01*
X515819Y359251D02*
Y345285D01*
X522802D01*
X525129Y347613D01*
Y352268D01*
X522802Y354596D01*
X515819D01*
X511164Y345285D02*
Y347613D01*
X508836D01*
Y345285D01*
X511164D01*
X499526Y354596D02*
Y347613D01*
X497198Y345285D01*
X490216D01*
Y354596D01*
X485560Y345285D02*
Y354596D01*
X478578D01*
X476250Y352268D01*
Y345285D01*
X471595D02*
X464612D01*
X462285Y347613D01*
X464612Y349940D01*
X469267D01*
X471595Y352268D01*
X469267Y354596D01*
X462285D01*
X457629D02*
Y347613D01*
X455302Y345285D01*
X452974Y347613D01*
X450647Y345285D01*
X448319Y347613D01*
Y354596D01*
X443664Y345285D02*
Y347613D01*
X441336D01*
Y345285D01*
X443664D01*
X425043D02*
X429698D01*
X432026Y347613D01*
Y352268D01*
X429698Y354596D01*
X425043D01*
X422716Y352268D01*
Y349940D01*
X432026D01*
X408750Y359251D02*
Y345285D01*
X415733D01*
X418061Y347613D01*
Y352268D01*
X415733Y354596D01*
X408750D01*
X404095D02*
Y347613D01*
X401768Y345285D01*
X394785D01*
Y354596D01*
X390130Y345285D02*
Y347613D01*
X387802D01*
Y345285D01*
X390130D01*
X376164Y354596D02*
X371509D01*
X369181Y352268D01*
Y345285D01*
X376164D01*
X378492Y347613D01*
X376164Y349940D01*
X369181D01*
X364526Y354596D02*
Y347613D01*
X362199Y345285D01*
X355216D01*
Y354596D01*
X540258Y336396D02*
X544914D01*
X542586D01*
Y324758D01*
X544914Y322431D01*
X547241D01*
X549569Y324758D01*
X535603Y322431D02*
Y331741D01*
X530948Y336396D01*
X526293Y331741D01*
Y322431D01*
Y329414D01*
X535603D01*
X521638Y322431D02*
Y336396D01*
X512328Y322431D01*
Y336396D01*
X484397Y322431D02*
X493707D01*
X484397Y331741D01*
Y334069D01*
X486724Y336396D01*
X491379D01*
X493707Y334069D01*
X472759Y322431D02*
Y336396D01*
X479742Y329414D01*
X470431D01*
D18*
X939518Y221400D02*
X940788Y222670D01*
X943327D01*
X944597Y221400D01*
Y216322D01*
X943327Y215052D01*
X940788D01*
X939518Y216322D01*
Y218861D01*
X942057D01*
X936979Y215052D02*
Y222670D01*
X931901Y215052D01*
Y222670D01*
X929362D02*
Y215052D01*
X925553D01*
X924283Y216322D01*
Y221400D01*
X925553Y222670D01*
X929362D01*
X950274Y189532D02*
Y197150D01*
X947735Y194610D01*
X945196Y197150D01*
Y189532D01*
X938848Y197150D02*
X941387D01*
X942657Y195880D01*
Y190802D01*
X941387Y189532D01*
X938848D01*
X937578Y190802D01*
Y195880D01*
X938848Y197150D01*
X935039D02*
X929961D01*
X932500D01*
Y189532D01*
X923613Y197150D02*
X926152D01*
X927422Y195880D01*
Y190802D01*
X926152Y189532D01*
X923613D01*
X922343Y190802D01*
Y195880D01*
X923613Y197150D01*
X919804Y189532D02*
Y197150D01*
X915995D01*
X914726Y195880D01*
Y193341D01*
X915995Y192071D01*
X919804D01*
X917265D02*
X914726Y189532D01*
X944597Y164252D02*
Y171870D01*
X940788D01*
X939518Y170600D01*
Y168061D01*
X940788Y166791D01*
X944597D01*
X936979Y171870D02*
Y164252D01*
X934440Y166791D01*
X931901Y164252D01*
Y171870D01*
X929362Y164252D02*
Y171870D01*
X926822Y169330D01*
X924283Y171870D01*
Y164252D01*
X944597Y142661D02*
X939518D01*
X942057Y145200D02*
Y140122D01*
X931901Y146469D02*
X936979D01*
Y142661D01*
X934440Y143930D01*
X933170D01*
X931901Y142661D01*
Y140122D01*
X933170Y138852D01*
X935710D01*
X936979Y140122D01*
X929362Y146469D02*
Y141391D01*
X926822Y138852D01*
X924283Y141391D01*
Y146469D01*
X948406Y425752D02*
Y433369D01*
X945866Y430830D01*
X943327Y433369D01*
Y425752D01*
X935710Y432100D02*
X936979Y433369D01*
X939518D01*
X940788Y432100D01*
Y427022D01*
X939518Y425752D01*
X936979D01*
X935710Y427022D01*
X933170Y433369D02*
Y425752D01*
X928092D01*
X925553D02*
Y433369D01*
X921744D01*
X920474Y432100D01*
Y429561D01*
X921744Y428291D01*
X925553D01*
X923014D02*
X920474Y425752D01*
X948406Y457500D02*
X947136Y458769D01*
X944597D01*
X943327Y457500D01*
Y456230D01*
X944597Y454961D01*
X945866D01*
X944597D01*
X943327Y453691D01*
Y452422D01*
X944597Y451152D01*
X947136D01*
X948406Y452422D01*
X940788Y458769D02*
Y453691D01*
X938249Y451152D01*
X935710Y453691D01*
Y458769D01*
X933170Y457500D02*
X931901Y458769D01*
X929362D01*
X928092Y457500D01*
Y456230D01*
X929362Y454961D01*
X930631D01*
X929362D01*
X928092Y453691D01*
Y452422D01*
X929362Y451152D01*
X931901D01*
X933170Y452422D01*
X925553Y458769D02*
Y451152D01*
X921744D01*
X920474Y452422D01*
Y457500D01*
X921744Y458769D01*
X925553D01*
X939518Y482900D02*
X940788Y484170D01*
X943327D01*
X944597Y482900D01*
Y477822D01*
X943327Y476552D01*
X940788D01*
X939518Y477822D01*
Y480361D01*
X942057D01*
X936979Y476552D02*
Y484170D01*
X931901Y476552D01*
Y484170D01*
X929362D02*
Y476552D01*
X925553D01*
X924283Y477822D01*
Y482900D01*
X925553Y484170D01*
X929362D01*
X944597Y501952D02*
Y509570D01*
X940788D01*
X939518Y508300D01*
Y505761D01*
X940788Y504491D01*
X944597D01*
X931901Y508300D02*
X933170Y509570D01*
X935710D01*
X936979Y508300D01*
Y503222D01*
X935710Y501952D01*
X933170D01*
X931901Y503222D01*
Y505761D01*
X934440D01*
X929362Y509570D02*
Y501952D01*
X925553D01*
X924283Y503222D01*
Y508300D01*
X925553Y509570D01*
X929362D01*
X944597Y527352D02*
Y534969D01*
X940788D01*
X939518Y533700D01*
Y531161D01*
X940788Y529891D01*
X944597D01*
X931901Y533700D02*
X933170Y534969D01*
X935710D01*
X936979Y533700D01*
Y528622D01*
X935710Y527352D01*
X933170D01*
X931901Y528622D01*
Y531161D01*
X934440D01*
X924283Y533700D02*
X925553Y534969D01*
X928092D01*
X929362Y533700D01*
Y528622D01*
X928092Y527352D01*
X925553D01*
X924283Y528622D01*
X936979Y560369D02*
X931901Y552752D01*
Y560369D02*
X936979Y552752D01*
M02*
