G04*
G04 #@! TF.GenerationSoftware,Altium Limited,Altium Designer,24.1.2 (44)*
G04*
G04 Layer_Physical_Order=1*
G04 Layer_Color=255*
%FSLAX44Y44*%
%MOMM*%
G71*
G04*
G04 #@! TF.SameCoordinates,BB806972-894B-4990-B732-A97902CF1386*
G04*
G04*
G04 #@! TF.FilePolarity,Positive*
G04*
G01*
G75*
%ADD10C,0.1524*%
%ADD14C,0.2540*%
%ADD18C,0.2032*%
%ADD22R,1.2000X0.6000*%
G04:AMPARAMS|DCode=23|XSize=1.3mm|YSize=1.6mm|CornerRadius=0.1625mm|HoleSize=0mm|Usage=FLASHONLY|Rotation=270.000|XOffset=0mm|YOffset=0mm|HoleType=Round|Shape=RoundedRectangle|*
%AMROUNDEDRECTD23*
21,1,1.3000,1.2750,0,0,270.0*
21,1,0.9750,1.6000,0,0,270.0*
1,1,0.3250,-0.6375,-0.4875*
1,1,0.3250,-0.6375,0.4875*
1,1,0.3250,0.6375,0.4875*
1,1,0.3250,0.6375,-0.4875*
%
%ADD23ROUNDEDRECTD23*%
%ADD24R,0.9398X0.6604*%
G04:AMPARAMS|DCode=25|XSize=0.59mm|YSize=0.64mm|CornerRadius=0.1505mm|HoleSize=0mm|Usage=FLASHONLY|Rotation=45.000|XOffset=0mm|YOffset=0mm|HoleType=Round|Shape=RoundedRectangle|*
%AMROUNDEDRECTD25*
21,1,0.5900,0.3391,0,0,45.0*
21,1,0.2891,0.6400,0,0,45.0*
1,1,0.3009,0.2221,-0.0177*
1,1,0.3009,0.0177,-0.2221*
1,1,0.3009,-0.2221,0.0177*
1,1,0.3009,-0.0177,0.2221*
%
%ADD25ROUNDEDRECTD25*%
G04:AMPARAMS|DCode=26|XSize=0.5mm|YSize=0.6mm|CornerRadius=0.13mm|HoleSize=0mm|Usage=FLASHONLY|Rotation=225.000|XOffset=0mm|YOffset=0mm|HoleType=Round|Shape=RoundedRectangle|*
%AMROUNDEDRECTD26*
21,1,0.5000,0.3400,0,0,225.0*
21,1,0.2400,0.6000,0,0,225.0*
1,1,0.2600,-0.2051,0.0354*
1,1,0.2600,-0.0354,0.2051*
1,1,0.2600,0.2051,-0.0354*
1,1,0.2600,0.0354,-0.2051*
%
%ADD26ROUNDEDRECTD26*%
%ADD27R,0.7000X0.9000*%
G04:AMPARAMS|DCode=28|XSize=0.97mm|YSize=1.42mm|CornerRadius=0.2377mm|HoleSize=0mm|Usage=FLASHONLY|Rotation=180.000|XOffset=0mm|YOffset=0mm|HoleType=Round|Shape=RoundedRectangle|*
%AMROUNDEDRECTD28*
21,1,0.9700,0.9447,0,0,180.0*
21,1,0.4947,1.4200,0,0,180.0*
1,1,0.4753,-0.2474,0.4723*
1,1,0.4753,0.2474,0.4723*
1,1,0.4753,0.2474,-0.4723*
1,1,0.4753,-0.2474,-0.4723*
%
%ADD28ROUNDEDRECTD28*%
%ADD29R,2.8100X1.3700*%
%ADD30R,1.6510X0.7620*%
G04:AMPARAMS|DCode=31|XSize=0.254mm|YSize=0.254mm|CornerRadius=0.0635mm|HoleSize=0mm|Usage=FLASHONLY|Rotation=0.000|XOffset=0mm|YOffset=0mm|HoleType=Round|Shape=RoundedRectangle|*
%AMROUNDEDRECTD31*
21,1,0.2540,0.1270,0,0,0.0*
21,1,0.1270,0.2540,0,0,0.0*
1,1,0.1270,0.0635,-0.0635*
1,1,0.1270,-0.0635,-0.0635*
1,1,0.1270,-0.0635,0.0635*
1,1,0.1270,0.0635,0.0635*
%
%ADD31ROUNDEDRECTD31*%
%ADD32R,0.3000X0.4500*%
%ADD33R,0.4500X0.3000*%
%ADD34R,1.5260X0.7000*%
G04:AMPARAMS|DCode=35|XSize=0.5mm|YSize=0.6mm|CornerRadius=0.13mm|HoleSize=0mm|Usage=FLASHONLY|Rotation=90.000|XOffset=0mm|YOffset=0mm|HoleType=Round|Shape=RoundedRectangle|*
%AMROUNDEDRECTD35*
21,1,0.5000,0.3400,0,0,90.0*
21,1,0.2400,0.6000,0,0,90.0*
1,1,0.2600,0.1700,0.1200*
1,1,0.2600,0.1700,-0.1200*
1,1,0.2600,-0.1700,-0.1200*
1,1,0.2600,-0.1700,0.1200*
%
%ADD35ROUNDEDRECTD35*%
G04:AMPARAMS|DCode=36|XSize=0.59mm|YSize=0.64mm|CornerRadius=0.1505mm|HoleSize=0mm|Usage=FLASHONLY|Rotation=0.000|XOffset=0mm|YOffset=0mm|HoleType=Round|Shape=RoundedRectangle|*
%AMROUNDEDRECTD36*
21,1,0.5900,0.3391,0,0,0.0*
21,1,0.2891,0.6400,0,0,0.0*
1,1,0.3009,0.1446,-0.1696*
1,1,0.3009,-0.1446,-0.1696*
1,1,0.3009,-0.1446,0.1696*
1,1,0.3009,0.1446,0.1696*
%
%ADD36ROUNDEDRECTD36*%
G04:AMPARAMS|DCode=37|XSize=0.5mm|YSize=0.6mm|CornerRadius=0.13mm|HoleSize=0mm|Usage=FLASHONLY|Rotation=0.000|XOffset=0mm|YOffset=0mm|HoleType=Round|Shape=RoundedRectangle|*
%AMROUNDEDRECTD37*
21,1,0.5000,0.3400,0,0,0.0*
21,1,0.2400,0.6000,0,0,0.0*
1,1,0.2600,0.1200,-0.1700*
1,1,0.2600,-0.1200,-0.1700*
1,1,0.2600,-0.1200,0.1700*
1,1,0.2600,0.1200,0.1700*
%
%ADD37ROUNDEDRECTD37*%
%ADD38R,1.5200X3.5100*%
%ADD39R,2.4000X3.3000*%
%ADD40R,1.5000X0.6500*%
%ADD41R,3.0988X2.5654*%
G04:AMPARAMS|DCode=42|XSize=0.54mm|YSize=0.6mm|CornerRadius=0.1404mm|HoleSize=0mm|Usage=FLASHONLY|Rotation=180.000|XOffset=0mm|YOffset=0mm|HoleType=Round|Shape=RoundedRectangle|*
%AMROUNDEDRECTD42*
21,1,0.5400,0.3192,0,0,180.0*
21,1,0.2592,0.6000,0,0,180.0*
1,1,0.2808,-0.1296,0.1596*
1,1,0.2808,0.1296,0.1596*
1,1,0.2808,0.1296,-0.1596*
1,1,0.2808,-0.1296,-0.1596*
%
%ADD42ROUNDEDRECTD42*%
%ADD43C,1.0000*%
G04:AMPARAMS|DCode=44|XSize=1.16mm|YSize=1.82mm|CornerRadius=0.2494mm|HoleSize=0mm|Usage=FLASHONLY|Rotation=270.000|XOffset=0mm|YOffset=0mm|HoleType=Round|Shape=RoundedRectangle|*
%AMROUNDEDRECTD44*
21,1,1.1600,1.3212,0,0,270.0*
21,1,0.6612,1.8200,0,0,270.0*
1,1,0.4988,-0.6606,-0.3306*
1,1,0.4988,-0.6606,0.3306*
1,1,0.4988,0.6606,0.3306*
1,1,0.4988,0.6606,-0.3306*
%
%ADD44ROUNDEDRECTD44*%
G04:AMPARAMS|DCode=45|XSize=0.59mm|YSize=0.64mm|CornerRadius=0.1505mm|HoleSize=0mm|Usage=FLASHONLY|Rotation=90.000|XOffset=0mm|YOffset=0mm|HoleType=Round|Shape=RoundedRectangle|*
%AMROUNDEDRECTD45*
21,1,0.5900,0.3391,0,0,90.0*
21,1,0.2891,0.6400,0,0,90.0*
1,1,0.3009,0.1696,0.1446*
1,1,0.3009,0.1696,-0.1446*
1,1,0.3009,-0.1696,-0.1446*
1,1,0.3009,-0.1696,0.1446*
%
%ADD45ROUNDEDRECTD45*%
G04:AMPARAMS|DCode=46|XSize=0.54mm|YSize=0.6mm|CornerRadius=0.1404mm|HoleSize=0mm|Usage=FLASHONLY|Rotation=270.000|XOffset=0mm|YOffset=0mm|HoleType=Round|Shape=RoundedRectangle|*
%AMROUNDEDRECTD46*
21,1,0.5400,0.3192,0,0,270.0*
21,1,0.2592,0.6000,0,0,270.0*
1,1,0.2808,-0.1596,-0.1296*
1,1,0.2808,-0.1596,0.1296*
1,1,0.2808,0.1596,0.1296*
1,1,0.2808,0.1596,-0.1296*
%
%ADD46ROUNDEDRECTD46*%
%ADD47R,0.8500X0.3000*%
G04:AMPARAMS|DCode=48|XSize=1.16mm|YSize=1.47mm|CornerRadius=0.2494mm|HoleSize=0mm|Usage=FLASHONLY|Rotation=0.000|XOffset=0mm|YOffset=0mm|HoleType=Round|Shape=RoundedRectangle|*
%AMROUNDEDRECTD48*
21,1,1.1600,0.9712,0,0,0.0*
21,1,0.6612,1.4700,0,0,0.0*
1,1,0.4988,0.3306,-0.4856*
1,1,0.4988,-0.3306,-0.4856*
1,1,0.4988,-0.3306,0.4856*
1,1,0.4988,0.3306,0.4856*
%
%ADD48ROUNDEDRECTD48*%
%ADD49R,1.5000X4.0000*%
%ADD50R,0.9100X1.2200*%
G04:AMPARAMS|DCode=51|XSize=0.24mm|YSize=1.47mm|CornerRadius=0.048mm|HoleSize=0mm|Usage=FLASHONLY|Rotation=225.000|XOffset=0mm|YOffset=0mm|HoleType=Round|Shape=RoundedRectangle|*
%AMROUNDEDRECTD51*
21,1,0.2400,1.3740,0,0,225.0*
21,1,0.1440,1.4700,0,0,225.0*
1,1,0.0960,-0.5367,0.4349*
1,1,0.0960,-0.4349,0.5367*
1,1,0.0960,0.5367,-0.4349*
1,1,0.0960,0.4349,-0.5367*
%
%ADD51ROUNDEDRECTD51*%
G04:AMPARAMS|DCode=52|XSize=0.24mm|YSize=1.47mm|CornerRadius=0.048mm|HoleSize=0mm|Usage=FLASHONLY|Rotation=315.000|XOffset=0mm|YOffset=0mm|HoleType=Round|Shape=RoundedRectangle|*
%AMROUNDEDRECTD52*
21,1,0.2400,1.3740,0,0,315.0*
21,1,0.1440,1.4700,0,0,315.0*
1,1,0.0960,-0.4349,-0.5367*
1,1,0.0960,-0.5367,-0.4349*
1,1,0.0960,0.4349,0.5367*
1,1,0.0960,0.5367,0.4349*
%
%ADD52ROUNDEDRECTD52*%
%ADD53R,0.8000X1.7000*%
%ADD54R,0.8000X1.1000*%
G04:AMPARAMS|DCode=55|XSize=0.59mm|YSize=0.64mm|CornerRadius=0.1505mm|HoleSize=0mm|Usage=FLASHONLY|Rotation=135.000|XOffset=0mm|YOffset=0mm|HoleType=Round|Shape=RoundedRectangle|*
%AMROUNDEDRECTD55*
21,1,0.5900,0.3391,0,0,135.0*
21,1,0.2891,0.6400,0,0,135.0*
1,1,0.3009,0.0177,0.2221*
1,1,0.3009,0.2221,0.0177*
1,1,0.3009,-0.0177,-0.2221*
1,1,0.3009,-0.2221,-0.0177*
%
%ADD55ROUNDEDRECTD55*%
%ADD56R,1.3000X1.1000*%
G04:AMPARAMS|DCode=57|XSize=1.1mm|YSize=1.9mm|CornerRadius=0mm|HoleSize=0mm|Usage=FLASHONLY|Rotation=315.000|XOffset=0mm|YOffset=0mm|HoleType=Round|Shape=Rectangle|*
%AMROTATEDRECTD57*
4,1,4,-1.0607,-0.2828,0.2828,1.0607,1.0607,0.2828,-0.2828,-1.0607,-1.0607,-0.2828,0.0*
%
%ADD57ROTATEDRECTD57*%

%ADD58R,1.8000X1.1500*%
%ADD59R,2.5000X3.8000*%
%ADD60R,2.3000X3.4000*%
%ADD61R,2.3000X7.9000*%
%ADD62R,1.1500X1.8000*%
%ADD63R,1.0922X1.0160*%
G04:AMPARAMS|DCode=64|XSize=1.16mm|YSize=1.47mm|CornerRadius=0.2494mm|HoleSize=0mm|Usage=FLASHONLY|Rotation=270.000|XOffset=0mm|YOffset=0mm|HoleType=Round|Shape=RoundedRectangle|*
%AMROUNDEDRECTD64*
21,1,1.1600,0.9712,0,0,270.0*
21,1,0.6612,1.4700,0,0,270.0*
1,1,0.4988,-0.4856,-0.3306*
1,1,0.4988,-0.4856,0.3306*
1,1,0.4988,0.4856,0.3306*
1,1,0.4988,0.4856,-0.3306*
%
%ADD64ROUNDEDRECTD64*%
%ADD65R,2.3500X3.4900*%
%ADD66R,0.4000X0.3800*%
G04:AMPARAMS|DCode=67|XSize=1.25mm|YSize=1.16mm|CornerRadius=0.145mm|HoleSize=0mm|Usage=FLASHONLY|Rotation=90.000|XOffset=0mm|YOffset=0mm|HoleType=Round|Shape=RoundedRectangle|*
%AMROUNDEDRECTD67*
21,1,1.2500,0.8700,0,0,90.0*
21,1,0.9600,1.1600,0,0,90.0*
1,1,0.2900,0.4350,0.4800*
1,1,0.2900,0.4350,-0.4800*
1,1,0.2900,-0.4350,-0.4800*
1,1,0.2900,-0.4350,0.4800*
%
%ADD67ROUNDEDRECTD67*%
%ADD68R,1.6000X3.2000*%
%ADD69R,0.4500X1.5000*%
%ADD70R,1.0160X1.0922*%
%ADD78R,0.9500X1.0000*%
%ADD79R,0.3000X0.7500*%
%ADD80R,1.0000X0.9500*%
%ADD81R,0.7500X0.3000*%
%ADD116R,9.7000X3.4000*%
%ADD118C,1.5000*%
%ADD122O,1.5240X1.0160*%
%ADD123R,1.5240X1.0160*%
%ADD130C,2.7300*%
%ADD131R,2.7300X2.7300*%
%ADD132C,0.2278*%
%ADD133C,0.5080*%
%ADD134C,5.5000*%
%ADD135R,1.7780X1.7780*%
%ADD136C,1.7780*%
%ADD137R,1.5000X1.5000*%
%ADD138C,3.2500*%
%ADD139C,2.3550*%
%ADD140C,1.3980*%
%ADD141R,1.3980X1.3980*%
%ADD142C,0.6000*%
G36*
X412310Y498480D02*
X401320D01*
Y507634D01*
X412310D01*
Y498480D01*
D02*
G37*
G36*
X424503Y510142D02*
X425384Y509553D01*
X426423Y509347D01*
X429055D01*
Y507896D01*
X444103D01*
Y509705D01*
X455057D01*
Y507896D01*
X466265D01*
X467448Y506714D01*
X468249Y506179D01*
X468624Y505803D01*
X468736Y505243D01*
X469324Y504362D01*
X469899Y503787D01*
X470574Y502920D01*
X469899Y502053D01*
X469324Y501478D01*
X468736Y500597D01*
X468624Y500037D01*
X468249Y499661D01*
X467448Y499126D01*
X466265Y497944D01*
X455057D01*
Y496135D01*
X444103D01*
Y497944D01*
X429055D01*
Y496135D01*
X424840D01*
X423801Y495928D01*
X422920Y495340D01*
X419776Y492195D01*
X405404D01*
X405056Y492716D01*
X404139Y493329D01*
X404122Y493425D01*
Y494535D01*
X404139Y494632D01*
X405056Y495244D01*
X405404Y495765D01*
X407980D01*
X408012Y495603D01*
X408681Y494601D01*
X409683Y493932D01*
X410864Y493697D01*
X413755D01*
X414937Y493932D01*
X415939Y494601D01*
X416608Y495603D01*
X416843Y496785D01*
Y500176D01*
X416608Y501357D01*
X415939Y502359D01*
X415043Y502958D01*
Y504162D01*
X415939Y504761D01*
X416608Y505763D01*
X416843Y506945D01*
Y510336D01*
X416608Y511517D01*
X416489Y511695D01*
X417168Y512965D01*
X421680D01*
X424503Y510142D01*
D02*
G37*
G36*
X961158Y695881D02*
X960704Y695809D01*
X956359Y694398D01*
X952288Y692324D01*
X948592Y689638D01*
X945362Y686408D01*
X942676Y682712D01*
X940602Y678641D01*
X939191Y674296D01*
X938476Y669784D01*
Y665216D01*
X939191Y660704D01*
X940602Y656359D01*
X942676Y652288D01*
X945362Y648592D01*
X948592Y645362D01*
X952288Y642676D01*
X956359Y640602D01*
X960704Y639191D01*
X965216Y638476D01*
X967151D01*
Y623200D01*
X964020Y620069D01*
X955550D01*
Y621944D01*
X955248Y623465D01*
X954386Y624756D01*
X953095Y625618D01*
X951573Y625920D01*
X946627D01*
X945105Y625618D01*
X943814Y624756D01*
X942952Y623465D01*
X942650Y621944D01*
Y612496D01*
X942952Y610975D01*
X943814Y609684D01*
X945105Y608822D01*
X946627Y608520D01*
X951573D01*
X953095Y608822D01*
X954386Y609684D01*
X955248Y610975D01*
X955550Y612496D01*
Y614371D01*
X965200D01*
X965200Y614371D01*
X966290Y614588D01*
X967214Y615206D01*
X972014Y620006D01*
X972014Y620006D01*
X972632Y620930D01*
X972849Y622020D01*
Y638961D01*
X974296Y639191D01*
X978641Y640602D01*
X982712Y642676D01*
X986408Y645362D01*
X989638Y648592D01*
X992324Y652288D01*
X994398Y656359D01*
X995809Y660704D01*
X995881Y661158D01*
X997151Y661058D01*
Y38942D01*
X995881Y38842D01*
X995809Y39297D01*
X994398Y43641D01*
X992324Y47712D01*
X989638Y51408D01*
X986408Y54638D01*
X982712Y57324D01*
X978641Y59398D01*
X974296Y60809D01*
X969784Y61524D01*
X965216D01*
X960704Y60809D01*
X956359Y59398D01*
X952288Y57324D01*
X948592Y54638D01*
X945362Y51408D01*
X942676Y47712D01*
X940602Y43641D01*
X939191Y39297D01*
X938476Y34784D01*
Y32849D01*
X915490D01*
X909830Y38508D01*
Y47903D01*
X909528Y49425D01*
X908666Y50716D01*
X907375Y51578D01*
X905854Y51880D01*
X900907D01*
X899385Y51578D01*
X898094Y50716D01*
X897232Y49425D01*
X896930Y47903D01*
Y38456D01*
X897232Y36935D01*
X898094Y35644D01*
X899385Y34782D01*
X900907Y34480D01*
X905802D01*
X912296Y27986D01*
X912296Y27986D01*
X913220Y27368D01*
X914310Y27151D01*
X938961D01*
X939191Y25704D01*
X940602Y21359D01*
X942676Y17288D01*
X945362Y13592D01*
X948592Y10362D01*
X952288Y7677D01*
X956359Y5602D01*
X960704Y4191D01*
X961158Y4119D01*
X961058Y2849D01*
X38942D01*
X38842Y4119D01*
X39297Y4191D01*
X43641Y5602D01*
X47712Y7677D01*
X51408Y10362D01*
X54638Y13592D01*
X57324Y17288D01*
X59398Y21359D01*
X60809Y25704D01*
X61039Y27151D01*
X95750D01*
X95750Y27151D01*
X96840Y27368D01*
X97764Y27986D01*
X104258Y34480D01*
X109153D01*
X110675Y34782D01*
X111966Y35644D01*
X112828Y36935D01*
X113130Y38456D01*
Y47903D01*
X112828Y49425D01*
X111966Y50716D01*
X110675Y51578D01*
X109153Y51880D01*
X104206D01*
X102685Y51578D01*
X101394Y50716D01*
X100532Y49425D01*
X100230Y47903D01*
Y38508D01*
X94570Y32849D01*
X61524D01*
Y34784D01*
X60809Y39297D01*
X59398Y43641D01*
X57324Y47712D01*
X54638Y51408D01*
X51408Y54638D01*
X47712Y57324D01*
X43641Y59398D01*
X39297Y60809D01*
X34784Y61524D01*
X30216D01*
X25704Y60809D01*
X21359Y59398D01*
X17288Y57324D01*
X13592Y54638D01*
X10362Y51408D01*
X7677Y47712D01*
X5602Y43641D01*
X4191Y39297D01*
X4119Y38842D01*
X2849Y38942D01*
Y410000D01*
X217108Y410000D01*
X217494Y408730D01*
X217076Y408451D01*
X216896Y408270D01*
X216684Y408129D01*
X215035Y406480D01*
X214893Y406268D01*
X214713Y406088D01*
X213418Y404149D01*
X213320Y403913D01*
X213178Y403701D01*
X212286Y401547D01*
X212236Y401297D01*
X212139Y401062D01*
X211684Y398775D01*
Y398520D01*
X211634Y398270D01*
Y397104D01*
Y343474D01*
X210364Y342626D01*
X210057Y342753D01*
X210057Y342753D01*
X210057Y342753D01*
X209479Y342868D01*
X209066Y342950D01*
X209066Y342950D01*
X209066Y342950D01*
X208280Y342950D01*
X200660Y342950D01*
X200660Y342950D01*
X199650D01*
X198658Y342752D01*
X196791Y341979D01*
X195951Y341418D01*
X194522Y339989D01*
X193961Y339149D01*
X193187Y337281D01*
X192990Y336290D01*
Y332868D01*
X192943Y332385D01*
X192528Y331385D01*
X191855Y330712D01*
X190855Y330297D01*
X190373Y330250D01*
X25400D01*
X25399Y330250D01*
X24149Y330250D01*
X23899Y330200D01*
X23644D01*
X21190Y329712D01*
X20955Y329614D01*
X20704Y329565D01*
X18393Y328607D01*
X18181Y328465D01*
X17945Y328368D01*
X15865Y326978D01*
X15685Y326798D01*
X15473Y326656D01*
X13704Y324887D01*
X13562Y324675D01*
X13382Y324495D01*
X11992Y322414D01*
X11895Y322179D01*
X11753Y321967D01*
X10795Y319655D01*
X10746Y319405D01*
X10648Y319170D01*
X10160Y316716D01*
Y316461D01*
X10110Y316211D01*
X10110Y314960D01*
Y185420D01*
Y184169D01*
X10160Y183919D01*
Y183664D01*
X10648Y181210D01*
X10746Y180975D01*
X10795Y180725D01*
X11753Y178413D01*
X11895Y178201D01*
X11992Y177966D01*
X13382Y175885D01*
X13562Y175705D01*
X13704Y175493D01*
X15473Y173724D01*
X15685Y173582D01*
X15865Y173402D01*
X17945Y172012D01*
X18181Y171915D01*
X18393Y171773D01*
X20705Y170815D01*
X20955Y170766D01*
X21190Y170668D01*
X23644Y170180D01*
X23899D01*
X24149Y170130D01*
X170053D01*
X170535Y170083D01*
X171535Y169668D01*
X172208Y168995D01*
X172623Y167995D01*
X172670Y167513D01*
Y163842D01*
X172867Y162851D01*
X173830Y160527D01*
X174391Y159686D01*
X176171Y157908D01*
X177011Y157346D01*
X179335Y156383D01*
X180326Y156186D01*
X182571D01*
Y151284D01*
X181896D01*
Y138816D01*
X182571D01*
Y132789D01*
X181684Y132196D01*
X181060Y131262D01*
X180841Y130160D01*
Y127760D01*
X181060Y126658D01*
X181684Y125724D01*
X182618Y125100D01*
X183720Y124881D01*
X187120D01*
X188222Y125100D01*
X189156Y125724D01*
X189415Y126111D01*
X194980D01*
X197811Y123280D01*
Y116840D01*
X197811Y116840D01*
X198028Y115750D01*
X198646Y114826D01*
X204886Y108586D01*
X204886Y108586D01*
X205810Y107968D01*
X206900Y107751D01*
X222136D01*
Y101576D01*
X228266D01*
Y99506D01*
X226884Y98124D01*
X219211D01*
X217625Y97808D01*
X216281Y96910D01*
X204869Y85498D01*
X198437D01*
Y85424D01*
X166816D01*
X163084Y89156D01*
Y98452D01*
X165925D01*
Y111660D01*
X151955D01*
Y98452D01*
X154796D01*
Y87440D01*
X155112Y85854D01*
X156010Y84510D01*
X162170Y78350D01*
X163514Y77452D01*
X165100Y77136D01*
X198437D01*
Y75846D01*
X210883D01*
Y79792D01*
X216725Y85634D01*
X217995Y85108D01*
Y72798D01*
X231965D01*
Y82358D01*
X235256Y85649D01*
X236616Y85297D01*
X236696Y84874D01*
X236696Y84781D01*
Y78026D01*
X243744D01*
Y80945D01*
X260424Y97626D01*
X260424Y97626D01*
X260791Y98175D01*
X262061Y97789D01*
Y95910D01*
X253446Y87294D01*
X252828Y86370D01*
X252611Y85280D01*
X252611Y85280D01*
Y82958D01*
X249237D01*
Y73306D01*
X261683D01*
Y82958D01*
X258618D01*
X258437Y84228D01*
X266924Y92716D01*
X266924Y92716D01*
X267291Y93265D01*
X268561Y92879D01*
Y82958D01*
X264477D01*
Y73306D01*
X276923D01*
Y82958D01*
X274259D01*
Y90890D01*
X275529Y91275D01*
X275896Y90726D01*
X284619Y82003D01*
X284607Y81946D01*
Y75334D01*
X284919Y73766D01*
X285807Y72437D01*
X287136Y71549D01*
X288704Y71237D01*
X298416D01*
X299984Y71549D01*
X301313Y72437D01*
X302201Y73766D01*
X302513Y75334D01*
Y78744D01*
X306888D01*
X307120Y78433D01*
X307451Y77474D01*
X306986Y76778D01*
X306759Y75636D01*
Y73044D01*
X306986Y71902D01*
X307633Y70933D01*
X308601Y70286D01*
X309009Y70205D01*
Y68734D01*
X308538Y68640D01*
X307604Y68016D01*
X306980Y67082D01*
X306761Y65980D01*
Y63580D01*
X306980Y62478D01*
X307604Y61544D01*
X308538Y60920D01*
X309640Y60701D01*
X313040D01*
X314142Y60920D01*
X315076Y61544D01*
X315700Y62478D01*
X315919Y63580D01*
Y65980D01*
X315700Y67082D01*
X315076Y68016D01*
X314142Y68640D01*
X313671Y68734D01*
Y70205D01*
X314078Y70286D01*
X315047Y70933D01*
X315694Y71902D01*
X315921Y73044D01*
Y75636D01*
X315694Y76778D01*
X315047Y77747D01*
X314853Y77876D01*
Y79404D01*
X315047Y79533D01*
X315694Y80501D01*
X315921Y81644D01*
Y84236D01*
X315694Y85378D01*
X315047Y86347D01*
X314078Y86994D01*
X312936Y87221D01*
X309744D01*
X308601Y86994D01*
X307633Y86347D01*
X306986Y85378D01*
X306800Y84441D01*
X301581D01*
X301313Y84843D01*
X299984Y85731D01*
X298416Y86043D01*
X288704D01*
X288647Y86031D01*
X280759Y93920D01*
Y101576D01*
X281684D01*
Y119624D01*
X254636D01*
Y101576D01*
X254636D01*
X255047Y100306D01*
X249370Y94629D01*
X248200Y95255D01*
X248259Y95550D01*
X248259Y95550D01*
Y101576D01*
X249184D01*
Y119624D01*
X222136D01*
Y113449D01*
X208080D01*
X203509Y118020D01*
Y124460D01*
X203509Y124460D01*
X203292Y125550D01*
X202674Y126474D01*
X202674Y126474D01*
X198174Y130974D01*
X197250Y131592D01*
X196160Y131809D01*
X196160Y131809D01*
X189415D01*
X189156Y132196D01*
X188269Y132789D01*
Y138816D01*
X188944D01*
Y151284D01*
X188269D01*
Y156186D01*
X196215D01*
Y154178D01*
X210185D01*
Y156756D01*
X211609Y157346D01*
X212449Y157908D01*
X214228Y159686D01*
X214228Y159686D01*
X214790Y160527D01*
X215753Y162851D01*
X215950Y163842D01*
Y180340D01*
X215949Y180341D01*
X215949Y181590D01*
X215900Y181841D01*
Y182096D01*
X215412Y184549D01*
X215314Y184785D01*
X215264Y185035D01*
X214307Y187346D01*
X214165Y187559D01*
X214068Y187794D01*
X212678Y189874D01*
X212498Y190055D01*
X212356Y190267D01*
X210587Y192036D01*
X210375Y192178D01*
X210195Y192358D01*
X208114Y193748D01*
X207879Y193845D01*
X207667Y193987D01*
X205355Y194944D01*
X205105Y194994D01*
X204884Y195086D01*
X204867Y195129D01*
X204759Y196409D01*
X205763Y196825D01*
X207035Y198097D01*
X207724Y199760D01*
Y201560D01*
X207662Y201709D01*
X208457Y203108D01*
X208710Y203158D01*
X209694Y203816D01*
X210351Y204800D01*
X210582Y205960D01*
Y215560D01*
X210351Y216720D01*
X209694Y217704D01*
X208710Y218361D01*
X207550Y218592D01*
X198850D01*
X197690Y218361D01*
X196706Y217704D01*
X196049Y216720D01*
X195818Y215560D01*
Y205960D01*
X196049Y204800D01*
X196706Y203816D01*
X197690Y203158D01*
X197943Y203108D01*
X198738Y201709D01*
X198676Y201560D01*
Y199760D01*
X199365Y198097D01*
X200562Y196900D01*
X200532Y196534D01*
X200204Y195630D01*
X190563Y195630D01*
X189324Y195691D01*
X186831Y196186D01*
X184542Y197134D01*
X182482Y198511D01*
X180731Y200263D01*
X179354Y202322D01*
X178406Y204611D01*
X177911Y207104D01*
X177850Y208343D01*
Y264096D01*
X177898Y265087D01*
X178297Y267091D01*
X179054Y268920D01*
X180154Y270566D01*
X181554Y271966D01*
X183200Y273066D01*
X185029Y273823D01*
X187033Y274222D01*
X188024Y274270D01*
X201800Y274270D01*
X202050Y274320D01*
X202305D01*
X204540Y274765D01*
X204776Y274862D01*
X205026Y274912D01*
X207132Y275784D01*
X207344Y275926D01*
X207579Y276024D01*
X209475Y277290D01*
X209655Y277470D01*
X209867Y277612D01*
X211479Y279223D01*
X211620Y279436D01*
X211801Y279616D01*
X213067Y281511D01*
X213165Y281747D01*
X213306Y281959D01*
X214179Y284065D01*
X214228Y284315D01*
X214326Y284550D01*
X214771Y286786D01*
Y287041D01*
X214820Y287291D01*
Y302902D01*
X216090Y303417D01*
X217540Y302816D01*
X219340D01*
X221003Y303505D01*
X222275Y304777D01*
X222964Y306440D01*
Y308240D01*
X222275Y309903D01*
X221003Y311175D01*
X219974Y311601D01*
Y318016D01*
X221144Y319286D01*
X232186Y319286D01*
Y315496D01*
X232186D01*
X232350Y314226D01*
X231117Y313715D01*
X229845Y312443D01*
X229156Y310780D01*
Y308980D01*
X229845Y307317D01*
X231117Y306045D01*
X232780Y305356D01*
X234580D01*
X236243Y306045D01*
X237440Y307242D01*
X237806Y307212D01*
X238710Y306884D01*
Y302260D01*
X238710Y301509D01*
X238760Y301259D01*
Y301004D01*
X239053Y299532D01*
X239150Y299296D01*
X239200Y299046D01*
X239775Y297659D01*
X239916Y297447D01*
X240014Y297211D01*
X240848Y295963D01*
X241028Y295783D01*
X241170Y295571D01*
X242231Y294510D01*
X242443Y294368D01*
X242624Y294188D01*
X243872Y293354D01*
X244107Y293256D01*
X244320Y293114D01*
X245706Y292540D01*
X245956Y292490D01*
X246192Y292393D01*
X247664Y292100D01*
X247919D01*
X248170Y292050D01*
X248920Y292050D01*
X263183D01*
X263709Y290780D01*
X263261Y290332D01*
X262500Y288494D01*
Y281505D01*
X263261Y279668D01*
X264668Y278261D01*
X266505Y277500D01*
X283494D01*
X285332Y278261D01*
X286739Y279668D01*
X287500Y281505D01*
X287626Y281631D01*
X292100D01*
X292163Y281644D01*
X292735D01*
X293577Y281811D01*
X294083Y282149D01*
X300083D01*
X301941Y280292D01*
X302697Y279787D01*
X303589Y279609D01*
X305949D01*
X306045Y279377D01*
X307317Y278105D01*
X308980Y277416D01*
X310780D01*
X312443Y278105D01*
X313715Y279377D01*
X314404Y281040D01*
Y282840D01*
X313715Y284503D01*
X312443Y285775D01*
X310971Y286385D01*
X310928Y286652D01*
Y287388D01*
X310971Y287655D01*
X312443Y288265D01*
X313715Y289537D01*
X314404Y291200D01*
Y293000D01*
X313715Y294663D01*
X312443Y295935D01*
X310780Y296624D01*
X308980D01*
X307317Y295935D01*
X306056Y294674D01*
X303832D01*
X303154Y294539D01*
X302617Y295127D01*
X302390Y295571D01*
X302532Y295783D01*
X302712Y295963D01*
X303546Y297212D01*
X303644Y297447D01*
X303785Y297659D01*
X304360Y299046D01*
X304410Y299296D01*
X304507Y299532D01*
X304800Y301004D01*
X304800Y301259D01*
X304850Y301510D01*
X304850Y302260D01*
Y304970D01*
X305723Y305534D01*
X306120Y305676D01*
X307878Y304948D01*
X308869Y304751D01*
X309878D01*
X309880Y304750D01*
X315970Y304750D01*
X316961Y304947D01*
X318828Y305721D01*
X319669Y306282D01*
X319669Y306282D01*
X321097Y307711D01*
X321378Y308130D01*
X321659Y308551D01*
X322222Y309911D01*
X322630Y309830D01*
X450831D01*
X451081Y309880D01*
X451336D01*
X453790Y310368D01*
X454025Y310466D01*
X454276Y310515D01*
X456587Y311473D01*
X456799Y311614D01*
X457034Y311712D01*
X459114Y313102D01*
X459295Y313282D01*
X459507Y313424D01*
X461276Y315193D01*
X461418Y315405D01*
X461598Y315585D01*
X462988Y317666D01*
X463086Y317901D01*
X463227Y318113D01*
X464184Y320424D01*
X464234Y320675D01*
X464332Y320910D01*
X464820Y323364D01*
Y323619D01*
X464870Y323869D01*
Y325120D01*
X464870Y325120D01*
X464870Y381000D01*
X464870Y382251D01*
X464820Y382501D01*
Y382756D01*
X464332Y385210D01*
X464234Y385445D01*
X464184Y385695D01*
X463227Y388007D01*
X463086Y388219D01*
X462988Y388454D01*
X461598Y390535D01*
X461418Y390715D01*
X461276Y390927D01*
X459507Y392696D01*
X459295Y392838D01*
X459114Y393018D01*
X457034Y394408D01*
X456799Y394506D01*
X456587Y394647D01*
X454275Y395605D01*
X454025Y395654D01*
X453790Y395752D01*
X451336Y396240D01*
X451081D01*
X450831Y396290D01*
X449580Y396290D01*
X449580Y396290D01*
X335280Y396290D01*
X334029Y396290D01*
X333779Y396240D01*
X333524D01*
X331070Y395752D01*
X330835Y395654D01*
X330584Y395605D01*
X328273Y394647D01*
X328061Y394506D01*
X327825Y394408D01*
X325745Y393018D01*
X325565Y392838D01*
X325353Y392696D01*
X323900Y391243D01*
X322654Y391681D01*
X322630Y391701D01*
Y396240D01*
X322630Y397491D01*
X322580Y397741D01*
Y397996D01*
X322092Y400450D01*
X321994Y400685D01*
X321945Y400936D01*
X320987Y403247D01*
X320845Y403459D01*
X320748Y403694D01*
X319358Y405774D01*
X319178Y405955D01*
X319036Y406167D01*
X317267Y407936D01*
X317055Y408078D01*
X316875Y408258D01*
X316168Y408730D01*
X316553Y410000D01*
X464764Y410000D01*
X464764Y410000D01*
X464764Y410000D01*
X464765Y410000D01*
X465929Y409840D01*
X467673Y409118D01*
X469118Y407673D01*
X469899Y405785D01*
X470000Y404764D01*
X478879D01*
X479004Y403494D01*
X478390Y403372D01*
X478155Y403274D01*
X477904Y403224D01*
X475593Y402267D01*
X475381Y402126D01*
X475145Y402028D01*
X473065Y400638D01*
X472885Y400458D01*
X472673Y400316D01*
X470904Y398547D01*
X470762Y398335D01*
X470582Y398154D01*
X469192Y396074D01*
X469095Y395839D01*
X468953Y395627D01*
X467995Y393316D01*
X467946Y393065D01*
X467848Y392830D01*
X467360Y390376D01*
Y390121D01*
X467310Y389871D01*
X467310Y388620D01*
Y360680D01*
X467310Y359628D01*
X467360Y359378D01*
Y359122D01*
X467770Y357059D01*
X467868Y356823D01*
X467918Y356573D01*
X468723Y354630D01*
X468865Y354417D01*
X468962Y354182D01*
X470131Y352433D01*
X470312Y352252D01*
X470453Y352040D01*
X471941Y350552D01*
X472153Y350411D01*
X472333Y350230D01*
X474083Y349062D01*
X474318Y348964D01*
X474530Y348823D01*
X476474Y348018D01*
X476724Y347968D01*
X476960Y347870D01*
X479024Y347460D01*
X479278Y347460D01*
X479529Y347410D01*
X480581Y347410D01*
X510020D01*
X511072Y347410D01*
X511322Y347460D01*
X511577D01*
X513640Y347870D01*
X513876Y347968D01*
X514126Y348018D01*
X516070Y348823D01*
X516282Y348965D01*
X516518Y349062D01*
X518267Y350231D01*
X518447Y350411D01*
X518659Y350553D01*
X520147Y352040D01*
X520289Y352253D01*
X520469Y352433D01*
X521638Y354182D01*
X521735Y354418D01*
X521877Y354630D01*
X522682Y356574D01*
X522732Y356824D01*
X522830Y357060D01*
X523240Y359123D01*
Y359378D01*
X523290Y359628D01*
X523290Y360680D01*
X523290Y389871D01*
X523240Y390121D01*
Y390376D01*
X522752Y392830D01*
X522654Y393065D01*
X522604Y393316D01*
X521647Y395627D01*
X521506Y395839D01*
X521408Y396074D01*
X520018Y398154D01*
X519838Y398335D01*
X519696Y398547D01*
X517927Y400316D01*
X517715Y400458D01*
X517534Y400638D01*
X515454Y402028D01*
X515219Y402126D01*
X515007Y402267D01*
X512696Y403224D01*
X512445Y403274D01*
X512210Y403372D01*
X511595Y403494D01*
X511721Y404764D01*
X512293D01*
X513945Y405093D01*
X515501Y405737D01*
X516901Y406673D01*
X518092Y407863D01*
X519027Y409263D01*
X519672Y410819D01*
X520000Y412471D01*
Y420000D01*
X520000Y420000D01*
X520000Y420000D01*
X520000Y421969D01*
X519231Y425834D01*
X517724Y429473D01*
X515535Y432749D01*
X512749Y435535D01*
X509473Y437724D01*
X505834Y439231D01*
X501970Y440000D01*
X500000Y440000D01*
X351178Y440000D01*
X350779Y441261D01*
X351448Y442263D01*
X351683Y443445D01*
Y446836D01*
X351448Y448017D01*
X352138Y449271D01*
X354591D01*
X355577Y448285D01*
X357240Y447596D01*
X359040D01*
X360703Y448285D01*
X361975Y449557D01*
X362664Y451220D01*
Y453020D01*
X361975Y454683D01*
X360703Y455955D01*
X359040Y456644D01*
X357240D01*
X355577Y455955D01*
X354591Y454969D01*
X351683D01*
Y456996D01*
X351448Y458177D01*
X350779Y459179D01*
X349999Y459700D01*
Y490750D01*
X356150Y496901D01*
X357886D01*
Y494416D01*
X373977D01*
X374463Y493243D01*
X373605Y492384D01*
X357886D01*
Y481716D01*
X377444D01*
Y488545D01*
X380503Y491603D01*
X381091Y492484D01*
X381298Y493523D01*
Y495007D01*
X388272D01*
X389311Y495214D01*
X390192Y495802D01*
X391672Y497283D01*
X392942Y496757D01*
Y494643D01*
X393149Y493604D01*
X393737Y492723D01*
X396741Y489720D01*
Y488280D01*
X396960Y487178D01*
X397584Y486244D01*
X398518Y485620D01*
X399620Y485401D01*
X403020D01*
X404122Y485620D01*
X405056Y486244D01*
X405404Y486765D01*
X420900D01*
X421939Y486972D01*
X422820Y487560D01*
X425965Y490705D01*
X429055D01*
Y488896D01*
X444103D01*
Y490705D01*
X455057D01*
Y488896D01*
X470105D01*
Y494104D01*
X470752Y494752D01*
X471553Y495287D01*
X473163Y496897D01*
X473752Y497778D01*
X473831Y498177D01*
X490777D01*
X493937Y495017D01*
Y462812D01*
X494144Y461773D01*
X494732Y460893D01*
X505425Y450200D01*
X506306Y449612D01*
X507345Y449405D01*
X529553D01*
X530592Y449612D01*
X531473Y450200D01*
X571317Y490045D01*
X578625D01*
X579664Y490252D01*
X580545Y490840D01*
X590581Y500876D01*
X590834Y501255D01*
X599384Y509804D01*
X599826Y510467D01*
X599982Y511249D01*
X599826Y512031D01*
X599384Y512694D01*
X598365Y513712D01*
X597702Y514155D01*
X597115Y514272D01*
X596998Y514859D01*
X596555Y515522D01*
X595537Y516540D01*
X594874Y516983D01*
X594286Y517100D01*
X594170Y517688D01*
X593727Y518351D01*
X592708Y519369D01*
X592046Y519812D01*
X591264Y519967D01*
X590482Y519812D01*
X589819Y519369D01*
X580103Y509653D01*
X579660Y508990D01*
X579654Y508959D01*
X578745Y508050D01*
X561340D01*
X560349Y507853D01*
X559509Y507291D01*
X557974Y505756D01*
X557730Y505919D01*
X556676Y506129D01*
X556419Y506298D01*
X556069Y506691D01*
X555704Y507261D01*
Y508900D01*
X555015Y510563D01*
X553743Y511835D01*
X552080Y512524D01*
X550280D01*
X548617Y511835D01*
X547345Y510563D01*
X546656Y508900D01*
Y507100D01*
X547345Y505437D01*
X548617Y504165D01*
X550280Y503476D01*
X551018D01*
X551812Y502444D01*
X551651Y502204D01*
X551416Y501022D01*
X551651Y499840D01*
X552321Y498839D01*
X554719Y496441D01*
X555720Y495771D01*
X556902Y495536D01*
X558084Y495771D01*
X559085Y496441D01*
X561130Y498485D01*
X561799Y499487D01*
X562034Y500668D01*
X561799Y501850D01*
X561795Y501856D01*
X562586Y502870D01*
X577501D01*
X577987Y501697D01*
X575821Y499530D01*
X568513D01*
X567474Y499324D01*
X566593Y498735D01*
X526748Y458890D01*
X510149D01*
X503423Y465617D01*
Y497822D01*
X503216Y498861D01*
X502627Y499742D01*
X495501Y506867D01*
X494621Y507456D01*
X493582Y507663D01*
X473831D01*
X473752Y508062D01*
X473163Y508943D01*
X471553Y510553D01*
X470752Y511088D01*
X470105Y511736D01*
Y516944D01*
X455057D01*
Y515135D01*
X444103D01*
Y516944D01*
X429055D01*
Y514777D01*
X427547D01*
X424724Y517600D01*
X423843Y518188D01*
X422804Y518395D01*
X405404D01*
X405056Y518916D01*
X404122Y519540D01*
X403020Y519759D01*
X399620D01*
X398518Y519540D01*
X397584Y518916D01*
X396960Y517982D01*
X396741Y516880D01*
Y515440D01*
X393737Y512437D01*
X393149Y511556D01*
X392942Y510517D01*
Y507323D01*
X389422D01*
X388383Y507116D01*
X387503Y506528D01*
X385468Y504493D01*
X381298D01*
Y505977D01*
X381091Y507016D01*
X380503Y507897D01*
X377444Y510956D01*
Y517784D01*
X357886D01*
Y507116D01*
X373605D01*
X374463Y506257D01*
X373977Y505084D01*
X357886D01*
Y502599D01*
X354970D01*
X354970Y502599D01*
X353880Y502382D01*
X352956Y501764D01*
X352956Y501764D01*
X345136Y493944D01*
X344518Y493020D01*
X344301Y491930D01*
X344301Y491930D01*
Y459700D01*
X343521Y459179D01*
X342852Y458177D01*
X342617Y456996D01*
Y453605D01*
X342852Y452423D01*
X343521Y451421D01*
X344301Y450900D01*
Y449540D01*
X343521Y449019D01*
X342852Y448017D01*
X342617Y446836D01*
Y443445D01*
X342852Y442263D01*
X343521Y441261D01*
X343122Y440000D01*
X330000D01*
X329020Y440048D01*
X327097Y440431D01*
X325286Y441181D01*
X323656Y442270D01*
X322270Y443656D01*
X321181Y445286D01*
X320431Y447097D01*
X320048Y449020D01*
X320000Y450000D01*
Y697151D01*
X961058D01*
X961158Y695881D01*
D02*
G37*
G36*
X255164Y408452D02*
X257476Y407495D01*
X259556Y406105D01*
X261325Y404336D01*
X262715Y402256D01*
X263672Y399944D01*
X264160Y397491D01*
X264160Y396240D01*
X264160D01*
X264160Y396240D01*
X264160Y327660D01*
X264160Y326509D01*
X263279Y324383D01*
X261652Y322756D01*
X259628Y321918D01*
X258376Y321876D01*
X258376Y321876D01*
X216604Y321876D01*
X216131Y321876D01*
X215256Y322238D01*
X214586Y322908D01*
X214321Y323547D01*
X214224Y324038D01*
Y324256D01*
Y397104D01*
Y398270D01*
X214679Y400556D01*
X215571Y402710D01*
X216866Y404649D01*
X218515Y406297D01*
X220453Y407593D01*
X222607Y408485D01*
X224894Y408940D01*
X226060D01*
X226060Y408940D01*
X251460Y408940D01*
X252711Y408940D01*
X255164Y408452D01*
D02*
G37*
G36*
X508000Y401320D02*
X509251D01*
X511704Y400832D01*
X514016Y399875D01*
X516096Y398485D01*
X517865Y396716D01*
X519255Y394636D01*
X520212Y392324D01*
X520700Y389871D01*
Y388620D01*
X520700Y360680D01*
X520700Y359628D01*
X520290Y357565D01*
X519484Y355621D01*
X518316Y353872D01*
X516828Y352384D01*
X515079Y351215D01*
X513135Y350410D01*
X511072Y350000D01*
X510020Y350000D01*
X480580D01*
X479529Y350000D01*
X477465Y350410D01*
X475521Y351215D01*
X473772Y352384D01*
X472284Y353871D01*
X471116Y355621D01*
X470310Y357564D01*
X469900Y359628D01*
X469900Y360680D01*
Y360680D01*
Y388620D01*
X469900Y389871D01*
X470388Y392324D01*
X471345Y394636D01*
X472735Y396716D01*
X474504Y398485D01*
X476584Y399875D01*
X478895Y400832D01*
X481349Y401320D01*
X482600Y401320D01*
X482600Y401320D01*
X508000Y401320D01*
D02*
G37*
G36*
X449580Y393700D02*
X449580Y393700D01*
X450831Y393700D01*
X453284Y393212D01*
X455596Y392254D01*
X457676Y390865D01*
X459445Y389096D01*
X460835Y387016D01*
X461792Y384704D01*
X462280Y382251D01*
X462280Y381000D01*
X462280Y325120D01*
X462280Y325120D01*
Y323869D01*
X461792Y321415D01*
X460835Y319104D01*
X459445Y317024D01*
X457676Y315255D01*
X455596Y313865D01*
X453284Y312908D01*
X450831Y312420D01*
X322630D01*
X322630Y325120D01*
X322630Y326130D01*
X322630Y326130D01*
X322630Y326130D01*
X322580Y326381D01*
Y341595D01*
X322603Y341605D01*
X323875Y342877D01*
X324564Y344540D01*
Y346340D01*
X323875Y348003D01*
X322603Y349275D01*
X322580Y349285D01*
Y349714D01*
X322630Y349964D01*
X322630Y382501D01*
X323068Y384704D01*
X324025Y387016D01*
X325415Y389096D01*
X327184Y390865D01*
X329264Y392255D01*
X331576Y393212D01*
X334029Y393700D01*
X335280Y393700D01*
X449580Y393700D01*
X449580Y393700D01*
D02*
G37*
G36*
X210518Y339759D02*
X211630Y338647D01*
X211634Y338636D01*
Y324256D01*
X211634Y323783D01*
X211831Y322792D01*
X212194Y321917D01*
X212194Y321917D01*
X212231Y321861D01*
Y287291D01*
X211786Y285056D01*
X210914Y282950D01*
X209648Y281055D01*
X208036Y279443D01*
X206141Y278177D01*
X204035Y277305D01*
X201800Y276860D01*
X187960Y276860D01*
X186715Y276799D01*
X184273Y276313D01*
X181973Y275361D01*
X179903Y273977D01*
X178143Y272217D01*
X176759Y270147D01*
X175807Y267847D01*
X175321Y265405D01*
X175260Y264160D01*
Y208280D01*
X175333Y206786D01*
X175916Y203856D01*
X177059Y201096D01*
X178719Y198612D01*
X180832Y196499D01*
X183316Y194839D01*
X186076Y193696D01*
X189006Y193113D01*
X190500Y193040D01*
X201911Y193040D01*
X204364Y192552D01*
X206676Y191595D01*
X208756Y190205D01*
X210525Y188436D01*
X211914Y186355D01*
X212872Y184044D01*
X213360Y181591D01*
X213360Y180340D01*
X213360Y180340D01*
X213360Y180340D01*
Y163842D01*
X212397Y161518D01*
X210618Y159739D01*
X208294Y158776D01*
X180326D01*
X178002Y159739D01*
X176223Y161518D01*
X175260Y163842D01*
Y167640D01*
X175162Y168631D01*
X174404Y170462D01*
X173002Y171864D01*
X171171Y172622D01*
X170180Y172720D01*
X24149D01*
X21695Y173208D01*
X19384Y174165D01*
X17304Y175555D01*
X15535Y177324D01*
X14145Y179404D01*
X13188Y181716D01*
X12700Y184169D01*
Y185420D01*
Y314960D01*
X12700Y316211D01*
X13188Y318664D01*
X14145Y320976D01*
X15535Y323056D01*
X17304Y324825D01*
X19384Y326214D01*
X21695Y327172D01*
X24149Y327660D01*
X25400Y327660D01*
X25400Y327660D01*
X190500D01*
X191491Y327758D01*
X193322Y328516D01*
X194724Y329918D01*
X195482Y331749D01*
X195580Y332740D01*
X195580Y332740D01*
Y336290D01*
X196353Y338158D01*
X197782Y339586D01*
X199650Y340360D01*
X200660D01*
X200660Y340360D01*
X208280Y340360D01*
X209066Y340360D01*
X210518Y339759D01*
D02*
G37*
G36*
X275266Y410000D02*
X275652Y408730D01*
X274945Y408258D01*
X274765Y408078D01*
X274553Y407936D01*
X272784Y406167D01*
X272642Y405955D01*
X272462Y405774D01*
X271072Y403694D01*
X270975Y403459D01*
X270833Y403247D01*
X269875Y400936D01*
X269826Y400685D01*
X269728Y400450D01*
X269240Y397996D01*
Y397741D01*
X269190Y397491D01*
Y396240D01*
X269190Y396240D01*
X269190Y330200D01*
Y329450D01*
X269240Y329199D01*
Y328944D01*
X269533Y327472D01*
X269630Y327237D01*
X269680Y326986D01*
X270161Y325825D01*
X269795Y324954D01*
X269660Y324765D01*
X269437Y324576D01*
X269415Y324564D01*
X268340D01*
X267365Y324160D01*
X266393Y325132D01*
X266553Y325518D01*
X266553Y325518D01*
X266553Y325519D01*
X266652Y326017D01*
X266750Y326510D01*
X266750Y326510D01*
X266750Y326510D01*
X266750Y327660D01*
X266750Y396240D01*
X266750Y396241D01*
X266750Y397491D01*
X266700Y397741D01*
Y397996D01*
X266212Y400450D01*
X266114Y400685D01*
X266064Y400936D01*
X265107Y403247D01*
X264965Y403459D01*
X264868Y403694D01*
X263478Y405774D01*
X263298Y405955D01*
X263156Y406167D01*
X261387Y407936D01*
X261175Y408078D01*
X260994Y408258D01*
X260288Y408730D01*
X260674Y410000D01*
X275266D01*
D02*
G37*
G36*
X264716Y320040D02*
Y319140D01*
X265405Y317477D01*
X266677Y316205D01*
X268340Y315516D01*
X270140D01*
X270898Y315830D01*
X271696Y315671D01*
X271696Y315671D01*
X274320D01*
Y314960D01*
X274369Y314464D01*
X274748Y313549D01*
X275449Y312848D01*
X276364Y312469D01*
X276860Y312420D01*
X276860Y312420D01*
X282420D01*
X282822Y312460D01*
X283564Y312767D01*
X284133Y313335D01*
X284440Y314078D01*
X284480Y314480D01*
X284480Y314480D01*
Y318005D01*
X284867Y318939D01*
X285581Y319653D01*
X286395Y319990D01*
X299593Y319990D01*
X300075Y319943D01*
X301075Y319528D01*
X301748Y318855D01*
X302162Y317855D01*
X302210Y317366D01*
Y311410D01*
X302260Y311160D01*
X302260Y302260D01*
X302260Y301509D01*
X301967Y300037D01*
X301393Y298650D01*
X300559Y297402D01*
X299497Y296341D01*
X298249Y295507D01*
X296863Y294933D01*
X295870Y294735D01*
X294640Y294640D01*
X294640Y294640D01*
X248920Y294640D01*
X248169Y294640D01*
X246697Y294933D01*
X245311Y295507D01*
X244062Y296341D01*
X243001Y297402D01*
X242167Y298650D01*
X241593Y300037D01*
X241300Y301509D01*
X241300Y302260D01*
Y318005D01*
X241687Y318939D01*
X242034Y319286D01*
X258376Y319286D01*
X258419Y319295D01*
X258463Y319288D01*
X259715Y319330D01*
X260166Y319435D01*
X260619Y319525D01*
X261862Y320040D01*
X264716D01*
D02*
G37*
G36*
X307340Y408940D02*
X307340Y408940D01*
X308591Y408940D01*
X311044Y408452D01*
X313356Y407495D01*
X315436Y406105D01*
X317205Y404336D01*
X318594Y402256D01*
X319552Y399944D01*
X320040Y397491D01*
X320040Y396240D01*
X320040Y351234D01*
X319140Y349964D01*
X317477Y349275D01*
X316205Y348003D01*
X315516Y346340D01*
Y344540D01*
X315672Y344164D01*
X314816Y343308D01*
X314198Y342384D01*
X313995Y341361D01*
X313276Y340642D01*
X312518Y338811D01*
X312420Y337820D01*
Y332740D01*
X312469Y332244D01*
X312848Y331329D01*
X313549Y330628D01*
X314464Y330249D01*
X314957Y330200D01*
X314960Y330200D01*
X314960Y330200D01*
X314960Y330200D01*
X314968D01*
X316134Y330132D01*
X317837Y329426D01*
X319266Y327998D01*
X320040Y326130D01*
X320040Y325120D01*
X320040Y312420D01*
X320039Y312419D01*
Y311409D01*
X319266Y309542D01*
X317837Y308113D01*
X315970Y307340D01*
X309880Y307340D01*
X309879Y307341D01*
X308869D01*
X307002Y308114D01*
X305573Y309543D01*
X304800Y311410D01*
Y317500D01*
X304800Y317500D01*
X304800Y317500D01*
X304798Y317514D01*
X304702Y318491D01*
X304631Y318661D01*
X303944Y320322D01*
X302542Y321724D01*
X300711Y322482D01*
X299720Y322580D01*
X278650Y322580D01*
X277177Y322873D01*
X275791Y323447D01*
X274543Y324281D01*
X273481Y325342D01*
X272647Y326591D01*
X272073Y327977D01*
X271780Y329450D01*
Y330200D01*
X271780Y396240D01*
X271780D01*
Y397491D01*
X272268Y399944D01*
X273225Y402256D01*
X274615Y404336D01*
X276384Y406105D01*
X278464Y407495D01*
X280776Y408452D01*
X283229Y408940D01*
X307340Y408940D01*
X307340Y408940D01*
D02*
G37*
%LPC*%
G36*
X885859Y691524D02*
X884141D01*
X882482Y691079D01*
X880994Y690220D01*
X879780Y689006D01*
X878921Y687518D01*
X878476Y685859D01*
Y684141D01*
X878921Y682482D01*
X879780Y680994D01*
X880994Y679780D01*
X882482Y678921D01*
X884141Y678476D01*
X885859D01*
X887518Y678921D01*
X889006Y679780D01*
X890220Y680994D01*
X891079Y682482D01*
X891524Y684141D01*
Y685859D01*
X891079Y687518D01*
X890220Y689006D01*
X889006Y690220D01*
X887518Y691079D01*
X885859Y691524D01*
D02*
G37*
G36*
X500859D02*
X499141D01*
X497482Y691079D01*
X495994Y690220D01*
X494780Y689006D01*
X493921Y687518D01*
X493476Y685859D01*
Y684141D01*
X493921Y682482D01*
X494780Y680994D01*
X495994Y679780D01*
X497482Y678921D01*
X499141Y678476D01*
X500859D01*
X502518Y678921D01*
X504006Y679780D01*
X505220Y680994D01*
X506079Y682482D01*
X506524Y684141D01*
Y685859D01*
X506079Y687518D01*
X505220Y689006D01*
X504006Y690220D01*
X502518Y691079D01*
X500859Y691524D01*
D02*
G37*
G36*
X639200Y664079D02*
X635800D01*
X634698Y663860D01*
X633764Y663236D01*
X633426Y662731D01*
X631573D01*
X631236Y663236D01*
X630302Y663860D01*
X629200Y664079D01*
X625800D01*
X624698Y663860D01*
X623764Y663236D01*
X623140Y662302D01*
X622921Y661200D01*
Y658800D01*
X623140Y657698D01*
X623764Y656764D01*
X624681Y656152D01*
X624698Y656055D01*
Y654945D01*
X624681Y654848D01*
X623764Y654236D01*
X623354Y653623D01*
X622206Y653671D01*
X622035Y653696D01*
X621379Y654679D01*
X620377Y655348D01*
X619196Y655583D01*
X615804D01*
X614623Y655348D01*
X613621Y654679D01*
X612952Y653677D01*
X612883Y653331D01*
X610567D01*
X610063Y653835D01*
X608400Y654524D01*
X606600D01*
X604937Y653835D01*
X603665Y652563D01*
X602976Y650900D01*
Y649100D01*
X603665Y647437D01*
X604937Y646165D01*
X606600Y645476D01*
X608400D01*
X610063Y646165D01*
X611335Y647437D01*
X611685Y648282D01*
X612495Y648372D01*
X613019Y648322D01*
X613621Y647421D01*
X614623Y646752D01*
X615804Y646517D01*
X619196D01*
X620377Y646752D01*
X621379Y647421D01*
X622020Y648381D01*
X622361Y648417D01*
X623339Y648400D01*
X623764Y647764D01*
X624698Y647140D01*
X625800Y646921D01*
X629200D01*
X630302Y647140D01*
X631236Y647764D01*
X631860Y648698D01*
X632079Y649800D01*
Y652200D01*
X631860Y653302D01*
X631236Y654236D01*
X630319Y654848D01*
X630302Y654945D01*
Y656055D01*
X630319Y656152D01*
X631236Y656764D01*
X631848Y657681D01*
X631945Y657698D01*
X633055D01*
X633152Y657681D01*
X633764Y656764D01*
X634698Y656140D01*
X635800Y655921D01*
X639200D01*
X640302Y656140D01*
X641236Y656764D01*
X641860Y657698D01*
X641934Y658069D01*
X661975D01*
X665689Y654355D01*
Y594360D01*
X665867Y593468D01*
X666372Y592712D01*
X707012Y552072D01*
X707768Y551567D01*
X708660Y551389D01*
X718587D01*
X719479Y551567D01*
X720236Y552072D01*
X721061Y552897D01*
X722514Y553008D01*
X723533Y551990D01*
X724195Y551547D01*
X724783Y551430D01*
X724900Y550843D01*
X725343Y550180D01*
X726361Y549162D01*
X727024Y548719D01*
X727806Y548563D01*
X728588Y548719D01*
X729251Y549162D01*
X738966Y558877D01*
X739409Y559540D01*
X739565Y560322D01*
X739409Y561104D01*
X738966Y561767D01*
X737948Y562785D01*
X738059Y564239D01*
X740246Y566425D01*
X740385Y566397D01*
X741657Y565125D01*
X743320Y564436D01*
X745120D01*
X746783Y565125D01*
X748055Y566397D01*
X748744Y568060D01*
Y569860D01*
X748055Y571523D01*
X746783Y572795D01*
X745895Y573163D01*
X745593Y574657D01*
X768046Y597109D01*
X844855D01*
X858523Y583441D01*
Y372146D01*
X858497Y372135D01*
X857225Y370863D01*
X856536Y369200D01*
Y367400D01*
X857225Y365737D01*
X858497Y364465D01*
X860160Y363776D01*
X861960D01*
X863623Y364465D01*
X864895Y365737D01*
X865584Y367400D01*
Y369200D01*
X864895Y370863D01*
X863623Y372135D01*
X863185Y372317D01*
Y584406D01*
X863007Y585298D01*
X862502Y586054D01*
X847468Y601088D01*
X846712Y601593D01*
X845820Y601771D01*
X767080D01*
X766188Y601593D01*
X765432Y601088D01*
X740715Y576371D01*
X733251D01*
X732359Y576193D01*
X731602Y575688D01*
X727725Y571811D01*
X727236Y571713D01*
X726573Y571270D01*
X716858Y561555D01*
X716415Y560892D01*
X716259Y560110D01*
X716415Y559328D01*
X716858Y558665D01*
X717876Y557647D01*
X717765Y556194D01*
X717622Y556051D01*
X709625D01*
X670351Y595325D01*
Y655320D01*
X670173Y656212D01*
X669668Y656968D01*
X664588Y662048D01*
X663832Y662553D01*
X662940Y662731D01*
X641573D01*
X641236Y663236D01*
X640302Y663860D01*
X639200Y664079D01*
D02*
G37*
G36*
X720718Y655084D02*
X719536Y654849D01*
X718535Y654179D01*
X716490Y652135D01*
X715821Y651133D01*
X715586Y649952D01*
X715821Y648770D01*
X715984Y648526D01*
X714624Y647166D01*
X712810Y648981D01*
X697219Y633390D01*
X700304Y630306D01*
X699209Y629211D01*
X698647Y628371D01*
X698450Y627380D01*
Y612140D01*
X698647Y611149D01*
X699209Y610309D01*
X704563Y604955D01*
Y599927D01*
X703085Y598449D01*
X702197Y598536D01*
X701179Y599555D01*
X700516Y599998D01*
X699928Y600115D01*
X699811Y600702D01*
X699368Y601365D01*
X698350Y602383D01*
X697687Y602826D01*
X697100Y602943D01*
X696983Y603531D01*
X696540Y604193D01*
X695522Y605212D01*
X694859Y605654D01*
X694271Y605771D01*
X694154Y606359D01*
X693711Y607022D01*
X692693Y608040D01*
X692030Y608483D01*
X691443Y608600D01*
X691326Y609187D01*
X690883Y609850D01*
X689865Y610868D01*
X689202Y611311D01*
X688614Y611428D01*
X688498Y612016D01*
X688055Y612679D01*
X687036Y613697D01*
X686374Y614140D01*
X685592Y614295D01*
X684810Y614140D01*
X684147Y613697D01*
X674431Y603981D01*
X673988Y603318D01*
X673833Y602536D01*
X673988Y601754D01*
X674431Y601092D01*
X675449Y600073D01*
X676112Y599631D01*
X676700Y599514D01*
X676817Y598926D01*
X677260Y598263D01*
X678278Y597245D01*
X678941Y596802D01*
X679528Y596685D01*
X679645Y596098D01*
X680088Y595435D01*
X681106Y594417D01*
X681769Y593974D01*
X682357Y593857D01*
X682474Y593269D01*
X682916Y592606D01*
X683935Y591588D01*
X684597Y591145D01*
X685185Y591028D01*
X685302Y590441D01*
X685745Y589778D01*
X686763Y588760D01*
X687426Y588317D01*
X688014Y588200D01*
X688130Y587612D01*
X688573Y586950D01*
X689592Y585931D01*
X690254Y585488D01*
X690842Y585372D01*
X690959Y584784D01*
X691402Y584121D01*
X692420Y583103D01*
X693083Y582660D01*
X693670Y582543D01*
X693787Y581955D01*
X694230Y581293D01*
X695248Y580274D01*
X695911Y579832D01*
X696499Y579715D01*
X696616Y579127D01*
X697059Y578464D01*
X698077Y577446D01*
X698740Y577003D01*
X699327Y576886D01*
X699444Y576299D01*
X699887Y575636D01*
X700905Y574618D01*
X701568Y574175D01*
X702350Y574019D01*
X703132Y574175D01*
X703795Y574618D01*
X713511Y584333D01*
X713953Y584996D01*
X714109Y585778D01*
X713953Y586560D01*
X713511Y587223D01*
X712492Y588241D01*
X711829Y588684D01*
X711242Y588801D01*
X711125Y589388D01*
X710682Y590051D01*
X709664Y591069D01*
X709576Y591958D01*
X715356Y597738D01*
X715918Y598578D01*
X716115Y599569D01*
Y603335D01*
X721695Y608915D01*
X724671Y605939D01*
X724456Y605420D01*
Y603620D01*
X725145Y601957D01*
X726417Y600685D01*
X728080Y599996D01*
X728381Y599629D01*
X728286Y599152D01*
X728521Y597970D01*
X729190Y596968D01*
X731588Y594570D01*
X732590Y593901D01*
X733772Y593666D01*
X734953Y593901D01*
X734985Y593922D01*
X736162Y592745D01*
X736141Y592713D01*
X735906Y591532D01*
X735926Y591431D01*
X723407Y578912D01*
X721996Y578737D01*
X720977Y579756D01*
X720315Y580199D01*
X719727Y580316D01*
X719610Y580903D01*
X719167Y581566D01*
X718149Y582584D01*
X717486Y583027D01*
X716704Y583183D01*
X715922Y583027D01*
X715259Y582584D01*
X705544Y572869D01*
X705101Y572206D01*
X704945Y571424D01*
X705101Y570642D01*
X705544Y569979D01*
X706562Y568961D01*
X707225Y568518D01*
X707812Y568401D01*
X707929Y567813D01*
X708372Y567150D01*
X709390Y566132D01*
X710053Y565689D01*
X710641Y565573D01*
X710758Y564985D01*
X711201Y564322D01*
X712219Y563304D01*
X712882Y562861D01*
X713664Y562705D01*
X714446Y562861D01*
X715109Y563304D01*
X720059Y568254D01*
X720104Y568284D01*
X738989Y587169D01*
X739208Y586950D01*
X740210Y586281D01*
X741392Y586046D01*
X742573Y586281D01*
X743575Y586950D01*
X745619Y588995D01*
X746289Y589996D01*
X746524Y591178D01*
X746289Y592360D01*
X745619Y593361D01*
X743221Y595759D01*
X742220Y596429D01*
X741038Y596664D01*
X739856Y596429D01*
X739825Y596407D01*
X738647Y597585D01*
X738669Y597616D01*
X738904Y598798D01*
X738669Y599980D01*
X737999Y600981D01*
X735601Y603379D01*
X734600Y604049D01*
X733504Y604267D01*
Y605420D01*
X732815Y607083D01*
X731543Y608355D01*
X729880Y609044D01*
X729754D01*
X729268Y610217D01*
X740421Y621370D01*
X738606Y623184D01*
X739966Y624544D01*
X740210Y624381D01*
X741392Y624146D01*
X742573Y624381D01*
X743575Y625050D01*
X745619Y627095D01*
X746289Y628096D01*
X746524Y629278D01*
X746289Y630460D01*
X745619Y631461D01*
X743221Y633859D01*
X742220Y634529D01*
X741038Y634764D01*
X739856Y634529D01*
X738855Y633859D01*
X736810Y631815D01*
X736141Y630813D01*
X735906Y629632D01*
X736141Y628450D01*
X736304Y628206D01*
X734944Y626846D01*
X730487Y631303D01*
X714897Y615713D01*
X718033Y612577D01*
X711694Y606239D01*
X711133Y605398D01*
X711012Y604795D01*
X709743Y604920D01*
Y606027D01*
X709545Y607018D01*
X708984Y607859D01*
X703630Y613213D01*
Y625184D01*
X704900Y625710D01*
X707153Y623457D01*
X722743Y639047D01*
X718286Y643504D01*
X719646Y644864D01*
X719890Y644701D01*
X721072Y644466D01*
X722253Y644701D01*
X723255Y645370D01*
X725299Y647415D01*
X725969Y648416D01*
X726204Y649598D01*
X725969Y650780D01*
X725299Y651781D01*
X722901Y654179D01*
X721900Y654849D01*
X720718Y655084D01*
D02*
G37*
G36*
X398030Y635050D02*
X397779Y635000D01*
X397524Y635000D01*
X396052Y634707D01*
X395816Y634610D01*
X395566Y634560D01*
X394179Y633986D01*
X393967Y633844D01*
X393731Y633746D01*
X392483Y632912D01*
X392303Y632732D01*
X392091Y632590D01*
X391030Y631529D01*
X390888Y631317D01*
X390707Y631136D01*
X389874Y629888D01*
X389776Y629653D01*
X389634Y629440D01*
X389060Y628054D01*
X389010Y627803D01*
X388913Y627568D01*
X388620Y626096D01*
X388620Y625840D01*
X388570Y625590D01*
X388570Y624840D01*
X388570Y619760D01*
X388570Y619010D01*
X388620Y618759D01*
Y618504D01*
X388913Y617032D01*
X389010Y616796D01*
X389060Y616546D01*
X389635Y615160D01*
X389776Y614948D01*
X389874Y614712D01*
X390708Y613464D01*
X390888Y613283D01*
X391030Y613071D01*
X392091Y612010D01*
X392303Y611868D01*
X392484Y611688D01*
X393732Y610854D01*
X393967Y610756D01*
X394179Y610615D01*
X395566Y610040D01*
X395816Y609991D01*
X396052Y609893D01*
X397524Y609600D01*
X397779D01*
X398029Y609550D01*
X398780Y609550D01*
X414020Y609550D01*
X414110Y609568D01*
X414201Y609557D01*
X415435Y609643D01*
X415686Y609712D01*
X415945Y609731D01*
X417407Y610136D01*
X417719Y610293D01*
X418048Y610411D01*
X419627Y611358D01*
X419886Y611593D01*
X420171Y611795D01*
X421440Y613129D01*
X421627Y613424D01*
X421848Y613695D01*
X422268Y614483D01*
X422376Y614675D01*
X422633Y615068D01*
X422905Y615415D01*
X423227Y615758D01*
X423408Y615928D01*
X423434Y615964D01*
X423471Y615989D01*
X424300Y616075D01*
X424601Y616070D01*
X424673Y616060D01*
X424889Y615989D01*
X424926Y615964D01*
X424952Y615928D01*
X425134Y615758D01*
X425455Y615415D01*
X425727Y615068D01*
X425984Y614674D01*
X426092Y614482D01*
X426512Y613695D01*
X426733Y613424D01*
X426920Y613129D01*
X428189Y611795D01*
X428475Y611593D01*
X428733Y611358D01*
X430312Y610411D01*
X430641Y610293D01*
X430953Y610136D01*
X432728Y609644D01*
X433077Y609618D01*
X433419Y609550D01*
X434340Y609550D01*
X448384Y609550D01*
X448384Y609550D01*
X448384Y609550D01*
X449580Y609550D01*
X449678Y609570D01*
X449777Y609558D01*
X450994Y609650D01*
X451146Y609693D01*
X451303D01*
X452308Y609893D01*
X452544Y609990D01*
X452794Y610040D01*
X454181Y610614D01*
X454393Y610756D01*
X454628Y610854D01*
X455877Y611688D01*
X456057Y611868D01*
X456269Y612010D01*
X457330Y613071D01*
X457472Y613283D01*
X457653Y613464D01*
X458486Y614712D01*
X458584Y614947D01*
X458726Y615159D01*
X459300Y616546D01*
X459350Y616796D01*
X459447Y617032D01*
X459740Y618504D01*
X459740Y618759D01*
X459790Y619010D01*
X459790Y619760D01*
X459790Y623644D01*
X459790Y624840D01*
X459770Y624938D01*
X459782Y625037D01*
X459689Y626254D01*
X459647Y626406D01*
Y626563D01*
X459447Y627568D01*
X459350Y627803D01*
X459300Y628054D01*
X458726Y629440D01*
X458584Y629652D01*
X458486Y629888D01*
X457652Y631136D01*
X457472Y631316D01*
X457330Y631529D01*
X456269Y632590D01*
X456057Y632732D01*
X455876Y632912D01*
X454628Y633746D01*
X454393Y633844D01*
X454181Y633985D01*
X452794Y634560D01*
X452544Y634609D01*
X452308Y634707D01*
X450836Y635000D01*
X450581D01*
X450331Y635050D01*
X449580Y635050D01*
X434340Y635050D01*
X434340Y635050D01*
X433420Y635050D01*
X433077Y634982D01*
X432728Y634956D01*
X430953Y634464D01*
X430641Y634307D01*
X430312Y634189D01*
X428733Y633242D01*
X428474Y633007D01*
X428189Y632805D01*
X426920Y631471D01*
X426733Y631175D01*
X426512Y630905D01*
X426091Y630117D01*
X425984Y629925D01*
X425727Y629532D01*
X425455Y629185D01*
X425133Y628842D01*
X424952Y628672D01*
X424926Y628636D01*
X424889Y628611D01*
X424747Y628564D01*
X423613Y628564D01*
X423471Y628611D01*
X423434Y628636D01*
X423408Y628672D01*
X423226Y628842D01*
X422905Y629185D01*
X422633Y629532D01*
X422376Y629926D01*
X422268Y630118D01*
X421848Y630905D01*
X421627Y631175D01*
X421440Y631471D01*
X420171Y632805D01*
X419885Y633007D01*
X419627Y633242D01*
X418048Y634189D01*
X417719Y634307D01*
X417407Y634464D01*
X415632Y634956D01*
X415283Y634982D01*
X414940Y635050D01*
X414020Y635050D01*
X398780Y635050D01*
X398780Y635050D01*
X398030Y635050D01*
D02*
G37*
G36*
X561955Y660103D02*
X559064D01*
X557883Y659868D01*
X556881Y659199D01*
X556212Y658197D01*
X555977Y657016D01*
Y653624D01*
X556212Y652443D01*
X556881Y651441D01*
X557883Y650772D01*
X557920Y650764D01*
Y645944D01*
X549576D01*
Y635559D01*
X544269Y630251D01*
X543707Y629411D01*
X543571Y628724D01*
X542624Y627944D01*
X526576D01*
Y624010D01*
X522716D01*
X522708Y624047D01*
X522039Y625049D01*
X521037Y625718D01*
X519855Y625953D01*
X516465D01*
X515283Y625718D01*
X514281Y625049D01*
X513612Y624047D01*
X513377Y622865D01*
Y619975D01*
X513612Y618793D01*
X514281Y617791D01*
X515283Y617122D01*
X516465Y616887D01*
X519855D01*
X521037Y617122D01*
X522039Y617791D01*
X522708Y618793D01*
X522716Y618830D01*
X526576D01*
Y613896D01*
X538961D01*
X550169Y602689D01*
X551009Y602127D01*
X552000Y601930D01*
X582550D01*
X610767Y573714D01*
X610773Y573682D01*
X611216Y573019D01*
X620931Y563304D01*
X621594Y562861D01*
X622376Y562705D01*
X623158Y562861D01*
X623821Y563304D01*
X624839Y564322D01*
X625282Y564985D01*
X625399Y565573D01*
X625987Y565689D01*
X626650Y566132D01*
X627668Y567150D01*
X628111Y567813D01*
X628228Y568401D01*
X628815Y568518D01*
X629478Y568961D01*
X630496Y569979D01*
X630939Y570642D01*
X631056Y571229D01*
X631643Y571346D01*
X632306Y571789D01*
X633325Y572807D01*
X633768Y573470D01*
X633923Y574252D01*
X633768Y575034D01*
X633325Y575697D01*
X623609Y585413D01*
X622946Y585855D01*
X622164Y586011D01*
X621382Y585855D01*
X620719Y585413D01*
X619701Y584394D01*
X618812Y584307D01*
X615421Y587699D01*
Y591129D01*
X615224Y592120D01*
X614662Y592960D01*
X614241Y593381D01*
X614539Y594879D01*
X615168Y595140D01*
X616440Y596412D01*
X617828Y596445D01*
X618294Y596063D01*
Y595544D01*
X618491Y594553D01*
X619052Y593713D01*
X624909Y587856D01*
X624915Y587825D01*
X625358Y587162D01*
X635074Y577446D01*
X635736Y577003D01*
X636518Y576847D01*
X637300Y577003D01*
X637963Y577446D01*
X638981Y578464D01*
X639424Y579127D01*
X639541Y579715D01*
X640129Y579832D01*
X640792Y580274D01*
X641559Y581042D01*
X642543Y580767D01*
X642829Y580563D01*
Y573625D01*
X626295Y557091D01*
X625789Y556335D01*
X625612Y555443D01*
Y550516D01*
X624439Y550030D01*
X618275Y556194D01*
X618164Y557647D01*
X619183Y558665D01*
X619625Y559328D01*
X619781Y560110D01*
X619625Y560892D01*
X619183Y561555D01*
X609467Y571270D01*
X608804Y571713D01*
X608022Y571869D01*
X607240Y571713D01*
X606577Y571270D01*
X605559Y570252D01*
X605116Y569589D01*
X604999Y569002D01*
X604412Y568885D01*
X603749Y568442D01*
X602730Y567424D01*
X602288Y566761D01*
X602171Y566173D01*
X601583Y566057D01*
X600920Y565614D01*
X599902Y564595D01*
X599459Y563932D01*
X599342Y563345D01*
X598755Y563228D01*
X598092Y562785D01*
X597074Y561767D01*
X596631Y561104D01*
X596514Y560517D01*
X595926Y560400D01*
X595263Y559957D01*
X594245Y558938D01*
X593802Y558276D01*
X593685Y557688D01*
X593098Y557571D01*
X592435Y557128D01*
X591417Y556110D01*
X590974Y555447D01*
X590818Y554665D01*
X590974Y553883D01*
X591417Y553220D01*
X601132Y543505D01*
X601795Y543062D01*
X602577Y542906D01*
X603359Y543062D01*
X604022Y543505D01*
X605040Y544523D01*
X605483Y545186D01*
X605600Y545774D01*
X606188Y545890D01*
X606851Y546333D01*
X607869Y547351D01*
X608312Y548014D01*
X608428Y548602D01*
X609016Y548719D01*
X609679Y549162D01*
X610697Y550180D01*
X611140Y550843D01*
X611257Y551430D01*
X611844Y551547D01*
X612507Y551990D01*
X613526Y553008D01*
X614979Y552897D01*
X622564Y545312D01*
Y540965D01*
X622742Y540073D01*
X623247Y539317D01*
X638686Y523878D01*
X639442Y523373D01*
X640334Y523195D01*
X662686D01*
X663578Y523373D01*
X664334Y523878D01*
X669668Y529212D01*
X670173Y529968D01*
X670351Y530860D01*
Y538454D01*
X670173Y539346D01*
X669668Y540102D01*
X665776Y543994D01*
X665020Y544499D01*
X664128Y544676D01*
X664078D01*
X663906Y544711D01*
X660596D01*
X659844Y545463D01*
Y547000D01*
X659155Y548663D01*
X657883Y549935D01*
X656220Y550624D01*
X654420D01*
X652757Y549935D01*
X651485Y548663D01*
X650796Y547000D01*
Y545200D01*
X651485Y543537D01*
X652757Y542265D01*
X654229Y541655D01*
X654272Y541388D01*
Y540652D01*
X654229Y540385D01*
X652757Y539775D01*
X651485Y538503D01*
X650796Y536840D01*
Y535040D01*
X651485Y533377D01*
X652687Y532175D01*
X652660Y531829D01*
X652336Y530905D01*
X642562D01*
X630274Y543193D01*
Y554477D01*
X646808Y571012D01*
X647313Y571768D01*
X647491Y572660D01*
Y582581D01*
X647313Y583473D01*
X646808Y584229D01*
X646559Y584478D01*
X646449Y585931D01*
X647467Y586950D01*
X647910Y587612D01*
X648027Y588200D01*
X648614Y588317D01*
X649277Y588760D01*
X650295Y589778D01*
X650738Y590441D01*
X650855Y591028D01*
X651442Y591145D01*
X652105Y591588D01*
X652897Y592379D01*
X653663Y592565D01*
X654577Y592495D01*
X725480Y521592D01*
X726237Y521087D01*
X727129Y520909D01*
X730129D01*
X730225Y520677D01*
X731497Y519405D01*
X733160Y518716D01*
X734960D01*
X736623Y519405D01*
X737895Y520677D01*
X738584Y522340D01*
Y524140D01*
X737895Y525803D01*
X736623Y527075D01*
X734960Y527764D01*
X733160D01*
X731497Y527075D01*
X730225Y525803D01*
X730129Y525571D01*
X728094D01*
X657873Y595792D01*
X657803Y596706D01*
X657989Y597472D01*
X658780Y598263D01*
X659223Y598926D01*
X659340Y599514D01*
X659928Y599631D01*
X660591Y600073D01*
X661609Y601092D01*
X662052Y601754D01*
X662207Y602536D01*
X662052Y603318D01*
X661609Y603981D01*
X651893Y613697D01*
X651230Y614140D01*
X650448Y614295D01*
X649667Y614140D01*
X649004Y613697D01*
X647985Y612679D01*
X647542Y612016D01*
X647426Y611428D01*
X646838Y611311D01*
X646175Y610868D01*
X645157Y609850D01*
X644714Y609187D01*
X644597Y608600D01*
X644010Y608483D01*
X643347Y608040D01*
X642328Y607022D01*
X641886Y606359D01*
X641769Y605771D01*
X641181Y605654D01*
X640518Y605212D01*
X639500Y604193D01*
X639057Y603531D01*
X638940Y602943D01*
X638353Y602826D01*
X637690Y602383D01*
X636672Y601365D01*
X636229Y600702D01*
X636112Y600115D01*
X635524Y599998D01*
X634861Y599555D01*
X633843Y598536D01*
X633400Y597874D01*
X633283Y597286D01*
X632696Y597169D01*
X632033Y596726D01*
X631015Y595708D01*
X630572Y595045D01*
X630455Y594458D01*
X629868Y594341D01*
X629205Y593898D01*
X628186Y592880D01*
X627298Y592792D01*
X623473Y596617D01*
Y598316D01*
X623276Y599307D01*
X622715Y600148D01*
X617516Y605346D01*
X617679Y605590D01*
X617889Y606644D01*
X618059Y606900D01*
X618451Y607251D01*
X619021Y607616D01*
X620660D01*
X622323Y608305D01*
X623595Y609577D01*
X624284Y611240D01*
Y613040D01*
X623595Y614703D01*
X622323Y615975D01*
X620660Y616664D01*
X618860D01*
X617197Y615975D01*
X615925Y614703D01*
X615236Y613040D01*
Y612302D01*
X614204Y611508D01*
X613964Y611669D01*
X612782Y611904D01*
X611600Y611669D01*
X610599Y610999D01*
X608201Y608601D01*
X607531Y607600D01*
X607296Y606418D01*
X607531Y605236D01*
X608201Y604235D01*
X607345Y603379D01*
X606344Y604049D01*
X605162Y604284D01*
X603980Y604049D01*
X602979Y603379D01*
X600581Y600981D01*
X599911Y599980D01*
X599745Y599145D01*
X598771Y598685D01*
X598450Y598645D01*
X587188Y609907D01*
X586347Y610469D01*
X585356Y610666D01*
X554546D01*
X548690Y616522D01*
Y627347D01*
X553238Y631896D01*
X565624D01*
Y645944D01*
X563100D01*
Y650764D01*
X563137Y650772D01*
X564139Y651441D01*
X564808Y652443D01*
X565043Y653624D01*
Y657016D01*
X564808Y658197D01*
X564139Y659199D01*
X563137Y659868D01*
X561955Y660103D01*
D02*
G37*
G36*
X869264Y639944D02*
X858216D01*
Y619896D01*
X865235D01*
X872231Y612900D01*
Y608515D01*
X871844Y608256D01*
X871232Y607339D01*
X871135Y607322D01*
X870025D01*
X869928Y607339D01*
X869316Y608256D01*
X868382Y608880D01*
X867280Y609099D01*
X864880D01*
X863778Y608880D01*
X862844Y608256D01*
X862220Y607322D01*
X862001Y606220D01*
Y602820D01*
X862220Y601718D01*
X862844Y600784D01*
X862914Y600072D01*
X862305Y599463D01*
X861616Y597800D01*
Y596000D01*
X862305Y594337D01*
X863577Y593065D01*
X865240Y592376D01*
X867040D01*
X868703Y593065D01*
X869975Y594337D01*
X870664Y596000D01*
Y597800D01*
X869975Y599463D01*
X869257Y600181D01*
X869316Y600784D01*
X869928Y601701D01*
X870025Y601718D01*
X871135D01*
X871232Y601701D01*
X871844Y600784D01*
X872231Y600525D01*
Y595038D01*
X872231Y595038D01*
X872448Y593948D01*
X872801Y593420D01*
Y590120D01*
X873020Y589018D01*
X873644Y588084D01*
X874578Y587460D01*
X875680Y587241D01*
X878080D01*
X879182Y587460D01*
X880116Y588084D01*
X880728Y589001D01*
X880825Y589018D01*
X881935D01*
X882032Y589001D01*
X882644Y588084D01*
X883578Y587460D01*
X884680Y587241D01*
X887080D01*
X888182Y587460D01*
X889116Y588084D01*
X889740Y589018D01*
X889834Y589489D01*
X893115D01*
X899369Y583235D01*
Y563711D01*
X898099Y563459D01*
X897915Y563903D01*
X896643Y565175D01*
X894980Y565864D01*
X893180D01*
X891517Y565175D01*
X890245Y563903D01*
X889556Y562240D01*
Y560440D01*
X890245Y558777D01*
X891517Y557505D01*
X891749Y557409D01*
Y520531D01*
X890479Y520279D01*
X890295Y520723D01*
X889023Y521995D01*
X887360Y522684D01*
X885560D01*
X883897Y521995D01*
X882625Y520723D01*
X881936Y519060D01*
Y517260D01*
X882625Y515597D01*
X883897Y514325D01*
X884129Y514229D01*
Y177800D01*
X884307Y176908D01*
X884812Y176152D01*
X897512Y163452D01*
X898268Y162947D01*
X899160Y162769D01*
X920766D01*
X920860Y162298D01*
X921484Y161364D01*
X922418Y160740D01*
X923520Y160521D01*
X925920D01*
X927022Y160740D01*
X927956Y161364D01*
X928568Y162281D01*
X928665Y162298D01*
X929775D01*
X929872Y162281D01*
X930484Y161364D01*
X931418Y160740D01*
X932520Y160521D01*
X934920D01*
X936022Y160740D01*
X936956Y161364D01*
X937580Y162298D01*
X937790Y163351D01*
X960277D01*
X960296Y163280D01*
X961667Y160906D01*
X963606Y158967D01*
X965980Y157596D01*
X968629Y156886D01*
X971371D01*
X974020Y157596D01*
X976394Y158967D01*
X978333Y160906D01*
X979704Y163280D01*
X980414Y165929D01*
Y168671D01*
X979704Y171320D01*
X978333Y173694D01*
X976394Y175633D01*
X974020Y177004D01*
X971371Y177714D01*
X968629D01*
X965980Y177004D01*
X963606Y175633D01*
X961667Y173694D01*
X960296Y171320D01*
X959687Y169049D01*
X936637D01*
X936022Y169460D01*
X934920Y169679D01*
X932520D01*
X931418Y169460D01*
X930484Y168836D01*
X929872Y167919D01*
X929775Y167902D01*
X928665D01*
X928568Y167919D01*
X927956Y168836D01*
X927022Y169460D01*
X925920Y169679D01*
X923520D01*
X922418Y169460D01*
X921484Y168836D01*
X920860Y167902D01*
X920766Y167431D01*
X900125D01*
X888791Y178765D01*
Y514229D01*
X889023Y514325D01*
X890295Y515597D01*
X890479Y516041D01*
X891749Y515789D01*
X891749Y193040D01*
X891927Y192148D01*
X892432Y191392D01*
X896932Y186892D01*
X897688Y186387D01*
X898580Y186209D01*
X902599D01*
X903204Y185304D01*
X904138Y184680D01*
X905240Y184461D01*
X908640D01*
X909742Y184680D01*
X910676Y185304D01*
X911281Y186209D01*
X915299D01*
X915904Y185304D01*
X916838Y184680D01*
X917940Y184461D01*
X921340D01*
X922442Y184680D01*
X923376Y185304D01*
X924000Y186238D01*
X924219Y187340D01*
Y189740D01*
X924000Y190842D01*
X923376Y191776D01*
X922459Y192388D01*
X922442Y192485D01*
Y193595D01*
X922459Y193692D01*
X923376Y194304D01*
X923441Y194401D01*
X928151D01*
X928604Y193724D01*
X929521Y193112D01*
X929538Y193015D01*
Y191905D01*
X929521Y191808D01*
X928604Y191196D01*
X927980Y190262D01*
X927761Y189160D01*
Y186760D01*
X927980Y185658D01*
X928604Y184724D01*
X929538Y184100D01*
X930640Y183881D01*
X934040D01*
X935142Y184100D01*
X936076Y184724D01*
X936335Y185111D01*
X949960D01*
X949960Y185111D01*
X951050Y185328D01*
X951974Y185946D01*
X955880Y189851D01*
X959982D01*
X960296Y188680D01*
X961667Y186306D01*
X963606Y184367D01*
X965980Y182996D01*
X968629Y182286D01*
X971371D01*
X974020Y182996D01*
X976394Y184367D01*
X978333Y186306D01*
X979704Y188680D01*
X980414Y191329D01*
Y194071D01*
X979704Y196720D01*
X978333Y199094D01*
X976394Y201033D01*
X974020Y202404D01*
X971371Y203114D01*
X968629D01*
X965980Y202404D01*
X963606Y201033D01*
X961667Y199094D01*
X960296Y196720D01*
X959982Y195549D01*
X954700D01*
X954700Y195549D01*
X953610Y195332D01*
X952686Y194714D01*
X948780Y190809D01*
X936335D01*
X936076Y191196D01*
X935159Y191808D01*
X935142Y191905D01*
Y193015D01*
X935159Y193112D01*
X936076Y193724D01*
X936700Y194658D01*
X936919Y195760D01*
Y198160D01*
X936700Y199262D01*
X936076Y200196D01*
X935142Y200820D01*
X934040Y201039D01*
X930640D01*
X929538Y200820D01*
X928604Y200196D01*
X928539Y200099D01*
X923829D01*
X923376Y200776D01*
X922442Y201400D01*
X921340Y201619D01*
X917940D01*
X916838Y201400D01*
X915904Y200776D01*
X915280Y199842D01*
X915061Y198740D01*
Y196340D01*
X915280Y195238D01*
X915904Y194304D01*
X916821Y193692D01*
X916838Y193595D01*
Y192485D01*
X916821Y192388D01*
X915904Y191776D01*
X915299Y190871D01*
X911281D01*
X910676Y191776D01*
X909742Y192400D01*
X908640Y192619D01*
X905240D01*
X904138Y192400D01*
X903204Y191776D01*
X902599Y190871D01*
X899545D01*
X896411Y194005D01*
X896411Y520700D01*
Y557409D01*
X896643Y557505D01*
X897915Y558777D01*
X898099Y559221D01*
X899369Y558969D01*
Y434340D01*
X899547Y433448D01*
X900052Y432692D01*
X905132Y427612D01*
X905888Y427107D01*
X906780Y426929D01*
X910469D01*
X910565Y426697D01*
X911837Y425425D01*
X913500Y424736D01*
X915300D01*
X916963Y425425D01*
X918235Y426697D01*
X918331Y426929D01*
X921186D01*
X921280Y426458D01*
X921904Y425524D01*
X922838Y424900D01*
X923940Y424681D01*
X926340D01*
X927442Y424900D01*
X928376Y425524D01*
X928988Y426441D01*
X929085Y426458D01*
X930195D01*
X930292Y426441D01*
X930904Y425524D01*
X931838Y424900D01*
X932940Y424681D01*
X935340D01*
X936442Y424900D01*
X937376Y425524D01*
X937969Y426411D01*
X960976D01*
Y419776D01*
X979024D01*
Y437824D01*
X960976D01*
Y432109D01*
X937969D01*
X937376Y432996D01*
X936442Y433620D01*
X935340Y433839D01*
X932940D01*
X931838Y433620D01*
X930904Y432996D01*
X930292Y432079D01*
X930195Y432062D01*
X929085D01*
X928988Y432079D01*
X928376Y432996D01*
X927442Y433620D01*
X926340Y433839D01*
X923940D01*
X922838Y433620D01*
X921904Y432996D01*
X921280Y432062D01*
X921186Y431591D01*
X918331D01*
X918235Y431823D01*
X916963Y433095D01*
X915300Y433784D01*
X913500D01*
X911837Y433095D01*
X910565Y431823D01*
X910469Y431591D01*
X907746D01*
X904031Y435305D01*
Y584200D01*
X903853Y585092D01*
X903348Y585848D01*
X895728Y593468D01*
X894972Y593973D01*
X894080Y594151D01*
X889834D01*
X889740Y594622D01*
X889116Y595556D01*
X888182Y596180D01*
X887080Y596399D01*
X884680D01*
X883578Y596180D01*
X882644Y595556D01*
X882032Y594639D01*
X881935Y594622D01*
X880825D01*
X880728Y594639D01*
X880116Y595556D01*
X879182Y596180D01*
X878080Y596399D01*
X877929D01*
Y600525D01*
X878316Y600784D01*
X878909Y601671D01*
X881516D01*
X881522Y601643D01*
X882191Y600641D01*
X883193Y599972D01*
X884374Y599737D01*
X887265D01*
X888447Y599972D01*
X889449Y600641D01*
X890118Y601643D01*
X890353Y602825D01*
Y606216D01*
X890118Y607397D01*
X889449Y608399D01*
X888447Y609068D01*
X887265Y609303D01*
X884374D01*
X883193Y609068D01*
X882191Y608399D01*
X881522Y607397D01*
X881516Y607369D01*
X878909D01*
X878316Y608256D01*
X877929Y608515D01*
Y614080D01*
X877929Y614080D01*
X877712Y615170D01*
X877094Y616094D01*
X877094Y616094D01*
X869264Y623925D01*
Y639944D01*
D02*
G37*
G36*
X348050Y631074D02*
X346250D01*
X344587Y630385D01*
X343315Y629113D01*
X342626Y627450D01*
Y625650D01*
X343315Y623987D01*
X343921Y623381D01*
X343812Y621933D01*
X343521Y621739D01*
X342852Y620737D01*
X342617Y619556D01*
Y616165D01*
X342852Y614983D01*
X343521Y613981D01*
X344301Y613460D01*
Y612100D01*
X343521Y611579D01*
X342852Y610577D01*
X342617Y609395D01*
Y606004D01*
X342852Y604823D01*
X343521Y603821D01*
X344301Y603300D01*
Y572330D01*
X344301Y572330D01*
X344518Y571240D01*
X345136Y570316D01*
X354216Y561236D01*
X355140Y560618D01*
X356230Y560401D01*
X356230Y560401D01*
X357886D01*
Y557916D01*
X373977D01*
X374463Y556743D01*
X373605Y555884D01*
X357886D01*
Y545216D01*
X377444D01*
Y552044D01*
X380503Y555103D01*
X381091Y555984D01*
X381298Y557023D01*
Y558507D01*
X388852D01*
X389891Y558714D01*
X390772Y559302D01*
X391672Y560203D01*
X392942Y559677D01*
Y557563D01*
X393149Y556524D01*
X393737Y555643D01*
X396741Y552640D01*
Y551200D01*
X396960Y550098D01*
X397584Y549164D01*
X398518Y548540D01*
X399620Y548321D01*
X403020D01*
X404122Y548540D01*
X405056Y549164D01*
X405404Y549685D01*
X422804D01*
X423843Y549892D01*
X424724Y550480D01*
X426549Y552305D01*
X429055D01*
Y550496D01*
X444103D01*
Y552305D01*
X455057D01*
Y550496D01*
X470105D01*
Y555704D01*
X470752Y556352D01*
X471553Y556887D01*
X473163Y558497D01*
X473752Y559378D01*
X473831Y559777D01*
X506612D01*
X507651Y559984D01*
X508532Y560573D01*
X537065Y589105D01*
X577995D01*
X584703Y582397D01*
X584596Y581442D01*
X583390Y580760D01*
X582560Y581104D01*
X580760D01*
X579097Y580415D01*
X577825Y579143D01*
X577136Y577480D01*
Y575680D01*
X577267Y575364D01*
X576377Y574193D01*
X575575Y574034D01*
X574573Y573364D01*
X572176Y570967D01*
X571506Y569965D01*
X571271Y568783D01*
X571506Y567602D01*
X571527Y567570D01*
X570350Y566393D01*
X570318Y566414D01*
X569137Y566649D01*
X567955Y566414D01*
X566953Y565744D01*
X564556Y563347D01*
X563886Y562345D01*
X563651Y561163D01*
X563886Y559982D01*
X564556Y558980D01*
X566380Y557155D01*
Y556948D01*
X566577Y555956D01*
X567139Y555116D01*
X579654Y542601D01*
X579660Y542570D01*
X580103Y541907D01*
X589819Y532191D01*
X590482Y531748D01*
X591264Y531593D01*
X592046Y531748D01*
X592708Y532191D01*
X593727Y533209D01*
X594170Y533872D01*
X594286Y534460D01*
X594874Y534577D01*
X595537Y535020D01*
X596555Y536038D01*
X596998Y536701D01*
X597115Y537288D01*
X597702Y537405D01*
X598365Y537848D01*
X599384Y538866D01*
X599826Y539529D01*
X599982Y540311D01*
X599826Y541093D01*
X599384Y541756D01*
X590448Y550691D01*
X590195Y551070D01*
X589816Y551323D01*
X589668Y551471D01*
X589114Y551842D01*
X587083Y553873D01*
Y557843D01*
X593740Y564500D01*
X594328Y565381D01*
X594535Y566420D01*
Y584855D01*
X594328Y585894D01*
X593740Y586775D01*
X582720Y597795D01*
X581839Y598384D01*
X580800Y598591D01*
X534260D01*
X533221Y598384D01*
X532340Y597795D01*
X503808Y569263D01*
X473831D01*
X473752Y569662D01*
X473163Y570543D01*
X471553Y572153D01*
X470752Y572688D01*
X470105Y573336D01*
Y578544D01*
X455057D01*
Y576735D01*
X444103D01*
Y578544D01*
X429055D01*
X429055Y578544D01*
Y578544D01*
X428027Y579112D01*
X426620Y580520D01*
X425739Y581108D01*
X424700Y581315D01*
X405404D01*
X405056Y581836D01*
X404122Y582460D01*
X403020Y582679D01*
X399620D01*
X398518Y582460D01*
X397584Y581836D01*
X396960Y580902D01*
X396741Y579800D01*
Y578360D01*
X393737Y575357D01*
X393149Y574476D01*
X392942Y573437D01*
Y570243D01*
X389422D01*
X388383Y570036D01*
X387503Y569448D01*
X386048Y567993D01*
X381298D01*
Y569477D01*
X381091Y570516D01*
X380503Y571397D01*
X377444Y574455D01*
Y581284D01*
X357886D01*
Y570616D01*
X373605D01*
X374463Y569757D01*
X373977Y568584D01*
X357886D01*
Y567419D01*
X356616Y566893D01*
X349999Y573510D01*
Y603300D01*
X350779Y603821D01*
X351448Y604823D01*
X351683Y606004D01*
Y609395D01*
X351448Y610577D01*
X350779Y611579D01*
X349999Y612100D01*
Y613460D01*
X350779Y613981D01*
X351448Y614983D01*
X351683Y616165D01*
Y619556D01*
X351448Y620737D01*
X350779Y621739D01*
X350488Y621933D01*
X350379Y623381D01*
X350985Y623987D01*
X351674Y625650D01*
Y627450D01*
X350985Y629113D01*
X349713Y630385D01*
X348050Y631074D01*
D02*
G37*
G36*
X761358Y576344D02*
X760176Y576109D01*
X759175Y575439D01*
X757130Y573395D01*
X756836Y572955D01*
X756688Y572856D01*
X741410Y557578D01*
X741378Y557571D01*
X740715Y557128D01*
X731000Y547413D01*
X730557Y546750D01*
X730401Y545968D01*
X730557Y545186D01*
X731000Y544523D01*
X732018Y543505D01*
X732681Y543062D01*
X733268Y542945D01*
X733385Y542357D01*
X733828Y541695D01*
X734846Y540676D01*
X735509Y540233D01*
X736097Y540117D01*
X736214Y539529D01*
X736656Y538866D01*
X737675Y537848D01*
X738338Y537405D01*
X738925Y537288D01*
X739042Y536701D01*
X739485Y536038D01*
X740503Y535020D01*
X741166Y534577D01*
X741754Y534460D01*
X741870Y533872D01*
X742313Y533209D01*
X743332Y532191D01*
X743995Y531748D01*
X744776Y531593D01*
X745558Y531748D01*
X746221Y532191D01*
X755937Y541907D01*
X756380Y542570D01*
X756535Y543352D01*
X756380Y544133D01*
X755937Y544796D01*
X754919Y545815D01*
X754256Y546258D01*
X753668Y546374D01*
X753551Y546962D01*
X753109Y547625D01*
X752090Y548643D01*
X751427Y549086D01*
X750840Y549203D01*
X750723Y549790D01*
X750280Y550453D01*
X749262Y551471D01*
X748599Y551914D01*
X748011Y552031D01*
X747895Y552619D01*
X747452Y553282D01*
X746433Y554300D01*
X746346Y555189D01*
X756888Y565731D01*
X758266Y565313D01*
X758329Y564997D01*
X757700Y564368D01*
X757011Y562705D01*
Y560905D01*
X757700Y559243D01*
X758972Y557970D01*
X760635Y557281D01*
X762435D01*
X764097Y557970D01*
X765370Y559243D01*
X766059Y560905D01*
Y562705D01*
X765370Y564368D01*
X764213Y565525D01*
Y566948D01*
X765939Y568675D01*
X766609Y569676D01*
X766844Y570858D01*
X766609Y572040D01*
X765939Y573041D01*
X763541Y575439D01*
X762540Y576109D01*
X761358Y576344D01*
D02*
G37*
G36*
X971188Y564824D02*
X968812D01*
X966517Y564209D01*
X964459Y563021D01*
X962779Y561341D01*
X961591Y559283D01*
X960976Y556988D01*
Y554612D01*
X961591Y552317D01*
X962779Y550259D01*
X964459Y548579D01*
X966517Y547391D01*
X968812Y546776D01*
X971188D01*
X973483Y547391D01*
X975541Y548579D01*
X977221Y550259D01*
X978409Y552317D01*
X979024Y554612D01*
Y556988D01*
X978409Y559283D01*
X977221Y561341D01*
X975541Y563021D01*
X973483Y564209D01*
X971188Y564824D01*
D02*
G37*
G36*
X377444Y543184D02*
X357886D01*
Y532516D01*
X377444D01*
Y543184D01*
D02*
G37*
G36*
X971188Y539424D02*
X968812D01*
X966517Y538809D01*
X964459Y537621D01*
X962779Y535941D01*
X961591Y533883D01*
X960976Y531588D01*
Y529212D01*
X961591Y526917D01*
X962779Y524859D01*
X964459Y523179D01*
X966517Y521991D01*
X968812Y521376D01*
X971188D01*
X973483Y521991D01*
X975541Y523179D01*
X977221Y524859D01*
X978409Y526917D01*
X979024Y529212D01*
Y531588D01*
X978409Y533883D01*
X977221Y535941D01*
X975541Y537621D01*
X973483Y538809D01*
X971188Y539424D01*
D02*
G37*
G36*
X377444Y530484D02*
X357886D01*
Y519816D01*
X377444D01*
Y530484D01*
D02*
G37*
G36*
X971188Y514024D02*
X968812D01*
X966517Y513409D01*
X964459Y512221D01*
X962779Y510541D01*
X961591Y508483D01*
X960976Y506188D01*
Y503812D01*
X961591Y501517D01*
X962779Y499459D01*
X964459Y497779D01*
X966517Y496591D01*
X968812Y495976D01*
X971188D01*
X973483Y496591D01*
X975541Y497779D01*
X977221Y499459D01*
X978409Y501517D01*
X979024Y503812D01*
Y506188D01*
X978409Y508483D01*
X977221Y510541D01*
X975541Y512221D01*
X973483Y513409D01*
X971188Y514024D01*
D02*
G37*
G36*
X602577Y508654D02*
X601795Y508498D01*
X601132Y508055D01*
X591417Y498340D01*
X590974Y497677D01*
X590968Y497645D01*
X579154Y485832D01*
X577861D01*
X576364Y487329D01*
X575430Y487953D01*
X574328Y488172D01*
X573227Y487953D01*
X572293Y487329D01*
X570595Y485631D01*
X569971Y484697D01*
X569752Y483596D01*
X569971Y482494D01*
X570595Y481559D01*
X572999Y479155D01*
X573934Y478531D01*
X575036Y478312D01*
X576137Y478531D01*
X577071Y479155D01*
X578568Y480652D01*
X580227D01*
X581218Y480849D01*
X582058Y481411D01*
X585517Y484869D01*
X586690Y484383D01*
Y478593D01*
X585448Y477351D01*
X585205Y477514D01*
X584023Y477749D01*
X582842Y477514D01*
X581840Y476844D01*
X579796Y474800D01*
X579126Y473798D01*
X578891Y472617D01*
X579126Y471435D01*
X579796Y470433D01*
X582193Y468036D01*
X583195Y467366D01*
X584377Y467131D01*
X584756Y466820D01*
Y466460D01*
X585445Y464797D01*
X586717Y463525D01*
X588380Y462836D01*
X588740D01*
X589051Y462457D01*
X589286Y461275D01*
X589956Y460273D01*
X592353Y457876D01*
X593355Y457206D01*
X594537Y456971D01*
X594916Y456660D01*
Y456300D01*
X595605Y454637D01*
X596877Y453365D01*
X598540Y452676D01*
X600340D01*
X602003Y453365D01*
X603275Y454637D01*
X603964Y456300D01*
Y458100D01*
X603275Y459763D01*
X602003Y461035D01*
X600340Y461724D01*
X599980D01*
X599669Y462103D01*
X599434Y463285D01*
X598809Y464220D01*
X610327Y475738D01*
X611216Y475651D01*
X612234Y474633D01*
X612897Y474190D01*
X613484Y474073D01*
X613601Y473485D01*
X614044Y472822D01*
X615062Y471804D01*
X615725Y471361D01*
X616313Y471244D01*
X616430Y470657D01*
X616873Y469994D01*
X617891Y468976D01*
X618554Y468533D01*
X619141Y468416D01*
X619258Y467828D01*
X619701Y467166D01*
X620719Y466147D01*
X621382Y465704D01*
X621970Y465588D01*
X622087Y465000D01*
X622529Y464337D01*
X623548Y463319D01*
X624211Y462876D01*
X624798Y462759D01*
X624915Y462172D01*
X625358Y461509D01*
X626376Y460490D01*
X627039Y460048D01*
X627627Y459931D01*
X627743Y459343D01*
X628186Y458680D01*
X628665Y458202D01*
X628813Y456554D01*
X597233Y424975D01*
X596878Y425179D01*
X595219Y425624D01*
X593501D01*
X591842Y425179D01*
X590354Y424320D01*
X589140Y423106D01*
X588281Y421618D01*
X587836Y419959D01*
Y418241D01*
X588281Y416582D01*
X589140Y415094D01*
X590354Y413880D01*
X591842Y413021D01*
X593501Y412576D01*
X595219D01*
X596878Y413021D01*
X598366Y413880D01*
X599580Y415094D01*
X600439Y416582D01*
X600884Y418241D01*
Y419959D01*
X600600Y421017D01*
X632432Y452849D01*
X633039Y452924D01*
X634123Y452744D01*
X634861Y452005D01*
X635524Y451562D01*
X636112Y451446D01*
X636229Y450858D01*
X636672Y450195D01*
X637690Y449177D01*
X638353Y448734D01*
X638940Y448617D01*
X639057Y448030D01*
X639500Y447367D01*
X640518Y446348D01*
X640606Y445460D01*
X610309Y415163D01*
X609747Y414323D01*
X609550Y413331D01*
Y409898D01*
X608134Y409081D01*
X606920Y407866D01*
X606061Y406378D01*
X605616Y404719D01*
Y403001D01*
X606061Y401342D01*
X606920Y399854D01*
X608134Y398639D01*
X609622Y397781D01*
X611281Y397336D01*
X612999D01*
X614658Y397781D01*
X616146Y398639D01*
X617360Y399854D01*
X618219Y401342D01*
X618664Y403001D01*
Y404719D01*
X618219Y406378D01*
X617360Y407866D01*
X616146Y409081D01*
X614730Y409898D01*
Y412259D01*
X644268Y441797D01*
X645157Y441710D01*
X646175Y440691D01*
X646838Y440249D01*
X647426Y440132D01*
X647542Y439544D01*
X647985Y438881D01*
X649004Y437863D01*
X649667Y437420D01*
X650448Y437265D01*
X651230Y437420D01*
X651893Y437863D01*
X661609Y447579D01*
X662052Y448242D01*
X662207Y449024D01*
X662052Y449805D01*
X661609Y450468D01*
X660591Y451487D01*
X659928Y451930D01*
X659340Y452046D01*
X659223Y452634D01*
X658780Y453297D01*
X657762Y454315D01*
X657099Y454758D01*
X656512Y454875D01*
X656395Y455462D01*
X655952Y456125D01*
X654934Y457144D01*
X654271Y457586D01*
X653683Y457703D01*
X653567Y458291D01*
X653124Y458954D01*
X652105Y459972D01*
X651442Y460415D01*
X650855Y460532D01*
X650738Y461119D01*
X650295Y461782D01*
X649277Y462800D01*
X648614Y463243D01*
X648027Y463360D01*
X647910Y463948D01*
X647467Y464610D01*
X646449Y465629D01*
X645786Y466072D01*
X645198Y466189D01*
X645081Y466776D01*
X644638Y467439D01*
X643620Y468457D01*
X642957Y468900D01*
X642370Y469017D01*
X642253Y469604D01*
X641810Y470267D01*
X640792Y471286D01*
X640129Y471729D01*
X639541Y471845D01*
X639424Y472433D01*
X638981Y473096D01*
X637963Y474114D01*
X637300Y474557D01*
X636713Y474674D01*
X636596Y475261D01*
X636153Y475924D01*
X635135Y476942D01*
X634472Y477385D01*
X633884Y477502D01*
X633768Y478090D01*
X633325Y478753D01*
X632306Y479771D01*
X631643Y480214D01*
X631056Y480331D01*
X630939Y480918D01*
X630496Y481581D01*
X629478Y482599D01*
X628815Y483042D01*
X628228Y483159D01*
X628111Y483747D01*
X627668Y484409D01*
X626650Y485428D01*
X625987Y485871D01*
X625399Y485988D01*
X625282Y486575D01*
X624839Y487238D01*
X623821Y488256D01*
X623158Y488699D01*
X622571Y488816D01*
X622454Y489403D01*
X622011Y490066D01*
X620993Y491085D01*
X620330Y491527D01*
X619548Y491683D01*
X618766Y491527D01*
X618103Y491085D01*
X608387Y481369D01*
X607944Y480706D01*
X607938Y480674D01*
X595074Y467810D01*
X593804Y468260D01*
X593115Y469923D01*
X591843Y471195D01*
X590180Y471884D01*
X589820D01*
X589509Y472263D01*
X589274Y473445D01*
X589111Y473689D01*
X591111Y475689D01*
X591673Y476529D01*
X591870Y477520D01*
Y485565D01*
X597458Y491154D01*
X597490Y491160D01*
X598153Y491603D01*
X607869Y501319D01*
X608312Y501982D01*
X608467Y502764D01*
X608312Y503546D01*
X607869Y504208D01*
X606851Y505227D01*
X606188Y505670D01*
X605600Y505787D01*
X605483Y506374D01*
X605040Y507037D01*
X604022Y508055D01*
X603359Y508498D01*
X602577Y508654D01*
D02*
G37*
G36*
X611063Y500168D02*
X610281Y500013D01*
X609618Y499570D01*
X599902Y489854D01*
X599459Y489191D01*
X599304Y488409D01*
X599459Y487627D01*
X599902Y486965D01*
X600920Y485946D01*
X601583Y485503D01*
X602171Y485387D01*
X602288Y484799D01*
X602730Y484136D01*
X603749Y483118D01*
X604412Y482675D01*
X605194Y482519D01*
X605975Y482675D01*
X606638Y483118D01*
X616354Y492834D01*
X616797Y493496D01*
X616953Y494278D01*
X616797Y495060D01*
X616354Y495723D01*
X615336Y496741D01*
X614673Y497184D01*
X614085Y497301D01*
X613969Y497889D01*
X613526Y498552D01*
X612507Y499570D01*
X611844Y500013D01*
X611063Y500168D01*
D02*
G37*
G36*
X744776Y519967D02*
X743995Y519812D01*
X743332Y519369D01*
X742313Y518351D01*
X741870Y517688D01*
X741754Y517100D01*
X741166Y516983D01*
X740503Y516540D01*
X739485Y515522D01*
X739042Y514859D01*
X738925Y514272D01*
X738338Y514155D01*
X737675Y513712D01*
X736656Y512694D01*
X736214Y512031D01*
X736097Y511443D01*
X735509Y511326D01*
X734846Y510884D01*
X733828Y509865D01*
X733385Y509202D01*
X733268Y508615D01*
X732681Y508498D01*
X732018Y508055D01*
X731000Y507037D01*
X730557Y506374D01*
X730440Y505787D01*
X729852Y505670D01*
X729190Y505227D01*
X728171Y504208D01*
X727728Y503546D01*
X727611Y502958D01*
X727024Y502841D01*
X726361Y502398D01*
X725343Y501380D01*
X724900Y500717D01*
X724783Y500130D01*
X724195Y500013D01*
X723533Y499570D01*
X722514Y498552D01*
X722072Y497889D01*
X721955Y497301D01*
X721367Y497184D01*
X720704Y496741D01*
X719686Y495723D01*
X719243Y495060D01*
X719126Y494473D01*
X718539Y494356D01*
X717876Y493913D01*
X716858Y492895D01*
X716415Y492232D01*
X716259Y491450D01*
X716415Y490668D01*
X716858Y490005D01*
X726573Y480289D01*
X727236Y479847D01*
X727268Y479840D01*
X736262Y470846D01*
Y464203D01*
X734270Y462212D01*
X733601Y461210D01*
X733366Y460028D01*
X733601Y458847D01*
X734270Y457845D01*
X736315Y455801D01*
X737316Y455131D01*
X738498Y454896D01*
X739680Y455131D01*
X740681Y455801D01*
X743079Y458199D01*
X743749Y459200D01*
X743984Y460382D01*
X743749Y461564D01*
X743079Y462565D01*
X743935Y463421D01*
X744936Y462751D01*
X746118Y462516D01*
X747300Y462751D01*
X748301Y463421D01*
X750699Y465819D01*
X751369Y466820D01*
X751604Y468002D01*
X751369Y469184D01*
X750699Y470185D01*
X751555Y471041D01*
X752556Y470371D01*
X753738Y470136D01*
X754920Y470371D01*
X755921Y471041D01*
X758319Y473439D01*
X758989Y474440D01*
X759224Y475622D01*
X759917Y476466D01*
X760360D01*
X762023Y477155D01*
X763295Y478428D01*
X763984Y480090D01*
Y481890D01*
X763295Y483553D01*
X762023Y484826D01*
X760360Y485514D01*
X758560D01*
X756897Y484826D01*
X755625Y483553D01*
X754936Y481890D01*
Y481447D01*
X754092Y480754D01*
X752910Y480519D01*
X752666Y480356D01*
X747074Y485948D01*
X746234Y486510D01*
X745243Y486707D01*
X738352D01*
X737255Y487878D01*
X737285Y488332D01*
X737948Y488775D01*
X738966Y489793D01*
X739409Y490456D01*
X739526Y491043D01*
X740114Y491160D01*
X740777Y491603D01*
X741795Y492621D01*
X742238Y493284D01*
X742355Y493872D01*
X742942Y493989D01*
X743605Y494432D01*
X744623Y495450D01*
X745066Y496113D01*
X745183Y496700D01*
X745770Y496817D01*
X746433Y497260D01*
X747452Y498278D01*
X747895Y498941D01*
X748011Y499529D01*
X748599Y499646D01*
X749262Y500089D01*
X750280Y501107D01*
X750723Y501770D01*
X750840Y502357D01*
X751427Y502474D01*
X752090Y502917D01*
X753109Y503935D01*
X753551Y504598D01*
X753668Y505186D01*
X754256Y505302D01*
X754919Y505745D01*
X755937Y506764D01*
X756380Y507426D01*
X756535Y508208D01*
X756380Y508990D01*
X755937Y509653D01*
X746221Y519369D01*
X745558Y519812D01*
X744776Y519967D01*
D02*
G37*
G36*
X971188Y463224D02*
X968812D01*
X966517Y462609D01*
X964459Y461421D01*
X962779Y459741D01*
X961591Y457683D01*
X961421Y457049D01*
X937455D01*
X937358Y457537D01*
X936689Y458539D01*
X935687Y459208D01*
X934505Y459443D01*
X931615D01*
X930433Y459208D01*
X929431Y458539D01*
X928762Y457537D01*
X928527Y456356D01*
Y452965D01*
X928762Y451783D01*
X929431Y450781D01*
X930211Y450260D01*
Y448929D01*
X929225Y447943D01*
X928536Y446280D01*
Y444480D01*
X929225Y442817D01*
X930497Y441545D01*
X932160Y440856D01*
X933960D01*
X935623Y441545D01*
X936895Y442817D01*
X937584Y444480D01*
Y446280D01*
X936895Y447943D01*
X935909Y448929D01*
Y450260D01*
X936689Y450781D01*
X937070Y451351D01*
X961421D01*
X961591Y450717D01*
X962779Y448659D01*
X964459Y446979D01*
X966517Y445791D01*
X968812Y445176D01*
X971188D01*
X973483Y445791D01*
X975541Y446979D01*
X977221Y448659D01*
X978409Y450717D01*
X979024Y453012D01*
Y455388D01*
X978409Y457683D01*
X977221Y459741D01*
X975541Y461421D01*
X973483Y462609D01*
X971188Y463224D01*
D02*
G37*
G36*
X713664Y488855D02*
X712882Y488699D01*
X712219Y488256D01*
X711201Y487238D01*
X710758Y486575D01*
X710641Y485988D01*
X710053Y485871D01*
X709390Y485428D01*
X708372Y484409D01*
X707929Y483747D01*
X707812Y483159D01*
X707225Y483042D01*
X706562Y482599D01*
X705544Y481581D01*
X705101Y480918D01*
X704984Y480331D01*
X704397Y480214D01*
X703734Y479771D01*
X702715Y478753D01*
X702272Y478090D01*
X702156Y477502D01*
X701568Y477385D01*
X700905Y476942D01*
X699887Y475924D01*
X699444Y475261D01*
X699327Y474674D01*
X698740Y474557D01*
X698077Y474114D01*
X697059Y473096D01*
X696616Y472433D01*
X696499Y471845D01*
X695911Y471729D01*
X695248Y471286D01*
X694230Y470267D01*
X693787Y469604D01*
X693670Y469017D01*
X693083Y468900D01*
X692420Y468457D01*
X691402Y467439D01*
X690959Y466776D01*
X690842Y466189D01*
X690254Y466072D01*
X689592Y465629D01*
X688573Y464610D01*
X688130Y463948D01*
X688014Y463360D01*
X687426Y463243D01*
X686763Y462800D01*
X685745Y461782D01*
X685302Y461119D01*
X685185Y460532D01*
X684597Y460415D01*
X683935Y459972D01*
X682916Y458954D01*
X682474Y458291D01*
X682357Y457703D01*
X681769Y457586D01*
X681106Y457144D01*
X680088Y456125D01*
X679645Y455462D01*
X679528Y454875D01*
X678941Y454758D01*
X678278Y454315D01*
X677260Y453297D01*
X676817Y452634D01*
X676700Y452046D01*
X676112Y451930D01*
X675449Y451487D01*
X674431Y450468D01*
X673988Y449805D01*
X673833Y449024D01*
X673988Y448242D01*
X674431Y447579D01*
X684147Y437863D01*
X684810Y437420D01*
X685592Y437265D01*
X686374Y437420D01*
X687036Y437863D01*
X688055Y438881D01*
X688498Y439544D01*
X688614Y440132D01*
X689202Y440249D01*
X689865Y440691D01*
X690883Y441710D01*
X691326Y442373D01*
X691443Y442960D01*
X692030Y443077D01*
X692693Y443520D01*
X693711Y444538D01*
X694154Y445201D01*
X694271Y445789D01*
X694859Y445905D01*
X695522Y446348D01*
X696540Y447367D01*
X696983Y448030D01*
X697100Y448617D01*
X697687Y448734D01*
X698350Y449177D01*
X699368Y450195D01*
X700822Y450084D01*
X708869Y442037D01*
Y424180D01*
X709047Y423288D01*
X709552Y422532D01*
X714392Y417692D01*
X714296Y417460D01*
Y415660D01*
X714985Y413997D01*
X716257Y412725D01*
X717920Y412036D01*
X719720D01*
X721383Y412725D01*
X722655Y413997D01*
X723344Y415660D01*
Y417460D01*
X722655Y419123D01*
X721383Y420395D01*
X719720Y421084D01*
X717920D01*
X717688Y420988D01*
X713531Y425145D01*
Y443002D01*
X713353Y443894D01*
X712848Y444650D01*
X704118Y453380D01*
X704007Y454834D01*
X705025Y455852D01*
X705468Y456515D01*
X705585Y457102D01*
X706172Y457219D01*
X706835Y457662D01*
X707854Y458680D01*
X708297Y459343D01*
X708413Y459931D01*
X709001Y460048D01*
X709664Y460490D01*
X710682Y461509D01*
X711125Y462172D01*
X711242Y462759D01*
X711829Y462876D01*
X712492Y463319D01*
X713511Y464337D01*
X713953Y465000D01*
X714070Y465588D01*
X714658Y465704D01*
X715321Y466147D01*
X716339Y467166D01*
X716782Y467828D01*
X716899Y468416D01*
X717486Y468533D01*
X718149Y468976D01*
X719167Y469994D01*
X720621Y469883D01*
X724109Y466395D01*
Y433191D01*
X723877Y433095D01*
X722605Y431823D01*
X721916Y430160D01*
Y428360D01*
X722605Y426697D01*
X723877Y425425D01*
X725540Y424736D01*
X727340D01*
X729003Y425425D01*
X730275Y426697D01*
X730964Y428360D01*
Y430160D01*
X730275Y431823D01*
X729003Y433095D01*
X728771Y433191D01*
Y467360D01*
X728593Y468252D01*
X728088Y469008D01*
X723917Y473179D01*
X723806Y474633D01*
X724824Y475651D01*
X725267Y476314D01*
X725423Y477096D01*
X725267Y477878D01*
X724824Y478540D01*
X715109Y488256D01*
X714446Y488699D01*
X713664Y488855D01*
D02*
G37*
G36*
X921756Y373083D02*
X918865D01*
X917683Y372848D01*
X916681Y372179D01*
X916478Y371876D01*
X914909Y371649D01*
X914423Y372135D01*
X912760Y372824D01*
X910960D01*
X909297Y372135D01*
X908025Y370863D01*
X907336Y369200D01*
Y367400D01*
X908025Y365737D01*
X909297Y364465D01*
X910960Y363776D01*
X912760D01*
X914423Y364465D01*
X914909Y364951D01*
X916478Y364724D01*
X916681Y364421D01*
X917683Y363752D01*
X918519Y363585D01*
Y360112D01*
X917758Y359960D01*
X916824Y359336D01*
X916200Y358402D01*
X915981Y357300D01*
Y353900D01*
X916200Y352798D01*
X916824Y351864D01*
X917758Y351240D01*
X918860Y351021D01*
X921260D01*
X922362Y351240D01*
X923296Y351864D01*
X923908Y352781D01*
X924005Y352798D01*
X925115D01*
X925212Y352781D01*
X925824Y351864D01*
X926758Y351240D01*
X927860Y351021D01*
X930260D01*
X931362Y351240D01*
X932296Y351864D01*
X932920Y352798D01*
X933034Y353369D01*
X960097D01*
X960511Y352369D01*
X961570Y350990D01*
X961721Y350874D01*
X961290Y349604D01*
X959676D01*
Y336396D01*
X963168D01*
X963654Y335223D01*
X948194Y319763D01*
X947577Y318839D01*
X947360Y317748D01*
X947333Y316968D01*
X946331Y316299D01*
X945739Y315413D01*
X944707Y315343D01*
X944443Y315355D01*
X943443Y316355D01*
X941780Y317044D01*
X939980D01*
X938317Y316355D01*
X937045Y315083D01*
X936356Y313420D01*
Y311620D01*
X937045Y309957D01*
X938317Y308685D01*
X939980Y307996D01*
X941780D01*
X943443Y308685D01*
X944329Y309571D01*
X945656D01*
X945662Y309543D01*
X946331Y308541D01*
X947333Y307872D01*
X948514Y307637D01*
X951405D01*
X952587Y307872D01*
X953589Y308541D01*
X954258Y309543D01*
X954493Y310725D01*
Y314116D01*
X954258Y315297D01*
X953589Y316299D01*
X953517Y317028D01*
X970072Y333583D01*
X970072Y333583D01*
X970690Y334508D01*
X970907Y335598D01*
X971785Y336396D01*
X977964D01*
Y349604D01*
X976350D01*
X975919Y350874D01*
X976070Y350990D01*
X977129Y352369D01*
X977794Y353976D01*
X978021Y355700D01*
X977794Y357424D01*
X977129Y359030D01*
X976070Y360410D01*
X974690Y361469D01*
X973084Y362134D01*
X971360Y362361D01*
X966280D01*
X964556Y362134D01*
X962950Y361469D01*
X961570Y360410D01*
X960511Y359030D01*
X960097Y358031D01*
X932994D01*
X932920Y358402D01*
X932296Y359336D01*
X931362Y359960D01*
X930260Y360179D01*
X927860D01*
X926758Y359960D01*
X925824Y359336D01*
X925212Y358419D01*
X925115Y358402D01*
X924005D01*
X923908Y358419D01*
X923296Y359336D01*
X923181Y359413D01*
Y363914D01*
X923939Y364421D01*
X924608Y365423D01*
X924843Y366604D01*
Y369995D01*
X924608Y371177D01*
X923939Y372179D01*
X922937Y372848D01*
X921756Y373083D01*
D02*
G37*
G36*
X675639Y345490D02*
X619760Y345490D01*
X505460Y345490D01*
X504209Y345490D01*
X503959Y345440D01*
X503704D01*
X501250Y344952D01*
X501015Y344854D01*
X500765Y344804D01*
X498453Y343847D01*
X498241Y343705D01*
X498005Y343608D01*
X495925Y342218D01*
X495745Y342038D01*
X495533Y341896D01*
X493764Y340127D01*
X493622Y339915D01*
X493442Y339734D01*
X492052Y337654D01*
X491954Y337419D01*
X491813Y337207D01*
X490855Y334896D01*
X490806Y334645D01*
X490708Y334410D01*
X490220Y331956D01*
Y331701D01*
X490170Y331451D01*
X490170Y330200D01*
X490170Y330200D01*
Y269240D01*
X490170Y267989D01*
X490220Y267739D01*
Y267484D01*
X490708Y265030D01*
X490806Y264795D01*
X490855Y264545D01*
X491813Y262233D01*
X491954Y262021D01*
X492052Y261786D01*
X493442Y259705D01*
X493622Y259525D01*
X493764Y259313D01*
X495533Y257544D01*
X495745Y257402D01*
X495925Y257222D01*
X498005Y255832D01*
X498241Y255735D01*
X498453Y255593D01*
X500764Y254636D01*
X501015Y254586D01*
X501250Y254488D01*
X503704Y254000D01*
X503959D01*
X504209Y253950D01*
X505460Y253950D01*
X505460Y253950D01*
X519411D01*
X519661Y254000D01*
X519916D01*
X522370Y254488D01*
X522605Y254586D01*
X522855Y254635D01*
X525167Y255593D01*
X525379Y255735D01*
X525614Y255832D01*
X527695Y257222D01*
X527875Y257402D01*
X528087Y257544D01*
X529856Y259313D01*
X529997Y259525D01*
X530178Y259705D01*
X531568Y261786D01*
X531665Y262021D01*
X531807Y262233D01*
X532765Y264545D01*
X532814Y264795D01*
X532912Y265030D01*
X533400Y267484D01*
Y267739D01*
X533450Y267989D01*
X533450Y269240D01*
X533450Y269240D01*
Y297117D01*
X533498Y298107D01*
X533897Y300111D01*
X534655Y301940D01*
X535754Y303586D01*
X537154Y304986D01*
X538800Y306085D01*
X540629Y306843D01*
X542633Y307241D01*
X543625Y307290D01*
X647654Y307290D01*
X647996Y307278D01*
X648719Y307174D01*
X649375Y306982D01*
X650040Y306679D01*
X650342Y306500D01*
X650817Y306196D01*
X650990Y306128D01*
X651141Y306020D01*
X652267Y305507D01*
X652448Y305464D01*
X652613Y305378D01*
X653800Y305030D01*
X653985Y305014D01*
X654160Y304952D01*
X655385Y304776D01*
X655571Y304786D01*
X655753Y304750D01*
X670931D01*
X671457Y303480D01*
X670104Y302127D01*
X669962Y301915D01*
X669782Y301734D01*
X668392Y299654D01*
X668294Y299419D01*
X668152Y299207D01*
X667195Y296895D01*
X667145Y296645D01*
X667048Y296409D01*
X666560Y293956D01*
X666560Y293701D01*
X666510Y293450D01*
X666510Y292200D01*
X666510Y292200D01*
X666510Y291004D01*
Y243940D01*
Y242689D01*
X666560Y242439D01*
Y242184D01*
X667048Y239730D01*
X667146Y239495D01*
X667195Y239244D01*
X668153Y236933D01*
X668295Y236721D01*
X668392Y236486D01*
X669782Y234405D01*
X669962Y234225D01*
X670104Y234013D01*
X671873Y232244D01*
X672085Y232102D01*
X672265Y231922D01*
X674345Y230532D01*
X674581Y230434D01*
X674793Y230293D01*
X677104Y229335D01*
X677355Y229286D01*
X677590Y229188D01*
X680044Y228700D01*
X680299D01*
X680549Y228650D01*
X681800D01*
X681800Y228650D01*
X727520Y228650D01*
X728771D01*
X729021Y228700D01*
X729276D01*
X731730Y229188D01*
X731965Y229286D01*
X732215Y229335D01*
X734527Y230293D01*
X734739Y230434D01*
X734975Y230532D01*
X737055Y231922D01*
X737235Y232102D01*
X737447Y232244D01*
X739216Y234013D01*
X739358Y234225D01*
X739538Y234405D01*
X740928Y236486D01*
X741025Y236721D01*
X741167Y236933D01*
X742124Y239244D01*
X742174Y239495D01*
X742272Y239730D01*
X742760Y242184D01*
Y242439D01*
X742810Y242689D01*
X742810Y243940D01*
X742810Y243940D01*
X742810Y254100D01*
X742810Y255351D01*
X742760Y255601D01*
Y255856D01*
X742272Y258310D01*
X742174Y258545D01*
X742124Y258796D01*
X741167Y261107D01*
X741025Y261319D01*
X740928Y261555D01*
X739538Y263634D01*
X739358Y263815D01*
X739216Y264027D01*
X737447Y265796D01*
X737235Y265938D01*
X737054Y266118D01*
X734974Y267508D01*
X734739Y267605D01*
X734527Y267747D01*
X732215Y268704D01*
X731965Y268754D01*
X731730Y268852D01*
X729276Y269340D01*
X729021D01*
X728771Y269390D01*
X727521Y269389D01*
X727520Y269390D01*
X722503D01*
X721513Y269438D01*
X719509Y269837D01*
X717680Y270595D01*
X716034Y271694D01*
X714634Y273094D01*
X713535Y274740D01*
X712777Y276569D01*
X712378Y278573D01*
X712330Y279563D01*
Y284517D01*
X712378Y285507D01*
X712777Y287511D01*
X713534Y289340D01*
X714634Y290986D01*
X716034Y292385D01*
X717680Y293485D01*
X719509Y294243D01*
X721513Y294641D01*
X722508Y294690D01*
X761045D01*
X762036Y294887D01*
X762970Y295274D01*
X763810Y295835D01*
X764525Y296550D01*
X765086Y297390D01*
X765473Y298324D01*
X765473Y298324D01*
X765670Y299315D01*
Y299820D01*
X765670Y299820D01*
X765670Y302360D01*
X765670Y302865D01*
X765670Y302865D01*
X765670Y302865D01*
X765583Y303299D01*
X765473Y303856D01*
X765473Y303856D01*
X765472Y303856D01*
X765086Y304790D01*
X765086Y304790D01*
X764778Y305250D01*
X764524Y305630D01*
X764524Y305630D01*
X764524Y305630D01*
X763810Y306345D01*
X763810Y306345D01*
X763810Y306345D01*
X763616Y306474D01*
X763357Y307047D01*
X763285Y307956D01*
X763336Y308129D01*
X763619Y308551D01*
X764392Y310418D01*
X764589Y311409D01*
Y312418D01*
X764589Y312419D01*
X764590Y314960D01*
X764590Y314960D01*
X764590Y314960D01*
X764590Y315970D01*
X764590Y315970D01*
X764590Y315971D01*
X764497Y316435D01*
X764393Y316961D01*
X764393Y316961D01*
X763619Y318829D01*
X763619Y318829D01*
X763619Y318829D01*
X763337Y319251D01*
X763058Y319669D01*
X763058Y319669D01*
X763057Y319669D01*
X762212Y320515D01*
X761804Y321616D01*
X761804Y321616D01*
X761804D01*
X761804Y321616D01*
Y331164D01*
X747785D01*
X744194Y334754D01*
X743270Y335372D01*
X742180Y335589D01*
X742180Y335589D01*
X732180D01*
X731607Y336447D01*
X730638Y337094D01*
X729496Y337321D01*
X726904D01*
X725761Y337094D01*
X724793Y336447D01*
X724664Y336253D01*
X723136D01*
X723007Y336447D01*
X722038Y337094D01*
X720896Y337321D01*
X718304D01*
X717162Y337094D01*
X716193Y336447D01*
X715172Y336346D01*
X714843Y336675D01*
X713180Y337364D01*
X711380D01*
X709717Y336675D01*
X708445Y335403D01*
X707756Y333740D01*
Y331940D01*
X708445Y330277D01*
X709717Y329005D01*
X711380Y328316D01*
X713180D01*
X714843Y329005D01*
X714989Y329152D01*
X716193Y329033D01*
X717162Y328386D01*
X718304Y328159D01*
X720896D01*
X722038Y328386D01*
X723007Y329033D01*
X723136Y329227D01*
X724664D01*
X724793Y329033D01*
X725761Y328386D01*
X726904Y328159D01*
X729496D01*
X730638Y328386D01*
X731607Y329033D01*
X732180Y329891D01*
X741000D01*
X743756Y327135D01*
Y322630D01*
X741393D01*
X739611Y324411D01*
X738771Y324973D01*
X737780Y325170D01*
X696023D01*
X695282Y325206D01*
X693766Y325508D01*
X692397Y326075D01*
X691165Y326898D01*
X690118Y327945D01*
X689295Y329177D01*
X688728Y330546D01*
X688426Y332062D01*
X688390Y332805D01*
X688390Y333741D01*
X688340Y333991D01*
Y334246D01*
X687950Y336209D01*
X687852Y336445D01*
X687802Y336695D01*
X687036Y338544D01*
X686895Y338756D01*
X686797Y338991D01*
X685685Y340655D01*
X685505Y340836D01*
X685363Y341048D01*
X683948Y342463D01*
X683736Y342605D01*
X683555Y342785D01*
X681891Y343897D01*
X681656Y343994D01*
X681443Y344136D01*
X679594Y344902D01*
X679344Y344952D01*
X679108Y345049D01*
X677337Y345402D01*
X677123D01*
X676915Y345450D01*
X675735Y345488D01*
X675693Y345481D01*
X675652Y345489D01*
X675641D01*
X675639Y345490D01*
D02*
G37*
G36*
X815804Y331164D02*
X797756D01*
Y321616D01*
X815804D01*
Y322906D01*
X831030D01*
X831112Y322493D01*
X831781Y321491D01*
X831884Y320527D01*
X831791Y319957D01*
X831300Y319222D01*
X831081Y318120D01*
Y315720D01*
X831300Y314618D01*
X831924Y313684D01*
X832841Y313072D01*
X832858Y312975D01*
Y311865D01*
X832841Y311768D01*
X831924Y311156D01*
X831665Y310769D01*
X827280D01*
X822344Y315704D01*
X821420Y316322D01*
X820330Y316539D01*
X820330Y316539D01*
X815804D01*
Y318464D01*
X797756D01*
Y308916D01*
X815804D01*
Y310841D01*
X819150D01*
X824086Y305906D01*
X824086Y305906D01*
X825010Y305288D01*
X826100Y305071D01*
X826100Y305071D01*
X831665D01*
X831924Y304684D01*
X832858Y304060D01*
X833960Y303841D01*
Y302639D01*
X832858Y302420D01*
X831924Y301796D01*
X831665Y301409D01*
X826480D01*
X824884Y303004D01*
X823960Y303622D01*
X822870Y303839D01*
X822870Y303839D01*
X815804D01*
Y305764D01*
X797756D01*
Y296216D01*
X815804D01*
Y298141D01*
X821690D01*
X823286Y296546D01*
X823286Y296546D01*
X824210Y295928D01*
X825300Y295711D01*
X825300Y295711D01*
X831665D01*
X831924Y295324D01*
X832841Y294712D01*
X832858Y294615D01*
Y293505D01*
X832841Y293408D01*
X831924Y292796D01*
X831300Y291862D01*
X831081Y290760D01*
Y288360D01*
X831300Y287258D01*
X831924Y286324D01*
X832811Y285731D01*
Y282600D01*
X831953Y282027D01*
X831306Y281058D01*
X831079Y279916D01*
Y277324D01*
X831306Y276182D01*
X831953Y275213D01*
X832922Y274566D01*
X834064Y274339D01*
X837256D01*
X838399Y274566D01*
X839367Y275213D01*
X840014Y276182D01*
X840241Y277324D01*
Y279916D01*
X840014Y281058D01*
X839367Y282027D01*
X838509Y282600D01*
Y285731D01*
X839396Y286324D01*
X840020Y287258D01*
X840239Y288360D01*
Y290760D01*
X840020Y291862D01*
X839396Y292796D01*
X838479Y293408D01*
X838462Y293505D01*
Y294615D01*
X838479Y294712D01*
X839396Y295324D01*
X840020Y296258D01*
X840239Y297360D01*
Y299760D01*
X840020Y300862D01*
X839396Y301796D01*
X838462Y302420D01*
X837360Y302639D01*
Y303841D01*
X838462Y304060D01*
X839396Y304684D01*
X840020Y305618D01*
X840239Y306720D01*
Y309120D01*
X840020Y310222D01*
X839396Y311156D01*
X838479Y311768D01*
X838462Y311865D01*
Y312975D01*
X838479Y313072D01*
X839396Y313684D01*
X839848Y314361D01*
X842561D01*
X843257Y313665D01*
X844920Y312976D01*
X846720D01*
X848383Y313665D01*
X849655Y314937D01*
X850344Y316600D01*
Y318400D01*
X849655Y320063D01*
X848383Y321335D01*
X846720Y322024D01*
X844920D01*
X843257Y321335D01*
X841985Y320063D01*
X841983Y320059D01*
X840539D01*
X839514Y321260D01*
X839539Y321491D01*
X840208Y322493D01*
X840443Y323675D01*
Y326566D01*
X840208Y327747D01*
X839539Y328749D01*
X838537Y329418D01*
X837355Y329653D01*
X833964D01*
X832783Y329418D01*
X831781Y328749D01*
X831684Y328604D01*
X815804D01*
Y331164D01*
D02*
G37*
G36*
Y293064D02*
X797756D01*
Y283516D01*
X807411D01*
Y276989D01*
X806524Y276396D01*
X805900Y275462D01*
X805827Y275098D01*
X804533D01*
X804460Y275462D01*
X803836Y276396D01*
X802902Y277020D01*
X801800Y277239D01*
X798400D01*
X797298Y277020D01*
X796364Y276396D01*
X795087Y276771D01*
X794863Y276995D01*
X793200Y277684D01*
X791400D01*
X789737Y276995D01*
X788465Y275723D01*
X787776Y274060D01*
Y272260D01*
X788465Y270597D01*
X789737Y269325D01*
X791400Y268636D01*
X793200D01*
X794863Y269325D01*
X795087Y269549D01*
X796202Y269876D01*
X796995Y269398D01*
X797258Y269200D01*
X797231Y267975D01*
X796364Y267396D01*
X795740Y266462D01*
X795521Y265360D01*
Y262960D01*
X795740Y261858D01*
X796364Y260924D01*
X797298Y260300D01*
X798400Y260081D01*
X801800D01*
X802902Y260300D01*
X803836Y260924D01*
X804095Y261311D01*
X806265D01*
X806524Y260924D01*
X807458Y260300D01*
X808560Y260081D01*
X811960D01*
X813062Y260300D01*
X813996Y260924D01*
X814620Y261858D01*
X814839Y262960D01*
Y265360D01*
X814620Y266462D01*
X813996Y267396D01*
X813079Y268008D01*
X813062Y268105D01*
Y269215D01*
X813079Y269312D01*
X813996Y269924D01*
X814255Y270311D01*
X816425D01*
X816684Y269924D01*
X817618Y269300D01*
X818720Y269081D01*
X822120D01*
X823222Y269300D01*
X824156Y269924D01*
X824780Y270858D01*
X824999Y271960D01*
Y274360D01*
X824780Y275462D01*
X824156Y276396D01*
X823222Y277020D01*
X822120Y277239D01*
X818720D01*
X817618Y277020D01*
X816684Y276396D01*
X816425Y276009D01*
X814255D01*
X813996Y276396D01*
X813109Y276989D01*
Y283516D01*
X815804D01*
Y293064D01*
D02*
G37*
G36*
X400966Y244285D02*
X387758D01*
Y230315D01*
X400966D01*
Y233460D01*
X402236Y233986D01*
X402757Y233465D01*
X404420Y232776D01*
X406220D01*
X407883Y233465D01*
X409155Y234737D01*
X409844Y236400D01*
Y238200D01*
X409155Y239863D01*
X407883Y241135D01*
X406220Y241824D01*
X404420D01*
X402757Y241135D01*
X402236Y240614D01*
X400966Y241140D01*
Y244285D01*
D02*
G37*
G36*
X324940Y249444D02*
X323140D01*
X321477Y248755D01*
X320205Y247483D01*
X319516Y245820D01*
Y244020D01*
X319864Y243180D01*
X319016Y241910D01*
X317055D01*
Y228702D01*
X331025D01*
Y241910D01*
X329064D01*
X328216Y243180D01*
X328564Y244020D01*
Y245820D01*
X327875Y247483D01*
X326603Y248755D01*
X324940Y249444D01*
D02*
G37*
G36*
X285775Y251396D02*
X273025D01*
X271796Y251151D01*
X270755Y250455D01*
X270059Y249414D01*
X269814Y248185D01*
Y238435D01*
X270059Y237206D01*
X270755Y236165D01*
X271796Y235469D01*
X273025Y235224D01*
X285775D01*
X287004Y235469D01*
X288045Y236165D01*
X288741Y237206D01*
X288986Y238435D01*
Y240461D01*
X290409D01*
X296037Y234833D01*
Y233239D01*
X292626Y229827D01*
X292008Y228903D01*
X291791Y227813D01*
X291791Y227813D01*
Y226611D01*
X290552Y225913D01*
X290521Y225919D01*
X289560Y226110D01*
X254000D01*
X253009Y225913D01*
X252169Y225351D01*
X251779Y224768D01*
X250947Y224511D01*
X250312Y224510D01*
X249184Y225265D01*
X247616Y225576D01*
X237904D01*
X236336Y225265D01*
X235259Y224545D01*
X234358Y224842D01*
X233989Y225107D01*
Y226733D01*
X233989Y226733D01*
X233772Y227823D01*
X233154Y228747D01*
X233154Y228747D01*
X228663Y233239D01*
Y238862D01*
X220246D01*
X217324Y241783D01*
X216400Y242401D01*
X215310Y242617D01*
X215310Y242617D01*
X210582D01*
Y246160D01*
X210351Y247320D01*
X209694Y248304D01*
X208710Y248962D01*
X207550Y249192D01*
X198850D01*
X197690Y248962D01*
X196706Y248304D01*
X196049Y247320D01*
X195818Y246160D01*
Y236560D01*
X196049Y235400D01*
X196706Y234416D01*
X197690Y233759D01*
X198850Y233528D01*
X207550D01*
X208710Y233759D01*
X209694Y234416D01*
X210351Y235400D01*
X210582Y236560D01*
Y236920D01*
X214130D01*
X216217Y234833D01*
Y229210D01*
X224634D01*
X227936Y225908D01*
X227434Y224638D01*
X216217D01*
Y214986D01*
X219591D01*
Y213537D01*
X218394Y212340D01*
X217706Y210677D01*
Y208878D01*
X218394Y207215D01*
X219591Y206018D01*
Y194120D01*
X219591Y194120D01*
X219808Y193030D01*
X220426Y192106D01*
X223061Y189470D01*
Y177624D01*
X222136D01*
Y159576D01*
X262184D01*
Y167938D01*
X262798Y168349D01*
X263359Y169189D01*
X263556Y170180D01*
Y189081D01*
X264827Y189333D01*
X265405Y187937D01*
X266677Y186665D01*
X268340Y185976D01*
X268746D01*
Y177624D01*
X267636D01*
Y159576D01*
X314184D01*
Y177624D01*
X312256D01*
X311730Y178894D01*
X315417Y182581D01*
X331463D01*
X332355Y182759D01*
X333111Y183264D01*
X342008Y192161D01*
X342513Y192917D01*
X342691Y193810D01*
Y222555D01*
X343357Y223221D01*
X350154D01*
X351817Y221558D01*
Y215202D01*
X364263D01*
Y217697D01*
X370994D01*
Y209995D01*
X384202D01*
Y223965D01*
X370994D01*
Y222359D01*
X364263D01*
Y224854D01*
X355113D01*
X352827Y227140D01*
X355113Y229426D01*
X364263D01*
Y231921D01*
X370994D01*
Y230315D01*
X384202D01*
Y244285D01*
X370994D01*
Y236583D01*
X364263D01*
Y239078D01*
X351817D01*
Y232722D01*
X350026Y230931D01*
X341129D01*
X340238Y230753D01*
X339481Y230248D01*
X335664Y226431D01*
X335159Y225674D01*
X334981Y224783D01*
Y196038D01*
X329235Y190291D01*
X313190D01*
X312297Y190113D01*
X311541Y189608D01*
X305692Y183759D01*
X305692Y183759D01*
X304226Y182293D01*
X303721Y181537D01*
X303543Y180644D01*
Y177624D01*
X300259D01*
Y181930D01*
X326054Y207726D01*
X326054Y207726D01*
X326672Y208650D01*
X326889Y209740D01*
X326889Y209740D01*
Y211938D01*
X331025D01*
Y225146D01*
X317055D01*
Y211938D01*
X320582D01*
X320939Y210668D01*
X306225Y195954D01*
X305055Y196580D01*
X305109Y196850D01*
X305109Y196850D01*
Y206374D01*
X306142Y207407D01*
X306830Y209070D01*
Y210870D01*
X306142Y212532D01*
X305109Y213565D01*
Y214986D01*
X308483D01*
Y224638D01*
X297489D01*
Y226633D01*
X300066Y229210D01*
X308483D01*
Y238862D01*
X300066D01*
X293603Y245324D01*
X292679Y245942D01*
X291589Y246159D01*
X291589Y246159D01*
X288986D01*
Y248185D01*
X288741Y249414D01*
X288045Y250455D01*
X287004Y251151D01*
X285775Y251396D01*
D02*
G37*
G36*
X400966Y223965D02*
X387758D01*
Y209995D01*
X400966D01*
Y212760D01*
X402236Y213286D01*
X402377Y213145D01*
X404040Y212456D01*
X405840D01*
X407503Y213145D01*
X408775Y214417D01*
X409464Y216080D01*
Y217880D01*
X408775Y219543D01*
X407503Y220815D01*
X405840Y221504D01*
X404040D01*
X402377Y220815D01*
X402236Y220674D01*
X400966Y221200D01*
Y223965D01*
D02*
G37*
G36*
X459740Y180390D02*
X459739Y180390D01*
X458239Y180390D01*
X457989Y180340D01*
X457734D01*
X454789Y179754D01*
X454554Y179657D01*
X454304Y179607D01*
X451530Y178458D01*
X451318Y178316D01*
X451082Y178219D01*
X448586Y176551D01*
X448406Y176371D01*
X448194Y176229D01*
X446071Y174106D01*
X445929Y173894D01*
X445749Y173714D01*
X444081Y171218D01*
X443983Y170982D01*
X443842Y170770D01*
X442693Y167996D01*
X442643Y167746D01*
X442546Y167511D01*
X441960Y164566D01*
Y164311D01*
X441910Y164061D01*
X441910Y162560D01*
Y88900D01*
X441910Y87649D01*
X441960Y87399D01*
Y87144D01*
X442448Y84690D01*
X442546Y84454D01*
X442595Y84204D01*
X443553Y81893D01*
X443694Y81681D01*
X443792Y81445D01*
X445182Y79365D01*
X445362Y79185D01*
X445504Y78973D01*
X447273Y77204D01*
X447485Y77062D01*
X447665Y76882D01*
X449745Y75492D01*
X449981Y75394D01*
X450193Y75253D01*
X452505Y74295D01*
X452755Y74246D01*
X452990Y74148D01*
X455444Y73660D01*
X455699D01*
X455949Y73610D01*
X457200Y73610D01*
X513080D01*
X513080Y73610D01*
X514331Y73610D01*
X514581Y73660D01*
X514836D01*
X517290Y74148D01*
X517525Y74246D01*
X517775Y74295D01*
X520087Y75253D01*
X520299Y75394D01*
X520534Y75492D01*
X522615Y76882D01*
X522795Y77062D01*
X523007Y77204D01*
X524776Y78973D01*
X524918Y79185D01*
X525098Y79365D01*
X526488Y81445D01*
X526586Y81681D01*
X526727Y81893D01*
X527685Y84204D01*
X527734Y84455D01*
X527832Y84690D01*
X528320Y87144D01*
Y87399D01*
X528370Y87649D01*
X528370Y88900D01*
X528370Y165100D01*
X528370Y165100D01*
X528370Y166351D01*
X528320Y166601D01*
Y166856D01*
X527832Y169310D01*
X527734Y169545D01*
X527685Y169795D01*
X526727Y172107D01*
X526586Y172319D01*
X526488Y172554D01*
X525098Y174634D01*
X524918Y174815D01*
X524776Y175027D01*
X523007Y176796D01*
X522795Y176938D01*
X522615Y177118D01*
X520534Y178508D01*
X520299Y178605D01*
X520087Y178747D01*
X517775Y179704D01*
X517525Y179754D01*
X517290Y179852D01*
X514836Y180340D01*
X514581D01*
X514331Y180390D01*
X513080Y180390D01*
X459740Y180390D01*
D02*
G37*
G36*
X877679Y412985D02*
X875879D01*
X874216Y412296D01*
X872944Y411024D01*
X872255Y409361D01*
Y407561D01*
X872944Y405899D01*
X874209Y404633D01*
Y184370D01*
X873737Y184175D01*
X872465Y182903D01*
X871776Y181240D01*
Y179440D01*
X872465Y177777D01*
X873737Y176505D01*
X875400Y175816D01*
X877200D01*
X878863Y176505D01*
X880135Y177777D01*
X880824Y179440D01*
Y181240D01*
X880135Y182903D01*
X878870Y184168D01*
Y404431D01*
X879342Y404626D01*
X880614Y405899D01*
X881303Y407561D01*
Y409361D01*
X880614Y411024D01*
X879342Y412296D01*
X877679Y412985D01*
D02*
G37*
G36*
X680563Y217352D02*
X679434D01*
X679184Y217303D01*
X678928D01*
X676714Y216862D01*
X676478Y216765D01*
X676228Y216715D01*
X674142Y215851D01*
X673930Y215709D01*
X673694Y215611D01*
X671817Y214357D01*
X671637Y214177D01*
X671424Y214035D01*
X669828Y212438D01*
X669686Y212226D01*
X669506Y212046D01*
X668251Y210168D01*
X668154Y209933D01*
X668012Y209721D01*
X667148Y207635D01*
X667098Y207384D01*
X667001Y207149D01*
X666560Y204934D01*
Y204679D01*
X666510Y204429D01*
Y188060D01*
X666510Y188060D01*
X666510Y186809D01*
X666560Y186559D01*
Y186304D01*
X667048Y183850D01*
X667146Y183615D01*
X667195Y183365D01*
X668153Y181053D01*
X668295Y180841D01*
X668392Y180606D01*
X669782Y178525D01*
X669962Y178345D01*
X670104Y178133D01*
X671873Y176364D01*
X672085Y176222D01*
X672265Y176042D01*
X674345Y174652D01*
X674581Y174554D01*
X674793Y174413D01*
X677104Y173455D01*
X677355Y173406D01*
X677590Y173308D01*
X680044Y172820D01*
X680299D01*
X680549Y172770D01*
X826580D01*
X827831Y172770D01*
X828081Y172820D01*
X828336D01*
X830790Y173308D01*
X831025Y173406D01*
X831275Y173455D01*
X833587Y174413D01*
X833799Y174554D01*
X834035Y174652D01*
X836115Y176042D01*
X836295Y176222D01*
X836507Y176364D01*
X838276Y178133D01*
X838418Y178345D01*
X838598Y178525D01*
X839988Y180606D01*
X840086Y180841D01*
X840227Y181053D01*
X841185Y183364D01*
X841234Y183615D01*
X841332Y183850D01*
X841820Y186304D01*
Y186559D01*
X841870Y186809D01*
X841870Y188060D01*
X841870Y203300D01*
X841870Y203300D01*
Y203311D01*
X841867Y203323D01*
X841870Y203335D01*
X841859Y204509D01*
X841809Y204747D01*
Y204990D01*
X841379Y207149D01*
X841282Y207384D01*
X841232Y207635D01*
X840368Y209720D01*
X840226Y209933D01*
X840129Y210168D01*
X838874Y212046D01*
X838694Y212226D01*
X838552Y212438D01*
X836956Y214035D01*
X836743Y214176D01*
X836563Y214357D01*
X834686Y215611D01*
X834450Y215709D01*
X834238Y215851D01*
X832152Y216715D01*
X831902Y216764D01*
X831666Y216862D01*
X829452Y217302D01*
X829196D01*
X828946Y217352D01*
X827817Y217352D01*
X680563Y217352D01*
D02*
G37*
G36*
X802640Y154990D02*
X782320Y154990D01*
X781069Y154990D01*
X780819Y154940D01*
X780564D01*
X778110Y154452D01*
X777875Y154354D01*
X777625Y154305D01*
X775313Y153347D01*
X775101Y153205D01*
X774865Y153108D01*
X772785Y151718D01*
X772605Y151538D01*
X772393Y151396D01*
X770624Y149627D01*
X770482Y149415D01*
X770302Y149235D01*
X768912Y147154D01*
X768814Y146919D01*
X768673Y146707D01*
X767716Y144395D01*
X767666Y144145D01*
X767568Y143910D01*
X767080Y141456D01*
Y141201D01*
X767030Y140951D01*
X767030Y139700D01*
X767030Y139700D01*
X767030Y93980D01*
Y92729D01*
X767080Y92479D01*
Y92224D01*
X767568Y89770D01*
X767666Y89535D01*
X767715Y89284D01*
X768673Y86973D01*
X768814Y86761D01*
X768912Y86525D01*
X770302Y84445D01*
X770482Y84265D01*
X770624Y84053D01*
X772393Y82284D01*
X772605Y82142D01*
X772785Y81962D01*
X774865Y80572D01*
X775101Y80475D01*
X775313Y80333D01*
X777625Y79375D01*
X777875Y79326D01*
X778110Y79228D01*
X780564Y78740D01*
X780819D01*
X781069Y78690D01*
X782256D01*
X783247Y78642D01*
X785251Y78243D01*
X787080Y77485D01*
X788726Y76386D01*
X790126Y74986D01*
X791226Y73340D01*
X791983Y71511D01*
X792382Y69507D01*
X792430Y68516D01*
X792430Y50800D01*
X792430Y50050D01*
X792480Y49799D01*
Y49544D01*
X792773Y48072D01*
X792870Y47836D01*
X792920Y47586D01*
X793495Y46199D01*
X793636Y45987D01*
X793734Y45752D01*
X794568Y44504D01*
X794748Y44323D01*
X794890Y44111D01*
X795951Y43050D01*
X796163Y42908D01*
X796344Y42728D01*
X797592Y41894D01*
X797828Y41796D01*
X798040Y41655D01*
X799426Y41080D01*
X799677Y41030D01*
X799912Y40933D01*
X801384Y40640D01*
X801639D01*
X801890Y40590D01*
X802640Y40590D01*
X808471D01*
X808721Y40640D01*
X808976D01*
X810448Y40933D01*
X810684Y41030D01*
X810934Y41080D01*
X812320Y41655D01*
X812533Y41796D01*
X812768Y41894D01*
X814016Y42728D01*
X814197Y42908D01*
X814409Y43050D01*
X815470Y44111D01*
X815612Y44323D01*
X815792Y44504D01*
X816626Y45752D01*
X816724Y45987D01*
X816865Y46199D01*
X817440Y47586D01*
X817489Y47836D01*
X817587Y48072D01*
X817880Y49544D01*
Y49799D01*
X817930Y50050D01*
Y50800D01*
X817930Y139700D01*
X817930Y140951D01*
X817880Y141201D01*
Y141456D01*
X817392Y143910D01*
X817294Y144145D01*
X817245Y144395D01*
X816287Y146707D01*
X816145Y146919D01*
X816048Y147154D01*
X814658Y149235D01*
X814478Y149415D01*
X814336Y149627D01*
X812567Y151396D01*
X812355Y151538D01*
X812175Y151718D01*
X810095Y153108D01*
X809859Y153205D01*
X809647Y153347D01*
X807336Y154304D01*
X807085Y154354D01*
X806850Y154452D01*
X804396Y154940D01*
X804141D01*
X803891Y154990D01*
X802641Y154990D01*
X802640Y154990D01*
D02*
G37*
G36*
X374280Y174704D02*
X372480D01*
X370817Y174015D01*
X369545Y172743D01*
X368856Y171080D01*
Y169280D01*
X369236Y168362D01*
Y161444D01*
X365315D01*
Y157689D01*
X347880D01*
X346790Y157472D01*
X345866Y156854D01*
X345866Y156854D01*
X338346Y149334D01*
X337728Y148410D01*
X337511Y147320D01*
X337511Y147320D01*
Y102780D01*
X333084Y98353D01*
X304456D01*
X301184Y101625D01*
Y119624D01*
X287136D01*
Y101576D01*
X288061D01*
Y97710D01*
X288061Y97710D01*
X288278Y96620D01*
X288896Y95696D01*
X295166Y89426D01*
X296090Y88808D01*
X297180Y88591D01*
X297180Y88591D01*
X337820D01*
X337820Y88591D01*
X338910Y88808D01*
X339834Y89426D01*
X347454Y97046D01*
X348072Y97970D01*
X348289Y99060D01*
X348289Y99060D01*
Y123280D01*
X351700Y126691D01*
X364379D01*
X365315Y125884D01*
Y112676D01*
X379285D01*
Y125884D01*
X375149D01*
Y131472D01*
X379285D01*
Y144680D01*
X365315D01*
Y132389D01*
X350520D01*
X350520Y132389D01*
X349430Y132172D01*
X348506Y131554D01*
X348506Y131554D01*
X344479Y127528D01*
X343209Y128054D01*
Y146140D01*
X349060Y151991D01*
X365315D01*
Y148236D01*
X379285D01*
Y161444D01*
X377524D01*
Y168362D01*
X377904Y169280D01*
Y171080D01*
X377215Y172743D01*
X375943Y174015D01*
X374280Y174704D01*
D02*
G37*
G36*
X750050Y137210D02*
X749300Y137210D01*
X736600Y137210D01*
X736600Y137210D01*
X736599D01*
X736503Y137191D01*
X736407Y137203D01*
X735208Y137113D01*
X735055Y137071D01*
X734895D01*
X733872Y136867D01*
X733636Y136770D01*
X733386Y136720D01*
X732000Y136145D01*
X731787Y136004D01*
X731552Y135906D01*
X730304Y135072D01*
X730123Y134892D01*
X729911Y134750D01*
X728850Y133689D01*
X728708Y133477D01*
X728528Y133296D01*
X727694Y132048D01*
X727596Y131813D01*
X727455Y131601D01*
X726880Y130214D01*
X726830Y129964D01*
X726733Y129728D01*
X726440Y128256D01*
Y128001D01*
X726390Y127750D01*
X726390Y127000D01*
X726390Y106807D01*
X726354Y106435D01*
X726024Y105639D01*
X725507Y105122D01*
X724710Y104792D01*
X724338Y104755D01*
X714801Y104755D01*
X714263Y105042D01*
X713531Y105853D01*
Y115323D01*
X714265Y116057D01*
X716545D01*
X717727Y116292D01*
X718729Y116961D01*
X719398Y117963D01*
X719633Y119144D01*
Y122535D01*
X719398Y123717D01*
X718729Y124719D01*
X717727Y125388D01*
X716545Y125623D01*
X713654D01*
X712473Y125388D01*
X711668Y124851D01*
X710879Y124719D01*
X710821D01*
X710032Y124851D01*
X709227Y125388D01*
X708046Y125623D01*
X705154D01*
X703973Y125388D01*
X702971Y124719D01*
X702302Y123717D01*
X702067Y122535D01*
Y119144D01*
X702099Y118983D01*
X702032Y118916D01*
X701527Y118160D01*
X701349Y117268D01*
Y108544D01*
X697906D01*
Y102851D01*
X692319D01*
Y104760D01*
X692100Y105862D01*
X691476Y106796D01*
X690621Y107367D01*
Y123048D01*
X690903Y123165D01*
X692175Y124437D01*
X692864Y126100D01*
Y127900D01*
X692175Y129563D01*
X690903Y130835D01*
X689240Y131524D01*
X687440D01*
X685777Y130835D01*
X684505Y129563D01*
X683816Y127900D01*
Y126100D01*
X684505Y124437D01*
X685777Y123165D01*
X685959Y123089D01*
Y107424D01*
X685938Y107420D01*
X685004Y106796D01*
X684380Y105862D01*
X684161Y104760D01*
Y101360D01*
X684380Y100258D01*
X685004Y99324D01*
X685938Y98700D01*
X687040Y98481D01*
X689440D01*
X689493Y98491D01*
X689679Y98367D01*
X690571Y98189D01*
X697906D01*
Y95197D01*
X695852Y93143D01*
X695347Y92387D01*
X695169Y91495D01*
Y82744D01*
X694639Y81951D01*
X691226D01*
X691122Y82020D01*
X690020Y82239D01*
X687620D01*
X686518Y82020D01*
X685584Y81396D01*
X684972Y80479D01*
X684875Y80462D01*
X683765D01*
X683669Y80479D01*
X683056Y81396D01*
X682975Y82217D01*
X683655Y82897D01*
X684344Y84560D01*
Y86360D01*
X683655Y88023D01*
X682383Y89295D01*
X680720Y89984D01*
X678920D01*
X677257Y89295D01*
X675985Y88023D01*
X675296Y86360D01*
Y84560D01*
X675985Y82897D01*
X676665Y82217D01*
X676584Y81396D01*
X675960Y80462D01*
X675741Y79360D01*
Y75960D01*
X675960Y74858D01*
X676584Y73924D01*
X677518Y73300D01*
X678620Y73081D01*
X681020D01*
X682122Y73300D01*
X683056Y73924D01*
X683669Y74841D01*
X683765Y74858D01*
X684875D01*
X684972Y74841D01*
X685584Y73924D01*
X686518Y73300D01*
X687620Y73081D01*
X690020D01*
X691122Y73300D01*
X692056Y73924D01*
X692680Y74858D01*
X692899Y75960D01*
Y77289D01*
X694639D01*
X695244Y76384D01*
X696178Y75760D01*
X697280Y75541D01*
X699720D01*
X700990Y74399D01*
X700990Y48260D01*
X700990Y47510D01*
X701040Y47259D01*
Y47004D01*
X701333Y45532D01*
X701430Y45297D01*
X701480Y45046D01*
X702055Y43660D01*
X702196Y43447D01*
X702294Y43212D01*
X703128Y41964D01*
X703308Y41783D01*
X703450Y41571D01*
X704511Y40510D01*
X704723Y40368D01*
X704904Y40188D01*
X706152Y39354D01*
X706387Y39256D01*
X706599Y39115D01*
X707986Y38540D01*
X708236Y38490D01*
X708472Y38393D01*
X709944Y38100D01*
X710199D01*
X710450Y38050D01*
X711200Y38050D01*
X719570D01*
X719821Y38100D01*
X720076D01*
X721548Y38393D01*
X721784Y38490D01*
X722034Y38540D01*
X723420Y39115D01*
X723632Y39256D01*
X723868Y39354D01*
X725116Y40188D01*
X725296Y40368D01*
X725509Y40510D01*
X726570Y41571D01*
X726712Y41783D01*
X726892Y41964D01*
X727726Y43212D01*
X727824Y43447D01*
X727965Y43660D01*
X728540Y45046D01*
X728589Y45296D01*
X728687Y45532D01*
X728980Y47004D01*
Y47259D01*
X729030Y47509D01*
Y48260D01*
X729030Y48260D01*
Y78740D01*
Y80357D01*
X729594Y80693D01*
X730300Y80832D01*
X730304Y80828D01*
X731552Y79994D01*
X731787Y79896D01*
X732000Y79755D01*
X733386Y79180D01*
X733636Y79130D01*
X733872Y79033D01*
X735344Y78740D01*
X735599D01*
X735850Y78690D01*
X736600Y78690D01*
X749300D01*
X750051Y78690D01*
X750301Y78740D01*
X750556D01*
X752028Y79033D01*
X752264Y79130D01*
X752514Y79180D01*
X753901Y79755D01*
X754113Y79896D01*
X754348Y79994D01*
X755596Y80828D01*
X755777Y81008D01*
X755989Y81150D01*
X757050Y82211D01*
X757192Y82423D01*
X757372Y82604D01*
X758206Y83852D01*
X758304Y84087D01*
X758445Y84299D01*
X759020Y85686D01*
X759070Y85936D01*
X759167Y86172D01*
X759460Y87644D01*
Y87899D01*
X759510Y88149D01*
X759510Y88900D01*
X759510Y127000D01*
X759492Y127092D01*
X759503Y127184D01*
X759420Y128355D01*
X759377Y128512D01*
Y128675D01*
X759167Y129728D01*
X759070Y129963D01*
X759020Y130214D01*
X758446Y131600D01*
X758304Y131813D01*
X758206Y132048D01*
X757372Y133296D01*
X757192Y133477D01*
X757050Y133689D01*
X755989Y134750D01*
X755777Y134892D01*
X755596Y135072D01*
X754348Y135906D01*
X754113Y136004D01*
X753901Y136145D01*
X752514Y136720D01*
X752264Y136770D01*
X752028Y136867D01*
X750556Y137160D01*
X750301Y137160D01*
X750050Y137210D01*
D02*
G37*
G36*
X980414Y152314D02*
X959586D01*
Y131486D01*
X980414D01*
Y152314D01*
D02*
G37*
G36*
X210185Y150622D02*
X196215D01*
Y137414D01*
X200351D01*
Y135166D01*
X200351Y135166D01*
X200568Y134076D01*
X201186Y133152D01*
X201257Y133080D01*
X201216Y132980D01*
Y131180D01*
X201905Y129517D01*
X203177Y128245D01*
X204840Y127556D01*
X206640D01*
X208303Y128245D01*
X209575Y129517D01*
X210264Y131180D01*
Y132980D01*
X209575Y134643D01*
X208303Y135915D01*
X207750Y136144D01*
X208003Y137414D01*
X210185D01*
Y150622D01*
D02*
G37*
G36*
X163290Y157532D02*
X154590D01*
X153430Y157302D01*
X152446Y156644D01*
X151789Y155660D01*
X151558Y154500D01*
Y144900D01*
X151789Y143740D01*
X152446Y142756D01*
X153430Y142099D01*
X154590Y141868D01*
X154796D01*
Y128424D01*
X151955D01*
Y115216D01*
X165925D01*
Y128424D01*
X163084D01*
Y141868D01*
X163290D01*
X164450Y142099D01*
X165434Y142756D01*
X166091Y143740D01*
X166322Y144900D01*
Y154500D01*
X166091Y155660D01*
X165434Y156644D01*
X164450Y157302D01*
X163290Y157532D01*
D02*
G37*
G36*
X885859Y21524D02*
X884141D01*
X882482Y21079D01*
X880994Y20220D01*
X879780Y19006D01*
X878921Y17518D01*
X878476Y15859D01*
Y14141D01*
X878921Y12482D01*
X879780Y10994D01*
X880994Y9779D01*
X882482Y8921D01*
X884141Y8476D01*
X885859D01*
X887518Y8921D01*
X889006Y9779D01*
X890220Y10994D01*
X891079Y12482D01*
X891524Y14141D01*
Y15859D01*
X891079Y17518D01*
X890220Y19006D01*
X889006Y20220D01*
X887518Y21079D01*
X885859Y21524D01*
D02*
G37*
G36*
X500859D02*
X499141D01*
X497482Y21079D01*
X495994Y20220D01*
X494780Y19006D01*
X493921Y17518D01*
X493476Y15859D01*
Y14141D01*
X493921Y12482D01*
X494780Y10994D01*
X495994Y9779D01*
X497482Y8921D01*
X499141Y8476D01*
X500859D01*
X502518Y8921D01*
X504006Y9779D01*
X505220Y10994D01*
X506079Y12482D01*
X506524Y14141D01*
Y15859D01*
X506079Y17518D01*
X505220Y19006D01*
X504006Y20220D01*
X502518Y21079D01*
X500859Y21524D01*
D02*
G37*
G36*
X115859D02*
X114141D01*
X112482Y21079D01*
X110994Y20220D01*
X109780Y19006D01*
X108921Y17518D01*
X108476Y15859D01*
Y14141D01*
X108921Y12482D01*
X109780Y10994D01*
X110994Y9779D01*
X112482Y8921D01*
X114141Y8476D01*
X115859D01*
X117518Y8921D01*
X119006Y9779D01*
X120220Y10994D01*
X121079Y12482D01*
X121524Y14141D01*
Y15859D01*
X121079Y17518D01*
X120220Y19006D01*
X119006Y20220D01*
X117518Y21079D01*
X115859Y21524D01*
D02*
G37*
%LPD*%
G36*
X398780Y632460D02*
X398780Y632460D01*
X414020Y632460D01*
X414941Y632460D01*
X416715Y631968D01*
X418294Y631021D01*
X419563Y629687D01*
X419996Y628874D01*
X420160Y628582D01*
X420525Y628022D01*
X420938Y627496D01*
X421396Y627008D01*
X421640Y626780D01*
X421640Y617820D01*
X421396Y617592D01*
X420938Y617104D01*
X420525Y616578D01*
X420160Y616017D01*
X419996Y615726D01*
X419563Y614914D01*
X418294Y613579D01*
X416715Y612631D01*
X415254Y612227D01*
X414020Y612140D01*
X398780Y612140D01*
X398029Y612140D01*
X396557Y612433D01*
X395170Y613007D01*
X393922Y613841D01*
X392861Y614903D01*
X392027Y616151D01*
X391453Y617537D01*
X391160Y619010D01*
X391160Y619760D01*
X391160Y624840D01*
X391160Y625591D01*
X391453Y627063D01*
X392027Y628450D01*
X392861Y629698D01*
X393922Y630759D01*
X395170Y631593D01*
X396557Y632167D01*
X398029Y632460D01*
X398780Y632460D01*
D02*
G37*
G36*
X434340Y632460D02*
Y632460D01*
X449580Y632460D01*
X450331Y632460D01*
X451803Y632167D01*
X453190Y631593D01*
X454438Y630759D01*
X455499Y629697D01*
X456333Y628449D01*
X456907Y627063D01*
X457107Y626058D01*
X457200Y624840D01*
D01*
X457200Y623644D01*
X457200Y619760D01*
X457200Y619009D01*
X456907Y617537D01*
X456333Y616150D01*
X455499Y614902D01*
X454438Y613841D01*
X453190Y613007D01*
X451803Y612433D01*
X450798Y612233D01*
X449580Y612140D01*
D01*
X448384Y612140D01*
X434340Y612140D01*
X433419Y612140D01*
X431645Y612631D01*
X430066Y613579D01*
X428797Y614913D01*
X428364Y615726D01*
X428200Y616017D01*
X427835Y616578D01*
X427422Y617104D01*
X426964Y617592D01*
X426720Y617820D01*
X426720Y617820D01*
X426720Y626780D01*
X426964Y627009D01*
X427422Y627496D01*
X427835Y628022D01*
X428200Y628582D01*
X428363Y628874D01*
X428797Y629686D01*
X430066Y631021D01*
X431645Y631968D01*
X433419Y632460D01*
X434340Y632460D01*
D02*
G37*
G36*
X412594Y560827D02*
X401604D01*
Y569981D01*
X412594D01*
Y560827D01*
D02*
G37*
G36*
X426577Y572883D02*
X427458Y572295D01*
X428497Y572088D01*
X429055D01*
Y569496D01*
X444103D01*
Y571305D01*
X455057D01*
Y569496D01*
X466265D01*
X467448Y568314D01*
X468249Y567779D01*
X468624Y567403D01*
X468736Y566843D01*
X469324Y565962D01*
X469899Y565387D01*
X470574Y564520D01*
X469899Y563653D01*
X469324Y563078D01*
X468736Y562197D01*
X468624Y561637D01*
X468249Y561261D01*
X467448Y560726D01*
X466265Y559544D01*
X455057D01*
Y557735D01*
X444103D01*
Y559544D01*
X429055D01*
Y557735D01*
X425424D01*
X424385Y557528D01*
X423505Y556940D01*
X421680Y555115D01*
X417168D01*
X416489Y556385D01*
X416608Y556563D01*
X416843Y557744D01*
Y561135D01*
X416608Y562317D01*
X415939Y563319D01*
X415184Y563823D01*
Y565217D01*
X415939Y565721D01*
X416608Y566723D01*
X416843Y567905D01*
Y571296D01*
X416608Y572477D01*
X415939Y573479D01*
X414937Y574148D01*
X413755Y574383D01*
X410864D01*
X409683Y574148D01*
X408681Y573479D01*
X408074Y572570D01*
X405233D01*
X405056Y572836D01*
X404139Y573448D01*
X404122Y573545D01*
Y574655D01*
X404139Y574752D01*
X405056Y575364D01*
X405404Y575885D01*
X423576D01*
X426577Y572883D01*
D02*
G37*
G36*
X675640Y342900D02*
X675640Y342900D01*
X675652D01*
X676831Y342862D01*
X678603Y342509D01*
X680452Y341744D01*
X682116Y340632D01*
X683532Y339217D01*
X684644Y337552D01*
X685409Y335704D01*
X685800Y333741D01*
X685800Y332740D01*
X685800Y332740D01*
X685849Y331744D01*
X686237Y329791D01*
X687000Y327951D01*
X688106Y326295D01*
X689514Y324886D01*
X691171Y323780D01*
X693011Y323018D01*
X694964Y322629D01*
X695960Y322580D01*
X737780D01*
X740320Y320040D01*
X756919D01*
X756919Y320039D01*
X756920Y320039D01*
X756930D01*
X758108Y319966D01*
X759797Y319266D01*
X761227Y317838D01*
X762000Y315970D01*
X762000Y314960D01*
X762000Y312420D01*
X761999Y312419D01*
Y311409D01*
X761226Y309542D01*
X759797Y308113D01*
X758291Y307489D01*
X681800Y307490D01*
X680549Y307490D01*
X680299Y307440D01*
X680044D01*
X679541Y307340D01*
X655753D01*
X654528Y307516D01*
X653341Y307864D01*
X652214Y308377D01*
X651693Y308710D01*
X651693Y308710D01*
X651240Y308979D01*
X650281Y309415D01*
X649270Y309712D01*
X648227Y309861D01*
X647700Y309880D01*
X543560Y309880D01*
X543560Y309880D01*
X542315Y309819D01*
X539873Y309333D01*
X537573Y308380D01*
X535503Y306997D01*
X533743Y305237D01*
X532360Y303167D01*
X531407Y300867D01*
X530921Y298425D01*
X530860Y297180D01*
Y269240D01*
X530860Y269240D01*
X530860Y267989D01*
X530372Y265536D01*
X529414Y263224D01*
X528025Y261144D01*
X526256Y259375D01*
X524176Y257985D01*
X521864Y257028D01*
X519411Y256540D01*
X505460D01*
X505460Y256540D01*
X504209Y256540D01*
X501755Y257028D01*
X499444Y257985D01*
X497364Y259375D01*
X495595Y261144D01*
X494205Y263224D01*
X493248Y265536D01*
X492760Y267989D01*
X492760Y269240D01*
Y330200D01*
X492760Y330200D01*
X492760Y330200D01*
X492760Y331451D01*
X493248Y333904D01*
X494205Y336216D01*
X495595Y338296D01*
X497364Y340065D01*
X499444Y341455D01*
X501755Y342412D01*
X504209Y342900D01*
X505460Y342900D01*
X619760Y342900D01*
X675639Y342900D01*
X675640Y342900D01*
D02*
G37*
G36*
X681800Y304900D02*
X760540Y304900D01*
X760540Y304900D01*
X760540Y304900D01*
X760541D01*
X761684Y304635D01*
X761979Y304513D01*
X762693Y303799D01*
X763080Y302865D01*
X763080Y302360D01*
X763080Y299820D01*
X763080Y299820D01*
Y299315D01*
X762693Y298381D01*
X761979Y297667D01*
X761045Y297280D01*
X722440D01*
X722440Y297280D01*
X721195Y297219D01*
X718753Y296733D01*
X716453Y295780D01*
X714383Y294397D01*
X712623Y292637D01*
X711239Y290567D01*
X710287Y288267D01*
X709801Y285825D01*
X709740Y284580D01*
Y279500D01*
X709801Y278255D01*
X710287Y275813D01*
X711240Y273513D01*
X712623Y271443D01*
X714383Y269683D01*
X716453Y268300D01*
X718753Y267347D01*
X721195Y266861D01*
X722440Y266800D01*
X727520D01*
X727520Y266800D01*
X727520Y266800D01*
X728771Y266800D01*
X731224Y266312D01*
X733536Y265354D01*
X735616Y263965D01*
X737385Y262196D01*
X738774Y260116D01*
X739732Y257804D01*
X740220Y255351D01*
X740220Y254100D01*
X740220Y243940D01*
X740220Y243940D01*
X740220Y242689D01*
X739732Y240236D01*
X738774Y237924D01*
X737385Y235844D01*
X735616Y234075D01*
X733536Y232685D01*
X731224Y231728D01*
X728771Y231240D01*
X727520D01*
X681800Y231240D01*
X681800Y231240D01*
X680549D01*
X678095Y231728D01*
X675784Y232685D01*
X673704Y234075D01*
X671935Y235844D01*
X670545Y237924D01*
X669588Y240236D01*
X669100Y242689D01*
Y243940D01*
Y291004D01*
X669100Y292200D01*
X669100Y292200D01*
X669100Y292200D01*
X669100Y293451D01*
X669588Y295904D01*
X670545Y298216D01*
X671935Y300296D01*
X673704Y302065D01*
X675784Y303455D01*
X678095Y304412D01*
X680549Y304900D01*
X681800Y304900D01*
D02*
G37*
G36*
X289560Y202149D02*
X288071Y200660D01*
X260967D01*
Y170180D01*
X256540D01*
Y200660D01*
X254000D01*
Y223520D01*
X289560D01*
Y202149D01*
D02*
G37*
G36*
X513080Y177800D02*
X514331Y177800D01*
X516784Y177312D01*
X519096Y176355D01*
X521176Y174965D01*
X522945Y173196D01*
X524334Y171116D01*
X525292Y168804D01*
X525780Y166351D01*
X525780Y165100D01*
X525780D01*
X525780Y88900D01*
X525780Y87649D01*
X525292Y85196D01*
X524335Y82884D01*
X522945Y80804D01*
X521176Y79035D01*
X519096Y77645D01*
X516784Y76688D01*
X514331Y76200D01*
X513080Y76200D01*
X513080Y76200D01*
Y76200D01*
X457200D01*
X455949Y76200D01*
X453495Y76688D01*
X451184Y77645D01*
X449104Y79035D01*
X447335Y80804D01*
X445945Y82884D01*
X444988Y85195D01*
X444500Y87649D01*
X444500Y88900D01*
Y162560D01*
X444500Y164061D01*
X445086Y167005D01*
X446235Y169779D01*
X447902Y172275D01*
X450025Y174398D01*
X452521Y176065D01*
X455295Y177214D01*
X458239Y177800D01*
X459740Y177800D01*
Y177800D01*
X513080Y177800D01*
D02*
G37*
G36*
X827817Y214762D02*
X828946Y214762D01*
X831161Y214322D01*
X833247Y213458D01*
X835124Y212204D01*
X836721Y210607D01*
X837975Y208729D01*
X838839Y206643D01*
X839269Y204485D01*
X839280Y203311D01*
Y203300D01*
X839280Y203300D01*
X839280Y203300D01*
X839280Y188060D01*
X839280Y186809D01*
X838792Y184356D01*
X837835Y182044D01*
X836445Y179964D01*
X834676Y178195D01*
X832596Y176805D01*
X830284Y175848D01*
X827831Y175360D01*
X826580Y175360D01*
X680549D01*
X678095Y175848D01*
X675784Y176805D01*
X673704Y178195D01*
X671935Y179964D01*
X670545Y182044D01*
X669588Y184356D01*
X669100Y186809D01*
X669100Y188060D01*
X669100Y188060D01*
Y204429D01*
X669540Y206644D01*
X670405Y208730D01*
X671659Y210607D01*
X673256Y212204D01*
X675133Y213458D01*
X677219Y214322D01*
X679434Y214763D01*
X680563D01*
X827817Y214762D01*
D02*
G37*
G36*
X802640Y152400D02*
X803891Y152400D01*
X806345Y151912D01*
X808656Y150955D01*
X810736Y149565D01*
X812505Y147796D01*
X813895Y145716D01*
X814852Y143404D01*
X815340Y140951D01*
X815340Y139700D01*
X815340Y50800D01*
Y50050D01*
X815047Y48577D01*
X814473Y47191D01*
X813639Y45943D01*
X812578Y44881D01*
X811329Y44047D01*
X809943Y43473D01*
X808471Y43180D01*
X802640D01*
X801890Y43180D01*
X800417Y43473D01*
X799031Y44047D01*
X797783Y44881D01*
X796721Y45943D01*
X795887Y47190D01*
X795313Y48577D01*
X795020Y50050D01*
X795020Y50800D01*
X795020Y68580D01*
X795020Y68580D01*
X795020D01*
X794959Y69825D01*
X794473Y72267D01*
X793521Y74567D01*
X792137Y76637D01*
X790377Y78397D01*
X788307Y79780D01*
X786007Y80733D01*
X783565Y81219D01*
X782320Y81280D01*
X782320Y81280D01*
X781069D01*
X778615Y81768D01*
X776304Y82725D01*
X774224Y84115D01*
X772455Y85884D01*
X771065Y87964D01*
X770108Y90275D01*
X769620Y92729D01*
Y93980D01*
X769620Y139700D01*
X769620Y139700D01*
X769620Y139700D01*
X769620Y140951D01*
X770108Y143404D01*
X771065Y145716D01*
X772455Y147796D01*
X774224Y149565D01*
X776304Y150955D01*
X778616Y151912D01*
X781069Y152400D01*
X782320Y152400D01*
X802640Y152400D01*
X802640Y152400D01*
D02*
G37*
G36*
X751523Y134327D02*
X752909Y133753D01*
X754158Y132919D01*
X755219Y131858D01*
X756053Y130609D01*
X756627Y129223D01*
X756836Y128170D01*
X756920Y127000D01*
X756920Y127000D01*
X756920D01*
X756920Y88900D01*
X756920Y88149D01*
X756627Y86677D01*
X756053Y85290D01*
X755219Y84043D01*
X754157Y82981D01*
X752909Y82147D01*
X751523Y81573D01*
X750051Y81280D01*
X749300Y81280D01*
X736600D01*
X735850Y81280D01*
X734377Y81573D01*
X732991Y82147D01*
X731743Y82981D01*
X730681Y84043D01*
X729847Y85290D01*
X729273Y86677D01*
X728980Y88149D01*
X728980Y88900D01*
X728980Y88900D01*
X728980Y93980D01*
X728890Y94891D01*
X728193Y96574D01*
X726905Y97862D01*
X725454Y98463D01*
Y98544D01*
X725258D01*
X725222Y98559D01*
X724311Y98649D01*
X724311Y98649D01*
X714521D01*
Y102166D01*
X724466Y102166D01*
X725346Y102252D01*
X726974Y102926D01*
X728219Y104172D01*
X728893Y105799D01*
X728980Y106680D01*
X728980D01*
X728980Y127000D01*
X728980Y127751D01*
X729273Y129223D01*
X729847Y130609D01*
X730681Y131858D01*
X731742Y132919D01*
X732991Y133753D01*
X734377Y134327D01*
X735400Y134531D01*
X736599Y134620D01*
X736600D01*
Y134620D01*
X736600Y134620D01*
X749300Y134620D01*
X750051Y134620D01*
X751523Y134327D01*
D02*
G37*
G36*
X713530Y96256D02*
X714521Y96059D01*
X724183D01*
X724586Y96019D01*
X725438Y95666D01*
X725998Y95107D01*
X726351Y94255D01*
X726390Y93853D01*
X726390Y88900D01*
X726390Y88900D01*
X726390Y88149D01*
X726440Y87900D01*
X726440Y78740D01*
Y48260D01*
X726440Y48260D01*
Y47509D01*
X726147Y46037D01*
X725573Y44651D01*
X724739Y43403D01*
X723677Y42341D01*
X722429Y41507D01*
X721043Y40933D01*
X719570Y40640D01*
X711200D01*
X710449Y40640D01*
X708977Y40933D01*
X707590Y41507D01*
X706342Y42341D01*
X705281Y43403D01*
X704447Y44651D01*
X703873Y46037D01*
X703580Y47510D01*
X703580Y48260D01*
X703580Y88899D01*
X703580Y88899D01*
X703580Y88899D01*
Y88901D01*
X703872Y90110D01*
X703966Y90339D01*
X704681Y91053D01*
X705615Y91440D01*
X706120Y91440D01*
X707442Y91440D01*
X708660D01*
X708660Y91440D01*
X709156Y91488D01*
X710071Y91867D01*
X710772Y92568D01*
X711152Y93484D01*
X711200Y93979D01*
X711200Y93979D01*
X711200Y93979D01*
X711200Y93979D01*
Y93980D01*
X711419Y95159D01*
X711697Y95830D01*
X712616Y96750D01*
X712724Y96795D01*
X713530Y96256D01*
D02*
G37*
D10*
X311340Y64780D02*
Y74340D01*
X608500Y651000D02*
X627500D01*
X607500Y650000D02*
X608500Y651000D01*
X627500Y660000D02*
X627900Y660400D01*
X645160Y572660D02*
Y582581D01*
X627943Y555443D02*
X645160Y572660D01*
X627943Y542228D02*
Y555443D01*
X876539Y180579D02*
Y408222D01*
X876779Y408461D01*
X876300Y180340D02*
X876539Y180579D01*
X688240Y103060D02*
X688290Y103110D01*
Y126950D01*
X688340Y127000D01*
X688240Y102851D02*
Y103060D01*
X299720Y624840D02*
X300135Y624425D01*
Y618275D02*
X300550Y617860D01*
X300135Y618275D02*
Y624425D01*
X304700Y652780D02*
X304800Y652680D01*
Y629920D02*
Y652680D01*
X304700Y678080D02*
X304800Y678180D01*
X304700Y652780D02*
Y678080D01*
X287020Y650240D02*
X302160D01*
X304700Y652780D01*
X300000Y444590D02*
X300275Y444315D01*
X300000Y434620D02*
X300275Y434895D01*
Y444315D01*
X300000Y444590D02*
X300550Y445140D01*
X885229Y591820D02*
X894080D01*
X901700Y434340D02*
Y584200D01*
X894080Y591820D02*
X901700Y584200D01*
X767080Y599440D02*
X845820D01*
X741680Y574040D02*
X767080Y599440D01*
X845820D02*
X860854Y584406D01*
Y368506D02*
Y584406D01*
X920850Y355990D02*
Y368300D01*
X860854Y368506D02*
X861060Y368300D01*
X911860D02*
X920310D01*
X906780Y429260D02*
X925140D01*
X901700Y434340D02*
X906780Y429260D01*
X894080Y520700D02*
Y561340D01*
X711200Y424180D02*
Y443002D01*
X695385Y458817D02*
X711200Y443002D01*
Y424180D02*
X718820Y416560D01*
X662940Y660400D02*
X668020Y655320D01*
X627900Y660400D02*
X662940D01*
X668020Y594360D02*
Y655320D01*
Y594360D02*
X708660Y553720D01*
X718587D01*
X726498Y561630D01*
X609542D02*
X624895Y546278D01*
Y540965D02*
X640334Y525526D01*
X624895Y540965D02*
Y546278D01*
X627943Y542228D02*
X641597Y528574D01*
X661423D01*
X664972Y532122D01*
X640334Y525526D02*
X662686D01*
X668020Y530860D01*
X663906Y542380D02*
X663940Y542346D01*
X668020Y530860D02*
Y538454D01*
X659631Y542380D02*
X663906D01*
X664128Y542346D02*
X668020Y538454D01*
X663940Y542346D02*
X664128D01*
X664972Y532122D02*
Y537191D01*
X662866Y539298D02*
X664972Y537191D01*
X659268Y539298D02*
X662866D01*
X655911Y546100D02*
X659631Y542380D01*
X655911Y535940D02*
X659268Y539298D01*
X655320Y535940D02*
X655911D01*
X655320Y546100D02*
X655911D01*
X637826Y589915D02*
X645160Y582581D01*
X729326Y558802D02*
X739484Y568960D01*
X744220D01*
X894080Y520700D02*
X894080Y193040D01*
X886460Y177800D02*
Y518160D01*
Y177800D02*
X899160Y165100D01*
X894080Y193040D02*
X898580Y188540D01*
X727129Y523240D02*
X734060D01*
X726440Y429260D02*
Y467360D01*
X715184Y478616D02*
X726440Y467360D01*
X649140Y601228D02*
X727129Y523240D01*
X898580Y188540D02*
X906940D01*
X919640D01*
X899160Y165100D02*
X924720D01*
X733251Y574040D02*
X741680D01*
X723669Y564459D02*
X733251Y574040D01*
X920850Y355990D02*
X921140Y355700D01*
X930140D02*
X968820D01*
X712280Y332840D02*
X712380Y332740D01*
X679820Y77660D02*
Y85460D01*
X719349Y100851D02*
X719680Y100520D01*
X711200Y103728D02*
Y116288D01*
Y103728D02*
X714077Y100851D01*
X719349D01*
X711200Y116288D02*
X715100Y120188D01*
Y120840D01*
X706600Y120188D02*
Y120840D01*
X703680Y105520D02*
Y117268D01*
X706600Y120188D01*
X690571Y100520D02*
X703680D01*
X688240Y102851D02*
X690571Y100520D01*
X700930Y95520D02*
X703680D01*
X700192Y94782D02*
X700930Y95520D01*
X700192Y94187D02*
Y94782D01*
X697500Y81100D02*
Y91495D01*
X700192Y94187D01*
X697500Y81100D02*
X698980Y79620D01*
X688820Y77660D02*
Y77869D01*
X690571Y79620D02*
X698980D01*
X688820Y77869D02*
X690571Y79620D01*
X309637Y292343D02*
X309880Y292100D01*
X303832Y292343D02*
X309637D01*
X301049Y289560D02*
X303832Y292343D01*
X292100Y289560D02*
X301049D01*
X394362Y237300D02*
X405320D01*
X292100Y284480D02*
X301049D01*
X303589Y281940D01*
X309880D01*
X394362Y216980D02*
X404940D01*
X406400Y218440D01*
X266700Y272270D02*
Y281940D01*
X269240Y284480D01*
X287020D01*
X266700Y292100D02*
X269240Y289560D01*
X266700Y292100D02*
Y301770D01*
X269240Y289560D02*
X287020D01*
X308922Y170088D02*
Y176231D01*
X308922Y176231D02*
Y179382D01*
Y176231D02*
X308922Y176231D01*
X308922Y179382D02*
X314452Y184912D01*
X308922Y170088D02*
X310410Y168600D01*
X305874Y180644D02*
X307340Y182111D01*
X305874Y175814D02*
Y180644D01*
X303910Y168600D02*
Y173850D01*
X307340Y182111D02*
X313190Y187960D01*
X303910Y173850D02*
X305874Y175814D01*
X307340Y182111D02*
Y182111D01*
X374550Y234252D02*
X377598Y237300D01*
X356643Y234252D02*
X358040D01*
X374550D01*
X350991Y228600D02*
X356643Y234252D01*
X358040Y220028D02*
X374550D01*
X377598Y216980D01*
X356643Y220028D02*
X358040D01*
X351119Y225552D02*
X356643Y220028D01*
X313190Y187960D02*
X330200D01*
X314452Y184912D02*
X331463D01*
X340360Y193810D01*
X330200Y187960D02*
X337312Y195072D01*
Y224783D01*
X340360Y193810D02*
Y223520D01*
X337312Y224783D02*
X341129Y228600D01*
X350991D01*
X340360Y223520D02*
X342392Y225552D01*
X351119D01*
D14*
X347980Y452120D02*
X358140D01*
X347150Y451290D02*
X347980Y452120D01*
X347150Y445140D02*
Y452120D01*
Y455300D01*
X835660Y316920D02*
X835950Y317210D01*
X845530D01*
X845820Y317500D01*
X875080Y595038D02*
X875669Y594449D01*
X875080Y595038D02*
Y604520D01*
X875669Y592611D02*
Y594449D01*
X875080Y604520D02*
X885820D01*
X875669Y592611D02*
X876460Y591820D01*
X950208Y312168D02*
Y317748D01*
X968058Y335598D01*
X949960Y311920D02*
X950208Y312168D01*
X968058Y335598D02*
Y342238D01*
X968820Y343000D01*
X940880Y312520D02*
X940980Y312420D01*
X949960D01*
X933060Y445380D02*
Y454660D01*
X347150Y617860D02*
Y626550D01*
X933890Y454200D02*
X970000D01*
X934140Y429260D02*
X969540D01*
X970000Y428800D01*
X875080Y604520D02*
Y614080D01*
X863740Y625420D02*
Y629920D01*
Y625420D02*
X875080Y614080D01*
X95750Y30000D02*
X106680Y40930D01*
X30000Y30000D02*
X95750D01*
X106680Y40930D02*
Y43180D01*
X965200Y617220D02*
X970000Y622020D01*
X949100Y617220D02*
X965200D01*
X970000Y622020D02*
Y670000D01*
X903380Y40930D02*
X914310Y30000D01*
X903380Y40930D02*
Y43180D01*
X914310Y30000D02*
X970000D01*
X919640Y197540D02*
X919930Y197250D01*
X932050D01*
X932340Y196960D01*
X934820Y166200D02*
X968900D01*
X970000Y167300D01*
X933720Y165100D02*
X934820Y166200D01*
X949960Y187960D02*
X954700Y192700D01*
X932340Y187960D02*
X949960D01*
X954700Y192700D02*
X970000D01*
X295270Y499750D02*
X300100Y494920D01*
X282575Y499750D02*
X295270D01*
X300100Y455662D02*
Y494920D01*
X347150Y455300D02*
Y491930D01*
X354970Y499750D01*
X367665D01*
X309075Y445165D02*
Y455637D01*
X309100Y455662D01*
X309050Y445140D02*
X309075Y445165D01*
X347150Y607700D02*
Y617860D01*
Y572330D02*
Y607700D01*
Y572330D02*
X356230Y563250D01*
X367665D01*
X309050Y617860D02*
X309075Y617835D01*
Y608087D02*
Y617835D01*
Y608087D02*
X309100Y608062D01*
X294010Y563250D02*
X300100Y569340D01*
Y608062D01*
X282575Y563250D02*
X294010D01*
X792300Y273160D02*
X800100D01*
Y264160D02*
X810260D01*
X835660Y278620D02*
Y289560D01*
X810260Y273160D02*
X820420D01*
X810260D02*
Y286310D01*
X806780Y288290D02*
X808280D01*
X810260Y286310D01*
X822870Y300990D02*
X825300Y298560D01*
X835660D01*
X806780Y300990D02*
X822870D01*
X826100Y307920D02*
X835660D01*
X820330Y313690D02*
X826100Y307920D01*
X806780Y313690D02*
X820330D01*
X807415Y325755D02*
X835025D01*
X835660Y325120D01*
X806780Y326390D02*
X807415Y325755D01*
X748530Y326390D02*
X752780D01*
X742180Y332740D02*
X748530Y326390D01*
X728200Y332740D02*
X742180D01*
X712380D02*
X719600D01*
X340360Y147320D02*
X347880Y154840D01*
X372300D01*
X334264Y95504D02*
X340360Y101600D01*
Y147320D01*
X303276Y95504D02*
X334264D01*
X297824Y100956D02*
Y110186D01*
X297410Y110600D02*
X297824Y110186D01*
Y100956D02*
X303276Y95504D01*
X290910Y97710D02*
X297180Y91440D01*
X337820D01*
X345440Y99060D01*
Y124460D02*
X350520Y129540D01*
X345440Y99060D02*
Y124460D01*
X350520Y129540D02*
X370840D01*
X372300Y119280D02*
Y138076D01*
X290910Y97710D02*
Y110600D01*
X239263Y98303D02*
Y110247D01*
Y98303D02*
X239616Y97950D01*
X238910Y110600D02*
X239263Y110247D01*
X203200Y135166D02*
X205740Y132626D01*
X203200Y135166D02*
Y144018D01*
X205740Y132080D02*
Y132626D01*
X234478Y88900D02*
X238760D01*
X224980Y79402D02*
X234478Y88900D01*
X238760D02*
X245410Y95550D01*
Y110600D01*
X316830Y334770D02*
Y341294D01*
X320040Y344504D02*
Y345440D01*
X316830Y341294D02*
X320040Y344504D01*
X240320Y81450D02*
X240950Y82080D01*
X240220Y81450D02*
X240320D01*
X240950Y82180D02*
X258410Y99640D01*
Y110600D01*
X240950Y82080D02*
Y82180D01*
X296513Y81593D02*
X309993D01*
X311340Y82940D01*
X293560Y78640D02*
X296513Y81593D01*
X277910Y92740D02*
X292010Y78640D01*
X277910Y92740D02*
Y110600D01*
X292010Y78640D02*
X293560D01*
X271410Y78842D02*
Y110600D01*
X270700Y78132D02*
X271410Y78842D01*
X255460Y78132D02*
Y85280D01*
X264910Y94730D01*
Y110600D01*
X185420Y128960D02*
X196160D01*
X200660Y124460D01*
Y116840D02*
Y124460D01*
Y116840D02*
X206900Y110600D01*
X225910D01*
X185420Y128960D02*
Y142240D01*
X258410Y168600D02*
Y219142D01*
X324040Y235306D02*
Y244920D01*
X203200Y200660D02*
Y210760D01*
X272889Y214013D02*
X278092Y208810D01*
X268398Y219812D02*
X272889Y215321D01*
X259080Y219812D02*
X268398D01*
X278092Y208810D02*
X279400D01*
X272889Y214013D02*
Y215321D01*
X270176Y320040D02*
X271696Y318520D01*
X279140D01*
X269240Y320040D02*
X270176D01*
X233680Y309880D02*
Y310816D01*
X235960Y313096D02*
Y318520D01*
X233680Y310816D02*
X235960Y313096D01*
X216950Y309766D02*
X218440Y308276D01*
Y307340D02*
Y308276D01*
X216950Y309766D02*
Y315270D01*
X222440Y194120D02*
Y219812D01*
X302260Y196850D02*
Y219812D01*
X269240Y189564D02*
X271595Y187209D01*
X269240Y189564D02*
Y190500D01*
X271595Y168785D02*
Y187209D01*
X284587Y184953D02*
X284763Y185129D01*
X284587Y168776D02*
Y184953D01*
X284410Y168600D02*
X284587Y168776D01*
X277910Y168600D02*
Y186470D01*
X294640Y203200D01*
Y227813D01*
X244704Y187024D02*
X245410Y186318D01*
Y168600D02*
Y186318D01*
X244704Y187024D02*
Y187960D01*
X232410Y168600D02*
X232763Y168953D01*
Y187607D01*
X233116Y187960D01*
X271410Y168600D02*
X271595Y168785D01*
X258410Y219142D02*
X259080Y219812D01*
X290910Y185500D02*
X302260Y196850D01*
X300863Y234036D02*
X302260D01*
X294640Y227813D02*
X300863Y234036D01*
X279400Y243310D02*
X291589D01*
X300863Y234036D01*
X251910Y168600D02*
Y193860D01*
X242760Y203010D02*
X251910Y193860D01*
X242760Y203010D02*
Y218174D01*
X223837Y234036D02*
X231140Y226733D01*
Y200660D02*
Y226733D01*
X222440Y234036D02*
X223837D01*
X231140Y200660D02*
X238910Y192890D01*
Y168600D02*
Y192890D01*
X297410Y168600D02*
Y183110D01*
X324040Y209740D01*
Y218542D01*
X290910Y168600D02*
Y185500D01*
X222440Y194120D02*
X225910Y190650D01*
Y168600D02*
Y190650D01*
X215310Y239769D02*
X221043Y234036D01*
X222440D01*
X199580Y239769D02*
X215310D01*
X719450Y95750D02*
X719680Y95520D01*
X158980Y180340D02*
X177800D01*
X158940Y180300D02*
X158980Y180340D01*
X177800D02*
X185420Y172720D01*
Y147860D02*
Y172720D01*
X287020Y289560D02*
X292100D01*
X287020Y284480D02*
X292100D01*
D18*
X614215Y606595D02*
Y607400D01*
X618955Y612140D01*
X619760D01*
X612605Y606595D02*
X614215D01*
X612517Y599063D02*
X612605Y598975D01*
X605074Y599063D02*
X612517D01*
X604985Y598975D02*
X605074Y599063D01*
X733595Y598975D02*
X741215Y591355D01*
X728980Y603590D02*
X733595Y598975D01*
X728980Y603590D02*
Y604520D01*
X866080Y596960D02*
X866140Y596900D01*
X866080Y596960D02*
Y604520D01*
X753915Y475445D02*
X759460Y480990D01*
X594360Y462280D02*
X599440Y457200D01*
X584200Y472440D02*
X589280Y467360D01*
X555920Y502455D02*
X556725D01*
X551180Y507195D02*
X555920Y502455D01*
X551180Y507195D02*
Y508000D01*
X556725Y500845D02*
Y502455D01*
X761535Y561805D02*
X761623Y561894D01*
Y570946D01*
X761535Y571035D02*
X761623Y570946D01*
X581660Y574040D02*
Y576580D01*
X576580Y568960D02*
X581660Y574040D01*
X612140Y413331D02*
X649140Y450332D01*
X612140Y403860D02*
Y413331D01*
X595021Y419100D02*
X637566Y461645D01*
X594360Y419100D02*
X595021D01*
X637566Y461645D02*
X637826D01*
X594360Y463434D02*
X615199Y484273D01*
X594360Y462280D02*
Y463434D01*
X589280Y477520D02*
Y486638D01*
X584200Y472440D02*
X589280Y477520D01*
Y486638D02*
X601057Y498415D01*
X576995Y482997D02*
X577240Y483242D01*
X580227D01*
X574682D02*
X574927Y482997D01*
X576995D01*
X580227Y483242D02*
X598228Y501243D01*
X579818Y505460D02*
X586915Y512557D01*
X561340Y505460D02*
X579818D01*
X556725Y500845D02*
X561340Y505460D01*
X568960Y561340D02*
X576580Y568960D01*
X568960Y561340D02*
X568970Y561330D01*
Y556948D02*
X586915Y539003D01*
X568970Y556948D02*
Y561330D01*
X620596Y572944D02*
X620856D01*
X585356Y608076D02*
X615657Y577775D01*
X615765D01*
X553473Y608076D02*
X585356D01*
X615765Y577775D02*
X620596Y572944D01*
X546100Y615449D02*
X553473Y608076D01*
X546100Y615449D02*
Y628420D01*
X556600Y638920D01*
X557600D01*
X560510Y641830D02*
Y655320D01*
X557600Y638920D02*
X560510Y641830D01*
X518160Y621420D02*
X534100D01*
X534600Y620920D01*
X535600D02*
X552000Y604520D01*
X583623D01*
X534600Y620920D02*
X535600D01*
X583623Y604520D02*
X618028Y570116D01*
X612605Y606595D02*
X620884Y598316D01*
Y595544D02*
X632170Y584258D01*
X620884Y595544D02*
Y598316D01*
X612831Y586626D02*
Y591129D01*
X604985Y598975D02*
X612831Y591129D01*
Y586626D02*
X623684Y575772D01*
X701040Y612140D02*
Y627380D01*
X707153Y598854D02*
Y606027D01*
X701040Y612140D02*
X707153Y606027D01*
X709879Y636219D02*
Y636219D01*
X701040Y627380D02*
X709879Y636219D01*
Y636219D02*
X709981D01*
Y638861D01*
X720895Y649775D01*
X698214Y589915D02*
X707153Y598854D01*
X727659Y618541D02*
X730301D01*
X741215Y629455D01*
X713525Y599569D02*
Y604408D01*
X727659Y618541D01*
X701042Y587086D02*
X713525Y599569D01*
X727659Y618541D02*
Y618541D01*
X718273Y570116D02*
X739512Y591355D01*
X741215D01*
X718012Y570116D02*
X718273D01*
X758520Y571025D02*
X761525D01*
X737812Y550317D02*
X758520Y571025D01*
X761525D02*
X761535Y571035D01*
X726506Y489930D02*
X732319Y484117D01*
X726498Y489930D02*
X726506D01*
X732319Y484117D02*
X745243D01*
X753915Y475445D01*
X743857Y467738D02*
X746208D01*
X743770Y467825D02*
X743857Y467738D01*
X742945Y467825D02*
X743770D01*
X738852Y471919D02*
X742945Y467825D01*
X746208Y467738D02*
X746295Y467825D01*
X738675Y460205D02*
X738852Y460382D01*
Y471919D01*
X723669Y487101D02*
X738852Y471919D01*
D22*
X462581Y555020D02*
D03*
Y564520D02*
D03*
Y574020D02*
D03*
X436579D02*
D03*
Y555020D02*
D03*
Y493420D02*
D03*
Y512420D02*
D03*
X462581D02*
D03*
Y502920D02*
D03*
Y493420D02*
D03*
D23*
X279400Y208810D02*
D03*
Y243310D02*
D03*
D24*
X259080Y219812D02*
D03*
Y234036D02*
D03*
X204660Y66448D02*
D03*
Y80672D02*
D03*
X222440Y219812D02*
D03*
Y234036D02*
D03*
X270700Y63908D02*
D03*
Y78132D02*
D03*
X302260Y219812D02*
D03*
Y234036D02*
D03*
X255460Y63908D02*
D03*
Y78132D02*
D03*
X358040Y220028D02*
D03*
Y234252D02*
D03*
D25*
X584200Y472440D02*
D03*
X578190Y466430D02*
D03*
X556725Y500845D02*
D03*
X550715Y494835D02*
D03*
X767545Y577045D02*
D03*
X761535Y571035D02*
D03*
X739605Y604985D02*
D03*
X733595Y598975D02*
D03*
X588350Y456270D02*
D03*
X594360Y462280D02*
D03*
X747225Y597365D02*
D03*
X741215Y591355D02*
D03*
X747225Y635465D02*
D03*
X741215Y629455D02*
D03*
X726905Y655785D02*
D03*
X720895Y649775D02*
D03*
D26*
X568318Y476878D02*
D03*
X574682Y483242D02*
D03*
D27*
X431180Y622300D02*
D03*
X417180D02*
D03*
D28*
X106680Y43180D02*
D03*
X125280D02*
D03*
X884780D02*
D03*
X903380D02*
D03*
X930500Y617220D02*
D03*
X949100D02*
D03*
D29*
X103060Y315900D02*
D03*
Y344300D02*
D03*
X136080Y315900D02*
D03*
Y344300D02*
D03*
X170000Y315800D02*
D03*
Y344200D02*
D03*
X425640Y298120D02*
D03*
Y326520D02*
D03*
D30*
X282575Y499750D02*
D03*
Y487050D02*
D03*
Y512450D02*
D03*
Y525150D02*
D03*
Y563250D02*
D03*
Y550550D02*
D03*
Y575950D02*
D03*
Y537850D02*
D03*
X367665Y487050D02*
D03*
Y512450D02*
D03*
Y499750D02*
D03*
Y525150D02*
D03*
Y537850D02*
D03*
Y575950D02*
D03*
Y563250D02*
D03*
Y550550D02*
D03*
D31*
X287020Y289560D02*
D03*
X292100D02*
D03*
X287020Y284480D02*
D03*
X292100D02*
D03*
D32*
X210450Y334770D02*
D03*
X203950D02*
D03*
X216950D02*
D03*
X210450Y315270D02*
D03*
X216950D02*
D03*
X203950D02*
D03*
X329830Y334770D02*
D03*
X316830D02*
D03*
X323330D02*
D03*
X316830Y315270D02*
D03*
X329830D02*
D03*
X323330D02*
D03*
D33*
X255460Y325020D02*
D03*
Y331520D02*
D03*
Y318520D02*
D03*
X235960Y325020D02*
D03*
Y318520D02*
D03*
Y331520D02*
D03*
X279140D02*
D03*
Y318520D02*
D03*
Y325020D02*
D03*
X298640Y318520D02*
D03*
Y331520D02*
D03*
Y325020D02*
D03*
D34*
X186240Y484510D02*
D03*
Y509910D02*
D03*
Y522610D02*
D03*
Y497210D02*
D03*
X240480Y484510D02*
D03*
Y522610D02*
D03*
Y497210D02*
D03*
Y509910D02*
D03*
X186240Y540390D02*
D03*
Y565790D02*
D03*
Y578490D02*
D03*
Y553090D02*
D03*
X240480Y540390D02*
D03*
Y578490D02*
D03*
Y553090D02*
D03*
Y565790D02*
D03*
D35*
X401320Y498480D02*
D03*
Y489480D02*
D03*
Y515680D02*
D03*
Y506680D02*
D03*
Y561400D02*
D03*
Y552400D02*
D03*
Y578600D02*
D03*
Y569600D02*
D03*
X835660Y307920D02*
D03*
Y316920D02*
D03*
X800100Y273160D02*
D03*
Y264160D02*
D03*
X810260D02*
D03*
Y273160D02*
D03*
X835660Y289560D02*
D03*
Y298560D02*
D03*
X820420Y264160D02*
D03*
Y273160D02*
D03*
X932340Y196960D02*
D03*
Y187960D02*
D03*
X919640Y197540D02*
D03*
Y188540D02*
D03*
X906940D02*
D03*
Y197540D02*
D03*
X698980Y79620D02*
D03*
Y70620D02*
D03*
X185420Y128960D02*
D03*
Y119960D02*
D03*
X311340Y64780D02*
D03*
Y55780D02*
D03*
X627500Y660000D02*
D03*
Y651000D02*
D03*
X637500D02*
D03*
Y660000D02*
D03*
D36*
X420810Y498480D02*
D03*
X412310D02*
D03*
Y508640D02*
D03*
X420810D02*
D03*
X338650Y607700D02*
D03*
X347150D02*
D03*
Y617860D02*
D03*
X338650D02*
D03*
X420810Y559440D02*
D03*
X412310D02*
D03*
Y569600D02*
D03*
X420810D02*
D03*
X338650Y455300D02*
D03*
X347150D02*
D03*
Y445140D02*
D03*
X338650D02*
D03*
X309050Y617860D02*
D03*
X300550D02*
D03*
X309050Y445140D02*
D03*
X300550D02*
D03*
X920310Y368300D02*
D03*
X928810D02*
D03*
X958460Y312420D02*
D03*
X949960D02*
D03*
X715100Y120840D02*
D03*
X706600D02*
D03*
X924560Y454660D02*
D03*
X933060D02*
D03*
X894320Y604520D02*
D03*
X885820D02*
D03*
X552010Y655320D02*
D03*
X560510D02*
D03*
D37*
X309100Y608062D02*
D03*
X300100D02*
D03*
X309100Y455662D02*
D03*
X300100D02*
D03*
X920060Y355600D02*
D03*
X929060D02*
D03*
X924720Y165100D02*
D03*
X933720D02*
D03*
X679820Y77660D02*
D03*
X688820D02*
D03*
X688240Y103060D02*
D03*
X679240D02*
D03*
X925140Y429260D02*
D03*
X934140D02*
D03*
X875080Y604520D02*
D03*
X866080D02*
D03*
X885880Y591820D02*
D03*
X876880D02*
D03*
D38*
X345540Y652780D02*
D03*
X304700D02*
D03*
D39*
X779780Y307340D02*
D03*
D40*
X806780Y326390D02*
D03*
Y313690D02*
D03*
Y300990D02*
D03*
Y288290D02*
D03*
X752780D02*
D03*
Y300990D02*
D03*
Y313690D02*
D03*
Y326390D02*
D03*
D41*
X703580Y201168D02*
D03*
Y251460D02*
D03*
D42*
X719600Y332740D02*
D03*
X728200D02*
D03*
D43*
X824040Y208380D02*
D03*
X612140Y403860D02*
D03*
X594360Y419100D02*
D03*
X885000Y15000D02*
D03*
X115000Y685000D02*
D03*
Y15000D02*
D03*
X500000D02*
D03*
X885000Y685000D02*
D03*
X500000D02*
D03*
D44*
X723900Y284970D02*
D03*
Y314470D02*
D03*
D45*
X754380Y220150D02*
D03*
Y211650D02*
D03*
X767080Y220150D02*
D03*
Y211650D02*
D03*
X779780Y220150D02*
D03*
Y211650D02*
D03*
X792480Y220150D02*
D03*
Y211650D02*
D03*
X835660Y333620D02*
D03*
Y325120D02*
D03*
X518160Y629920D02*
D03*
Y621420D02*
D03*
X617500Y659550D02*
D03*
Y651050D02*
D03*
D46*
X835660Y270020D02*
D03*
Y278620D02*
D03*
X311340Y74340D02*
D03*
Y82940D02*
D03*
D47*
X719680Y95520D02*
D03*
Y100520D02*
D03*
Y105520D02*
D03*
X703680D02*
D03*
Y100520D02*
D03*
Y95520D02*
D03*
D48*
X737730Y55880D02*
D03*
X720230D02*
D03*
X824190Y105980D02*
D03*
X806690D02*
D03*
X824190Y85660D02*
D03*
X806690D02*
D03*
D49*
X744000Y109220D02*
D03*
X780000D02*
D03*
D50*
X803480Y128840D02*
D03*
X832480D02*
D03*
D51*
X740640Y504072D02*
D03*
X734983Y498415D02*
D03*
X737812Y501243D02*
D03*
X749125Y512557D02*
D03*
X743468Y506900D02*
D03*
X746297Y509729D02*
D03*
X723669Y487101D02*
D03*
X718012Y481444D02*
D03*
X720841Y484273D02*
D03*
X732155Y495587D02*
D03*
X726498Y489930D02*
D03*
X729326Y492758D02*
D03*
X703870Y467302D02*
D03*
X698214Y461645D02*
D03*
X701042Y464474D02*
D03*
X712356Y475788D02*
D03*
X715184Y478616D02*
D03*
X706699Y470131D02*
D03*
X709527Y472959D02*
D03*
X686900Y450332D02*
D03*
X689728Y453160D02*
D03*
X681243Y444675D02*
D03*
X684071Y447503D02*
D03*
X692557Y455989D02*
D03*
X695385Y458817D02*
D03*
X643483Y595572D02*
D03*
X646312Y598400D02*
D03*
X654797Y606885D02*
D03*
X649140Y601228D02*
D03*
X651969Y604057D02*
D03*
X632170Y584258D02*
D03*
X634998Y587086D02*
D03*
X626513Y578601D02*
D03*
X629341Y581429D02*
D03*
X637826Y589915D02*
D03*
X640655Y592743D02*
D03*
X612371Y564459D02*
D03*
X606714Y558802D02*
D03*
X609542Y561630D02*
D03*
X620856Y572944D02*
D03*
X623684Y575772D02*
D03*
X615199Y567287D02*
D03*
X618028Y570116D02*
D03*
X592572Y544660D02*
D03*
X595400Y547488D02*
D03*
X586915Y539003D02*
D03*
X589743Y541831D02*
D03*
X601057Y553145D02*
D03*
X603885Y555974D02*
D03*
X598228Y550317D02*
D03*
D52*
X726498Y561630D02*
D03*
X723669Y564459D02*
D03*
X732155Y555974D02*
D03*
X729326Y558802D02*
D03*
X746297Y541831D02*
D03*
X743468Y544660D02*
D03*
X749125Y539003D02*
D03*
X737812Y550317D02*
D03*
X734983Y553145D02*
D03*
X740640Y547488D02*
D03*
X629341Y470131D02*
D03*
X626513Y472959D02*
D03*
X634998Y464474D02*
D03*
X632170Y467302D02*
D03*
X651969Y447503D02*
D03*
X649140Y450332D02*
D03*
X654797Y444675D02*
D03*
X640655Y458817D02*
D03*
X637826Y461645D02*
D03*
X646312Y453160D02*
D03*
X643483Y455989D02*
D03*
X692557Y595572D02*
D03*
X698214Y589915D02*
D03*
X695385Y592743D02*
D03*
X684071Y604057D02*
D03*
X681243Y606885D02*
D03*
X689728Y598400D02*
D03*
X686900Y601228D02*
D03*
X715184Y572944D02*
D03*
X712356Y575772D02*
D03*
X720841Y567287D02*
D03*
X718012Y570116D02*
D03*
X703870Y584258D02*
D03*
X701042Y587086D02*
D03*
X709527Y578601D02*
D03*
X706699Y581429D02*
D03*
X595400Y504072D02*
D03*
X601057Y498415D02*
D03*
X598228Y501243D02*
D03*
X589743Y509729D02*
D03*
X586915Y512557D02*
D03*
X592572Y506900D02*
D03*
X618028Y481444D02*
D03*
X615199Y484273D02*
D03*
X623684Y475788D02*
D03*
X620856Y478616D02*
D03*
X606714Y492758D02*
D03*
X603885Y495587D02*
D03*
X612371Y487101D02*
D03*
X609542Y489930D02*
D03*
D53*
X863740Y629920D02*
D03*
X897740D02*
D03*
D54*
X880740Y646420D02*
D03*
D55*
X570570Y574970D02*
D03*
X576580Y568960D02*
D03*
X562950Y567350D02*
D03*
X568960Y561340D02*
D03*
X738675Y460205D02*
D03*
X744685Y454195D02*
D03*
X752305Y461815D02*
D03*
X746295Y467825D02*
D03*
X759925Y469435D02*
D03*
X753915Y475445D02*
D03*
X598975Y604985D02*
D03*
X604985Y598975D02*
D03*
X606595Y612605D02*
D03*
X612605Y606595D02*
D03*
D56*
X534600Y638920D02*
D03*
X557600D02*
D03*
X534600Y620920D02*
D03*
X557600D02*
D03*
D57*
X709981Y636219D02*
D03*
X727659Y618541D02*
D03*
D58*
X504380Y358040D02*
D03*
Y328540D02*
D03*
X546100Y328540D02*
D03*
Y358040D02*
D03*
X266700Y301770D02*
D03*
Y272270D02*
D03*
D59*
X506820Y147400D02*
D03*
Y284400D02*
D03*
X549820Y147400D02*
D03*
Y284400D02*
D03*
D60*
X477320Y248400D02*
D03*
D61*
X579320Y225900D02*
D03*
D62*
X516110Y109220D02*
D03*
X545610D02*
D03*
X508980Y378460D02*
D03*
X538480D02*
D03*
D63*
X372300Y154840D02*
D03*
Y138076D02*
D03*
Y119280D02*
D03*
Y102516D02*
D03*
X158940Y121820D02*
D03*
Y105056D02*
D03*
X203200Y160782D02*
D03*
Y144018D02*
D03*
X324040Y235306D02*
D03*
Y218542D02*
D03*
X224980Y79402D02*
D03*
Y62638D02*
D03*
D64*
X357060Y302450D02*
D03*
Y319950D02*
D03*
X377380Y302450D02*
D03*
Y319950D02*
D03*
X397700Y302450D02*
D03*
Y319950D02*
D03*
X242760Y235674D02*
D03*
Y218174D02*
D03*
X293560Y61140D02*
D03*
Y78640D02*
D03*
D65*
X295120Y378360D02*
D03*
X236120D02*
D03*
D66*
X185420Y147860D02*
D03*
Y142240D02*
D03*
X240220Y81450D02*
D03*
Y75830D02*
D03*
D67*
X158940Y149700D02*
D03*
Y180300D02*
D03*
X203200Y241360D02*
D03*
Y210760D02*
D03*
D68*
X50000Y355000D02*
D03*
Y305000D02*
D03*
D69*
X225910Y110600D02*
D03*
X232410D02*
D03*
X238910D02*
D03*
X245410D02*
D03*
X251910D02*
D03*
X258410D02*
D03*
X264910D02*
D03*
X271410D02*
D03*
X277910D02*
D03*
X284410D02*
D03*
X290910D02*
D03*
X297410D02*
D03*
X303910D02*
D03*
X310410D02*
D03*
Y168600D02*
D03*
X303910D02*
D03*
X297410D02*
D03*
X290910D02*
D03*
X284410D02*
D03*
X277910D02*
D03*
X271410D02*
D03*
X264910D02*
D03*
X258410D02*
D03*
X251910D02*
D03*
X245410D02*
D03*
X238910D02*
D03*
X232410D02*
D03*
X225910D02*
D03*
D70*
X377598Y216980D02*
D03*
X394362D02*
D03*
X377598Y237300D02*
D03*
X394362D02*
D03*
D78*
X207200Y325020D02*
D03*
X326580Y325020D02*
D03*
D79*
X216950Y325970D02*
D03*
X316830Y324070D02*
D03*
D80*
X245710Y328270D02*
D03*
X288890D02*
D03*
D81*
X246660Y318520D02*
D03*
X289840D02*
D03*
D116*
X268160Y139600D02*
D03*
D118*
X970000Y479600D02*
D03*
Y454200D02*
D03*
Y555800D02*
D03*
Y505000D02*
D03*
Y530400D02*
D03*
D122*
X968820Y368400D02*
D03*
Y355700D02*
D03*
D123*
Y343000D02*
D03*
D130*
X56350Y140750D02*
D03*
D131*
Y204250D02*
D03*
D132*
X118944Y496300D02*
G03*
X122623Y499978I0J3679D01*
G01*
X129980Y502897D02*
G03*
X122623Y502897I-3679J0D01*
G01*
X129980Y499978D02*
G03*
X133659Y496300I3679J0D01*
G01*
X118689Y537548D02*
G03*
X121098Y539957I0J2409D01*
G01*
X125916Y540607D02*
G03*
X121098Y540607I-2409J0D01*
G01*
X125916Y539957D02*
G03*
X130733Y539957I2409J0D01*
G01*
X135551Y542743D02*
G03*
X130733Y542743I-2409J0D01*
G01*
X135551Y539957D02*
G03*
X140368Y539957I2409J0D01*
G01*
X145186Y542743D02*
G03*
X140368Y542743I-2409J0D01*
G01*
X145186Y539957D02*
G03*
X147595Y537548I2409J0D01*
G01*
X98989Y533400D02*
G03*
X98997Y533400I-45J2277D01*
G01*
X103080Y533493D02*
G03*
X102836Y533490I0J-9653D01*
G01*
X507345Y452120D02*
X529553D01*
X509025Y456176D02*
X527873D01*
X568513Y496816D01*
X529553Y452120D02*
X570193Y492760D01*
X496652Y462812D02*
X507345Y452120D01*
X500708Y464492D02*
X509025Y456176D01*
X535940Y591820D02*
X579120D01*
X472578Y566548D02*
X504932D01*
X534260Y595876D02*
X580800D01*
X506612Y562492D02*
X535940Y591820D01*
X472578Y562492D02*
X506612D01*
X504932Y566548D02*
X534260Y595876D01*
X591820Y566420D02*
Y584855D01*
X579120Y591820D02*
X587764Y583176D01*
X580800Y595876D02*
X591820Y584855D01*
X584368Y558968D02*
X591820Y566420D01*
X580312Y560648D02*
X587764Y568100D01*
Y583176D01*
X471244Y561158D02*
X472578Y562492D01*
X500708Y464492D02*
Y497822D01*
X496652Y462812D02*
Y496142D01*
X472578Y500892D02*
X491902D01*
X471244Y499558D02*
X472578Y500892D01*
X471244Y498817D02*
Y499558D01*
X469633Y497207D02*
X471244Y498817D01*
X469368Y497207D02*
X469633D01*
X436579Y493420D02*
X462581D01*
X578625Y492760D02*
X588661Y502796D01*
X570193Y492760D02*
X578625D01*
X465581Y493420D02*
X469368Y497207D01*
X462581Y493420D02*
X465581D01*
X394323Y500552D02*
X395657Y499218D01*
Y494643D02*
Y499218D01*
X391102Y500552D02*
X394323D01*
X424840Y493420D02*
X436579D01*
X388272Y497722D02*
X391102Y500552D01*
X378583Y496388D02*
X379917Y497722D01*
X388272D01*
X378583Y493523D02*
Y496388D01*
X420900Y489480D02*
X424840Y493420D01*
X401320Y489480D02*
X420900D01*
X400820D02*
X401320D01*
X395657Y494643D02*
X400820Y489480D01*
X372110Y487050D02*
X378583Y493523D01*
X367665Y487050D02*
X372110D01*
X469368Y508633D02*
X469633D01*
X471244Y507023D01*
X465581Y512420D02*
X469368Y508633D01*
X471244Y506282D02*
X472578Y504948D01*
X471244Y506282D02*
Y507023D01*
X436221Y512062D02*
X436579Y512420D01*
X462581D02*
X465581D01*
X436579D02*
X462581D01*
X576946Y496816D02*
X585794Y505664D01*
X568513Y496816D02*
X576946D01*
X472578Y504948D02*
X493582D01*
X401320Y515680D02*
X422804D01*
X426423Y512062D01*
X436221D01*
X400820Y515680D02*
X401320D01*
X395657Y510517D02*
X400820Y515680D01*
X367665Y512450D02*
X372110D01*
X395657Y505942D02*
Y510517D01*
X394323Y504608D02*
X395657Y505942D01*
X389422Y504608D02*
X394323D01*
X386592Y501778D02*
X389422Y504608D01*
X378583Y503112D02*
Y505977D01*
X372110Y512450D02*
X378583Y505977D01*
X379917Y501778D02*
X386592D01*
X378583Y503112D02*
X379917Y501778D01*
X491902Y500892D02*
X496652Y496142D01*
X493582Y504948D02*
X500708Y497822D01*
X412310Y498480D02*
Y508588D01*
X401320Y506680D02*
X410402D01*
X412310Y508588D01*
Y508640D01*
X401320Y498480D02*
X412310D01*
X420810D02*
X427360D01*
X431800Y502920D01*
X426460Y508260D02*
X431800Y502920D01*
X421190Y508260D02*
X426460D01*
X420810Y508640D02*
X421190Y508260D01*
X431800Y502920D02*
X462581D01*
X584368Y552748D02*
X587965Y549151D01*
X433799Y574803D02*
X435581Y573022D01*
X471244Y567882D02*
Y568623D01*
Y567882D02*
X472578Y566548D01*
X469633Y570233D02*
X471244Y568623D01*
X462581Y574020D02*
X465581D01*
X436579D02*
X462581D01*
X469368Y570233D02*
X469633D01*
X465581Y574020D02*
X469368Y570233D01*
X587965Y549151D02*
X588275D01*
X424700Y578600D02*
X428497Y574803D01*
X433799D01*
X401320Y578600D02*
X424700D01*
X435581Y573022D02*
X436579Y574020D01*
X395657Y573437D02*
X400820Y578600D01*
X401320D01*
X367665Y575950D02*
X372110D01*
X395657Y568862D02*
Y573437D01*
X394323Y567528D02*
X395657Y568862D01*
X389422Y567528D02*
X394323D01*
X387172Y565278D02*
X389422Y567528D01*
X378583Y566612D02*
Y569477D01*
X372110Y575950D02*
X378583Y569477D01*
X379917Y565278D02*
X387172D01*
X378583Y566612D02*
X379917Y565278D01*
X469633Y558807D02*
X471244Y560417D01*
Y561158D01*
X465581Y555020D02*
X469368Y558807D01*
X469633D01*
X462581Y555020D02*
X465581D01*
X586286Y545095D02*
X586674D01*
X394323Y563472D02*
X395657Y562138D01*
Y557563D02*
Y562138D01*
X391102Y563472D02*
X394323D01*
X436579Y555020D02*
X462581D01*
X425424D02*
X436579D01*
X388852Y561222D02*
X391102Y563472D01*
X378583Y559888D02*
X379917Y561222D01*
X388852D01*
X378583Y557023D02*
Y559888D01*
X422804Y552400D02*
X425424Y555020D01*
X401320Y552400D02*
X422804D01*
X400820D02*
X401320D01*
X395657Y557563D02*
X400820Y552400D01*
X372110Y550550D02*
X378583Y557023D01*
X367665Y550550D02*
X372110D01*
X584368Y552748D02*
Y558968D01*
X580312Y551068D02*
X586286Y545095D01*
X580312Y551068D02*
Y560648D01*
X406932Y561400D02*
X410402D01*
X412310Y564546D02*
Y569600D01*
Y559492D02*
Y564546D01*
X407644Y564703D02*
X412153D01*
X412310Y564546D01*
X406932Y565415D02*
X407644Y564703D01*
X401320Y561400D02*
X405861D01*
X401320Y569600D02*
X412310D01*
X427360Y559440D02*
X432440Y564520D01*
X420810Y559440D02*
X427360D01*
Y569600D02*
X432440Y564520D01*
X420810Y569600D02*
X427360D01*
X432440Y564520D02*
X462581D01*
X410402Y561400D02*
X412310Y559492D01*
Y559440D02*
Y559492D01*
X153400Y496300D02*
X162688Y505588D01*
X111760Y496300D02*
X118944D01*
X122623Y499978D02*
Y502897D01*
X129980Y499978D02*
Y502897D01*
X133659Y496300D02*
X142156D01*
X153400D01*
X108670D02*
X111760D01*
X171386Y501532D02*
X172720Y500198D01*
Y493900D02*
X182110Y484510D01*
X172720Y493900D02*
Y500198D01*
X164368Y501532D02*
X171386D01*
X162688Y505588D02*
X171386D01*
X172720Y506922D02*
Y513220D01*
X171386Y505588D02*
X172720Y506922D01*
Y513220D02*
X182110Y522610D01*
X100548Y492244D02*
X155079D01*
X164368Y501532D01*
X251460Y506922D02*
Y515760D01*
X278130Y512450D02*
X282575D01*
X271657Y505977D02*
X278130Y512450D01*
X240480Y522610D02*
X244610D01*
X236350D02*
X240480D01*
X244610D02*
X251460Y515760D01*
X271657Y503230D02*
Y505977D01*
X270323Y501896D02*
X271657Y503230D01*
X260148Y501896D02*
X270323D01*
X252794Y505588D02*
X256456D01*
X251460Y506922D02*
X252794Y505588D01*
X256456D02*
X260148Y501896D01*
X190370Y522610D02*
X198120Y514860D01*
X228600D02*
X236350Y522610D01*
X198120Y506922D02*
Y514860D01*
X186240Y522610D02*
X190370D01*
X228600Y506922D02*
Y514860D01*
X227266Y505588D02*
X228600Y506922D01*
X199454Y505588D02*
X227266D01*
X198120Y506922D02*
X199454Y505588D01*
X258468Y497840D02*
X270323D01*
X254776Y501532D02*
X258468Y497840D01*
X271657Y493523D02*
Y496506D01*
X270323Y497840D02*
X271657Y496506D01*
X252794Y501532D02*
X254776D01*
X251460Y500198D02*
X252794Y501532D01*
X251460Y491360D02*
Y500198D01*
X271657Y493523D02*
X278130Y487050D01*
X282575D01*
X244610Y484510D02*
X251460Y491360D01*
X236350Y484510D02*
X240480D01*
X244610D01*
X199454Y501532D02*
X227266D01*
X198120Y500198D02*
X199454Y501532D01*
X228600Y492260D02*
Y500198D01*
X227266Y501532D02*
X228600Y500198D01*
X198120Y492260D02*
Y500198D01*
X228600Y492260D02*
X236350Y484510D01*
X190370D02*
X198120Y492260D01*
X186240Y484510D02*
X190370D01*
X103080Y501889D02*
X108670Y496300D01*
X103080Y501889D02*
Y503540D01*
X97573Y495218D02*
X100548Y492244D01*
X85280Y493340D02*
X87158Y495218D01*
X97573D01*
X182110Y522610D02*
X186240D01*
X182110Y484510D02*
X186240D01*
X114300Y537548D02*
X118689D01*
X121098Y539957D02*
Y540607D01*
X125916Y539957D02*
Y540607D01*
X130733Y539957D02*
Y542743D01*
X135551Y539957D02*
Y542743D01*
X140368Y539957D02*
Y542743D01*
X145186Y539957D02*
Y542743D01*
X147595Y537548D02*
X153353D01*
X153551Y537747D01*
X109318Y537548D02*
X114300D01*
X153551Y537747D02*
X157480Y541675D01*
X165755Y558800D02*
X171386D01*
X172720Y549780D02*
Y557466D01*
Y564190D02*
Y569100D01*
X164076Y562856D02*
X171386D01*
X172720Y564190D01*
X157480Y556260D02*
X164076Y562856D01*
X171386Y558800D02*
X172720Y557466D01*
X161536Y554580D02*
X165755Y558800D01*
X161536Y539996D02*
Y554580D01*
X157480Y541675D02*
Y556260D01*
X155033Y533493D02*
X161536Y539996D01*
X103080Y533493D02*
X155033D01*
X97134Y531545D02*
X98989Y533400D01*
X98997Y533400D02*
X102836Y533490D01*
X172720Y569100D02*
X182110Y578490D01*
X186240D01*
X103080Y543787D02*
X109318Y537548D01*
X271657Y569477D02*
X278130Y575950D01*
X244610Y578490D02*
X251460Y571640D01*
X278130Y575950D02*
X282575D01*
X271657Y566612D02*
Y569477D01*
X228600Y570740D02*
X236350Y578490D01*
X240480D02*
X244610D01*
X236350D02*
X240480D01*
X259940Y565278D02*
X270323D01*
X271657Y566612D01*
X256130Y561468D02*
X259940Y565278D01*
X253872Y561468D02*
X256130D01*
X251460Y563880D02*
X253872Y561468D01*
X251460Y563880D02*
Y571640D01*
X228600Y565987D02*
Y570740D01*
X224081Y561468D02*
X228600Y565987D01*
X203200Y561468D02*
X224081D01*
X186240Y578490D02*
X190370D01*
X197966Y566702D02*
Y570894D01*
X190370Y578490D02*
X197966Y570894D01*
Y566702D02*
X203200Y561468D01*
X103080Y543787D02*
Y544140D01*
X172720Y549780D02*
X182110Y540390D01*
X93300Y527711D02*
X97134Y531545D01*
X261620Y561222D02*
X270323D01*
X271657Y559888D01*
X257810Y557412D02*
X261620Y561222D01*
X271657Y557023D02*
X278130Y550550D01*
X271657Y557023D02*
Y559888D01*
X224908Y557412D02*
X228600Y553720D01*
X203200Y557412D02*
X224908D01*
X253259D02*
X257810D01*
X250773Y554926D02*
X253259Y557412D01*
X278130Y550550D02*
X282575D01*
X250773Y546553D02*
Y554926D01*
X244610Y540390D02*
X250773Y546553D01*
X228600Y548140D02*
X236350Y540390D01*
X228600Y548140D02*
Y553720D01*
X240480Y540390D02*
X244610D01*
X236350D02*
X240480D01*
X197966Y552178D02*
X203200Y557412D01*
X197966Y547986D02*
Y552178D01*
X186240Y540390D02*
X190370D01*
X182110D02*
X186240D01*
X190370D02*
X197966Y547986D01*
X93300Y521660D02*
Y527711D01*
X85280Y513640D02*
X93300Y521660D01*
D133*
X373380Y155920D02*
Y169931D01*
X372300Y154840D02*
X373380Y155920D01*
X219211Y93980D02*
X228600D01*
X206819Y81588D02*
X219211Y93980D01*
X206057Y80672D02*
X206819Y81434D01*
Y81588D01*
X204660Y80672D02*
X206057D01*
X165100Y81280D02*
X206665D01*
X228600Y93980D02*
X232410Y97790D01*
Y110600D01*
X158940Y87440D02*
X165100Y81280D01*
X158940Y87440D02*
Y105056D01*
Y121820D02*
Y149700D01*
D134*
X967500Y32500D02*
D03*
Y667500D02*
D03*
X32500D02*
D03*
Y32500D02*
D03*
D135*
X970000Y141900D02*
D03*
D136*
Y167300D02*
D03*
Y192700D02*
D03*
Y218100D02*
D03*
D137*
Y428800D02*
D03*
D138*
X59880Y465340D02*
D03*
Y592340D02*
D03*
D139*
X94180Y610140D02*
D03*
Y447540D02*
D03*
D140*
X103080Y564440D02*
D03*
Y544140D02*
D03*
Y523840D02*
D03*
Y503540D02*
D03*
X85280Y554240D02*
D03*
Y533940D02*
D03*
Y513640D02*
D03*
D141*
Y493340D02*
D03*
D142*
X607500Y650000D02*
D03*
X330000Y607500D02*
D03*
Y620000D02*
D03*
X345000Y677500D02*
D03*
X360000Y652500D02*
D03*
Y640000D02*
D03*
X727500Y532500D02*
D03*
X710000Y560000D02*
D03*
X722500Y592500D02*
D03*
X622500Y557500D02*
D03*
X638101Y573508D02*
D03*
X555000Y575000D02*
D03*
X565000Y582500D02*
D03*
X575000Y652500D02*
D03*
X517500Y640000D02*
D03*
X532500Y652500D02*
D03*
X570000Y622500D02*
D03*
X592500Y615000D02*
D03*
X600000Y622500D02*
D03*
X902500Y605000D02*
D03*
X930000D02*
D03*
X907500Y630000D02*
D03*
X895000Y652500D02*
D03*
X775000Y585000D02*
D03*
X752500Y602500D02*
D03*
X745000Y612500D02*
D03*
X755000Y642500D02*
D03*
X735000Y662500D02*
D03*
X915000Y455000D02*
D03*
X622500Y500000D02*
D03*
X607500Y515000D02*
D03*
X542500Y490000D02*
D03*
X562500Y472500D02*
D03*
X572500Y460000D02*
D03*
X582500Y450000D02*
D03*
X560000Y357500D02*
D03*
X555000Y380000D02*
D03*
X752500Y447500D02*
D03*
X760000Y455000D02*
D03*
X767500Y462500D02*
D03*
X792500Y332500D02*
D03*
X785000D02*
D03*
X777500D02*
D03*
X770000D02*
D03*
X835000Y342500D02*
D03*
X927500Y377500D02*
D03*
X957500Y302500D02*
D03*
X820000Y255000D02*
D03*
X835000Y260000D02*
D03*
X737500Y285000D02*
D03*
X752500Y280000D02*
D03*
X782500Y285000D02*
D03*
X750000Y230000D02*
D03*
X767500D02*
D03*
X780000D02*
D03*
X792500D02*
D03*
X907500Y205000D02*
D03*
X872500Y42500D02*
D03*
X882500Y57500D02*
D03*
X840000Y85000D02*
D03*
X837500Y107500D02*
D03*
X842500Y130000D02*
D03*
X690000Y62500D02*
D03*
X750000Y60000D02*
D03*
X722500Y112500D02*
D03*
X670000Y102500D02*
D03*
X115000Y140000D02*
D03*
X100000Y100000D02*
D03*
X65000Y80000D02*
D03*
X60000Y107500D02*
D03*
X565000D02*
D03*
X577500Y135000D02*
D03*
Y160000D02*
D03*
X582500Y277500D02*
D03*
Y295000D02*
D03*
X557500Y207500D02*
D03*
Y232500D02*
D03*
Y250000D02*
D03*
X480000Y222500D02*
D03*
X475000Y275000D02*
D03*
X435000Y282500D02*
D03*
X397500Y290000D02*
D03*
X377500D02*
D03*
X357500D02*
D03*
X260000Y260000D02*
D03*
Y247500D02*
D03*
X372500Y87500D02*
D03*
X325000Y112500D02*
D03*
Y122500D02*
D03*
Y135000D02*
D03*
Y145000D02*
D03*
X312500Y47500D02*
D03*
X292500Y50000D02*
D03*
X240000Y62500D02*
D03*
X272500Y52500D02*
D03*
X257500Y50000D02*
D03*
X225000D02*
D03*
X205000Y55000D02*
D03*
X137500Y37500D02*
D03*
Y47500D02*
D03*
X187500Y100000D02*
D03*
X180000Y105000D02*
D03*
X47500Y380000D02*
D03*
X90000Y372500D02*
D03*
X117500Y370000D02*
D03*
X150000D02*
D03*
X165000Y360000D02*
D03*
X132500D02*
D03*
X102500D02*
D03*
X48260Y281940D02*
D03*
X139700Y182880D02*
D03*
X190500Y185420D02*
D03*
X193040Y322580D02*
D03*
X165100Y302260D02*
D03*
X134620D02*
D03*
X101600D02*
D03*
X358140Y452120D02*
D03*
X876779Y408461D02*
D03*
X876300Y180340D02*
D03*
X688340Y127000D02*
D03*
X505460Y81280D02*
D03*
Y96520D02*
D03*
X500380Y88900D02*
D03*
X508000D02*
D03*
X515620Y83820D02*
D03*
Y93980D02*
D03*
X419100Y342900D02*
D03*
X373380Y170180D02*
D03*
X444500Y365760D02*
D03*
Y355600D02*
D03*
Y345440D02*
D03*
Y335280D02*
D03*
Y325120D02*
D03*
X452120Y320040D02*
D03*
Y330200D02*
D03*
Y340360D02*
D03*
Y350520D02*
D03*
Y360680D02*
D03*
Y370840D02*
D03*
X635000Y314960D02*
D03*
Y325120D02*
D03*
Y335280D02*
D03*
X708660Y60960D02*
D03*
Y45720D02*
D03*
Y53340D02*
D03*
X845820Y317500D02*
D03*
X505460Y396240D02*
D03*
X487680Y360680D02*
D03*
Y378460D02*
D03*
Y393700D02*
D03*
X299720Y624840D02*
D03*
X304800Y629920D02*
D03*
Y678180D02*
D03*
X287020Y650240D02*
D03*
X300000Y434620D02*
D03*
X861060Y368300D02*
D03*
X911860D02*
D03*
X914400Y429260D02*
D03*
X894080Y561340D02*
D03*
X744220Y568960D02*
D03*
X619760Y612140D02*
D03*
X612605Y598975D02*
D03*
X728980Y604520D02*
D03*
X940880Y312520D02*
D03*
X933060Y445380D02*
D03*
X866140Y596900D02*
D03*
X759460Y480990D02*
D03*
X599440Y457200D02*
D03*
X589280Y467360D02*
D03*
X449580Y627380D02*
D03*
Y617220D02*
D03*
X441960Y622300D02*
D03*
X406400D02*
D03*
X398780Y617220D02*
D03*
Y627380D02*
D03*
X551180Y508000D02*
D03*
X761535Y561805D02*
D03*
X581660Y576580D02*
D03*
X347150Y626550D02*
D03*
X718820Y416560D02*
D03*
X655320Y535940D02*
D03*
Y546100D02*
D03*
X886460Y518160D02*
D03*
X734060Y523240D02*
D03*
X726440Y429260D02*
D03*
X407004Y502713D02*
D03*
X431800Y502920D02*
D03*
X406932Y565415D02*
D03*
X432440Y564520D02*
D03*
X824040Y182980D02*
D03*
Y193140D02*
D03*
X831660Y188060D02*
D03*
Y198220D02*
D03*
X760540Y195680D02*
D03*
X792300Y273160D02*
D03*
X691960Y297280D02*
D03*
X712280Y332840D02*
D03*
X699580Y315060D02*
D03*
X805180Y58420D02*
D03*
X797560Y96520D02*
D03*
X679820Y85460D02*
D03*
X810260Y50800D02*
D03*
X800100D02*
D03*
X239616Y97950D02*
D03*
X205740Y132080D02*
D03*
X320040Y345440D02*
D03*
X259080Y210820D02*
D03*
Y203200D02*
D03*
X324040Y244920D02*
D03*
X203200Y200660D02*
D03*
X259080Y312420D02*
D03*
X289560Y307340D02*
D03*
X269240Y320040D02*
D03*
X281940Y302260D02*
D03*
X248920Y304800D02*
D03*
X218440Y375920D02*
D03*
X312420Y373380D02*
D03*
X302306Y209970D02*
D03*
X222230Y209778D02*
D03*
X218440Y307340D02*
D03*
X269240Y190500D02*
D03*
X233680Y309880D02*
D03*
X284763Y185129D02*
D03*
X244704Y187960D02*
D03*
X233116D02*
D03*
X405320Y237300D02*
D03*
X404940Y216980D02*
D03*
X309880Y292100D02*
D03*
Y281940D02*
D03*
M02*
