G04*
G04 #@! TF.GenerationSoftware,Altium Limited,Altium Designer,24.1.2 (44)*
G04*
G04 Layer_Physical_Order=4*
G04 Layer_Color=16711680*
%FSLAX44Y44*%
%MOMM*%
G71*
G04*
G04 #@! TF.SameCoordinates,BB806972-894B-4990-B732-A97902CF1386*
G04*
G04*
G04 #@! TF.FilePolarity,Positive*
G04*
G01*
G75*
%ADD10C,0.1524*%
%ADD14C,0.2540*%
%ADD118C,1.5000*%
%ADD122O,1.5240X1.0160*%
%ADD123R,1.5240X1.0160*%
%ADD130C,2.7300*%
%ADD131R,2.7300X2.7300*%
%ADD133C,0.5080*%
%ADD134C,5.5000*%
%ADD135R,1.7780X1.7780*%
%ADD136C,1.7780*%
%ADD137R,1.5000X1.5000*%
%ADD138C,3.2500*%
%ADD139C,2.3550*%
%ADD140C,1.3980*%
%ADD141R,1.3980X1.3980*%
%ADD142C,0.6000*%
%ADD143C,0.7620*%
G36*
X961158Y695881D02*
X960704Y695809D01*
X956359Y694398D01*
X952288Y692324D01*
X948592Y689638D01*
X945362Y686408D01*
X942676Y682712D01*
X940602Y678641D01*
X939191Y674296D01*
X938476Y669784D01*
Y665216D01*
X939191Y660704D01*
X940602Y656359D01*
X942676Y652288D01*
X945362Y648592D01*
X948592Y645362D01*
X952288Y642676D01*
X956359Y640602D01*
X960704Y639191D01*
X965216Y638476D01*
X969784D01*
X974296Y639191D01*
X978641Y640602D01*
X982712Y642676D01*
X986408Y645362D01*
X989638Y648592D01*
X992324Y652288D01*
X994398Y656359D01*
X995809Y660704D01*
X995881Y661158D01*
X997151Y661058D01*
Y38942D01*
X995881Y38842D01*
X995809Y39297D01*
X994398Y43641D01*
X992324Y47712D01*
X989638Y51408D01*
X986408Y54638D01*
X982712Y57324D01*
X978641Y59398D01*
X974296Y60809D01*
X969784Y61524D01*
X965216D01*
X960704Y60809D01*
X956359Y59398D01*
X952288Y57324D01*
X948592Y54638D01*
X945362Y51408D01*
X942676Y47712D01*
X940602Y43641D01*
X939191Y39297D01*
X938476Y34784D01*
Y30216D01*
X939191Y25704D01*
X940602Y21359D01*
X942676Y17288D01*
X945362Y13592D01*
X948592Y10362D01*
X952288Y7677D01*
X956359Y5602D01*
X960704Y4191D01*
X961158Y4119D01*
X961058Y2849D01*
X38942D01*
X38842Y4119D01*
X39297Y4191D01*
X43641Y5602D01*
X47712Y7677D01*
X51408Y10362D01*
X54638Y13592D01*
X57324Y17288D01*
X59398Y21359D01*
X60809Y25704D01*
X61524Y30216D01*
Y34784D01*
X60809Y39297D01*
X59398Y43641D01*
X57324Y47712D01*
X54638Y51408D01*
X51408Y54638D01*
X47712Y57324D01*
X43641Y59398D01*
X39297Y60809D01*
X34784Y61524D01*
X30216D01*
X25704Y60809D01*
X21359Y59398D01*
X17288Y57324D01*
X13592Y54638D01*
X10362Y51408D01*
X7677Y47712D01*
X5602Y43641D01*
X4191Y39297D01*
X4119Y38842D01*
X2849Y38942D01*
Y410000D01*
X453061D01*
X453061Y410000D01*
X453061Y410000D01*
X454722Y409918D01*
X457978Y409271D01*
X461046Y408000D01*
X463807Y406155D01*
X466155Y403807D01*
X468000Y401046D01*
X469271Y397978D01*
X469918Y394722D01*
X470000Y393061D01*
X470000Y360000D01*
X470000Y360000D01*
X470000Y359015D01*
X470044Y358793D01*
X470384Y357083D01*
X471138Y355263D01*
X472233Y353625D01*
X473625Y352233D01*
X475263Y351138D01*
X477083Y350384D01*
X479015Y350000D01*
X510000D01*
X510985Y350000D01*
X512917Y350384D01*
X514737Y351138D01*
X516375Y352232D01*
X517767Y353625D01*
X518862Y355263D01*
X519616Y357083D01*
X520000Y359015D01*
X520000Y360000D01*
X520000Y420000D01*
X520000D01*
X520000Y420000D01*
X520000Y421970D01*
X519231Y425834D01*
X517724Y429473D01*
X515535Y432749D01*
X512749Y435535D01*
X509473Y437724D01*
X505834Y439231D01*
X501970Y440000D01*
X500000Y440000D01*
X330000Y440000D01*
X330000Y440000D01*
X329020Y440048D01*
X327097Y440431D01*
X325286Y441181D01*
X323656Y442270D01*
X322270Y443656D01*
X321181Y445286D01*
X320430Y447097D01*
X320048Y449020D01*
X320000Y450000D01*
Y667669D01*
X586535D01*
X603072Y651132D01*
X602976Y650900D01*
Y649100D01*
X603665Y647437D01*
X604937Y646165D01*
X606600Y645476D01*
X608400D01*
X610063Y646165D01*
X611335Y647437D01*
X612024Y649100D01*
Y650900D01*
X611335Y652563D01*
X610063Y653835D01*
X608400Y654524D01*
X606600D01*
X606368Y654428D01*
X589148Y671648D01*
X588392Y672153D01*
X587500Y672331D01*
X320000D01*
Y697151D01*
X961058D01*
X961158Y695881D01*
D02*
G37*
%LPC*%
G36*
X450480Y631904D02*
X448680D01*
X447017Y631215D01*
X445745Y629943D01*
X445056Y628280D01*
Y627261D01*
X443806Y626432D01*
X442860Y626824D01*
X441060D01*
X439397Y626135D01*
X438125Y624863D01*
X437436Y623200D01*
Y621400D01*
X438125Y619737D01*
X439397Y618465D01*
X441060Y617776D01*
X442860D01*
X443806Y618168D01*
X445056Y617339D01*
Y616320D01*
X445745Y614657D01*
X447017Y613385D01*
X448680Y612696D01*
X450480D01*
X452143Y613385D01*
X453415Y614657D01*
X454104Y616320D01*
Y618120D01*
X453415Y619783D01*
X452143Y621055D01*
X450671Y621665D01*
X450628Y621932D01*
Y622668D01*
X450671Y622935D01*
X452143Y623545D01*
X453415Y624817D01*
X454104Y626480D01*
Y628280D01*
X453415Y629943D01*
X452143Y631215D01*
X450480Y631904D01*
D02*
G37*
G36*
X348050Y631074D02*
X346250D01*
X344587Y630385D01*
X343315Y629113D01*
X342626Y627450D01*
Y625650D01*
X343315Y623987D01*
X344587Y622715D01*
X346250Y622026D01*
X348050D01*
X349713Y622715D01*
X350985Y623987D01*
X351674Y625650D01*
Y627450D01*
X350985Y629113D01*
X349713Y630385D01*
X348050Y631074D01*
D02*
G37*
G36*
X399680Y631904D02*
X397880D01*
X396217Y631215D01*
X394945Y629943D01*
X394256Y628280D01*
Y626480D01*
X394945Y624817D01*
X396217Y623545D01*
X397689Y622935D01*
X397732Y622668D01*
Y621932D01*
X397689Y621665D01*
X396217Y621055D01*
X394945Y619783D01*
X394256Y618120D01*
Y616320D01*
X394945Y614657D01*
X396217Y613385D01*
X397880Y612696D01*
X399680D01*
X401343Y613385D01*
X402615Y614657D01*
X403304Y616320D01*
Y617339D01*
X404554Y618168D01*
X405500Y617776D01*
X407300D01*
X408963Y618465D01*
X410235Y619737D01*
X410924Y621400D01*
Y623200D01*
X410235Y624863D01*
X408963Y626135D01*
X407300Y626824D01*
X405500D01*
X404554Y626432D01*
X403304Y627261D01*
Y628280D01*
X402615Y629943D01*
X401343Y631215D01*
X399680Y631904D01*
D02*
G37*
G36*
X620660Y616664D02*
X618860D01*
X617197Y615975D01*
X615925Y614703D01*
X615236Y613040D01*
Y611240D01*
X615925Y609577D01*
X617197Y608305D01*
X618860Y607616D01*
X620660D01*
X622323Y608305D01*
X623595Y609577D01*
X624284Y611240D01*
Y613040D01*
X623595Y614703D01*
X622323Y615975D01*
X620660Y616664D01*
D02*
G37*
G36*
X729880Y609044D02*
X728080D01*
X726417Y608355D01*
X725145Y607083D01*
X724456Y605420D01*
Y603620D01*
X725145Y601957D01*
X726417Y600685D01*
X728080Y599996D01*
X729880D01*
X731543Y600685D01*
X732815Y601957D01*
X733504Y603620D01*
Y605420D01*
X732815Y607083D01*
X731543Y608355D01*
X729880Y609044D01*
D02*
G37*
G36*
X613505Y603499D02*
X611705D01*
X610043Y602810D01*
X608770Y601537D01*
X608081Y599875D01*
Y598075D01*
X608770Y596412D01*
X610043Y595140D01*
X611705Y594451D01*
X613505D01*
X615168Y595140D01*
X616440Y596412D01*
X617129Y598075D01*
Y599875D01*
X616440Y601537D01*
X615168Y602810D01*
X613505Y603499D01*
D02*
G37*
G36*
X867040Y601424D02*
X865240D01*
X863577Y600735D01*
X862305Y599463D01*
X861616Y597800D01*
Y596000D01*
X862305Y594337D01*
X863577Y593065D01*
X865240Y592376D01*
X867040D01*
X868703Y593065D01*
X869975Y594337D01*
X870664Y596000D01*
Y597800D01*
X869975Y599463D01*
X868703Y600735D01*
X867040Y601424D01*
D02*
G37*
G36*
X582560Y581104D02*
X580760D01*
X579097Y580415D01*
X577825Y579143D01*
X577136Y577480D01*
Y575680D01*
X577825Y574017D01*
X579097Y572745D01*
X580760Y572056D01*
X582560D01*
X584223Y572745D01*
X585495Y574017D01*
X586184Y575680D01*
Y577480D01*
X585495Y579143D01*
X584223Y580415D01*
X582560Y581104D01*
D02*
G37*
G36*
X407832Y569939D02*
X406032D01*
X404369Y569250D01*
X403097Y567978D01*
X402408Y566315D01*
Y564515D01*
X403097Y562853D01*
X404369Y561580D01*
X406032Y560891D01*
X407832D01*
X409495Y561580D01*
X410767Y562853D01*
X411456Y564515D01*
Y566315D01*
X410767Y567978D01*
X409495Y569250D01*
X407832Y569939D01*
D02*
G37*
G36*
X745120Y573484D02*
X743320D01*
X741657Y572795D01*
X740385Y571523D01*
X739696Y569860D01*
Y568060D01*
X740385Y566397D01*
X741657Y565125D01*
X743320Y564436D01*
X745120D01*
X746783Y565125D01*
X748055Y566397D01*
X748151Y566629D01*
X758293D01*
X758691Y565359D01*
X757700Y564368D01*
X757011Y562705D01*
Y560905D01*
X757700Y559243D01*
X758972Y557970D01*
X760635Y557281D01*
X762435D01*
X764097Y557970D01*
X765370Y559243D01*
X766059Y560905D01*
Y562705D01*
X765370Y564368D01*
X764379Y565359D01*
X764776Y566629D01*
X885495D01*
X889652Y562472D01*
X889556Y562240D01*
Y560440D01*
X890245Y558777D01*
X891517Y557505D01*
X893180Y556816D01*
X894980D01*
X896643Y557505D01*
X897915Y558777D01*
X898604Y560440D01*
Y562240D01*
X897915Y563903D01*
X896643Y565175D01*
X894980Y565864D01*
X893180D01*
X892948Y565768D01*
X888108Y570608D01*
X887352Y571113D01*
X886460Y571291D01*
X748151D01*
X748055Y571523D01*
X746783Y572795D01*
X745120Y573484D01*
D02*
G37*
G36*
X971188Y564824D02*
X968812D01*
X966517Y564209D01*
X964459Y563021D01*
X962779Y561341D01*
X961591Y559283D01*
X960976Y556988D01*
Y554612D01*
X961591Y552317D01*
X962779Y550259D01*
X964459Y548579D01*
X966517Y547391D01*
X968812Y546776D01*
X971188D01*
X973483Y547391D01*
X975541Y548579D01*
X977221Y550259D01*
X978409Y552317D01*
X979024Y554612D01*
Y556988D01*
X978409Y559283D01*
X977221Y561341D01*
X975541Y563021D01*
X973483Y564209D01*
X971188Y564824D01*
D02*
G37*
G36*
X656220Y550624D02*
X654420D01*
X652757Y549935D01*
X651485Y548663D01*
X650796Y547000D01*
Y545200D01*
X651485Y543537D01*
X652757Y542265D01*
X654229Y541655D01*
X654272Y541388D01*
Y540652D01*
X654229Y540385D01*
X652757Y539775D01*
X651485Y538503D01*
X650796Y536840D01*
Y535040D01*
X651485Y533377D01*
X652757Y532105D01*
X654420Y531416D01*
X656220D01*
X657883Y532105D01*
X659155Y533377D01*
X659844Y535040D01*
Y535957D01*
X660037Y536149D01*
X903275D01*
X906989Y532435D01*
Y523676D01*
X907167Y522784D01*
X907672Y522028D01*
X915728Y513972D01*
X916484Y513467D01*
X917376Y513289D01*
X958415D01*
X962188Y509516D01*
X961591Y508483D01*
X960976Y506188D01*
Y503812D01*
X961591Y501517D01*
X962779Y499459D01*
X964459Y497779D01*
X966517Y496591D01*
X968812Y495976D01*
X971188D01*
X973483Y496591D01*
X975541Y497779D01*
X977221Y499459D01*
X978409Y501517D01*
X979024Y503812D01*
Y506188D01*
X978409Y508483D01*
X977221Y510541D01*
X975541Y512221D01*
X973483Y513409D01*
X971188Y514024D01*
X968812D01*
X966517Y513409D01*
X965484Y512812D01*
X961069Y517227D01*
X961068Y517583D01*
X961099Y517823D01*
X961296Y518616D01*
X961948Y519052D01*
X965484Y522588D01*
X966517Y521991D01*
X968812Y521376D01*
X971188D01*
X973483Y521991D01*
X975541Y523179D01*
X977221Y524859D01*
X978409Y526917D01*
X979024Y529212D01*
Y531588D01*
X978409Y533883D01*
X977221Y535941D01*
X975541Y537621D01*
X973483Y538809D01*
X971188Y539424D01*
X968812D01*
X966517Y538809D01*
X964459Y537621D01*
X962779Y535941D01*
X961591Y533883D01*
X960976Y531588D01*
Y529212D01*
X961591Y526917D01*
X962188Y525884D01*
X959335Y523031D01*
X920445D01*
X916731Y526745D01*
Y533400D01*
X916553Y534292D01*
X916048Y535048D01*
X905888Y545208D01*
X905132Y545713D01*
X904240Y545891D01*
X660037D01*
X659844Y546083D01*
Y547000D01*
X659155Y548663D01*
X657883Y549935D01*
X656220Y550624D01*
D02*
G37*
G36*
X734960Y527764D02*
X733160D01*
X731497Y527075D01*
X730225Y525803D01*
X729536Y524140D01*
Y522340D01*
X730225Y520677D01*
X731497Y519405D01*
X733160Y518716D01*
X734960D01*
X736623Y519405D01*
X737895Y520677D01*
X737991Y520909D01*
X880415D01*
X882032Y519292D01*
X881936Y519060D01*
Y517260D01*
X882625Y515597D01*
X883897Y514325D01*
X885560Y513636D01*
X887360D01*
X889023Y514325D01*
X890295Y515597D01*
X890984Y517260D01*
Y519060D01*
X890295Y520723D01*
X889023Y521995D01*
X887360Y522684D01*
X885560D01*
X885328Y522588D01*
X883028Y524888D01*
X882272Y525393D01*
X881380Y525571D01*
X737991D01*
X737895Y525803D01*
X736623Y527075D01*
X734960Y527764D01*
D02*
G37*
G36*
X552080Y512524D02*
X550280D01*
X548617Y511835D01*
X547345Y510563D01*
X546656Y508900D01*
Y507100D01*
X547345Y505437D01*
X548617Y504165D01*
X550280Y503476D01*
X552080D01*
X553743Y504165D01*
X555015Y505437D01*
X555704Y507100D01*
Y508900D01*
X555015Y510563D01*
X553743Y511835D01*
X552080Y512524D01*
D02*
G37*
G36*
X407904Y507237D02*
X406104D01*
X404441Y506548D01*
X403169Y505275D01*
X402480Y503612D01*
Y501813D01*
X403169Y500150D01*
X404441Y498877D01*
X406104Y498189D01*
X407904D01*
X409567Y498877D01*
X410839Y500150D01*
X411528Y501813D01*
Y503612D01*
X410839Y505275D01*
X409567Y506548D01*
X407904Y507237D01*
D02*
G37*
G36*
X760360Y485514D02*
X758560D01*
X756897Y484826D01*
X755625Y483553D01*
X754936Y481890D01*
Y480090D01*
X755625Y478428D01*
X756897Y477155D01*
X758560Y476466D01*
X760360D01*
X762023Y477155D01*
X763295Y478428D01*
X763984Y480090D01*
Y481890D01*
X763295Y483553D01*
X762023Y484826D01*
X760360Y485514D01*
D02*
G37*
G36*
X590180Y471884D02*
X588380D01*
X586717Y471195D01*
X585445Y469923D01*
X584756Y468260D01*
Y466460D01*
X585445Y464797D01*
X586717Y463525D01*
X588380Y462836D01*
X590180D01*
X591843Y463525D01*
X593115Y464797D01*
X593804Y466460D01*
Y468260D01*
X593115Y469923D01*
X591843Y471195D01*
X590180Y471884D01*
D02*
G37*
G36*
X600340Y461724D02*
X598540D01*
X596877Y461035D01*
X595605Y459763D01*
X594916Y458100D01*
Y456300D01*
X595605Y454637D01*
X596877Y453365D01*
X598540Y452676D01*
X600340D01*
X602003Y453365D01*
X603275Y454637D01*
X603964Y456300D01*
Y458100D01*
X603275Y459763D01*
X602003Y461035D01*
X600340Y461724D01*
D02*
G37*
G36*
X359040Y456644D02*
X357240D01*
X355577Y455955D01*
X354305Y454683D01*
X353616Y453020D01*
Y451220D01*
X354305Y449557D01*
X355577Y448285D01*
X357240Y447596D01*
X359040D01*
X360703Y448285D01*
X361975Y449557D01*
X362664Y451220D01*
Y453020D01*
X361975Y454683D01*
X360703Y455955D01*
X359040Y456644D01*
D02*
G37*
G36*
X971188Y463224D02*
X968812D01*
X966517Y462609D01*
X964459Y461421D01*
X962779Y459741D01*
X961591Y457683D01*
X960976Y455388D01*
Y453012D01*
X961591Y450717D01*
X962779Y448659D01*
X964459Y446979D01*
X966517Y445791D01*
X968812Y445176D01*
X971188D01*
X973483Y445791D01*
X975541Y446979D01*
X977221Y448659D01*
X978409Y450717D01*
X979024Y453012D01*
Y455388D01*
X978409Y457683D01*
X977221Y459741D01*
X975541Y461421D01*
X973483Y462609D01*
X971188Y463224D01*
D02*
G37*
G36*
X933960Y449904D02*
X932160D01*
X930497Y449215D01*
X929225Y447943D01*
X928536Y446280D01*
Y444480D01*
X929225Y442817D01*
X930497Y441545D01*
X932160Y440856D01*
X933960D01*
X935623Y441545D01*
X936895Y442817D01*
X937584Y444480D01*
Y446280D01*
X936895Y447943D01*
X935623Y449215D01*
X933960Y449904D01*
D02*
G37*
G36*
X915300Y433784D02*
X913500D01*
X911837Y433095D01*
X910565Y431823D01*
X910469Y431591D01*
X730371D01*
X730275Y431823D01*
X729003Y433095D01*
X727340Y433784D01*
X725540D01*
X723877Y433095D01*
X722605Y431823D01*
X721916Y430160D01*
Y428360D01*
X722605Y426697D01*
X723877Y425425D01*
X725540Y424736D01*
X727340D01*
X729003Y425425D01*
X730275Y426697D01*
X730371Y426929D01*
X910469D01*
X910565Y426697D01*
X911837Y425425D01*
X913500Y424736D01*
X915300D01*
X916963Y425425D01*
X918235Y426697D01*
X918924Y428360D01*
Y430160D01*
X918235Y431823D01*
X916963Y433095D01*
X915300Y433784D01*
D02*
G37*
G36*
X979024Y437824D02*
X960976D01*
Y419776D01*
X979024D01*
Y437824D01*
D02*
G37*
G36*
X719720Y421084D02*
X717920D01*
X716257Y420395D01*
X714985Y419123D01*
X714296Y417460D01*
Y415660D01*
X714985Y413997D01*
X716257Y412725D01*
X717920Y412036D01*
X719720D01*
X721383Y412725D01*
X722655Y413997D01*
X722751Y414229D01*
X867715D01*
X872351Y409593D01*
X872255Y409361D01*
Y407561D01*
X872944Y405899D01*
X874216Y404626D01*
X875879Y403937D01*
X877679D01*
X879342Y404626D01*
X880614Y405899D01*
X881303Y407561D01*
Y409361D01*
X880614Y411024D01*
X879342Y412296D01*
X877679Y412985D01*
X875879D01*
X875647Y412889D01*
X870328Y418208D01*
X869572Y418713D01*
X868680Y418891D01*
X722751D01*
X722655Y419123D01*
X721383Y420395D01*
X719720Y421084D01*
D02*
G37*
G36*
X912760Y372824D02*
X910960D01*
X909297Y372135D01*
X908025Y370863D01*
X907929Y370631D01*
X864991D01*
X864895Y370863D01*
X863623Y372135D01*
X861960Y372824D01*
X860160D01*
X858497Y372135D01*
X857225Y370863D01*
X856536Y369200D01*
Y367400D01*
X857225Y365737D01*
X858497Y364465D01*
X860160Y363776D01*
X861960D01*
X863623Y364465D01*
X864895Y365737D01*
X864991Y365969D01*
X907929D01*
X908025Y365737D01*
X909297Y364465D01*
X910960Y363776D01*
X912760D01*
X914423Y364465D01*
X915695Y365737D01*
X916384Y367400D01*
Y369200D01*
X915695Y370863D01*
X914423Y372135D01*
X912760Y372824D01*
D02*
G37*
G36*
X453020Y375364D02*
X451220D01*
X449557Y374675D01*
X448285Y373403D01*
X447596Y371740D01*
Y370721D01*
X446346Y369892D01*
X445400Y370284D01*
X443600D01*
X441937Y369595D01*
X440665Y368323D01*
X439976Y366660D01*
Y364860D01*
X440665Y363197D01*
X441937Y361925D01*
X443409Y361315D01*
X443452Y361048D01*
Y360312D01*
X443409Y360045D01*
X441937Y359435D01*
X440665Y358163D01*
X439976Y356500D01*
Y354700D01*
X440665Y353037D01*
X441937Y351765D01*
X443409Y351155D01*
X443452Y350888D01*
Y350152D01*
X443409Y349885D01*
X441937Y349275D01*
X440665Y348003D01*
X439976Y346340D01*
Y344540D01*
X440665Y342877D01*
X441937Y341605D01*
X443409Y340995D01*
X443452Y340728D01*
Y339992D01*
X443409Y339725D01*
X441937Y339115D01*
X440665Y337843D01*
X439976Y336180D01*
Y334380D01*
X440665Y332717D01*
X441937Y331445D01*
X443409Y330835D01*
X443452Y330568D01*
Y329832D01*
X443409Y329565D01*
X441937Y328955D01*
X440665Y327683D01*
X439976Y326020D01*
Y324220D01*
X440665Y322557D01*
X441937Y321285D01*
X443600Y320596D01*
X445400D01*
X446346Y320988D01*
X447596Y320159D01*
Y319140D01*
X448285Y317477D01*
X449557Y316205D01*
X451220Y315516D01*
X453020D01*
X454683Y316205D01*
X455955Y317477D01*
X456644Y319140D01*
Y320940D01*
X455955Y322603D01*
X454683Y323875D01*
X453211Y324485D01*
X453168Y324752D01*
Y325488D01*
X453211Y325755D01*
X454683Y326365D01*
X455955Y327637D01*
X456644Y329300D01*
Y331100D01*
X455955Y332763D01*
X454683Y334035D01*
X453211Y334645D01*
X453168Y334912D01*
Y335648D01*
X453211Y335915D01*
X454683Y336525D01*
X455955Y337797D01*
X456644Y339460D01*
Y341260D01*
X455955Y342923D01*
X454683Y344195D01*
X453211Y344805D01*
X453168Y345072D01*
Y345808D01*
X453211Y346075D01*
X454683Y346685D01*
X455955Y347957D01*
X456644Y349620D01*
Y351420D01*
X455955Y353083D01*
X454683Y354355D01*
X453211Y354965D01*
X453168Y355232D01*
Y355968D01*
X453211Y356235D01*
X454683Y356845D01*
X455955Y358117D01*
X456644Y359780D01*
Y361580D01*
X455955Y363243D01*
X454683Y364515D01*
X453211Y365125D01*
X453168Y365392D01*
Y366128D01*
X453211Y366395D01*
X454683Y367005D01*
X455955Y368277D01*
X456644Y369940D01*
Y371740D01*
X455955Y373403D01*
X454683Y374675D01*
X453020Y375364D01*
D02*
G37*
G36*
X971360Y362361D02*
X966280D01*
X964556Y362134D01*
X962950Y361469D01*
X961570Y360410D01*
X960511Y359030D01*
X959846Y357424D01*
X959619Y355700D01*
X959846Y353976D01*
X960511Y352369D01*
X961570Y350990D01*
X961721Y350874D01*
X961290Y349604D01*
X959676D01*
Y336396D01*
X977964D01*
Y349604D01*
X976350D01*
X975919Y350874D01*
X976070Y350990D01*
X977129Y352369D01*
X977794Y353976D01*
X978021Y355700D01*
X977794Y357424D01*
X977129Y359030D01*
X976070Y360410D01*
X974690Y361469D01*
X973084Y362134D01*
X971360Y362361D01*
D02*
G37*
G36*
X713180Y337364D02*
X711380D01*
X709717Y336675D01*
X708731Y335689D01*
X699580D01*
X699580Y335689D01*
X698490Y335472D01*
X697566Y334854D01*
X689946Y327234D01*
X689328Y326310D01*
X689111Y325220D01*
X689111Y325220D01*
Y300829D01*
X688125Y299843D01*
X687436Y298180D01*
Y296380D01*
X688125Y294717D01*
X689397Y293445D01*
X691060Y292756D01*
X692860D01*
X694523Y293445D01*
X695795Y294717D01*
X696484Y296380D01*
Y298180D01*
X695795Y299843D01*
X694809Y300829D01*
Y311691D01*
X696079Y312163D01*
X697017Y311225D01*
X698680Y310536D01*
X700480D01*
X702143Y311225D01*
X703129Y312211D01*
X842444D01*
X842444Y312211D01*
X843534Y312428D01*
X844458Y313046D01*
X844544Y313132D01*
X844920Y312976D01*
X846720D01*
X848383Y313665D01*
X849655Y314937D01*
X850344Y316600D01*
Y318400D01*
X849655Y320063D01*
X848383Y321335D01*
X846720Y322024D01*
X844920D01*
X843257Y321335D01*
X841985Y320063D01*
X841296Y318400D01*
Y317941D01*
X841264Y317909D01*
X703129D01*
X702143Y318895D01*
X700480Y319584D01*
X698680D01*
X697017Y318895D01*
X696079Y317957D01*
X694809Y318429D01*
Y324040D01*
X700760Y329991D01*
X708731D01*
X709717Y329005D01*
X711380Y328316D01*
X713180D01*
X714843Y329005D01*
X716115Y330277D01*
X716804Y331940D01*
Y333740D01*
X716115Y335403D01*
X714843Y336675D01*
X713180Y337364D01*
D02*
G37*
G36*
X193940Y327104D02*
X192140D01*
X190477Y326415D01*
X189205Y325143D01*
X188516Y323480D01*
Y321680D01*
X189205Y320017D01*
X190477Y318745D01*
X192140Y318056D01*
X193940D01*
X195603Y318745D01*
X196875Y320017D01*
X197564Y321680D01*
Y323480D01*
X196875Y325143D01*
X195603Y326415D01*
X193940Y327104D01*
D02*
G37*
G36*
X635900Y339804D02*
X634100D01*
X632437Y339115D01*
X631165Y337843D01*
X630476Y336180D01*
Y334380D01*
X631165Y332717D01*
X632437Y331445D01*
X633909Y330835D01*
X633952Y330568D01*
Y329832D01*
X633909Y329565D01*
X632437Y328955D01*
X631165Y327683D01*
X630476Y326020D01*
Y324220D01*
X631165Y322557D01*
X632437Y321285D01*
X633909Y320675D01*
X633952Y320408D01*
Y319672D01*
X633909Y319405D01*
X632437Y318795D01*
X631165Y317523D01*
X630476Y315860D01*
Y314060D01*
X631165Y312397D01*
X632437Y311125D01*
X634100Y310436D01*
X635900D01*
X637563Y311125D01*
X638835Y312397D01*
X639524Y314060D01*
Y315860D01*
X638835Y317523D01*
X637563Y318795D01*
X636091Y319405D01*
X636048Y319672D01*
Y320408D01*
X636091Y320675D01*
X637563Y321285D01*
X638835Y322557D01*
X639524Y324220D01*
Y326020D01*
X638835Y327683D01*
X637563Y328955D01*
X636091Y329565D01*
X636048Y329832D01*
Y330568D01*
X636091Y330835D01*
X637563Y331445D01*
X638835Y332717D01*
X639524Y334380D01*
Y336180D01*
X638835Y337843D01*
X637563Y339115D01*
X635900Y339804D01*
D02*
G37*
G36*
X941780Y317044D02*
X939980D01*
X938317Y316355D01*
X937045Y315083D01*
X936356Y313420D01*
Y311620D01*
X937045Y309957D01*
X938317Y308685D01*
X939980Y307996D01*
X941780D01*
X943443Y308685D01*
X944715Y309957D01*
X945404Y311620D01*
Y313420D01*
X944715Y315083D01*
X943443Y316355D01*
X941780Y317044D01*
D02*
G37*
G36*
X259980Y316944D02*
X258180D01*
X256517Y316255D01*
X255245Y314983D01*
X254556Y313320D01*
Y311520D01*
X255245Y309857D01*
X256517Y308585D01*
X258180Y307896D01*
X259980D01*
X261643Y308585D01*
X262915Y309857D01*
X263604Y311520D01*
Y313320D01*
X262915Y314983D01*
X261643Y316255D01*
X259980Y316944D01*
D02*
G37*
G36*
X290460Y311864D02*
X288660D01*
X286997Y311175D01*
X285725Y309903D01*
X285036Y308240D01*
Y307221D01*
X283786Y306392D01*
X282840Y306784D01*
X281040D01*
X279377Y306095D01*
X278105Y304823D01*
X277416Y303160D01*
Y301360D01*
X278105Y299697D01*
X279377Y298425D01*
X281040Y297736D01*
X282840D01*
X284503Y298425D01*
X285775Y299697D01*
X286464Y301360D01*
Y302379D01*
X287714Y303208D01*
X288660Y302816D01*
X290460D01*
X292123Y303505D01*
X293395Y304777D01*
X294084Y306440D01*
Y308240D01*
X293395Y309903D01*
X292123Y311175D01*
X290460Y311864D01*
D02*
G37*
G36*
X249820Y309324D02*
X248020D01*
X246357Y308635D01*
X245085Y307363D01*
X244396Y305700D01*
Y303900D01*
X245085Y302237D01*
X246357Y300965D01*
X248020Y300276D01*
X249820D01*
X251483Y300965D01*
X252755Y302237D01*
X253444Y303900D01*
Y305700D01*
X252755Y307363D01*
X251483Y308635D01*
X249820Y309324D01*
D02*
G37*
G36*
X166000Y306784D02*
X164200D01*
X162537Y306095D01*
X161265Y304823D01*
X160576Y303160D01*
Y301360D01*
X161265Y299697D01*
X162537Y298425D01*
X164200Y297736D01*
X166000D01*
X167663Y298425D01*
X168935Y299697D01*
X169624Y301360D01*
Y303160D01*
X168935Y304823D01*
X167663Y306095D01*
X166000Y306784D01*
D02*
G37*
G36*
X135520D02*
X133720D01*
X132057Y306095D01*
X130785Y304823D01*
X130096Y303160D01*
Y301360D01*
X130785Y299697D01*
X132057Y298425D01*
X133720Y297736D01*
X135520D01*
X137183Y298425D01*
X138455Y299697D01*
X139144Y301360D01*
Y303160D01*
X138455Y304823D01*
X137183Y306095D01*
X135520Y306784D01*
D02*
G37*
G36*
X102500D02*
X100700D01*
X99037Y306095D01*
X97765Y304823D01*
X97076Y303160D01*
Y301360D01*
X97765Y299697D01*
X99037Y298425D01*
X100700Y297736D01*
X102500D01*
X104163Y298425D01*
X105435Y299697D01*
X106124Y301360D01*
Y303160D01*
X105435Y304823D01*
X104163Y306095D01*
X102500Y306784D01*
D02*
G37*
G36*
X49160Y286464D02*
X47360D01*
X45697Y285775D01*
X44425Y284503D01*
X43736Y282840D01*
Y281040D01*
X44425Y279377D01*
X45697Y278105D01*
X47360Y277416D01*
X49160D01*
X50823Y278105D01*
X52095Y279377D01*
X52784Y281040D01*
Y282840D01*
X52095Y284503D01*
X50823Y285775D01*
X49160Y286464D01*
D02*
G37*
G36*
X793200Y277684D02*
X791400D01*
X789737Y276995D01*
X788751Y276009D01*
X774520D01*
X773430Y275792D01*
X772506Y275174D01*
X772506Y275174D01*
X758526Y261194D01*
X757908Y260270D01*
X757691Y259180D01*
X757691Y259180D01*
Y199229D01*
X756705Y198243D01*
X756016Y196580D01*
Y194780D01*
X756705Y193117D01*
X757977Y191845D01*
X759640Y191156D01*
X761440D01*
X763103Y191845D01*
X764375Y193117D01*
X765064Y194780D01*
Y196580D01*
X764375Y198243D01*
X763389Y199229D01*
Y258000D01*
X775700Y270311D01*
X788751D01*
X789737Y269325D01*
X791400Y268636D01*
X793200D01*
X794863Y269325D01*
X796135Y270597D01*
X796824Y272260D01*
Y274060D01*
X796135Y275723D01*
X794863Y276995D01*
X793200Y277684D01*
D02*
G37*
G36*
X310780Y296624D02*
X308980D01*
X307317Y295935D01*
X306045Y294663D01*
X305356Y293000D01*
Y291200D01*
X306045Y289537D01*
X307317Y288265D01*
X308789Y287655D01*
X308832Y287388D01*
Y286652D01*
X308789Y286385D01*
X307317Y285775D01*
X306045Y284503D01*
X305356Y282840D01*
Y281040D01*
X306045Y279377D01*
X307317Y278105D01*
X308980Y277416D01*
X310780D01*
X312443Y278105D01*
X313715Y279377D01*
X314404Y281040D01*
Y282577D01*
X314930Y283103D01*
X340981D01*
X347301Y276783D01*
Y239880D01*
X347479Y238988D01*
X347984Y238232D01*
X362184Y224032D01*
X362940Y223527D01*
X363832Y223349D01*
X395275D01*
X400512Y218112D01*
X400416Y217880D01*
Y216080D01*
X401105Y214417D01*
X402377Y213145D01*
X404040Y212456D01*
X405840D01*
X407503Y213145D01*
X408775Y214417D01*
X409464Y216080D01*
Y217880D01*
X408775Y219543D01*
X407503Y220815D01*
X405840Y221504D01*
X404040D01*
X403808Y221408D01*
X398953Y226263D01*
X399164Y227848D01*
X404188Y232872D01*
X404420Y232776D01*
X406220D01*
X407883Y233465D01*
X409155Y234737D01*
X409844Y236400D01*
Y238200D01*
X409155Y239863D01*
X407883Y241135D01*
X406220Y241824D01*
X404420D01*
X402757Y241135D01*
X401485Y239863D01*
X400796Y238200D01*
Y236400D01*
X400892Y236168D01*
X396163Y231439D01*
X366217D01*
X355391Y242265D01*
Y279168D01*
X355213Y280060D01*
X354708Y280816D01*
X345395Y290130D01*
X344638Y290635D01*
X343746Y290812D01*
X315577D01*
X314404Y291200D01*
Y293000D01*
X313715Y294663D01*
X312443Y295935D01*
X310780Y296624D01*
D02*
G37*
G36*
X219340Y380444D02*
X217540D01*
X215877Y379755D01*
X214605Y378483D01*
X213916Y376820D01*
Y375425D01*
X208806Y370314D01*
X208188Y369390D01*
X207971Y368300D01*
X207971Y368300D01*
Y284480D01*
X207971Y284480D01*
X208188Y283390D01*
X208806Y282466D01*
X219381Y271890D01*
Y213327D01*
X218394Y212340D01*
X217706Y210677D01*
Y208878D01*
X218394Y207215D01*
X219667Y205942D01*
X221330Y205254D01*
X223130D01*
X224792Y205942D01*
X226065Y207215D01*
X226754Y208878D01*
Y210677D01*
X226065Y212340D01*
X225078Y213327D01*
Y273070D01*
X225078Y273070D01*
X224862Y274160D01*
X224244Y275085D01*
X224244Y275085D01*
X213669Y285660D01*
Y303422D01*
X214939Y303965D01*
X215591Y303448D01*
Y292100D01*
X215591Y292100D01*
X215808Y291010D01*
X216426Y290086D01*
X230267Y276244D01*
Y191509D01*
X229281Y190523D01*
X228592Y188860D01*
Y187060D01*
X229281Y185397D01*
X230478Y184200D01*
X230448Y183834D01*
X230120Y182930D01*
X226123D01*
X225133Y182978D01*
X223129Y183377D01*
X221300Y184135D01*
X219654Y185234D01*
X218254Y186634D01*
X217155Y188280D01*
X216397Y190109D01*
X215998Y192113D01*
X215950Y193103D01*
Y203199D01*
X215949Y203202D01*
Y203217D01*
X215941Y203258D01*
X215948Y203300D01*
X215910Y204474D01*
X215862Y204682D01*
X215862Y204896D01*
X215509Y206668D01*
X215412Y206904D01*
X215362Y207154D01*
X214596Y209003D01*
X214454Y209215D01*
X214357Y209451D01*
X213245Y211115D01*
X213065Y211296D01*
X212923Y211508D01*
X211508Y212923D01*
X211296Y213064D01*
X211115Y213245D01*
X209451Y214357D01*
X209216Y214454D01*
X209004Y214596D01*
X207155Y215362D01*
X206905Y215412D01*
X206669Y215509D01*
X204879Y215865D01*
X204662D01*
X204450Y215914D01*
X203277Y215949D01*
X203239Y215942D01*
X203201Y215950D01*
X203200D01*
X203161Y215942D01*
X203122Y215949D01*
X201943Y215913D01*
X201733Y215865D01*
X201516D01*
X199731Y215510D01*
X199496Y215412D01*
X199245Y215362D01*
X197396Y214596D01*
X197184Y214455D01*
X196949Y214357D01*
X195285Y213245D01*
X195104Y213065D01*
X194892Y212923D01*
X193477Y211508D01*
X193335Y211296D01*
X193155Y211115D01*
X192043Y209451D01*
X191945Y209216D01*
X191804Y209004D01*
X191038Y207155D01*
X190988Y206904D01*
X190890Y206669D01*
X190500Y204706D01*
Y204451D01*
X190450Y204201D01*
Y189944D01*
X189600D01*
X187937Y189255D01*
X186665Y187983D01*
X185976Y186320D01*
Y184520D01*
X186665Y182857D01*
X187937Y181585D01*
X189600Y180896D01*
X190450D01*
Y170180D01*
X190450Y168929D01*
X190500Y168679D01*
Y168424D01*
X190988Y165970D01*
X191086Y165735D01*
X191135Y165484D01*
X192093Y163173D01*
X192234Y162961D01*
X192332Y162725D01*
X193722Y160645D01*
X193902Y160465D01*
X194044Y160253D01*
X195813Y158484D01*
X196025Y158342D01*
X196205Y158162D01*
X198286Y156772D01*
X198521Y156674D01*
X198733Y156533D01*
X201045Y155575D01*
X201295Y155526D01*
X201530Y155428D01*
X203984Y154940D01*
X204239D01*
X204489Y154890D01*
X205740Y154890D01*
X317500D01*
X319001Y154890D01*
X319251Y154940D01*
X319506Y154940D01*
X322450Y155525D01*
X322686Y155623D01*
X322936Y155673D01*
X325710Y156821D01*
X325922Y156963D01*
X326158Y157061D01*
X328654Y158729D01*
X328834Y158909D01*
X329046Y159051D01*
X331169Y161173D01*
X331311Y161386D01*
X331491Y161566D01*
X333159Y164062D01*
X333257Y164298D01*
X333399Y164510D01*
X334547Y167283D01*
X334597Y167534D01*
X334695Y167769D01*
X335280Y170714D01*
X335280Y170969D01*
X335330Y171219D01*
X335330Y172720D01*
X335330Y246380D01*
Y247131D01*
X335280Y247381D01*
Y247636D01*
X334987Y249108D01*
X334890Y249343D01*
X334840Y249594D01*
X334265Y250980D01*
X334124Y251192D01*
X334026Y251428D01*
X333192Y252676D01*
X333012Y252857D01*
X332870Y253069D01*
X331809Y254130D01*
X331597Y254272D01*
X331416Y254452D01*
X330168Y255286D01*
X329933Y255384D01*
X329720Y255525D01*
X328334Y256100D01*
X328084Y256150D01*
X327848Y256247D01*
X326376Y256540D01*
X326121D01*
X325871Y256590D01*
X322580D01*
X322580Y256590D01*
X321830Y256590D01*
X321579Y256540D01*
X321324D01*
X319852Y256247D01*
X319616Y256150D01*
X319366Y256100D01*
X317980Y255525D01*
X317767Y255384D01*
X317532Y255286D01*
X316284Y254452D01*
X316103Y254272D01*
X315891Y254130D01*
X314830Y253069D01*
X314688Y252857D01*
X314508Y252676D01*
X313674Y251428D01*
X313576Y251192D01*
X313435Y250980D01*
X312860Y249594D01*
X312810Y249343D01*
X312713Y249108D01*
X312420Y247636D01*
Y247381D01*
X312370Y247131D01*
X312370Y193107D01*
X312321Y192113D01*
X311923Y190109D01*
X311165Y188280D01*
X310065Y186634D01*
X308666Y185234D01*
X307020Y184135D01*
X305191Y183377D01*
X303187Y182978D01*
X302197Y182930D01*
X289892D01*
X289186Y183986D01*
X289287Y184229D01*
Y186029D01*
X288598Y187692D01*
X287612Y188678D01*
Y288663D01*
X322054Y323106D01*
X322054Y323106D01*
X322672Y324030D01*
X322889Y325120D01*
X322889Y325120D01*
Y341548D01*
X323541Y342065D01*
X324811Y341522D01*
Y323760D01*
X295166Y294114D01*
X294548Y293190D01*
X294331Y292100D01*
X294331Y292100D01*
Y238760D01*
X294331Y238760D01*
X294548Y237670D01*
X295166Y236746D01*
X299458Y232454D01*
Y213519D01*
X298471Y212532D01*
X297782Y210870D01*
Y209070D01*
X298471Y207407D01*
X299744Y206134D01*
X301406Y205446D01*
X303206D01*
X304869Y206134D01*
X306142Y207407D01*
X306830Y209070D01*
Y210870D01*
X306142Y212532D01*
X305155Y213519D01*
Y233633D01*
X305155Y233634D01*
X304938Y234724D01*
X304321Y235648D01*
X300029Y239940D01*
Y290920D01*
X329674Y320566D01*
X329674Y320566D01*
X330292Y321490D01*
X330509Y322580D01*
Y358140D01*
X330509Y358140D01*
X330292Y359230D01*
X329674Y360154D01*
X329674Y360154D01*
X316944Y372885D01*
Y374280D01*
X316255Y375943D01*
X314983Y377215D01*
X313320Y377904D01*
X311520D01*
X309857Y377215D01*
X308585Y375943D01*
X307896Y374280D01*
Y372480D01*
X308585Y370817D01*
X309857Y369545D01*
X311520Y368856D01*
X312915D01*
X324811Y356960D01*
Y348809D01*
X323541Y348337D01*
X322603Y349275D01*
X320940Y349964D01*
X319140D01*
X317477Y349275D01*
X316205Y348003D01*
X315516Y346340D01*
Y344540D01*
X316205Y342877D01*
X317191Y341891D01*
Y326300D01*
X282749Y291857D01*
X282131Y290933D01*
X281914Y289843D01*
X281914Y289843D01*
Y188678D01*
X280928Y187692D01*
X280239Y186029D01*
Y184229D01*
X280340Y183986D01*
X279634Y182930D01*
X276923D01*
X275933Y182978D01*
X273929Y183377D01*
X272100Y184135D01*
X270919Y184924D01*
X270975Y186145D01*
X271108Y186377D01*
X271803Y186665D01*
X273075Y187937D01*
X273764Y189600D01*
Y191400D01*
X273075Y193063D01*
X272089Y194049D01*
Y316491D01*
X273075Y317477D01*
X273764Y319140D01*
Y320940D01*
X273075Y322603D01*
X271803Y323875D01*
X270140Y324564D01*
X268340D01*
X266677Y323875D01*
X265405Y322603D01*
X264716Y320940D01*
Y319140D01*
X265405Y317477D01*
X266391Y316491D01*
Y218598D01*
X266299Y218538D01*
X265545Y218211D01*
X265121Y218165D01*
X263789Y219498D01*
X262949Y220059D01*
X261082Y220833D01*
X260091Y221030D01*
X258069D01*
X257078Y220833D01*
X257078Y220833D01*
X255211Y220059D01*
X255211Y220059D01*
X254371Y219498D01*
X252942Y218069D01*
X252381Y217229D01*
X251607Y215361D01*
X251410Y214370D01*
Y193106D01*
X251362Y192113D01*
X250963Y190109D01*
X250472Y188923D01*
X249823Y188890D01*
X249149Y189049D01*
X248539Y190523D01*
X247553Y191509D01*
Y281076D01*
X247553Y281076D01*
X247336Y282166D01*
X246718Y283090D01*
X246718Y283090D01*
X236529Y293280D01*
Y306331D01*
X237515Y307317D01*
X238204Y308980D01*
Y310780D01*
X237515Y312443D01*
X236243Y313715D01*
X234580Y314404D01*
X232780D01*
X231117Y313715D01*
X229845Y312443D01*
X229156Y310780D01*
Y308980D01*
X229845Y307317D01*
X230831Y306331D01*
Y292100D01*
X230831Y292100D01*
X231048Y291010D01*
X231666Y290086D01*
X241855Y279896D01*
Y191509D01*
X240869Y190523D01*
X240180Y188860D01*
Y187060D01*
X240869Y185397D01*
X242026Y184240D01*
X241966Y183698D01*
X241658Y182950D01*
X241237Y182930D01*
X236112D01*
X235784Y183834D01*
X235754Y184200D01*
X236951Y185397D01*
X237640Y187060D01*
Y188860D01*
X236951Y190523D01*
X235965Y191509D01*
Y277424D01*
X235965Y277424D01*
X235748Y278514D01*
X235130Y279438D01*
X235130Y279438D01*
X221289Y293280D01*
Y303791D01*
X222275Y304777D01*
X222964Y306440D01*
Y308240D01*
X222275Y309903D01*
X221003Y311175D01*
X219340Y311864D01*
X217540D01*
X215877Y311175D01*
X214939Y310237D01*
X213669Y310709D01*
Y367120D01*
X217945Y371396D01*
X219340D01*
X221003Y372085D01*
X222275Y373357D01*
X222964Y375020D01*
Y376820D01*
X222275Y378483D01*
X221003Y379755D01*
X219340Y380444D01*
D02*
G37*
G36*
X832560Y202744D02*
X830760D01*
X829097Y202055D01*
X827825Y200783D01*
X827136Y199120D01*
Y198101D01*
X825886Y197272D01*
X824940Y197664D01*
X823140D01*
X821477Y196975D01*
X820205Y195703D01*
X819516Y194040D01*
Y192240D01*
X820205Y190577D01*
X821477Y189305D01*
X822949Y188695D01*
X822992Y188428D01*
Y187692D01*
X822949Y187425D01*
X821477Y186815D01*
X820205Y185543D01*
X819516Y183880D01*
Y182080D01*
X820205Y180417D01*
X821477Y179145D01*
X823140Y178456D01*
X824940D01*
X826603Y179145D01*
X827875Y180417D01*
X828564Y182080D01*
Y183099D01*
X829814Y183928D01*
X830760Y183536D01*
X832560D01*
X834223Y184225D01*
X835495Y185497D01*
X836184Y187160D01*
Y188960D01*
X835495Y190623D01*
X834223Y191895D01*
X832751Y192505D01*
X832708Y192772D01*
Y193508D01*
X832751Y193775D01*
X834223Y194385D01*
X835495Y195657D01*
X836184Y197320D01*
Y199120D01*
X835495Y200783D01*
X834223Y202055D01*
X832560Y202744D01*
D02*
G37*
G36*
X71524Y219424D02*
X41176D01*
Y189076D01*
X71524D01*
Y219424D01*
D02*
G37*
G36*
X971371Y203114D02*
X968629D01*
X965980Y202404D01*
X963606Y201033D01*
X961667Y199094D01*
X960296Y196720D01*
X959586Y194071D01*
Y191329D01*
X960296Y188680D01*
X961667Y186306D01*
X963606Y184367D01*
X965980Y182996D01*
X968629Y182286D01*
X971371D01*
X974020Y182996D01*
X976394Y184367D01*
X978333Y186306D01*
X979704Y188680D01*
X980414Y191329D01*
Y194071D01*
X979704Y196720D01*
X978333Y199094D01*
X976394Y201033D01*
X974020Y202404D01*
X971371Y203114D01*
D02*
G37*
G36*
X140600Y187404D02*
X138800D01*
X137137Y186715D01*
X135865Y185443D01*
X135176Y183780D01*
Y181980D01*
X135865Y180317D01*
X137137Y179045D01*
X138800Y178356D01*
X140600D01*
X142263Y179045D01*
X143535Y180317D01*
X144224Y181980D01*
Y183780D01*
X143535Y185443D01*
X142263Y186715D01*
X140600Y187404D01*
D02*
G37*
G36*
X420000Y347424D02*
X418200D01*
X416537Y346735D01*
X415265Y345463D01*
X414576Y343800D01*
Y342000D01*
X414956Y341082D01*
Y202376D01*
X412304Y199724D01*
X383540D01*
X381954Y199408D01*
X380610Y198510D01*
X370450Y188350D01*
X369552Y187006D01*
X369236Y185420D01*
Y171998D01*
X368856Y171080D01*
Y169280D01*
X369545Y167617D01*
X370817Y166345D01*
X372480Y165656D01*
X374280D01*
X375943Y166345D01*
X377215Y167617D01*
X377904Y169280D01*
Y171080D01*
X377524Y171998D01*
Y183704D01*
X385256Y191436D01*
X414020D01*
X415606Y191752D01*
X416950Y192650D01*
X422030Y197730D01*
X422928Y199074D01*
X423244Y200660D01*
Y341082D01*
X423624Y342000D01*
Y343800D01*
X422935Y345463D01*
X421663Y346735D01*
X420000Y347424D01*
D02*
G37*
G36*
X971371Y177714D02*
X968629D01*
X965980Y177004D01*
X963606Y175633D01*
X961667Y173694D01*
X960296Y171320D01*
X959586Y168671D01*
Y165929D01*
X960296Y163280D01*
X961667Y160906D01*
X963606Y158967D01*
X965980Y157596D01*
X968629Y156886D01*
X971371D01*
X974020Y157596D01*
X976394Y158967D01*
X978333Y160906D01*
X979704Y163280D01*
X980414Y165929D01*
Y168671D01*
X979704Y171320D01*
X978333Y173694D01*
X976394Y175633D01*
X974020Y177004D01*
X971371Y177714D01*
D02*
G37*
G36*
X980414Y152314D02*
X959586D01*
Y147338D01*
X891200D01*
X889119Y146924D01*
X887354Y145746D01*
X864834Y123226D01*
X863655Y121461D01*
X863242Y119380D01*
Y68293D01*
X853727Y58779D01*
X829042D01*
X828606Y58899D01*
X827449Y59593D01*
X826459Y60635D01*
X826054Y61284D01*
X826053Y61285D01*
X826053Y61285D01*
X825405Y62324D01*
X825225Y62515D01*
X825085Y62737D01*
X824031Y63845D01*
X823746Y64047D01*
X823487Y64282D01*
X821908Y65229D01*
X821579Y65347D01*
X821267Y65504D01*
X819492Y65996D01*
X819144Y66021D01*
X818801Y66090D01*
X817880Y66090D01*
X802640Y66090D01*
X802639Y66090D01*
X802638D01*
X802546Y66071D01*
X802454Y66083D01*
X801285Y66000D01*
X801128Y65957D01*
X800965D01*
X799912Y65747D01*
X799677Y65650D01*
X799426Y65600D01*
X798040Y65026D01*
X797828Y64884D01*
X797592Y64786D01*
X796344Y63952D01*
X796163Y63772D01*
X795951Y63630D01*
X794890Y62569D01*
X794748Y62357D01*
X794568Y62176D01*
X793734Y60928D01*
X793636Y60693D01*
X793494Y60480D01*
X792920Y59094D01*
X792870Y58843D01*
X792773Y58608D01*
X792480Y57136D01*
X792480Y56880D01*
X792430Y56630D01*
X792430Y55880D01*
X792430Y50800D01*
X792430Y50799D01*
X792430Y50049D01*
X792480Y49799D01*
Y49544D01*
X792773Y48072D01*
X792871Y47836D01*
X792920Y47586D01*
X793495Y46199D01*
X793636Y45987D01*
X793734Y45752D01*
X794568Y44504D01*
X794748Y44323D01*
X794890Y44111D01*
X795951Y43050D01*
X796163Y42908D01*
X796344Y42728D01*
X797592Y41894D01*
X797828Y41796D01*
X798040Y41655D01*
X799426Y41080D01*
X799676Y41030D01*
X799912Y40933D01*
X801384Y40640D01*
X801639D01*
X801890Y40590D01*
X802640Y40590D01*
X818801Y40590D01*
X819144Y40658D01*
X819492Y40684D01*
X821267Y41176D01*
X821579Y41333D01*
X821908Y41451D01*
X823487Y42398D01*
X823746Y42633D01*
X824031Y42835D01*
X825300Y44169D01*
X825487Y44465D01*
X825708Y44735D01*
X826100Y45470D01*
X826459Y46045D01*
X827450Y47087D01*
X828606Y47781D01*
X829041Y47902D01*
X855980D01*
X858061Y48316D01*
X859826Y49494D01*
X872526Y62194D01*
X873705Y63959D01*
X874118Y66040D01*
Y117127D01*
X893453Y136461D01*
X959586D01*
Y131486D01*
X980414D01*
Y152314D01*
D02*
G37*
G36*
X877200Y184864D02*
X875400D01*
X873737Y184175D01*
X872465Y182903D01*
X871776Y181240D01*
Y179440D01*
X872465Y177777D01*
X873737Y176505D01*
X873969Y176409D01*
Y171145D01*
X867715Y164891D01*
X713740D01*
X712848Y164713D01*
X712092Y164208D01*
X686692Y138808D01*
X686187Y138052D01*
X686009Y137160D01*
Y130931D01*
X685777Y130835D01*
X684505Y129563D01*
X683816Y127900D01*
Y126100D01*
X684505Y124437D01*
X685777Y123165D01*
X687440Y122476D01*
X689240D01*
X690903Y123165D01*
X692175Y124437D01*
X692864Y126100D01*
Y127900D01*
X692175Y129563D01*
X690903Y130835D01*
X690671Y130931D01*
Y136195D01*
X714706Y160229D01*
X868680D01*
X869572Y160407D01*
X870328Y160912D01*
X877948Y168532D01*
X878453Y169288D01*
X878631Y170180D01*
Y176409D01*
X878863Y176505D01*
X880135Y177777D01*
X880824Y179440D01*
Y181240D01*
X880135Y182903D01*
X878863Y184175D01*
X877200Y184864D01*
D02*
G37*
G36*
X206640Y136604D02*
X204840D01*
X203177Y135915D01*
X201905Y134643D01*
X201216Y132980D01*
Y131180D01*
X201905Y129517D01*
X202891Y128531D01*
Y106680D01*
X202891Y106680D01*
X203108Y105590D01*
X203726Y104666D01*
X212456Y95936D01*
X212456Y95936D01*
X213380Y95318D01*
X214470Y95101D01*
X236067D01*
X237053Y94115D01*
X238716Y93426D01*
X240516D01*
X242179Y94115D01*
X243451Y95387D01*
X244140Y97050D01*
Y98850D01*
X243451Y100513D01*
X242179Y101785D01*
X240516Y102474D01*
X238716D01*
X237053Y101785D01*
X236067Y100799D01*
X215650D01*
X208589Y107860D01*
Y128531D01*
X209575Y129517D01*
X210264Y131180D01*
Y132980D01*
X209575Y134643D01*
X208303Y135915D01*
X206640Y136604D01*
D02*
G37*
G36*
X798460Y101044D02*
X796660D01*
X794997Y100355D01*
X793725Y99083D01*
X793036Y97420D01*
Y95620D01*
X793132Y95388D01*
X785535Y87791D01*
X683751D01*
X683655Y88023D01*
X682383Y89295D01*
X680720Y89984D01*
X678920D01*
X677257Y89295D01*
X675985Y88023D01*
X675296Y86360D01*
Y84560D01*
X675985Y82897D01*
X677257Y81625D01*
X678920Y80936D01*
X680720D01*
X682383Y81625D01*
X683655Y82897D01*
X683751Y83129D01*
X786500D01*
X787392Y83307D01*
X788148Y83812D01*
X796428Y92092D01*
X796660Y91996D01*
X798460D01*
X800123Y92685D01*
X801395Y93957D01*
X802084Y95620D01*
Y97420D01*
X801395Y99083D01*
X800123Y100355D01*
X798460Y101044D01*
D02*
G37*
G36*
X506360D02*
X504560D01*
X502897Y100355D01*
X501625Y99083D01*
X500936Y97420D01*
Y95620D01*
X501328Y94674D01*
X500499Y93424D01*
X499480D01*
X497817Y92735D01*
X496545Y91463D01*
X495856Y89800D01*
Y88000D01*
X496545Y86337D01*
X497817Y85065D01*
X499480Y84376D01*
X500499D01*
X501328Y83126D01*
X500936Y82180D01*
Y80380D01*
X501625Y78717D01*
X502897Y77445D01*
X504560Y76756D01*
X506360D01*
X508023Y77445D01*
X509295Y78717D01*
X509984Y80380D01*
Y82180D01*
X509429Y83521D01*
X509826Y83886D01*
X511096Y83330D01*
Y82920D01*
X511785Y81257D01*
X513057Y79985D01*
X514720Y79296D01*
X516520D01*
X518183Y79985D01*
X519455Y81257D01*
X520144Y82920D01*
Y84720D01*
X519455Y86383D01*
X518183Y87655D01*
X516711Y88265D01*
X516668Y88532D01*
Y89268D01*
X516711Y89535D01*
X518183Y90145D01*
X519455Y91417D01*
X520144Y93080D01*
Y94880D01*
X519455Y96543D01*
X518183Y97815D01*
X516520Y98504D01*
X514720D01*
X513057Y97815D01*
X511785Y96543D01*
X511096Y94880D01*
Y94470D01*
X509826Y93913D01*
X509429Y94279D01*
X509984Y95620D01*
Y97420D01*
X509295Y99083D01*
X508023Y100355D01*
X506360Y101044D01*
D02*
G37*
G36*
X709560Y65484D02*
X707760D01*
X706097Y64795D01*
X704825Y63523D01*
X704136Y61860D01*
Y60060D01*
X704825Y58397D01*
X706072Y57150D01*
X704825Y55903D01*
X704136Y54240D01*
Y52440D01*
X704825Y50777D01*
X706072Y49530D01*
X704825Y48283D01*
X704136Y46620D01*
Y44820D01*
X704825Y43157D01*
X706097Y41885D01*
X707760Y41196D01*
X709560D01*
X711223Y41885D01*
X712495Y43157D01*
X713184Y44820D01*
Y46620D01*
X712495Y48283D01*
X711248Y49530D01*
X712495Y50777D01*
X713184Y52440D01*
Y54240D01*
X712495Y55903D01*
X711248Y57150D01*
X712495Y58397D01*
X713184Y60060D01*
Y61860D01*
X712495Y63523D01*
X711223Y64795D01*
X709560Y65484D01*
D02*
G37*
%LPD*%
G36*
X327343Y253707D02*
X328729Y253133D01*
X329977Y252299D01*
X331039Y251237D01*
X331873Y249989D01*
X332447Y248603D01*
X332740Y247131D01*
Y246380D01*
X332740Y172720D01*
X332740Y171219D01*
X332155Y168274D01*
X331006Y165501D01*
X329338Y163005D01*
X327215Y160882D01*
X324719Y159214D01*
X321945Y158065D01*
X319001Y157480D01*
X317500Y157480D01*
X205740D01*
X204489Y157480D01*
X202036Y157968D01*
X199724Y158925D01*
X197644Y160315D01*
X195875Y162084D01*
X194485Y164164D01*
X193528Y166475D01*
X193040Y168929D01*
X193040Y170180D01*
Y181575D01*
X193063Y181585D01*
X194335Y182857D01*
X195024Y184520D01*
Y186320D01*
X194335Y187983D01*
X193063Y189255D01*
X193040Y189265D01*
Y204201D01*
X193430Y206164D01*
X194196Y208013D01*
X195308Y209677D01*
X196723Y211092D01*
X198387Y212204D01*
X200236Y212970D01*
X202021Y213325D01*
X203200Y213360D01*
X203200Y213360D01*
X203201D01*
X204374Y213326D01*
X206164Y212969D01*
X208013Y212204D01*
X209677Y211092D01*
X211092Y209676D01*
X212204Y208012D01*
X212969Y206163D01*
X213322Y204391D01*
X213359Y203217D01*
Y203200D01*
X213359Y203200D01*
X213360Y203199D01*
Y193040D01*
X213421Y191795D01*
X213907Y189353D01*
X214860Y187053D01*
X216243Y184983D01*
X218003Y183223D01*
X220073Y181840D01*
X222373Y180887D01*
X224815Y180401D01*
X226060Y180340D01*
X241300D01*
X242545Y180401D01*
X244987Y180887D01*
X247287Y181840D01*
X249357Y183223D01*
X251117Y184983D01*
X252500Y187053D01*
X253453Y189353D01*
X253939Y191795D01*
X254000Y193040D01*
X254000Y193040D01*
Y214370D01*
X254773Y216238D01*
X256202Y217667D01*
X258069Y218440D01*
X260090D01*
X261957Y217666D01*
X263386Y216238D01*
X264090Y214538D01*
X264160Y213363D01*
Y213360D01*
X264160Y213360D01*
X264160Y213360D01*
Y193040D01*
X264221Y191795D01*
X264707Y189353D01*
X265660Y187053D01*
X267043Y184983D01*
X268803Y183223D01*
X270873Y181840D01*
X273173Y180887D01*
X275615Y180401D01*
X276860Y180340D01*
X302260D01*
X303505Y180401D01*
X305947Y180887D01*
X308247Y181840D01*
X310317Y183223D01*
X312077Y184983D01*
X313460Y187053D01*
X314413Y189353D01*
X314899Y191795D01*
X314960Y193040D01*
X314960Y193040D01*
X314960Y247131D01*
X315253Y248603D01*
X315827Y249989D01*
X316661Y251237D01*
X317722Y252299D01*
X318971Y253133D01*
X320357Y253707D01*
X321829Y254000D01*
X322580Y254000D01*
Y254000D01*
X325871D01*
X327343Y253707D01*
D02*
G37*
G36*
X817880Y63500D02*
X818801Y63500D01*
X820575Y63008D01*
X822154Y62061D01*
X823208Y60953D01*
X823856Y59914D01*
X824401Y59041D01*
X824547Y58887D01*
X825815Y57553D01*
X827575Y56497D01*
X829361Y56003D01*
X829554Y55949D01*
X830580Y55880D01*
X830580Y50800D01*
X829554Y50731D01*
X827575Y50183D01*
X825815Y49127D01*
X824401Y47639D01*
X823857Y46766D01*
X823857D01*
X823423Y45954D01*
X822154Y44619D01*
X820575Y43671D01*
X818801Y43180D01*
X802640Y43180D01*
X801889Y43180D01*
X800417Y43473D01*
X799031Y44047D01*
X797783Y44881D01*
X796721Y45943D01*
X795887Y47190D01*
X795313Y48577D01*
X795020Y50049D01*
X795020Y50800D01*
X795020Y50800D01*
X795020Y55880D01*
X795020Y56631D01*
X795313Y58103D01*
X795887Y59489D01*
X796721Y60738D01*
X797782Y61799D01*
X799031Y62633D01*
X800417Y63207D01*
X801470Y63417D01*
X802638Y63500D01*
X802640D01*
X802640Y63500D01*
X802640Y63500D01*
X817880Y63500D01*
D02*
G37*
D10*
X32500Y667500D02*
X35000Y670000D01*
X587500D01*
X607500Y650000D01*
X718820Y416560D02*
X868680D01*
X876779Y408461D01*
X876300Y170180D02*
Y180340D01*
X868680Y162560D02*
X876300Y170180D01*
X713740Y162560D02*
X868680D01*
X688340Y137160D02*
X713740Y162560D01*
X688340Y127000D02*
Y137160D01*
X861060Y368300D02*
X911860D01*
X726440Y429260D02*
X914400D01*
X886460Y568960D02*
X894080Y561340D01*
X744220Y568960D02*
X886460D01*
X659071Y538480D02*
X904240D01*
X655320Y535940D02*
X656531D01*
X659071Y538480D01*
X659071Y543560D02*
X904240D01*
X656531Y546100D02*
X659071Y543560D01*
X655320Y546100D02*
X656531D01*
X969770Y530630D02*
X970000Y530400D01*
X960300Y520700D02*
X970000Y530400D01*
X919480Y520700D02*
X960300D01*
X959380Y515620D02*
X970000Y505000D01*
X904240Y543560D02*
X914400Y533400D01*
X904240Y538480D02*
X909320Y533400D01*
Y523676D02*
Y533400D01*
X914400Y525780D02*
Y533400D01*
Y525780D02*
X919480Y520700D01*
X909320Y523676D02*
X917376Y515620D01*
X959380D01*
X734060Y523240D02*
X881380D01*
X886460Y518160D01*
X786500Y85460D02*
X797560Y96520D01*
X679820Y85460D02*
X786500D01*
X341947Y285433D02*
X349632Y277748D01*
X310471Y281940D02*
X313964Y285433D01*
X341947D01*
X313499Y288481D02*
X343746D01*
X309880Y292100D02*
X313499Y288481D01*
X343746D02*
X353060Y279168D01*
X309880Y281940D02*
X310471D01*
X397128Y229108D02*
X405320Y237300D01*
X365252Y229108D02*
X397128D01*
X396240Y225680D02*
X404940Y216980D01*
X363832Y225680D02*
X396240D01*
X349632Y239880D02*
Y277748D01*
X353060Y241300D02*
Y279168D01*
Y241300D02*
X365252Y229108D01*
X349632Y239880D02*
X363832Y225680D01*
D14*
X842444Y315060D02*
X844884Y317500D01*
X699580Y315060D02*
X842444D01*
X844884Y317500D02*
X845820D01*
X774520Y273160D02*
X792300D01*
X760540Y259180D02*
X774520Y273160D01*
X760540Y195680D02*
Y259180D01*
X691960Y297280D02*
Y325220D01*
X699580Y332840D01*
X712280D01*
X214470Y97950D02*
X239616D01*
X205740Y106680D02*
X214470Y97950D01*
X205740Y106680D02*
Y132080D01*
X320040Y325120D02*
Y345440D01*
X284763Y289843D02*
X320040Y325120D01*
X269240Y190500D02*
Y320040D01*
X210820Y368300D02*
X218440Y375920D01*
X210820Y284480D02*
Y368300D01*
Y284480D02*
X222230Y273070D01*
Y209778D02*
Y273070D01*
X312420Y373380D02*
X327660Y358140D01*
Y322580D02*
Y358140D01*
X297180Y292100D02*
X327660Y322580D01*
X297180Y238760D02*
Y292100D01*
Y238760D02*
X302306Y233634D01*
Y209970D02*
Y233634D01*
X284763Y185129D02*
Y289843D01*
X218440Y292100D02*
Y307340D01*
Y292100D02*
X233116Y277424D01*
Y187960D02*
Y277424D01*
X233680Y292100D02*
Y309880D01*
Y292100D02*
X244704Y281076D01*
Y187960D02*
Y281076D01*
D118*
X970000Y479600D02*
D03*
Y454200D02*
D03*
Y555800D02*
D03*
Y505000D02*
D03*
Y530400D02*
D03*
D122*
X968820Y368400D02*
D03*
Y355700D02*
D03*
D123*
Y343000D02*
D03*
D130*
X56350Y140750D02*
D03*
D131*
Y204250D02*
D03*
D133*
X419100Y200660D02*
Y342900D01*
X414020Y195580D02*
X419100Y200660D01*
X383540Y195580D02*
X414020D01*
X373380Y185420D02*
X383540Y195580D01*
X373380Y170180D02*
Y185420D01*
D134*
X967500Y32500D02*
D03*
Y667500D02*
D03*
X32500D02*
D03*
Y32500D02*
D03*
D135*
X970000Y141900D02*
D03*
D136*
Y167300D02*
D03*
Y192700D02*
D03*
Y218100D02*
D03*
D137*
Y428800D02*
D03*
D138*
X59880Y465340D02*
D03*
Y592340D02*
D03*
D139*
X94180Y610140D02*
D03*
Y447540D02*
D03*
D140*
X103080Y564440D02*
D03*
Y544140D02*
D03*
Y523840D02*
D03*
Y503540D02*
D03*
X85280Y554240D02*
D03*
Y533940D02*
D03*
Y513640D02*
D03*
D141*
Y493340D02*
D03*
D142*
X607500Y650000D02*
D03*
X330000Y607500D02*
D03*
Y620000D02*
D03*
X345000Y677500D02*
D03*
X360000Y652500D02*
D03*
Y640000D02*
D03*
X727500Y532500D02*
D03*
X710000Y560000D02*
D03*
X722500Y592500D02*
D03*
X622500Y557500D02*
D03*
X638101Y573508D02*
D03*
X555000Y575000D02*
D03*
X565000Y582500D02*
D03*
X575000Y652500D02*
D03*
X517500Y640000D02*
D03*
X532500Y652500D02*
D03*
X570000Y622500D02*
D03*
X592500Y615000D02*
D03*
X600000Y622500D02*
D03*
X902500Y605000D02*
D03*
X930000D02*
D03*
X907500Y630000D02*
D03*
X895000Y652500D02*
D03*
X775000Y585000D02*
D03*
X752500Y602500D02*
D03*
X745000Y612500D02*
D03*
X755000Y642500D02*
D03*
X735000Y662500D02*
D03*
X915000Y455000D02*
D03*
X622500Y500000D02*
D03*
X607500Y515000D02*
D03*
X542500Y490000D02*
D03*
X562500Y472500D02*
D03*
X572500Y460000D02*
D03*
X582500Y450000D02*
D03*
X560000Y357500D02*
D03*
X555000Y380000D02*
D03*
X752500Y447500D02*
D03*
X760000Y455000D02*
D03*
X767500Y462500D02*
D03*
X792500Y332500D02*
D03*
X785000D02*
D03*
X777500D02*
D03*
X770000D02*
D03*
X835000Y342500D02*
D03*
X927500Y377500D02*
D03*
X957500Y302500D02*
D03*
X820000Y255000D02*
D03*
X835000Y260000D02*
D03*
X737500Y285000D02*
D03*
X752500Y280000D02*
D03*
X782500Y285000D02*
D03*
X750000Y230000D02*
D03*
X767500D02*
D03*
X780000D02*
D03*
X792500D02*
D03*
X907500Y205000D02*
D03*
X872500Y42500D02*
D03*
X882500Y57500D02*
D03*
X840000Y85000D02*
D03*
X837500Y107500D02*
D03*
X842500Y130000D02*
D03*
X690000Y62500D02*
D03*
X750000Y60000D02*
D03*
X722500Y112500D02*
D03*
X670000Y102500D02*
D03*
X115000Y140000D02*
D03*
X100000Y100000D02*
D03*
X65000Y80000D02*
D03*
X60000Y107500D02*
D03*
X565000D02*
D03*
X577500Y135000D02*
D03*
Y160000D02*
D03*
X582500Y277500D02*
D03*
Y295000D02*
D03*
X557500Y207500D02*
D03*
Y232500D02*
D03*
Y250000D02*
D03*
X480000Y222500D02*
D03*
X475000Y275000D02*
D03*
X435000Y282500D02*
D03*
X397500Y290000D02*
D03*
X377500D02*
D03*
X357500D02*
D03*
X260000Y260000D02*
D03*
Y247500D02*
D03*
X372500Y87500D02*
D03*
X325000Y112500D02*
D03*
Y122500D02*
D03*
Y135000D02*
D03*
Y145000D02*
D03*
X312500Y47500D02*
D03*
X292500Y50000D02*
D03*
X240000Y62500D02*
D03*
X272500Y52500D02*
D03*
X257500Y50000D02*
D03*
X225000D02*
D03*
X205000Y55000D02*
D03*
X137500Y37500D02*
D03*
Y47500D02*
D03*
X187500Y100000D02*
D03*
X180000Y105000D02*
D03*
X47500Y380000D02*
D03*
X90000Y372500D02*
D03*
X117500Y370000D02*
D03*
X150000D02*
D03*
X165000Y360000D02*
D03*
X132500D02*
D03*
X102500D02*
D03*
X48260Y281940D02*
D03*
X139700Y182880D02*
D03*
X190500Y185420D02*
D03*
X193040Y322580D02*
D03*
X165100Y302260D02*
D03*
X134620D02*
D03*
X101600D02*
D03*
X358140Y452120D02*
D03*
X876779Y408461D02*
D03*
X876300Y180340D02*
D03*
X688340Y127000D02*
D03*
X505460Y81280D02*
D03*
Y96520D02*
D03*
X500380Y88900D02*
D03*
X508000D02*
D03*
X515620Y83820D02*
D03*
Y93980D02*
D03*
X419100Y342900D02*
D03*
X373380Y170180D02*
D03*
X444500Y365760D02*
D03*
Y355600D02*
D03*
Y345440D02*
D03*
Y335280D02*
D03*
Y325120D02*
D03*
X452120Y320040D02*
D03*
Y330200D02*
D03*
Y340360D02*
D03*
Y350520D02*
D03*
Y360680D02*
D03*
Y370840D02*
D03*
X635000Y314960D02*
D03*
Y325120D02*
D03*
Y335280D02*
D03*
X708660Y60960D02*
D03*
Y45720D02*
D03*
Y53340D02*
D03*
X845820Y317500D02*
D03*
X505460Y396240D02*
D03*
X487680Y360680D02*
D03*
Y378460D02*
D03*
Y393700D02*
D03*
X299720Y624840D02*
D03*
X304800Y629920D02*
D03*
Y678180D02*
D03*
X287020Y650240D02*
D03*
X300000Y434620D02*
D03*
X861060Y368300D02*
D03*
X911860D02*
D03*
X914400Y429260D02*
D03*
X894080Y561340D02*
D03*
X744220Y568960D02*
D03*
X619760Y612140D02*
D03*
X612605Y598975D02*
D03*
X728980Y604520D02*
D03*
X940880Y312520D02*
D03*
X933060Y445380D02*
D03*
X866140Y596900D02*
D03*
X759460Y480990D02*
D03*
X599440Y457200D02*
D03*
X589280Y467360D02*
D03*
X449580Y627380D02*
D03*
Y617220D02*
D03*
X441960Y622300D02*
D03*
X406400D02*
D03*
X398780Y617220D02*
D03*
Y627380D02*
D03*
X551180Y508000D02*
D03*
X761535Y561805D02*
D03*
X581660Y576580D02*
D03*
X347150Y626550D02*
D03*
X718820Y416560D02*
D03*
X655320Y535940D02*
D03*
Y546100D02*
D03*
X886460Y518160D02*
D03*
X734060Y523240D02*
D03*
X726440Y429260D02*
D03*
X407004Y502713D02*
D03*
X431800Y502920D02*
D03*
X406932Y565415D02*
D03*
X432440Y564520D02*
D03*
X824040Y182980D02*
D03*
Y193140D02*
D03*
X831660Y188060D02*
D03*
Y198220D02*
D03*
X760540Y195680D02*
D03*
X792300Y273160D02*
D03*
X691960Y297280D02*
D03*
X712280Y332840D02*
D03*
X699580Y315060D02*
D03*
X805180Y58420D02*
D03*
X797560Y96520D02*
D03*
X679820Y85460D02*
D03*
X810260Y50800D02*
D03*
X800100D02*
D03*
X239616Y97950D02*
D03*
X205740Y132080D02*
D03*
X320040Y345440D02*
D03*
X259080Y210820D02*
D03*
Y203200D02*
D03*
X324040Y244920D02*
D03*
X203200Y200660D02*
D03*
X259080Y312420D02*
D03*
X289560Y307340D02*
D03*
X269240Y320040D02*
D03*
X281940Y302260D02*
D03*
X248920Y304800D02*
D03*
X218440Y375920D02*
D03*
X312420Y373380D02*
D03*
X302306Y209970D02*
D03*
X222230Y209778D02*
D03*
X218440Y307340D02*
D03*
X269240Y190500D02*
D03*
X233680Y309880D02*
D03*
X284763Y185129D02*
D03*
X244704Y187960D02*
D03*
X233116D02*
D03*
X405320Y237300D02*
D03*
X404940Y216980D02*
D03*
X309880Y292100D02*
D03*
Y281940D02*
D03*
D143*
X817880Y53340D02*
X855980D01*
X868680Y66040D01*
Y119380D01*
X891200Y141900D01*
X970000D01*
M02*
