G04*
G04 #@! TF.GenerationSoftware,Altium Limited,Altium Designer,24.1.2 (44)*
G04*
G04 Layer_Color=8388736*
%FSLAX44Y44*%
%MOMM*%
G71*
G04*
G04 #@! TF.SameCoordinates,BB806972-894B-4990-B732-A97902CF1386*
G04*
G04*
G04 #@! TF.FilePolarity,Negative*
G04*
G01*
G75*
%ADD27R,0.7000X0.9000*%
%ADD30R,1.6510X0.7620*%
%ADD32R,0.3000X0.4500*%
%ADD33R,0.4500X0.3000*%
%ADD41R,3.0988X2.5654*%
%ADD69R,0.4500X1.5000*%
%ADD71R,1.3016X0.7016*%
G04:AMPARAMS|DCode=72|XSize=1.5032mm|YSize=1.8032mm|CornerRadius=0.2641mm|HoleSize=0mm|Usage=FLASHONLY|Rotation=270.000|XOffset=0mm|YOffset=0mm|HoleType=Round|Shape=RoundedRectangle|*
%AMROUNDEDRECTD72*
21,1,1.5032,1.2750,0,0,270.0*
21,1,0.9750,1.8032,0,0,270.0*
1,1,0.5282,-0.6375,-0.4875*
1,1,0.5282,-0.6375,0.4875*
1,1,0.5282,0.6375,0.4875*
1,1,0.5282,0.6375,-0.4875*
%
%ADD72ROUNDEDRECTD72*%
%ADD73R,1.1430X0.8636*%
G04:AMPARAMS|DCode=74|XSize=0.69mm|YSize=0.74mm|CornerRadius=0.2004mm|HoleSize=0mm|Usage=FLASHONLY|Rotation=45.000|XOffset=0mm|YOffset=0mm|HoleType=Round|Shape=RoundedRectangle|*
%AMROUNDEDRECTD74*
21,1,0.6900,0.3391,0,0,45.0*
21,1,0.2891,0.7400,0,0,45.0*
1,1,0.4009,0.2221,-0.0177*
1,1,0.4009,0.0177,-0.2221*
1,1,0.4009,-0.2221,0.0177*
1,1,0.4009,-0.0177,0.2221*
%
%ADD74ROUNDEDRECTD74*%
G04:AMPARAMS|DCode=75|XSize=0.6mm|YSize=0.7mm|CornerRadius=0.18mm|HoleSize=0mm|Usage=FLASHONLY|Rotation=225.000|XOffset=0mm|YOffset=0mm|HoleType=Round|Shape=RoundedRectangle|*
%AMROUNDEDRECTD75*
21,1,0.6000,0.3400,0,0,225.0*
21,1,0.2400,0.7000,0,0,225.0*
1,1,0.3600,-0.2051,0.0354*
1,1,0.3600,-0.0354,0.2051*
1,1,0.3600,0.2051,-0.0354*
1,1,0.3600,0.0354,-0.2051*
%
%ADD75ROUNDEDRECTD75*%
G04:AMPARAMS|DCode=76|XSize=1.1732mm|YSize=1.6232mm|CornerRadius=0.3393mm|HoleSize=0mm|Usage=FLASHONLY|Rotation=180.000|XOffset=0mm|YOffset=0mm|HoleType=Round|Shape=RoundedRectangle|*
%AMROUNDEDRECTD76*
21,1,1.1732,0.9447,0,0,180.0*
21,1,0.4947,1.6232,0,0,180.0*
1,1,0.6785,-0.2474,0.4723*
1,1,0.6785,0.2474,0.4723*
1,1,0.6785,0.2474,-0.4723*
1,1,0.6785,-0.2474,-0.4723*
%
%ADD76ROUNDEDRECTD76*%
%ADD77R,3.0132X1.5732*%
%ADD78R,0.9500X1.0000*%
%ADD79R,0.3000X0.7500*%
%ADD80R,1.0000X0.9500*%
%ADD81R,0.7500X0.3000*%
%ADD82R,1.7292X0.9032*%
G04:AMPARAMS|DCode=83|XSize=0.6mm|YSize=0.7mm|CornerRadius=0.18mm|HoleSize=0mm|Usage=FLASHONLY|Rotation=90.000|XOffset=0mm|YOffset=0mm|HoleType=Round|Shape=RoundedRectangle|*
%AMROUNDEDRECTD83*
21,1,0.6000,0.3400,0,0,90.0*
21,1,0.2400,0.7000,0,0,90.0*
1,1,0.3600,0.1700,0.1200*
1,1,0.3600,0.1700,-0.1200*
1,1,0.3600,-0.1700,-0.1200*
1,1,0.3600,-0.1700,0.1200*
%
%ADD83ROUNDEDRECTD83*%
G04:AMPARAMS|DCode=84|XSize=0.69mm|YSize=0.74mm|CornerRadius=0.2004mm|HoleSize=0mm|Usage=FLASHONLY|Rotation=0.000|XOffset=0mm|YOffset=0mm|HoleType=Round|Shape=RoundedRectangle|*
%AMROUNDEDRECTD84*
21,1,0.6900,0.3391,0,0,0.0*
21,1,0.2891,0.7400,0,0,0.0*
1,1,0.4009,0.1446,-0.1696*
1,1,0.4009,-0.1446,-0.1696*
1,1,0.4009,-0.1446,0.1696*
1,1,0.4009,0.1446,0.1696*
%
%ADD84ROUNDEDRECTD84*%
G04:AMPARAMS|DCode=85|XSize=0.6mm|YSize=0.7mm|CornerRadius=0.18mm|HoleSize=0mm|Usage=FLASHONLY|Rotation=0.000|XOffset=0mm|YOffset=0mm|HoleType=Round|Shape=RoundedRectangle|*
%AMROUNDEDRECTD85*
21,1,0.6000,0.3400,0,0,0.0*
21,1,0.2400,0.7000,0,0,0.0*
1,1,0.3600,0.1200,-0.1700*
1,1,0.3600,-0.1200,-0.1700*
1,1,0.3600,-0.1200,0.1700*
1,1,0.3600,0.1200,0.1700*
%
%ADD85ROUNDEDRECTD85*%
%ADD86R,1.7232X3.7132*%
%ADD87R,2.6032X3.5032*%
%ADD88R,1.7032X0.8532*%
G04:AMPARAMS|DCode=89|XSize=0.64mm|YSize=0.7mm|CornerRadius=0.1904mm|HoleSize=0mm|Usage=FLASHONLY|Rotation=180.000|XOffset=0mm|YOffset=0mm|HoleType=Round|Shape=RoundedRectangle|*
%AMROUNDEDRECTD89*
21,1,0.6400,0.3192,0,0,180.0*
21,1,0.2592,0.7000,0,0,180.0*
1,1,0.3808,-0.1296,0.1596*
1,1,0.3808,0.1296,0.1596*
1,1,0.3808,0.1296,-0.1596*
1,1,0.3808,-0.1296,-0.1596*
%
%ADD89ROUNDEDRECTD89*%
%ADD90C,1.2032*%
G04:AMPARAMS|DCode=91|XSize=1.3632mm|YSize=2.0232mm|CornerRadius=0.351mm|HoleSize=0mm|Usage=FLASHONLY|Rotation=270.000|XOffset=0mm|YOffset=0mm|HoleType=Round|Shape=RoundedRectangle|*
%AMROUNDEDRECTD91*
21,1,1.3632,1.3212,0,0,270.0*
21,1,0.6612,2.0232,0,0,270.0*
1,1,0.7020,-0.6606,-0.3306*
1,1,0.7020,-0.6606,0.3306*
1,1,0.7020,0.6606,0.3306*
1,1,0.7020,0.6606,-0.3306*
%
%ADD91ROUNDEDRECTD91*%
G04:AMPARAMS|DCode=92|XSize=0.69mm|YSize=0.74mm|CornerRadius=0.2004mm|HoleSize=0mm|Usage=FLASHONLY|Rotation=90.000|XOffset=0mm|YOffset=0mm|HoleType=Round|Shape=RoundedRectangle|*
%AMROUNDEDRECTD92*
21,1,0.6900,0.3391,0,0,90.0*
21,1,0.2891,0.7400,0,0,90.0*
1,1,0.4009,0.1696,0.1446*
1,1,0.4009,0.1696,-0.1446*
1,1,0.4009,-0.1696,-0.1446*
1,1,0.4009,-0.1696,0.1446*
%
%ADD92ROUNDEDRECTD92*%
G04:AMPARAMS|DCode=93|XSize=0.64mm|YSize=0.7mm|CornerRadius=0.1904mm|HoleSize=0mm|Usage=FLASHONLY|Rotation=270.000|XOffset=0mm|YOffset=0mm|HoleType=Round|Shape=RoundedRectangle|*
%AMROUNDEDRECTD93*
21,1,0.6400,0.3192,0,0,270.0*
21,1,0.2592,0.7000,0,0,270.0*
1,1,0.3808,-0.1596,-0.1296*
1,1,0.3808,-0.1596,0.1296*
1,1,0.3808,0.1596,0.1296*
1,1,0.3808,0.1596,-0.1296*
%
%ADD93ROUNDEDRECTD93*%
%ADD94R,0.9516X0.4016*%
G04:AMPARAMS|DCode=95|XSize=1.3632mm|YSize=1.6732mm|CornerRadius=0.351mm|HoleSize=0mm|Usage=FLASHONLY|Rotation=0.000|XOffset=0mm|YOffset=0mm|HoleType=Round|Shape=RoundedRectangle|*
%AMROUNDEDRECTD95*
21,1,1.3632,0.9712,0,0,0.0*
21,1,0.6612,1.6732,0,0,0.0*
1,1,0.7020,0.3306,-0.4856*
1,1,0.7020,-0.3306,-0.4856*
1,1,0.7020,-0.3306,0.4856*
1,1,0.7020,0.3306,0.4856*
%
%ADD95ROUNDEDRECTD95*%
%ADD96R,1.7032X4.2032*%
%ADD97R,1.1132X1.4232*%
G04:AMPARAMS|DCode=98|XSize=0.334mm|YSize=1.564mm|CornerRadius=0.095mm|HoleSize=0mm|Usage=FLASHONLY|Rotation=225.000|XOffset=0mm|YOffset=0mm|HoleType=Round|Shape=RoundedRectangle|*
%AMROUNDEDRECTD98*
21,1,0.3340,1.3740,0,0,225.0*
21,1,0.1440,1.5640,0,0,225.0*
1,1,0.1900,-0.5367,0.4349*
1,1,0.1900,-0.4349,0.5367*
1,1,0.1900,0.5367,-0.4349*
1,1,0.1900,0.4349,-0.5367*
%
%ADD98ROUNDEDRECTD98*%
G04:AMPARAMS|DCode=99|XSize=0.334mm|YSize=1.564mm|CornerRadius=0.095mm|HoleSize=0mm|Usage=FLASHONLY|Rotation=315.000|XOffset=0mm|YOffset=0mm|HoleType=Round|Shape=RoundedRectangle|*
%AMROUNDEDRECTD99*
21,1,0.3340,1.3740,0,0,315.0*
21,1,0.1440,1.5640,0,0,315.0*
1,1,0.1900,-0.4349,-0.5367*
1,1,0.1900,-0.5367,-0.4349*
1,1,0.1900,0.4349,0.5367*
1,1,0.1900,0.5367,0.4349*
%
%ADD99ROUNDEDRECTD99*%
%ADD100R,1.0032X1.9032*%
%ADD101R,1.0032X1.3032*%
G04:AMPARAMS|DCode=102|XSize=0.69mm|YSize=0.74mm|CornerRadius=0.2004mm|HoleSize=0mm|Usage=FLASHONLY|Rotation=135.000|XOffset=0mm|YOffset=0mm|HoleType=Round|Shape=RoundedRectangle|*
%AMROUNDEDRECTD102*
21,1,0.6900,0.3391,0,0,135.0*
21,1,0.2891,0.7400,0,0,135.0*
1,1,0.4009,0.0177,0.2221*
1,1,0.4009,0.2221,0.0177*
1,1,0.4009,-0.0177,-0.2221*
1,1,0.4009,-0.2221,-0.0177*
%
%ADD102ROUNDEDRECTD102*%
%ADD103R,1.5032X1.3032*%
G04:AMPARAMS|DCode=104|XSize=1.3032mm|YSize=2.1032mm|CornerRadius=0mm|HoleSize=0mm|Usage=FLASHONLY|Rotation=315.000|XOffset=0mm|YOffset=0mm|HoleType=Round|Shape=Rectangle|*
%AMROTATEDRECTD104*
4,1,4,-1.2044,-0.2828,0.2828,1.2044,1.2044,0.2828,-0.2828,-1.2044,-1.2044,-0.2828,0.0*
%
%ADD104ROTATEDRECTD104*%

%ADD105R,1.9000X1.2500*%
%ADD106R,2.6000X3.9000*%
%ADD107R,2.4000X3.5000*%
%ADD108R,2.4000X8.0000*%
%ADD109R,1.2500X1.9000*%
%ADD110R,1.2954X1.2192*%
G04:AMPARAMS|DCode=111|XSize=1.3632mm|YSize=1.6732mm|CornerRadius=0.351mm|HoleSize=0mm|Usage=FLASHONLY|Rotation=270.000|XOffset=0mm|YOffset=0mm|HoleType=Round|Shape=RoundedRectangle|*
%AMROUNDEDRECTD111*
21,1,1.3632,0.9712,0,0,270.0*
21,1,0.6612,1.6732,0,0,270.0*
1,1,0.7020,-0.4856,-0.3306*
1,1,0.7020,-0.4856,0.3306*
1,1,0.7020,0.4856,0.3306*
1,1,0.7020,0.4856,-0.3306*
%
%ADD111ROUNDEDRECTD111*%
%ADD112R,2.5532X3.6932*%
%ADD113R,0.5016X0.4816*%
G04:AMPARAMS|DCode=114|XSize=1.4532mm|YSize=1.3632mm|CornerRadius=0.2466mm|HoleSize=0mm|Usage=FLASHONLY|Rotation=90.000|XOffset=0mm|YOffset=0mm|HoleType=Round|Shape=RoundedRectangle|*
%AMROUNDEDRECTD114*
21,1,1.4532,0.8700,0,0,90.0*
21,1,0.9600,1.3632,0,0,90.0*
1,1,0.4932,0.4350,0.4800*
1,1,0.4932,0.4350,-0.4800*
1,1,0.4932,-0.4350,-0.4800*
1,1,0.4932,-0.4350,0.4800*
%
%ADD114ROUNDEDRECTD114*%
%ADD115R,1.8032X3.4032*%
%ADD116R,9.7000X3.4000*%
%ADD117R,1.2192X1.2954*%
%ADD118C,1.5000*%
%ADD119C,5.7032*%
%ADD120R,1.9812X1.9812*%
%ADD121C,1.9812*%
%ADD122O,1.5240X1.0160*%
%ADD123R,1.5240X1.0160*%
%ADD124C,1.7032*%
%ADD125R,1.7032X1.7032*%
%ADD126C,3.4532*%
%ADD127C,2.5582*%
%ADD128C,1.6012*%
%ADD129R,1.6012X1.6012*%
%ADD130C,2.7300*%
%ADD131R,2.7300X2.7300*%
G36*
X331830Y332020D02*
X327830D01*
Y337520D01*
X331830D01*
Y332020D01*
D02*
G37*
G36*
X325330D02*
X321330D01*
Y337520D01*
X325330D01*
Y332020D01*
D02*
G37*
G36*
X318830D02*
X314830D01*
Y337520D01*
X318830D01*
Y332020D01*
D02*
G37*
G36*
X218950Y332020D02*
X214950D01*
Y337520D01*
X218950D01*
Y332020D01*
D02*
G37*
G36*
X212450D02*
X208450D01*
Y337520D01*
X212450D01*
Y332020D01*
D02*
G37*
G36*
X205950D02*
X201950D01*
Y337520D01*
X205950D01*
Y332020D01*
D02*
G37*
G36*
X301390Y329520D02*
X295890D01*
Y333520D01*
X301390D01*
Y329520D01*
D02*
G37*
G36*
X281890D02*
X276390D01*
Y333520D01*
X281890D01*
Y329520D01*
D02*
G37*
G36*
X258210D02*
X252710D01*
Y333520D01*
X258210D01*
Y329520D01*
D02*
G37*
G36*
X238710D02*
X233210D01*
Y333520D01*
X238710D01*
Y329520D01*
D02*
G37*
G36*
X301390Y323020D02*
X295890D01*
Y327020D01*
X301390D01*
Y323020D01*
D02*
G37*
G36*
X294390D02*
X283390D01*
Y333520D01*
X294390D01*
Y323020D01*
D02*
G37*
G36*
X281890D02*
X276390D01*
Y327020D01*
X281890D01*
Y323020D01*
D02*
G37*
G36*
X258210D02*
X252710D01*
Y327020D01*
X258210D01*
Y323020D01*
D02*
G37*
G36*
X251210D02*
X240210D01*
Y333520D01*
X251210D01*
Y323020D01*
D02*
G37*
G36*
X238710D02*
X233210D01*
Y327020D01*
X238710D01*
Y323020D01*
D02*
G37*
G36*
X218950Y321720D02*
X214950D01*
Y330220D01*
X218950D01*
Y321720D01*
D02*
G37*
G36*
X318830Y319820D02*
X314830D01*
Y328320D01*
X318830D01*
Y319820D01*
D02*
G37*
G36*
X331830Y319520D02*
X321330D01*
Y330520D01*
X331830D01*
Y319520D01*
D02*
G37*
G36*
X212450Y319520D02*
X201950D01*
Y330520D01*
X212450D01*
Y319520D01*
D02*
G37*
G36*
X301390Y316520D02*
X295890D01*
Y320520D01*
X301390D01*
Y316520D01*
D02*
G37*
G36*
X294090D02*
X285590D01*
Y320520D01*
X294090D01*
Y316520D01*
D02*
G37*
G36*
X281890D02*
X276390D01*
Y320520D01*
X281890D01*
Y316520D01*
D02*
G37*
G36*
X258210D02*
X252710D01*
Y320520D01*
X258210D01*
Y316520D01*
D02*
G37*
G36*
X250910D02*
X242410D01*
Y320520D01*
X250910D01*
Y316520D01*
D02*
G37*
G36*
X238710D02*
X233210D01*
Y320520D01*
X238710D01*
Y316520D01*
D02*
G37*
G36*
X331830Y312520D02*
X327830D01*
Y318020D01*
X331830D01*
Y312520D01*
D02*
G37*
G36*
X325330D02*
X321330D01*
Y318020D01*
X325330D01*
Y312520D01*
D02*
G37*
G36*
X318830D02*
X314830D01*
Y318020D01*
X318830D01*
Y312520D01*
D02*
G37*
G36*
X218950Y312520D02*
X214950D01*
Y318020D01*
X218950D01*
Y312520D01*
D02*
G37*
G36*
X212450D02*
X208450D01*
Y318020D01*
X212450D01*
Y312520D01*
D02*
G37*
G36*
X205950D02*
X201950D01*
Y318020D01*
X205950D01*
Y312520D01*
D02*
G37*
G36*
X313160Y160600D02*
X307660D01*
Y176600D01*
X313160D01*
Y160600D01*
D02*
G37*
G36*
X306660D02*
X301160D01*
Y176600D01*
X306660D01*
Y160600D01*
D02*
G37*
G36*
X300160D02*
X294660D01*
Y176600D01*
X300160D01*
Y160600D01*
D02*
G37*
G36*
X293660D02*
X288160D01*
Y176600D01*
X293660D01*
Y160600D01*
D02*
G37*
G36*
X287160D02*
X281660D01*
Y176600D01*
X287160D01*
Y160600D01*
D02*
G37*
G36*
X280660D02*
X275160D01*
Y176600D01*
X280660D01*
Y160600D01*
D02*
G37*
G36*
X274160D02*
X268660D01*
Y176600D01*
X274160D01*
Y160600D01*
D02*
G37*
G36*
X267660D02*
X262160D01*
Y176600D01*
X267660D01*
Y160600D01*
D02*
G37*
G36*
X261160D02*
X255660D01*
Y176600D01*
X261160D01*
Y160600D01*
D02*
G37*
G36*
X254660D02*
X249160D01*
Y176600D01*
X254660D01*
Y160600D01*
D02*
G37*
G36*
X248160D02*
X242660D01*
Y176600D01*
X248160D01*
Y160600D01*
D02*
G37*
G36*
X241660D02*
X236160D01*
Y176600D01*
X241660D01*
Y160600D01*
D02*
G37*
G36*
X235160D02*
X229660D01*
Y176600D01*
X235160D01*
Y160600D01*
D02*
G37*
G36*
X228660D02*
X223160D01*
Y176600D01*
X228660D01*
Y160600D01*
D02*
G37*
G36*
X294060Y124100D02*
X242260D01*
Y155100D01*
X294060D01*
Y124100D01*
D02*
G37*
G36*
X313160Y102600D02*
X307660D01*
Y118600D01*
X313160D01*
Y102600D01*
D02*
G37*
G36*
X306660D02*
X301160D01*
Y118600D01*
X306660D01*
Y102600D01*
D02*
G37*
G36*
X300160D02*
X294660D01*
Y118600D01*
X300160D01*
Y102600D01*
D02*
G37*
G36*
X293660D02*
X288160D01*
Y118600D01*
X293660D01*
Y102600D01*
D02*
G37*
G36*
X287160D02*
X281660D01*
Y118600D01*
X287160D01*
Y102600D01*
D02*
G37*
G36*
X280660D02*
X275160D01*
Y118600D01*
X280660D01*
Y102600D01*
D02*
G37*
G36*
X274160D02*
X268660D01*
Y118600D01*
X274160D01*
Y102600D01*
D02*
G37*
G36*
X267660D02*
X262160D01*
Y118600D01*
X267660D01*
Y102600D01*
D02*
G37*
G36*
X261160D02*
X255660D01*
Y118600D01*
X261160D01*
Y102600D01*
D02*
G37*
G36*
X254660D02*
X249160D01*
Y118600D01*
X254660D01*
Y102600D01*
D02*
G37*
G36*
X248160D02*
X242660D01*
Y118600D01*
X248160D01*
Y102600D01*
D02*
G37*
G36*
X241660D02*
X236160D01*
Y118600D01*
X241660D01*
Y102600D01*
D02*
G37*
G36*
X235160D02*
X229660D01*
Y118600D01*
X235160D01*
Y102600D01*
D02*
G37*
G36*
X228660D02*
X223160D01*
Y118600D01*
X228660D01*
Y102600D01*
D02*
G37*
D27*
X431180Y622300D02*
D03*
X417180D02*
D03*
D30*
X282575Y499750D02*
D03*
Y487050D02*
D03*
Y512450D02*
D03*
Y525150D02*
D03*
Y563250D02*
D03*
Y550550D02*
D03*
Y575950D02*
D03*
Y537850D02*
D03*
X367665Y487050D02*
D03*
Y512450D02*
D03*
Y499750D02*
D03*
Y525150D02*
D03*
Y537850D02*
D03*
Y575950D02*
D03*
Y563250D02*
D03*
Y550550D02*
D03*
D32*
X210450Y334770D02*
D03*
X203950D02*
D03*
X216950D02*
D03*
X210450Y315270D02*
D03*
X216950D02*
D03*
X203950D02*
D03*
X329830Y334770D02*
D03*
X316830D02*
D03*
X323330D02*
D03*
X316830Y315270D02*
D03*
X329830D02*
D03*
X323330D02*
D03*
D33*
X255460Y325020D02*
D03*
Y331520D02*
D03*
Y318520D02*
D03*
X235960Y325020D02*
D03*
Y318520D02*
D03*
Y331520D02*
D03*
X279140D02*
D03*
Y318520D02*
D03*
Y325020D02*
D03*
X298640Y318520D02*
D03*
Y331520D02*
D03*
Y325020D02*
D03*
D41*
X703580Y201168D02*
D03*
Y251460D02*
D03*
D69*
X225910Y110600D02*
D03*
X232410D02*
D03*
X238910D02*
D03*
X245410D02*
D03*
X251910D02*
D03*
X258410D02*
D03*
X264910D02*
D03*
X271410D02*
D03*
X277910D02*
D03*
X284410D02*
D03*
X290910D02*
D03*
X297410D02*
D03*
X303910D02*
D03*
X310410D02*
D03*
Y168600D02*
D03*
X303910D02*
D03*
X297410D02*
D03*
X290910D02*
D03*
X284410D02*
D03*
X277910D02*
D03*
X271410D02*
D03*
X264910D02*
D03*
X258410D02*
D03*
X251910D02*
D03*
X245410D02*
D03*
X238910D02*
D03*
X232410D02*
D03*
X225910D02*
D03*
D71*
X462581Y555020D02*
D03*
Y564520D02*
D03*
Y574020D02*
D03*
X436579D02*
D03*
Y555020D02*
D03*
Y493420D02*
D03*
Y512420D02*
D03*
X462581D02*
D03*
Y502920D02*
D03*
Y493420D02*
D03*
D72*
X279400Y208810D02*
D03*
Y243310D02*
D03*
D73*
X259080Y219812D02*
D03*
Y234036D02*
D03*
X204660Y66448D02*
D03*
Y80672D02*
D03*
X222440Y219812D02*
D03*
Y234036D02*
D03*
X270700Y63908D02*
D03*
Y78132D02*
D03*
X302260Y219812D02*
D03*
Y234036D02*
D03*
X255460Y63908D02*
D03*
Y78132D02*
D03*
X358040Y220028D02*
D03*
Y234252D02*
D03*
D74*
X584200Y472440D02*
D03*
X578190Y466430D02*
D03*
X556725Y500845D02*
D03*
X550715Y494835D02*
D03*
X767545Y577045D02*
D03*
X761535Y571035D02*
D03*
X739605Y604985D02*
D03*
X733595Y598975D02*
D03*
X588350Y456270D02*
D03*
X594360Y462280D02*
D03*
X747225Y597365D02*
D03*
X741215Y591355D02*
D03*
X747225Y635465D02*
D03*
X741215Y629455D02*
D03*
X726905Y655785D02*
D03*
X720895Y649775D02*
D03*
D75*
X568318Y476878D02*
D03*
X574682Y483242D02*
D03*
D76*
X106680Y43180D02*
D03*
X125280D02*
D03*
X884780D02*
D03*
X903380D02*
D03*
X930500Y617220D02*
D03*
X949100D02*
D03*
D77*
X103060Y315900D02*
D03*
Y344300D02*
D03*
X136080Y315900D02*
D03*
Y344300D02*
D03*
X170000Y315800D02*
D03*
Y344200D02*
D03*
X425640Y298120D02*
D03*
Y326520D02*
D03*
D78*
X207200Y325020D02*
D03*
X326580Y325020D02*
D03*
D79*
X216950Y325970D02*
D03*
X316830Y324070D02*
D03*
D80*
X245710Y328270D02*
D03*
X288890D02*
D03*
D81*
X246660Y318520D02*
D03*
X289840D02*
D03*
D82*
X186240Y484510D02*
D03*
Y509910D02*
D03*
Y522610D02*
D03*
Y497210D02*
D03*
X240480Y484510D02*
D03*
Y522610D02*
D03*
Y497210D02*
D03*
Y509910D02*
D03*
X186240Y540390D02*
D03*
Y565790D02*
D03*
Y578490D02*
D03*
Y553090D02*
D03*
X240480Y540390D02*
D03*
Y578490D02*
D03*
Y553090D02*
D03*
Y565790D02*
D03*
D83*
X401320Y498480D02*
D03*
Y489480D02*
D03*
Y515680D02*
D03*
Y506680D02*
D03*
Y561400D02*
D03*
Y552400D02*
D03*
Y578600D02*
D03*
Y569600D02*
D03*
X835660Y307920D02*
D03*
Y316920D02*
D03*
X800100Y273160D02*
D03*
Y264160D02*
D03*
X810260D02*
D03*
Y273160D02*
D03*
X835660Y289560D02*
D03*
Y298560D02*
D03*
X820420Y264160D02*
D03*
Y273160D02*
D03*
X932340Y196960D02*
D03*
Y187960D02*
D03*
X919640Y197540D02*
D03*
Y188540D02*
D03*
X906940D02*
D03*
Y197540D02*
D03*
X698980Y79620D02*
D03*
Y70620D02*
D03*
X185420Y128960D02*
D03*
Y119960D02*
D03*
X311340Y64780D02*
D03*
Y55780D02*
D03*
X627500Y660000D02*
D03*
Y651000D02*
D03*
X637500D02*
D03*
Y660000D02*
D03*
D84*
X420810Y498480D02*
D03*
X412310D02*
D03*
Y508640D02*
D03*
X420810D02*
D03*
X338650Y607700D02*
D03*
X347150D02*
D03*
Y617860D02*
D03*
X338650D02*
D03*
X420810Y559440D02*
D03*
X412310D02*
D03*
Y569600D02*
D03*
X420810D02*
D03*
X338650Y455300D02*
D03*
X347150D02*
D03*
Y445140D02*
D03*
X338650D02*
D03*
X309050Y617860D02*
D03*
X300550D02*
D03*
X309050Y445140D02*
D03*
X300550D02*
D03*
X920310Y368300D02*
D03*
X928810D02*
D03*
X958460Y312420D02*
D03*
X949960D02*
D03*
X715100Y120840D02*
D03*
X706600D02*
D03*
X924560Y454660D02*
D03*
X933060D02*
D03*
X894320Y604520D02*
D03*
X885820D02*
D03*
X552010Y655320D02*
D03*
X560510D02*
D03*
D85*
X309100Y608062D02*
D03*
X300100D02*
D03*
X309100Y455662D02*
D03*
X300100D02*
D03*
X920060Y355600D02*
D03*
X929060D02*
D03*
X924720Y165100D02*
D03*
X933720D02*
D03*
X679820Y77660D02*
D03*
X688820D02*
D03*
X688240Y103060D02*
D03*
X679240D02*
D03*
X925140Y429260D02*
D03*
X934140D02*
D03*
X875080Y604520D02*
D03*
X866080D02*
D03*
X885880Y591820D02*
D03*
X876880D02*
D03*
D86*
X345540Y652780D02*
D03*
X304700D02*
D03*
D87*
X779780Y307340D02*
D03*
D88*
X806780Y326390D02*
D03*
Y313690D02*
D03*
Y300990D02*
D03*
Y288290D02*
D03*
X752780D02*
D03*
Y300990D02*
D03*
Y313690D02*
D03*
Y326390D02*
D03*
D89*
X719600Y332740D02*
D03*
X728200D02*
D03*
D90*
X824040Y208380D02*
D03*
X612140Y403860D02*
D03*
X594360Y419100D02*
D03*
D91*
X723900Y284970D02*
D03*
Y314470D02*
D03*
D92*
X754380Y220150D02*
D03*
Y211650D02*
D03*
X767080Y220150D02*
D03*
Y211650D02*
D03*
X779780Y220150D02*
D03*
Y211650D02*
D03*
X792480Y220150D02*
D03*
Y211650D02*
D03*
X835660Y333620D02*
D03*
Y325120D02*
D03*
X518160Y629920D02*
D03*
Y621420D02*
D03*
X617500Y659550D02*
D03*
Y651050D02*
D03*
D93*
X835660Y270020D02*
D03*
Y278620D02*
D03*
X311340Y74340D02*
D03*
Y82940D02*
D03*
D94*
X719680Y95520D02*
D03*
Y100520D02*
D03*
Y105520D02*
D03*
X703680D02*
D03*
Y100520D02*
D03*
Y95520D02*
D03*
D95*
X737730Y55880D02*
D03*
X720230D02*
D03*
X824190Y105980D02*
D03*
X806690D02*
D03*
X824190Y85660D02*
D03*
X806690D02*
D03*
D96*
X744000Y109220D02*
D03*
X780000D02*
D03*
D97*
X803480Y128840D02*
D03*
X832480D02*
D03*
D98*
X740640Y504072D02*
D03*
X734983Y498415D02*
D03*
X737812Y501243D02*
D03*
X749125Y512557D02*
D03*
X743468Y506900D02*
D03*
X746297Y509729D02*
D03*
X723669Y487101D02*
D03*
X718012Y481444D02*
D03*
X720841Y484273D02*
D03*
X732155Y495587D02*
D03*
X726498Y489930D02*
D03*
X729326Y492758D02*
D03*
X703870Y467302D02*
D03*
X698214Y461645D02*
D03*
X701042Y464474D02*
D03*
X712356Y475788D02*
D03*
X715184Y478616D02*
D03*
X706699Y470131D02*
D03*
X709527Y472959D02*
D03*
X686900Y450332D02*
D03*
X689728Y453160D02*
D03*
X681243Y444675D02*
D03*
X684071Y447503D02*
D03*
X692557Y455989D02*
D03*
X695385Y458817D02*
D03*
X643483Y595572D02*
D03*
X646312Y598400D02*
D03*
X654797Y606885D02*
D03*
X649140Y601228D02*
D03*
X651969Y604057D02*
D03*
X632170Y584258D02*
D03*
X634998Y587086D02*
D03*
X626513Y578601D02*
D03*
X629341Y581429D02*
D03*
X637826Y589915D02*
D03*
X640655Y592743D02*
D03*
X612371Y564459D02*
D03*
X606714Y558802D02*
D03*
X609542Y561630D02*
D03*
X620856Y572944D02*
D03*
X623684Y575772D02*
D03*
X615199Y567287D02*
D03*
X618028Y570116D02*
D03*
X592572Y544660D02*
D03*
X595400Y547488D02*
D03*
X586915Y539003D02*
D03*
X589743Y541831D02*
D03*
X601057Y553145D02*
D03*
X603885Y555974D02*
D03*
X598228Y550317D02*
D03*
D99*
X726498Y561630D02*
D03*
X723669Y564459D02*
D03*
X732155Y555974D02*
D03*
X729326Y558802D02*
D03*
X746297Y541831D02*
D03*
X743468Y544660D02*
D03*
X749125Y539003D02*
D03*
X737812Y550317D02*
D03*
X734983Y553145D02*
D03*
X740640Y547488D02*
D03*
X629341Y470131D02*
D03*
X626513Y472959D02*
D03*
X634998Y464474D02*
D03*
X632170Y467302D02*
D03*
X651969Y447503D02*
D03*
X649140Y450332D02*
D03*
X654797Y444675D02*
D03*
X640655Y458817D02*
D03*
X637826Y461645D02*
D03*
X646312Y453160D02*
D03*
X643483Y455989D02*
D03*
X692557Y595572D02*
D03*
X698214Y589915D02*
D03*
X695385Y592743D02*
D03*
X684071Y604057D02*
D03*
X681243Y606885D02*
D03*
X689728Y598400D02*
D03*
X686900Y601228D02*
D03*
X715184Y572944D02*
D03*
X712356Y575772D02*
D03*
X720841Y567287D02*
D03*
X718012Y570116D02*
D03*
X703870Y584258D02*
D03*
X701042Y587086D02*
D03*
X709527Y578601D02*
D03*
X706699Y581429D02*
D03*
X595400Y504072D02*
D03*
X601057Y498415D02*
D03*
X598228Y501243D02*
D03*
X589743Y509729D02*
D03*
X586915Y512557D02*
D03*
X592572Y506900D02*
D03*
X618028Y481444D02*
D03*
X615199Y484273D02*
D03*
X623684Y475788D02*
D03*
X620856Y478616D02*
D03*
X606714Y492758D02*
D03*
X603885Y495587D02*
D03*
X612371Y487101D02*
D03*
X609542Y489930D02*
D03*
D100*
X863740Y629920D02*
D03*
X897740D02*
D03*
D101*
X880740Y646420D02*
D03*
D102*
X570570Y574970D02*
D03*
X576580Y568960D02*
D03*
X562950Y567350D02*
D03*
X568960Y561340D02*
D03*
X738675Y460205D02*
D03*
X744685Y454195D02*
D03*
X752305Y461815D02*
D03*
X746295Y467825D02*
D03*
X759925Y469435D02*
D03*
X753915Y475445D02*
D03*
X598975Y604985D02*
D03*
X604985Y598975D02*
D03*
X606595Y612605D02*
D03*
X612605Y606595D02*
D03*
D103*
X534600Y638920D02*
D03*
X557600D02*
D03*
X534600Y620920D02*
D03*
X557600D02*
D03*
D104*
X709981Y636219D02*
D03*
X727659Y618541D02*
D03*
D105*
X504380Y358040D02*
D03*
Y328540D02*
D03*
X546100Y328540D02*
D03*
Y358040D02*
D03*
X266700Y301770D02*
D03*
Y272270D02*
D03*
D106*
X506820Y147400D02*
D03*
Y284400D02*
D03*
X549820Y147400D02*
D03*
Y284400D02*
D03*
D107*
X477320Y248400D02*
D03*
D108*
X579320Y225900D02*
D03*
D109*
X516110Y109220D02*
D03*
X545610D02*
D03*
X508980Y378460D02*
D03*
X538480D02*
D03*
D110*
X372300Y154840D02*
D03*
Y138076D02*
D03*
Y119280D02*
D03*
Y102516D02*
D03*
X158940Y121820D02*
D03*
Y105056D02*
D03*
X203200Y160782D02*
D03*
Y144018D02*
D03*
X324040Y235306D02*
D03*
Y218542D02*
D03*
X224980Y79402D02*
D03*
Y62638D02*
D03*
D111*
X357060Y302450D02*
D03*
Y319950D02*
D03*
X377380Y302450D02*
D03*
Y319950D02*
D03*
X397700Y302450D02*
D03*
Y319950D02*
D03*
X242760Y235674D02*
D03*
Y218174D02*
D03*
X293560Y61140D02*
D03*
Y78640D02*
D03*
D112*
X295120Y378360D02*
D03*
X236120D02*
D03*
D113*
X185420Y147860D02*
D03*
Y142240D02*
D03*
X240220Y81450D02*
D03*
Y75830D02*
D03*
D114*
X158940Y149700D02*
D03*
Y180300D02*
D03*
X203200Y241360D02*
D03*
Y210760D02*
D03*
D115*
X50000Y355000D02*
D03*
Y305000D02*
D03*
D116*
X268160Y139600D02*
D03*
D117*
X377598Y216980D02*
D03*
X394362D02*
D03*
X377598Y237300D02*
D03*
X394362D02*
D03*
D118*
X885000Y15000D02*
D03*
X115000Y685000D02*
D03*
Y15000D02*
D03*
X500000D02*
D03*
X885000Y685000D02*
D03*
X500000D02*
D03*
D119*
X967500Y32500D02*
D03*
Y667500D02*
D03*
X32500D02*
D03*
Y32500D02*
D03*
D120*
X970000Y141900D02*
D03*
D121*
Y167300D02*
D03*
Y192700D02*
D03*
Y218100D02*
D03*
D122*
X968820Y368400D02*
D03*
Y355700D02*
D03*
D123*
Y343000D02*
D03*
D124*
X970000Y479600D02*
D03*
Y454200D02*
D03*
Y555800D02*
D03*
Y505000D02*
D03*
Y530400D02*
D03*
D125*
Y428800D02*
D03*
D126*
X59880Y465340D02*
D03*
Y592340D02*
D03*
D127*
X94180Y610140D02*
D03*
Y447540D02*
D03*
D128*
X103080Y564440D02*
D03*
Y544140D02*
D03*
Y523840D02*
D03*
Y503540D02*
D03*
X85280Y554240D02*
D03*
Y533940D02*
D03*
Y513640D02*
D03*
D129*
Y493340D02*
D03*
D130*
X56350Y140750D02*
D03*
D131*
Y204250D02*
D03*
M02*
